<svg width="20" height="20" viewBox="0 0 20 20" fill="none" xmlns="http://www.w3.org/2000/svg">
<path d="M15.3033 4.6967C18.2322 7.62563 18.2322 12.3744 15.3033 15.3033C12.3743 18.2322 7.62562 18.2322 4.6967 15.3033C1.76777 12.3743 1.76777 7.62562 4.6967 4.6967C7.62563 1.76777 12.3744 1.76777 15.3033 4.6967" stroke="#0065FF" stroke-width="1.2" stroke-linecap="round" stroke-linejoin="round"/>
<path d="M14.4231 16.0475C14.1031 14.5142 12.2548 13.3334 10.0006 13.3334C7.74646 13.3334 5.89813 14.5142 5.57812 16.0475" stroke="#0065FF" stroke-width="1.2" stroke-linecap="round" stroke-linejoin="round"/>
<path d="M11.7678 6.56561C12.7441 7.54191 12.7441 9.12483 11.7678 10.1011C10.7915 11.0774 9.20854 11.0774 8.23223 10.1011C7.25592 9.12483 7.25592 7.54191 8.23223 6.56561C9.20854 5.5893 10.7915 5.5893 11.7678 6.56561Z" stroke="#0065FF" stroke-width="1.2" stroke-linecap="round" stroke-linejoin="round"/>
</svg>
