<svg width="48" height="48" viewBox="0 0 48 48" stroke="#000" fill="none" xmlns="http://www.w3.org/2000/svg">
<path d="M20 42H10C7.79 42 6 40.21 6 38V28C6 25.79 7.79 24 10 24H20C22.21 24 24 25.79 24 28V38C24 40.21 22.21 42 20 42Z" fill="transparent" stroke-width="1.6" stroke-linecap="round" stroke-linejoin="round"/>
<path d="M26 14H34V22" stroke-width="1.6" stroke-linecap="round" stroke-linejoin="round"/>
<path d="M22.8199 25.18L33.9999 14" stroke-width="1.6" stroke-linecap="round" stroke-linejoin="round"/>
<path d="M32 42H38C40.21 42 42 40.21 42 38V10C42 7.79 40.21 6 38 6H10C7.79 6 6 7.79 6 10V16" fill="transparent" stroke-width="1.6" stroke-linecap="round" stroke-linejoin="round"/>
</svg>
