<svg width="18" height="18" viewBox="0 0 18 18" fill="none" xmlns="http://www.w3.org/2000/svg">
<path d="M11.5716 14.44C11.5716 15.8539 10.4203 17 9.00014 17C7.57998 17 6.42871 15.8539 6.42871 14.44H11.5716Z" stroke="#808080" stroke-width="1.6"/>
<path d="M4.44195 6.84348L3.65724 6.68783L3.64971 6.72575L3.64588 6.76422L4.44195 6.84348ZM13.5578 6.84348H14.3578V6.7649L14.3425 6.68783L13.5578 6.84348ZM10.7402 3.0986H9.94017V3.62327L10.4214 3.83234L10.7402 3.0986ZM7.25957 3.09859L7.57836 3.83233L8.05957 3.62326V3.09859H7.25957ZM13.5578 10.3496H12.7578V10.5984L12.8989 10.8033L13.5578 10.3496ZM4.09289 10.3496L4.79182 10.7388L4.87252 10.5939L4.88895 10.4288L4.09289 10.3496ZM15.1701 12.6905L14.5113 13.1443L15.1701 12.6905ZM2.7522 12.7571L2.05327 12.3678L2.7522 12.7571ZM3.51279 15.24H14.487V13.64H3.51279V15.24ZM14.487 15.24C15.0288 15.24 15.4989 15.0177 15.8162 14.6262C16.118 14.2539 16.2346 13.7894 16.2282 13.3532L14.6284 13.3764C14.6306 13.5271 14.5884 13.6001 14.5733 13.6187C14.5674 13.626 14.5642 13.6277 14.5611 13.6291C14.5576 13.6307 14.5368 13.64 14.487 13.64V15.24ZM1.7782 13.2066C1.74326 13.6656 1.83898 14.1614 2.1354 14.5639C2.4492 14.9901 2.93816 15.24 3.51279 15.24V13.64C3.46048 13.64 3.44003 13.6298 3.4378 13.6287C3.43567 13.6276 3.43152 13.6257 3.42382 13.6153C3.40433 13.5888 3.36063 13.4982 3.37359 13.328L1.7782 13.2066ZM8.05957 2.75304C8.05957 2.22118 8.48605 1.8 8.99987 1.8V0.2C7.59141 0.2 6.45957 1.34855 6.45957 2.75304H8.05957ZM8.99987 1.8C9.51369 1.8 9.94017 2.22118 9.94017 2.75304H11.5402C11.5402 1.34855 10.4083 0.2 8.99987 0.2V1.8ZM10.4214 3.83234C11.3235 4.22427 11.9148 4.98354 12.2899 5.70857C12.4747 6.06584 12.5978 6.39752 12.6742 6.63857C12.7121 6.7585 12.738 6.85434 12.7539 6.9176C12.7618 6.94918 12.7672 6.9725 12.7703 6.98648C12.7719 6.99347 12.7728 6.99811 12.7733 7.00026C12.7735 7.00134 12.7736 7.0018 12.7736 7.00161C12.7736 7.00152 12.7735 7.00127 12.7734 7.00086C12.7734 7.00065 12.7733 7.00041 12.7733 7.00012C12.7733 6.99997 12.7732 6.99973 12.7732 6.99965C12.7731 6.9994 12.7731 6.99913 13.5578 6.84348C14.3425 6.68783 14.3425 6.68754 14.3424 6.68724C14.3424 6.68713 14.3423 6.68682 14.3423 6.68659C14.3422 6.68613 14.3421 6.68563 14.342 6.68509C14.3417 6.68401 14.3415 6.68276 14.3412 6.68134C14.3406 6.67849 14.3399 6.67498 14.339 6.67081C14.3373 6.66247 14.3349 6.6515 14.3319 6.63804C14.3259 6.61113 14.3173 6.57422 14.3058 6.52845C14.2829 6.43701 14.2483 6.30964 14.1995 6.15555C14.1023 5.84856 13.9467 5.42898 13.7109 4.97333C13.2449 4.07253 12.4273 2.95936 11.059 2.36486L10.4214 3.83234ZM11.5402 3.0986V2.75304H9.94017V3.0986H11.5402ZM4.44195 6.84348C5.22666 6.99913 5.22661 6.9994 5.22656 6.99965C5.22654 6.99973 5.22649 6.99997 5.22646 7.00012C5.22641 7.0004 5.22636 7.00065 5.22631 7.00086C5.22623 7.00127 5.22618 7.00152 5.22616 7.00161C5.22612 7.0018 5.22622 7.00134 5.22644 7.00026C5.2269 6.99811 5.22789 6.99347 5.22945 6.98648C5.23257 6.9725 5.23795 6.94918 5.24587 6.9176C5.26173 6.85433 5.28761 6.7585 5.32559 6.63857C5.40192 6.39751 5.52502 6.06584 5.70986 5.70857C6.08499 4.98353 6.67625 4.22426 7.57836 3.83233L6.94079 2.36485C5.57242 2.95935 4.75487 4.07253 4.2888 4.97332C4.05305 5.42897 3.89745 5.84856 3.80024 6.15554C3.75145 6.30964 3.71684 6.43701 3.69391 6.52845C3.68244 6.57422 3.67385 6.61113 3.66785 6.63804C3.66484 6.6515 3.66248 6.66247 3.66073 6.67081C3.65985 6.67498 3.65912 6.6785 3.65854 6.68134C3.65825 6.68276 3.658 6.68401 3.65778 6.68509C3.65767 6.68563 3.65757 6.68613 3.65748 6.68659C3.65744 6.68682 3.65737 6.68713 3.65735 6.68724C3.65729 6.68754 3.65724 6.68783 4.44195 6.84348ZM8.05957 3.09859V2.75304H6.45957V3.09859H8.05957ZM15.829 12.2367L14.2166 9.89578L12.8989 10.8033L14.5113 13.1443L15.829 12.2367ZM14.3578 10.3496V6.84348H12.7578V10.3496H14.3578ZM3.45114 13.1463L4.79182 10.7388L3.39396 9.96034L2.05327 12.3678L3.45114 13.1463ZM4.88895 10.4288L5.23801 6.92273L3.64588 6.76422L3.29682 10.2703L4.88895 10.4288ZM16.2282 13.3532C16.2212 12.8686 15.9974 12.4813 15.829 12.2367L14.5113 13.1443C14.5621 13.218 14.5932 13.2745 14.6112 13.3178C14.6197 13.3384 14.624 13.3532 14.6262 13.3627C14.6283 13.3719 14.6284 13.3761 14.6284 13.3764L16.2282 13.3532ZM3.37359 13.328C3.37371 13.3264 3.37508 13.3119 3.38679 13.2801C3.39889 13.2472 3.41879 13.2044 3.45114 13.1463L2.05327 12.3678C1.94506 12.5621 1.80512 12.8529 1.7782 13.2066L3.37359 13.328Z" fill="#808080"/>
<path d="M16.8477 6.81652C17.4493 4.42036 15.9451 2.02424 13.8392 1.42522" stroke="#808080" stroke-width="1.6" stroke-linecap="round"/>
<path d="M1.15231 6.81652C0.550657 4.42036 2.05492 2.02424 4.16081 1.42522" stroke="#808080" stroke-width="1.6" stroke-linecap="round"/>
</svg>
