<svg width="20" height="20" viewBox="0 0 20 20" fill="none" xmlns="http://www.w3.org/2000/svg">
<path fill-rule="evenodd" clip-rule="evenodd" d="M14.1063 17.6917C14.7704 17.7313 15.3217 17.5552 15.7731 17.1036L17.6811 15.195C17.6929 15.1833 17.6963 15.1723 17.6971 15.1659L14.9701 12.4382C14.9637 12.4389 14.9528 12.4423 14.941 12.4541L13.033 14.3627C12.9106 14.4851 12.7444 14.5538 12.5712 14.5535L12.5725 13.902C12.5712 14.5535 12.5693 14.5535 12.5693 14.5535L12.5674 14.5535L12.5635 14.5534L12.5555 14.5533L12.5386 14.5526C12.527 14.5521 12.5147 14.5512 12.5016 14.55C12.4754 14.5476 12.4462 14.5438 12.4139 14.538C12.3493 14.5266 12.2718 14.5076 12.1798 14.477C11.9967 14.4162 11.7516 14.3082 11.4303 14.1173C10.7903 13.7372 9.81911 13.0109 8.39749 11.6136C6.97303 10.2134 6.24165 9.23728 5.86409 8.5831C5.67446 8.25454 5.56988 7.99998 5.51326 7.80753C5.48486 7.71097 5.46831 7.62929 5.45937 7.56127C5.45489 7.52726 5.45233 7.4967 5.45113 7.46946C5.45054 7.45584 5.45028 7.44308 5.4503 7.43114C5.45031 7.42518 5.45039 7.41942 5.45053 7.41388L5.45078 7.40572L5.45094 7.40176L5.45102 7.39981C5.45102 7.39981 5.45111 7.39788 6.10166 7.42935L5.45111 7.39788C5.45893 7.23617 5.52667 7.08316 5.64112 6.96868L7.54911 5.06015C7.56089 5.04836 7.56431 5.03745 7.56505 5.03103L4.83808 2.30329C4.83166 2.30403 4.82075 2.30745 4.80897 2.31924L2.90096 4.22779C2.44792 4.68095 2.27055 5.23155 2.30721 5.89177C2.34518 6.5756 2.61535 7.36948 3.07019 8.22753C3.97912 9.94222 5.52595 11.7306 6.88761 13.0927C8.2408 14.4462 10.0349 15.9998 11.7577 16.917C12.6199 17.3761 13.4186 17.6508 14.1063 17.6917ZM6.83158 7.62058L8.4702 5.9815C8.97038 5.48118 9.02191 4.64559 8.49273 4.11626L5.75259 1.37535C5.22341 0.846017 4.38805 0.897569 3.88788 1.39788L1.97986 3.30644C1.22523 4.06128 0.952696 4.99347 1.00659 5.96403C1.05917 6.911 1.42 7.89592 1.91934 8.83792C2.91876 10.7233 4.57292 12.62 5.96652 14.014C7.35208 15.4 9.25364 17.0599 11.1456 18.0672C12.0908 18.5704 13.0793 18.9359 14.0288 18.9924C15.0019 19.0504 15.938 18.7814 16.6942 18.0249L18.6022 16.1164C19.1024 15.6161 19.1539 14.7805 18.6248 14.2511L15.8846 11.5102C15.3554 10.9809 14.5201 11.0325 14.0199 11.5328L12.3943 13.1588C12.3151 13.1209 12.2161 13.0686 12.0955 12.997C11.576 12.6885 10.688 12.0382 9.31049 10.6842C7.93581 9.33299 7.29103 8.44939 6.99221 7.93164C6.91892 7.80466 6.86751 7.70151 6.83158 7.62058Z" fill="#808080" stroke="#808080" stroke-width="0.4" stroke-linecap="round" stroke-linejoin="round"/>
</svg>
