<svg width="16" height="16" viewBox="0 0 16 16" fill="none" xmlns="http://www.w3.org/2000/svg">
<path d="M7.23736 8.76268C6.45736 7.98268 5.86936 7.10935 5.47869 6.22335C5.39603 6.03602 5.44469 5.81668 5.58936 5.67202L6.13536 5.12668C6.58269 4.67935 6.58269 4.04668 6.19203 3.65602L5.40936 2.87335C4.88869 2.35268 4.04469 2.35268 3.52403 2.87335L3.08936 3.30802C2.59536 3.80202 2.38936 4.51468 2.52269 5.22135C2.85203 6.96335 3.86403 8.87068 5.49669 10.5033C7.12936 12.136 9.03669 13.148 10.7787 13.4773C11.4854 13.6107 12.198 13.4047 12.692 12.9107L13.126 12.4767C13.6467 11.956 13.6467 11.112 13.126 10.5913L12.344 9.80935C11.9534 9.41868 11.32 9.41868 10.93 9.80935L10.328 10.412C10.1834 10.5567 9.96403 10.6053 9.77669 10.5227C8.89069 10.1313 8.01736 9.54268 7.23736 8.76268V8.76268Z" stroke-width="1.2" stroke-linecap="round" stroke-linejoin="round"/>
</svg>
