<svg width="47" height="47" viewBox="0 0 47 47" fill="none" xmlns="http://www.w3.org/2000/svg">
<path fill-rule="evenodd" clip-rule="evenodd" d="M39.1667 23.6313H7.83341C5.66946 23.6313 3.91675 25.3841 3.91675 27.548V33.2918C3.91675 34.3728 4.79408 35.2501 5.87508 35.2501H41.1251C42.2061 35.2501 43.0834 34.3728 43.0834 33.2918V27.548C43.0834 25.3841 41.3307 23.6313 39.1667 23.6313Z" fill="none" stroke-width="1.6" stroke-linecap="round" stroke-linejoin="round"/>
<path d="M6.85425 23.7546V23.6312V23.6312C6.85425 20.3138 9.54304 17.625 12.8605 17.625H17.4292C20.2414 17.625 22.5209 19.9045 22.5209 22.7167V23.6312" fill="none" stroke-width="1.6" stroke-linecap="round" stroke-linejoin="round"/>
<path d="M22.521 23.6312V23.6312C22.521 20.3138 25.2098 17.625 28.5272 17.625H34.1417C37.4592 17.625 40.148 20.3138 40.148 23.6312V23.6312V23.7546" fill="none" stroke-width="1.6" stroke-linecap="round" stroke-linejoin="round"/>
<path d="M7.8335 20.3472V13.7085C7.8335 10.4635 10.4635 7.8335 13.7085 7.8335H33.2918C36.5368 7.8335 39.1668 10.4635 39.1668 13.7085V20.3472" fill="none" stroke-width="1.6" stroke-linecap="round" stroke-linejoin="round"/>
<path d="M41.1252 35.25V39.1667" fill="none" stroke-width="1.6" stroke-linecap="round" stroke-linejoin="round"/>
<path d="M5.87516 35.25V39.1667" fill="none" stroke-width="1.6" stroke-linecap="round" stroke-linejoin="round"/>
</svg>
