<svg width="48" height="48" viewBox="0 0 48 48" fill="none" xmlns="http://www.w3.org/2000/svg">
<path d="M29.9691 36.0401C27.9974 36.0401 26.3935 34.4354 26.3935 32.4629C26.3935 30.4917 27.9975 28.888 29.9691 28.888C31.9419 28.888 33.5469 30.4917 33.5469 32.4629C33.5468 34.4354 31.9419 36.0401 29.9691 36.0401ZM29.9691 30.0597C28.6437 30.0597 27.5653 31.1378 27.5653 32.4629C27.5653 33.7892 28.6436 34.8682 29.9691 34.8682C31.2957 34.8682 32.375 33.7891 32.375 32.4629C32.375 31.1378 31.2957 30.0597 29.9691 30.0597Z" stroke="none"/>
<path d="M43.3983 24.6263C42.8601 23.7086 42.0274 23.035 41.0338 22.7038L41.0322 22.7016V20.644C41.0322 19.2293 40.0244 18.0455 38.6888 17.7726L38.687 17.7704V13.9729C38.687 13.043 37.9313 12.2865 37.0027 12.2865H30.649C29.7204 12.2865 28.9647 13.043 28.9647 13.9729V17.711L28.9624 17.7133H26.4362L26.4339 17.711V11.894L26.4354 11.8918C27.2296 11.6199 27.8003 10.8612 27.789 9.9728C27.7751 8.8714 26.8458 8 25.7443 8H22.5346C21.4327 8 20.5031 8.87203 20.4898 9.97382C20.479 10.8626 21.0505 11.6214 21.8455 11.8926L21.8471 11.8948V16.4682C21.8471 16.769 22.063 17.0389 22.3617 17.0741C22.7173 17.1161 23.019 16.8395 23.019 16.4924V12.0017L23.0213 11.9994H25.2596L25.2619 12.0017V17.711L25.2596 17.7133H23.0213L23.019 17.711V16.2201C23.019 15.9193 22.803 15.6494 22.5044 15.6142C22.1488 15.5722 21.8471 15.8488 21.8471 16.1959V17.6946L21.8442 17.6968C21.2107 17.5489 20.5759 17.5058 19.9582 17.5578L19.9565 17.5572L15.3579 13.6479C14.9132 13.2705 14.7536 13.2094 14.194 13.2118L6.10513 13.212C4.89092 13.212 3.9135 14.2441 4.00608 15.4761C4.08912 16.581 5.04185 17.4194 6.14997 17.4194H13.163C13.1785 17.4194 13.1929 17.4195 13.2061 17.4196C13.2645 17.4201 13.3205 17.4407 13.365 17.4784L13.3661 17.4793L15.8813 19.6152L15.8816 19.6185C15.2786 20.3066 14.8215 21.14 14.5757 22.0838C14.3092 23.1071 14.3124 24.176 14.5657 25.1868L8.44379 27.9227C8.23286 28.017 8.097 28.2266 8.097 28.4577V32.1021C8.097 32.4257 8.35926 32.688 8.68293 32.688C9.0066 32.688 9.26887 32.4257 9.26887 32.1021V28.8376L14.9571 26.2955C15.0753 26.5513 15.2094 26.8008 15.3627 27.0406C16.2117 28.3683 17.4934 29.2462 18.9718 29.5125L21.0946 29.8955C20.8582 30.7109 20.7311 31.5723 20.7311 32.463C20.7311 33.4832 21.5612 34.3132 22.5816 34.3132C22.8996 34.3132 23.1992 34.2325 23.4609 34.0905C24.1904 37.0053 26.8312 39.171 29.9693 39.171C33.1075 39.171 35.7483 37.0053 36.4778 34.0905C36.7395 34.2325 37.039 34.3132 37.3571 34.3132C38.1399 34.3132 38.8102 33.8244 39.0802 33.1364L39.9695 33.2963C40.1463 33.3285 40.3171 33.3443 40.4813 33.3443C41.3877 33.3442 42.0862 32.8622 42.3976 31.9946L43.8437 27.9673C43.8487 27.9511 43.8537 27.9349 43.8587 27.9187C44.1504 26.7995 43.9869 25.6302 43.3983 24.6263ZM30.1366 13.9728C30.1366 13.6891 30.3664 13.4583 30.649 13.4583H37.0027C37.2852 13.4583 37.5151 13.6891 37.5151 13.9728V14.9986L37.5127 15.0009H33.4503C33.1496 15.0009 32.8797 15.2168 32.8444 15.5154C32.8024 15.871 33.0789 16.1728 33.4261 16.1728H37.5127L37.5151 16.1751V17.7108L37.5127 17.7132H30.1389L30.1366 17.7108V13.9728ZM22.4884 10.8274C22.0279 10.8274 21.654 10.448 21.6616 9.98468C21.669 9.52851 22.0616 9.17179 22.518 9.17179H25.7609C26.2172 9.17179 26.6098 9.52851 26.6172 9.98468C26.6248 10.448 26.2509 10.8274 25.7904 10.8274H22.4884ZM10.4843 16.2475H6.13263C5.67216 16.2475 5.25959 15.9258 5.18474 15.4715C5.08881 14.8893 5.53888 14.3839 6.10505 14.3839L10.4842 14.3837L10.4843 16.2475ZM14.1239 16.5856C13.7802 16.2945 13.5591 16.2475 13.1629 16.2475H11.656V14.3836L14.1992 14.3836H14.2015C14.3374 14.383 14.4692 14.4312 14.5731 14.5188C14.5832 14.5274 18.5027 17.8593 18.5027 17.8593L18.502 17.8633C17.8679 18.0803 17.274 18.4003 16.7445 18.8085L16.7415 18.8084L14.1239 16.5856ZM29.9693 37.999C26.916 37.999 24.4319 35.5155 24.4319 32.4629C24.4319 29.4103 26.916 26.9268 29.9693 26.9268C33.0225 26.9268 35.5066 29.4103 35.5066 32.4629C35.5066 35.5156 33.0225 37.999 29.9693 37.999ZM37.357 33.1412C36.9828 33.1412 36.6785 32.8369 36.6785 32.4629C36.6785 28.7641 33.6688 25.7549 29.9693 25.7549C26.2697 25.7549 23.2601 28.7641 23.2601 32.4629C23.2601 32.8369 22.9557 33.1412 22.5815 33.1412C22.2073 33.1412 21.9029 32.8369 21.9029 32.4629C21.9029 28.0161 25.5215 24.3983 29.9693 24.3983C34.4171 24.3983 38.0356 28.0161 38.0356 32.4629C38.0356 32.8369 37.7312 33.1412 37.357 33.1412ZM42.7313 27.5967L41.2944 31.5986C41.2321 31.7722 41.0428 32.3003 40.178 32.1431L39.194 31.9662C38.9349 27.1032 34.8965 23.2264 29.9692 23.2264C26.1848 23.2264 22.9252 25.5135 21.4991 28.7777L19.1796 28.3592C18.0259 28.1514 17.0209 27.4589 16.3498 26.4093C15.5979 25.2334 15.3586 23.7268 15.7096 22.3792C16.3919 19.7598 19.0794 18.1839 21.7007 18.8663L31.9253 21.5299C32.2787 21.6219 32.6414 21.3707 32.6592 20.9832C32.672 20.705 32.4717 20.4612 32.2021 20.391L26.4397 18.8899C26.437 18.8892 26.4375 18.8852 26.4403 18.8852H29.5507H38.0987C39.0716 18.8852 39.8603 19.6739 39.8603 20.6468V22.3837L39.8573 22.386L31.9253 20.3189C31.5891 20.2314 31.2459 20.4537 31.1968 20.8082C31.1555 21.1061 31.3622 21.3832 31.6533 21.459L40.4559 23.7527C41.2713 23.9649 41.9573 24.4857 42.3873 25.2191C42.8131 25.9451 42.9349 26.7884 42.7313 27.5967Z" stroke="none"/>
</svg>
