<svg width="18" height="18" viewBox="0 0 18 18" fill="none" xmlns="http://www.w3.org/2000/svg">
<path d="M14.9333 7.47148C14.2665 4.83373 11.8838 2.87848 9.03904 2.87848C8.27854 2.87848 7.55405 3.02398 6.88354 3.27898" stroke-width="1.2" stroke-linecap="round" stroke-linejoin="round"/>
<path d="M4.79855 4.60724C2.8478 6.50399 2.3453 9.54449 3.76805 12.0082C4.1483 12.6667 4.63655 13.221 5.1923 13.6747" stroke-width="1.2" stroke-linecap="round" stroke-linejoin="round"/>
<path d="M8.21478 4.26676L6.56628 3.04351L8.21478 1.54651" stroke-width="1.2" stroke-linecap="round" stroke-linejoin="round"/>
<path d="M5.382 12.0285L5.14725 14.0678L3.02625 13.389" stroke-width="1.2" stroke-linecap="round" stroke-linejoin="round"/>
<path d="M13.5211 10.6005L15.4044 9.78448L15.8769 11.961" stroke-width="1.2" stroke-linecap="round" stroke-linejoin="round"/>
<path d="M7.38611 14.817C10.0044 15.5588 12.8881 14.4728 14.3109 12.009C14.6911 11.3505 14.9274 10.6508 15.0421 9.94202" stroke-width="1.2" stroke-linecap="round" stroke-linejoin="round"/>
</svg>