<svg width="18" height="14" viewBox="0 0 18 14" fill="none" xmlns="http://www.w3.org/2000/svg">
    <path d="M2.25 3.25H1.5" stroke="#404040" stroke-width="1.2" stroke-linecap="round" stroke-linejoin="round"/>
    <path d="M3 1H1.5" stroke="#404040" stroke-width="1.2" stroke-linecap="round" stroke-linejoin="round"/>
    <path d="M12.75 13H2.25" stroke="#404040" stroke-width="1.2" stroke-linecap="round" stroke-linejoin="round"/>
    <path d="M12.9563 1L12.2168 3.46525C12.1216 3.7825 11.8291 4 11.4983 4H9.16432C8.66182 4 8.30182 3.5155 8.44582 3.03475L9.05632 1" stroke="#404040" stroke-width="1.2" stroke-linecap="round" stroke-linejoin="round"/>
    <path d="M6 7.75H7.5975" stroke="#404040" stroke-width="1.2" stroke-linecap="round" stroke-linejoin="round"/>
    <path d="M13.0785 10H5.13754C3.93154 10 3.06679 8.8375 3.41329 7.6825L5.03329 2.2825C5.26204 1.52125 5.96254 1 6.75754 1H14.6993C15.9053 1 16.77 2.1625 16.4235 3.3175L14.8035 8.7175C14.5748 9.47875 13.8735 10 13.0785 10Z" stroke="#404040" stroke-width="1.2" stroke-linecap="round" stroke-linejoin="round"/>
</svg>