<svg width="48" height="48" viewBox="0 0 48 48" stroke="#000" fill="none" xmlns="http://www.w3.org/2000/svg">
<path d="M15.918 19.334L24 24L32.082 19.334" fill="transparent" stroke-width="1.6" stroke-linecap="round" stroke-linejoin="round"/>
<path d="M24 24V33.34" stroke-width="1.6" stroke-linecap="round" stroke-linejoin="round"/>
<path fill-rule="evenodd" clip-rule="evenodd" d="M32.33 27.742V20.26C32.33 19.598 31.978 18.988 31.404 18.656L24.924 14.914C24.352 14.584 23.646 14.584 23.072 14.914L16.592 18.656C16.02 18.986 15.666 19.598 15.666 20.26V27.742C15.666 28.404 16.018 29.014 16.592 29.346L23.072 33.088C23.644 33.418 24.35 33.418 24.924 33.088L31.404 29.346C31.978 29.014 32.33 28.402 32.33 27.742Z" fill="transparent" stroke-width="1.6" stroke-linecap="round" stroke-linejoin="round"/>
<path d="M41.4721 9.07397V15.074H35.4721H41.4721" stroke-width="1.6" stroke-linecap="round" stroke-linejoin="round"/>
<path d="M40.396 15.074C37.23 9.27198 31.076 5.33398 24 5.33398C13.69 5.33398 5.33398 13.692 5.33398 24C5.33398 34.308 13.69 42.666 24 42.666C34.31 42.666 42.666 34.308 42.666 24" fill="transparent" stroke-width="1.6" stroke-linecap="round" stroke-linejoin="round"/>
</svg>
