<svg width="49" height="48" viewBox="0 0 49 48" fill="none" xmlns="http://www.w3.org/2000/svg">
<path fill-rule="evenodd" clip-rule="evenodd" d="M40.5732 13.2004L33.9732 19.8004L37.5732 37.6004C37.7732 38.2004 37.5732 39.0004 36.9732 39.4004L35.5732 40.8004C34.5732 41.8004 32.7732 41.4004 32.3732 40.2004L27.1732 26.8004L20.3732 33.6004L20.7732 38.0004C20.7732 38.6004 20.5732 39.2004 20.1732 39.6004L17.9732 41.8004L13.7732 34.8004L6.77319 30.6004L8.77319 28.0004C9.17319 27.6004 9.77319 27.4004 10.3732 27.4004L14.7732 27.8004L21.5732 21.0004L7.97319 15.8004C6.77319 15.2004 6.37319 13.6004 7.37319 12.6004L8.77319 11.2004C9.17319 10.8004 9.97319 10.6004 10.5732 10.6004L28.3732 14.2004L34.9732 7.60039C36.5732 6.00039 38.9732 6.00039 40.5732 7.60039V7.60039C42.1732 9.20039 42.1732 11.6004 40.5732 13.2004V13.2004Z" fill="none" stroke-width="1.5" stroke-linecap="round" stroke-linejoin="round"/>
</svg>
