<svg width="49" height="48" viewBox="0 0 49 48" fill="none" xmlns="http://www.w3.org/2000/svg">
<path d="M38.5658 42.579H9.86724C9.37234 42.579 8.89771 42.3825 8.54777 42.0325C8.19782 41.6826 8.00122 41.2079 8.00122 40.713V34.9311C8.00122 33.8817 8.41809 32.8753 9.16014 32.1332C9.90218 31.3912 10.9086 30.9743 11.958 30.9743H36.4751C37.5245 30.9743 38.5309 31.3912 39.2729 32.1332C40.015 32.8753 40.4318 33.8817 40.4318 34.9311V40.713C40.4318 41.2079 40.2352 41.6826 39.8853 42.0325C39.5353 42.3825 39.0607 42.579 38.5658 42.579V42.579ZM11.958 32.3364C11.2704 32.3382 10.6115 32.6121 10.1252 33.0983C9.63903 33.5845 9.36508 34.2435 9.36328 34.9311V40.713C9.36328 40.8467 9.41638 40.9749 9.51089 41.0694C9.6054 41.1639 9.73358 41.217 9.86724 41.217H38.5658C38.6995 41.217 38.8277 41.1639 38.9222 41.0694C39.0167 40.9749 39.0698 40.8467 39.0698 40.713V34.9311C39.068 34.2435 38.794 33.5845 38.3078 33.0983C37.8216 32.6121 37.1627 32.3382 36.4751 32.3364H11.958Z" stroke="none"/>
<path d="M35.6307 46.1273H31.8373C31.4616 46.1273 31.1013 45.9781 30.8357 45.7124C30.57 45.4468 30.4208 45.0865 30.4208 44.7108V41.8981C30.4208 41.7175 30.4925 41.5443 30.6202 41.4166C30.748 41.2889 30.9212 41.2171 31.1018 41.2171H36.3662C36.5468 41.2171 36.72 41.2889 36.8477 41.4166C36.9754 41.5443 37.0472 41.7175 37.0472 41.8981V44.7108C37.0472 45.0865 36.898 45.4468 36.6323 45.7124C36.3666 45.9781 36.0063 46.1273 35.6307 46.1273V46.1273ZM31.7828 42.5792V44.7108C31.7828 44.7252 31.7886 44.7391 31.7988 44.7493C31.809 44.7595 31.8229 44.7653 31.8373 44.7653H35.6307C35.6446 44.7638 35.6576 44.7576 35.6675 44.7477C35.6774 44.7377 35.6837 44.7247 35.6851 44.7108V42.5792H31.7828Z" stroke="none"/>
<path d="M16.6499 46.1273H12.8566C12.4809 46.1273 12.1206 45.9781 11.855 45.7124C11.5893 45.4468 11.4401 45.0865 11.4401 44.7108V41.8981C11.4401 41.7175 11.5118 41.5443 11.6395 41.4166C11.7673 41.2889 11.9405 41.2171 12.1211 41.2171H17.4059C17.5865 41.2171 17.7597 41.2889 17.8874 41.4166C18.0152 41.5443 18.0869 41.7175 18.0869 41.8981V44.7108C18.0869 44.8985 18.0496 45.0844 17.9772 45.2576C17.9047 45.4308 17.7985 45.5879 17.6648 45.7197C17.5311 45.8515 17.3725 45.9554 17.1983 46.0254C17.0241 46.0954 16.8377 46.13 16.6499 46.1273V46.1273ZM12.8021 42.5792V44.7108C12.8036 44.7247 12.8098 44.7377 12.8197 44.7477C12.8296 44.7576 12.8427 44.7638 12.8566 44.7653H16.6499C16.6644 44.7653 16.6782 44.7595 16.6885 44.7493C16.6987 44.7391 16.7044 44.7252 16.7044 44.7108V42.5792H12.8021Z" stroke="none"/>
<path d="M33.9412 39.065C33.401 39.0718 32.871 38.9178 32.4185 38.6226C31.9661 38.3274 31.6117 37.9043 31.4003 37.4072C31.1888 36.9101 31.13 36.3613 31.2312 35.8306C31.3325 35.3 31.5892 34.8114 31.9688 34.427C32.3484 34.0426 32.8337 33.7798 33.363 33.6719C33.8923 33.564 34.4418 33.6159 34.9416 33.8211C35.4413 34.0262 35.8688 34.3753 36.1697 34.824C36.4705 35.2727 36.6312 35.8007 36.6312 36.3409C36.6357 36.697 36.5695 37.0505 36.4363 37.3808C36.3031 37.7111 36.1057 38.0117 35.8555 38.2651C35.6052 38.5185 35.3071 38.7197 34.9785 38.8571C34.6499 38.9944 34.2973 39.0651 33.9412 39.065V39.065ZM33.9412 35.047C33.6704 35.0402 33.4038 35.1143 33.1754 35.2598C32.947 35.4053 32.7671 35.6155 32.6588 35.8637C32.5504 36.112 32.5186 36.3868 32.5672 36.6532C32.6158 36.9197 32.7428 37.1655 32.9319 37.3594C33.1209 37.5534 33.3635 37.6865 33.6286 37.7419C33.8937 37.7972 34.1693 37.7723 34.4202 37.6703C34.671 37.5683 34.8858 37.3938 35.037 37.1692C35.1883 36.9445 35.2691 36.6798 35.2692 36.409C35.2693 36.0536 35.1305 35.7122 34.8823 35.4577C34.6342 35.2033 34.2965 35.0558 33.9412 35.047V35.047Z" stroke="none"/>
<path d="M14.4909 38.9493C13.9818 38.9493 13.4841 38.7983 13.0607 38.5155C12.6374 38.2326 12.3074 37.8305 12.1126 37.3602C11.9177 36.8898 11.8668 36.3722 11.9661 35.8728C12.0654 35.3734 12.3106 34.9147 12.6706 34.5547C13.0306 34.1947 13.4893 33.9495 13.9887 33.8502C14.4881 33.7509 15.0057 33.8018 15.4761 33.9967C15.9464 34.1915 16.3485 34.5215 16.6314 34.9448C16.9142 35.3682 17.0652 35.8659 17.0652 36.375C17.0634 37.0572 16.7916 37.7109 16.3092 38.1933C15.8268 38.6757 15.1731 38.9475 14.4909 38.9493V38.9493ZM14.4909 35.1628C14.2512 35.1628 14.0168 35.2339 13.8174 35.3671C13.6181 35.5003 13.4627 35.6896 13.371 35.9111C13.2792 36.1326 13.2552 36.3764 13.302 36.6115C13.3488 36.8467 13.4642 37.0627 13.6337 37.2322C13.8033 37.4017 14.0193 37.5172 14.2544 37.564C14.4896 37.6107 14.7333 37.5867 14.9548 37.495C15.1763 37.4032 15.3657 37.2478 15.4989 37.0485C15.6321 36.8491 15.7032 36.6148 15.7032 36.375C15.7014 36.0541 15.5731 35.7468 15.3461 35.5198C15.1192 35.2929 14.8119 35.1646 14.4909 35.1628V35.1628Z" stroke="none"/>
<path d="M28.0982 38.4996H20.1301C19.96 38.4989 19.7925 38.4572 19.6418 38.3782C19.4911 38.2992 19.3615 38.1852 19.2641 38.0457C19.1666 37.9062 19.1041 37.7453 19.0818 37.5766C19.0595 37.4079 19.078 37.2363 19.1358 37.0763L19.8782 35.0332C19.9554 34.8323 20.0918 34.6597 20.2694 34.5381C20.4469 34.4165 20.6572 34.3516 20.8725 34.3522H27.3286C27.5438 34.3516 27.7541 34.4165 27.9317 34.5381C28.1092 34.6597 28.2457 34.8323 28.3229 35.0332L29.0652 37.0763C29.1294 37.2324 29.1555 37.4015 29.1413 37.5697C29.127 37.7379 29.073 37.9002 28.9835 38.0434C28.8853 38.1868 28.753 38.3037 28.5985 38.3833C28.4439 38.463 28.272 38.5029 28.0982 38.4996V38.4996ZM20.6069 37.1376H27.6623L27.1447 35.7142H21.1108L20.6069 37.1376Z" stroke="none"/>
<path d="M37.7348 32.5816C37.5784 32.5858 37.4252 32.5359 37.3012 32.4404C37.1771 32.3449 37.0898 32.2095 37.0538 32.0572L35.1129 23.8099C35.0138 23.3821 34.7741 23 34.432 22.7246C34.09 22.4493 33.6655 22.2967 33.2264 22.2912H15.22C14.7783 22.2924 14.35 22.4432 14.0049 22.719C13.6599 22.9948 13.4184 23.3793 13.3199 23.8099L11.3722 32.0572C11.3316 32.2333 11.2226 32.386 11.0694 32.4818C10.9161 32.5776 10.7311 32.6086 10.555 32.568C10.3789 32.5273 10.2261 32.4184 10.1303 32.2651C10.0345 32.1119 10.0035 31.9268 10.0442 31.7507L11.9579 23.4966C12.126 22.7602 12.5416 22.1036 13.1352 21.6364C13.7288 21.1692 14.4646 20.9196 15.22 20.9292H33.2264C33.9798 20.9255 34.7119 21.1785 35.3023 21.6464C35.8928 22.1142 36.3063 22.7692 36.4749 23.5035L38.4023 31.7507C38.4432 31.9259 38.4132 32.1101 38.3188 32.2632C38.2244 32.4164 38.0732 32.5259 37.8983 32.568C37.8447 32.5798 37.7897 32.5844 37.7348 32.5816V32.5816Z" stroke="none"/>
<path d="M38.0892 32.4523H37.3469C37.1663 32.4523 36.9931 32.3805 36.8654 32.2528C36.7376 32.1251 36.6659 31.9519 36.6659 31.7713C36.6659 31.5906 36.7376 31.4174 36.8654 31.2897C36.9931 31.162 37.1663 31.0902 37.3469 31.0902H38.0892C38.4824 31.0884 38.859 30.9315 39.1371 30.6534C39.4151 30.3754 39.5721 29.9988 39.5739 29.6056C39.5739 29.425 39.6456 29.2517 39.7734 29.124C39.9011 28.9963 40.0743 28.9246 40.2549 28.9246C40.4355 28.9246 40.6088 28.9963 40.7365 29.124C40.8642 29.2517 40.936 29.425 40.936 29.6056C40.936 30.3606 40.636 31.0847 40.1022 31.6185C39.5683 32.1524 38.8442 32.4523 38.0892 32.4523Z" stroke="none"/>
<path d="M11.0863 32.4523H10.344C9.58902 32.4523 8.86495 32.1524 8.33109 31.6185C7.79723 31.0847 7.49731 30.3606 7.49731 29.6056C7.49731 29.425 7.56907 29.2517 7.69678 29.124C7.8245 28.9963 7.99772 28.9246 8.17834 28.9246C8.35896 28.9246 8.53219 28.9963 8.6599 29.124C8.78762 29.2517 8.85937 29.425 8.85937 29.6056C8.86116 29.9988 9.01816 30.3754 9.29619 30.6534C9.57423 30.9315 9.95082 31.0884 10.344 31.0902H11.0863C11.267 31.0902 11.4402 31.162 11.5679 31.2897C11.6956 31.4174 11.7674 31.5906 11.7674 31.7713C11.7674 31.9519 11.6956 32.1251 11.5679 32.2528C11.4402 32.3805 11.267 32.4523 11.0863 32.4523Z" stroke="none"/>
<path d="M28.7858 10.6937H19.6464C19.4657 10.6937 19.2925 10.6219 19.1648 10.4942C19.0371 10.3665 18.9653 10.1933 18.9653 10.0126C18.9658 9.27166 19.124 8.53929 19.4293 7.86413C19.7346 7.18898 20.18 6.5865 20.736 6.09671V4.85724C20.7324 4.39821 20.8216 3.94319 20.9984 3.51953C21.1751 3.09586 21.4356 2.71231 21.7644 2.39191C22.0849 2.06761 22.4667 1.81029 22.8876 1.63492C23.3085 1.45954 23.7601 1.36961 24.2161 1.37037C25.1415 1.37036 26.0291 1.73751 26.6841 2.39123C27.3391 3.04495 27.708 3.93184 27.7098 4.85724V6.13757C28.2625 6.62735 28.7046 7.22934 29.0064 7.90341C29.3082 8.57748 29.4628 9.30814 29.46 10.0467C29.4513 10.2202 29.3767 10.3838 29.2514 10.504C29.126 10.6243 28.9595 10.6921 28.7858 10.6937ZM20.3887 9.3316H28.0435C27.8797 8.39061 27.3695 7.54507 26.6133 6.96162C26.5321 6.89748 26.4666 6.8157 26.4218 6.72248C26.377 6.62926 26.3539 6.52705 26.3545 6.4236V4.85724C26.3542 4.43681 26.2292 4.02593 25.9952 3.67659C25.7613 3.32725 25.429 3.05516 25.0404 2.89475C24.6518 2.73434 24.2243 2.69283 23.8121 2.77547C23.3998 2.8581 23.0214 3.06117 22.7246 3.35897C22.5233 3.55261 22.3638 3.78548 22.2561 4.04318C22.1483 4.30088 22.0945 4.57794 22.0981 4.85724V6.41679C22.0978 6.5208 22.0738 6.62337 22.0277 6.71663C21.9817 6.80989 21.9149 6.89136 21.8325 6.95481C21.0727 7.54026 20.5581 8.38752 20.3887 9.3316V9.3316Z" stroke="none"/>
<path d="M30.3455 14.991C30.1648 14.991 29.9916 14.9192 29.8639 14.7915C29.7362 14.6638 29.6644 14.4906 29.6644 14.3099V13.6289C29.6644 13.4483 29.7362 13.2751 29.8639 13.1473C29.9916 13.0196 30.1648 12.9479 30.3455 12.9479C30.5261 12.9479 30.6993 13.0196 30.827 13.1473C30.9547 13.2751 31.0265 13.4483 31.0265 13.6289V14.3099C31.0265 14.4906 30.9547 14.6638 30.827 14.7915C30.6993 14.9192 30.5261 14.991 30.3455 14.991Z" stroke="none"/>
<path d="M30.3455 18.2122C30.1648 18.2122 29.9916 18.1405 29.8639 18.0127C29.7362 17.885 29.6644 17.7118 29.6644 17.5312V16.8502C29.6644 16.6695 29.7362 16.4963 29.8639 16.3686C29.9916 16.2409 30.1648 16.1691 30.3455 16.1691C30.5261 16.1691 30.6993 16.2409 30.827 16.3686C30.9547 16.4963 31.0265 16.6695 31.0265 16.8502V17.5312C31.0265 17.7118 30.9547 17.885 30.827 18.0127C30.6993 18.1405 30.5261 18.2122 30.3455 18.2122Z" stroke="none"/>
<path d="M26.2596 14.991C26.079 14.991 25.9058 14.9192 25.7781 14.7915C25.6504 14.6638 25.5786 14.4906 25.5786 14.3099V13.6289C25.5786 13.4483 25.6504 13.2751 25.7781 13.1473C25.9058 13.0196 26.079 12.9479 26.2596 12.9479C26.4403 12.9479 26.6135 13.0196 26.7412 13.1473C26.8689 13.2751 26.9407 13.4483 26.9407 13.6289V14.3099C26.9407 14.4906 26.8689 14.6638 26.7412 14.7915C26.6135 14.9192 26.4403 14.991 26.2596 14.991Z" stroke="none"/>
<path d="M26.2596 18.2122C26.079 18.2122 25.9058 18.1405 25.7781 18.0127C25.6504 17.885 25.5786 17.7118 25.5786 17.5312V16.8502C25.5786 16.6695 25.6504 16.4963 25.7781 16.3686C25.9058 16.2409 26.079 16.1691 26.2596 16.1691C26.4403 16.1691 26.6135 16.2409 26.7412 16.3686C26.8689 16.4963 26.9407 16.6695 26.9407 16.8502V17.5312C26.9407 17.7118 26.8689 17.885 26.7412 18.0127C26.6135 18.1405 26.4403 18.2122 26.2596 18.2122Z" stroke="none"/>
<path d="M22.1732 14.991C21.9926 14.991 21.8194 14.9192 21.6917 14.7915C21.5639 14.6638 21.4922 14.4906 21.4922 14.3099V13.6289C21.4922 13.4483 21.5639 13.2751 21.6917 13.1473C21.8194 13.0196 21.9926 12.9479 22.1732 12.9479C22.3538 12.9479 22.5271 13.0196 22.6548 13.1473C22.7825 13.2751 22.8542 13.4483 22.8542 13.6289V14.3099C22.8542 14.4906 22.7825 14.6638 22.6548 14.7915C22.5271 14.9192 22.3538 14.991 22.1732 14.991Z" stroke="none"/>
<path d="M22.1732 18.2122C21.9926 18.2122 21.8194 18.1405 21.6917 18.0127C21.5639 17.885 21.4922 17.7118 21.4922 17.5312V16.8502C21.4922 16.6695 21.5639 16.4963 21.6917 16.3686C21.8194 16.2409 21.9926 16.1691 22.1732 16.1691C22.3538 16.1691 22.5271 16.2409 22.6548 16.3686C22.7825 16.4963 22.8542 16.6695 22.8542 16.8502V17.5312C22.8542 17.7118 22.7825 17.885 22.6548 18.0127C22.5271 18.1405 22.3538 18.2122 22.1732 18.2122Z" stroke="none"/>
<path d="M18.0868 14.991C17.9062 14.991 17.7329 14.9192 17.6052 14.7915C17.4775 14.6638 17.4058 14.4906 17.4058 14.3099V13.6289C17.4058 13.4483 17.4775 13.2751 17.6052 13.1473C17.7329 13.0196 17.9062 12.9479 18.0868 12.9479C18.2674 12.9479 18.4406 13.0196 18.5684 13.1473C18.6961 13.2751 18.7678 13.4483 18.7678 13.6289V14.3099C18.7678 14.4906 18.6961 14.6638 18.5684 14.7915C18.4406 14.9192 18.2674 14.991 18.0868 14.991Z" stroke="none"/>
<path d="M18.0868 18.2122C17.9062 18.2122 17.7329 18.1405 17.6052 18.0127C17.4775 17.885 17.4058 17.7118 17.4058 17.5312V16.8502C17.4058 16.6695 17.4775 16.4963 17.6052 16.3686C17.7329 16.2409 17.9062 16.1691 18.0868 16.1691C18.2674 16.1691 18.4406 16.2409 18.5684 16.3686C18.6961 16.4963 18.7678 16.6695 18.7678 16.8502V17.5312C18.7678 17.7118 18.6961 17.885 18.5684 18.0127C18.4406 18.1405 18.2674 18.2122 18.0868 18.2122Z" stroke="none"/>
</svg>
