<svg width="47" height="47" viewBox="0 0 47 47" fill="none" xmlns="http://www.w3.org/2000/svg">
<path d="M37.6665 20.9728C38.1304 21.2393 38.5521 21.4928 38.9863 21.7237C39.1159 21.7788 39.2561 21.8053 39.3971 21.8012C40.2037 21.8307 41.0197 21.7818 41.8153 21.888C44.1788 22.2042 45.9758 24.2687 45.9938 26.6301C46.0048 28.1025 45.9774 29.575 45.9993 31.0474C46.0157 32.1378 45.5776 32.9074 44.5434 33.3282C44.2422 33.4499 43.9566 33.6126 43.6507 33.7157C43.3941 33.804 43.2979 33.9179 43.3049 34.2101C43.3343 35.4532 42.949 36.6712 42.2087 37.6754C41.4684 38.6795 40.4144 39.4138 39.2101 39.7644C36.1847 40.6626 32.9685 38.9165 32.104 35.8895C32.0093 35.5586 31.8693 35.4818 31.5461 35.4834C29.0426 35.4953 26.5391 35.4953 24.0356 35.4834C23.7391 35.4834 23.6116 35.5555 23.5271 35.8515C23.2066 37.0085 22.5222 38.0342 21.5734 38.7798C20.6245 39.5254 19.4604 39.9521 18.2502 39.998C17.0399 40.0439 15.8463 39.7065 14.8427 39.0349C13.8391 38.3633 13.0776 37.3924 12.6688 36.263C12.4639 35.6888 12.4107 35.0579 12.3285 34.4473C12.2996 34.2318 12.2456 34.1039 12.0516 33.9923C11.5571 33.7079 11.0822 33.3917 10.5948 33.0949C10.0558 32.7671 9.77572 32.2797 9.68888 31.6736C9.65034 31.4315 9.62864 31.1871 9.62395 30.942C9.61847 29.5347 9.61143 28.1266 9.62395 26.7192C9.63646 25.4421 10.0707 24.3168 10.9579 23.3814C11.0095 23.3271 11.058 23.269 11.1409 23.176C10.2561 22.2964 9.37672 21.4377 8.50362 20.576C5.20732 17.3045 4.95942 17.0632 1.66312 13.7934C1.42733 13.5683 1.24612 13.2932 1.13311 12.9888C1.0201 12.6843 0.978226 12.3585 1.01064 12.0357C1.09435 10.9941 1.22735 9.95645 1.34314 8.91799C1.35777 8.82871 1.38002 8.74082 1.40964 8.65527C1.68346 7.71213 2.43139 7.51683 3.13081 8.21121C6.34261 11.3989 9.55363 14.588 9.71548 14.7489C11.9613 16.9793 14.2056 19.2112 16.4484 21.4447C16.669 21.6656 16.8395 21.7183 17.1188 21.5672C17.4122 21.4083 17.7338 21.299 18.0757 21.1541C17.9677 20.9921 17.8848 20.8643 17.7979 20.7379C16.7073 19.15 16.6338 15.6936 18.7704 14.0662C19.5793 13.4462 20.4712 13.0486 21.4977 13.0463C25.7223 13.0362 29.9471 13.0207 34.1718 13.0556C36.5086 13.075 38.4864 15.1116 38.5576 17.4296C38.5928 18.6928 38.47 19.9048 37.6665 20.9728ZM43.1093 32.7989C43.3295 32.6942 43.5548 32.6006 43.7845 32.5183C44.685 32.2456 45.0003 31.6442 44.958 30.7313C44.9032 29.4417 44.9377 28.149 44.933 26.8564C44.9244 24.5315 43.2736 22.8265 40.9226 22.8846C39.5348 22.9187 38.2627 22.7568 37.1392 21.9043C37.0547 21.84 36.8302 21.8493 36.741 21.9167C35.8429 22.5909 34.8273 22.8652 33.7078 22.8629C29.7074 22.8552 25.707 22.8552 21.7065 22.8629C20.8381 22.8629 20.0206 22.6576 19.2985 22.1833C18.9934 21.9826 18.7508 21.9826 18.4457 22.1391C17.4631 22.6421 16.4484 23.0094 15.3069 22.866C14.987 22.8257 14.6552 22.8575 14.3306 22.8722C12.4834 22.9575 10.8061 24.5121 10.7239 26.3364C10.6496 27.9863 10.6934 29.6416 10.7192 31.2962C10.7231 31.5566 10.8327 31.8953 11.0181 32.058C11.439 32.4277 11.9381 32.7113 12.4263 33.043C13.4762 29.5595 16.457 28.428 18.7571 28.7171C19.946 28.8578 21.0576 29.3741 21.9272 30.1895C23.15 31.3226 23.736 32.747 23.7594 34.4194H31.8638C31.8927 32.9864 32.3191 31.7108 33.272 30.6367C34.2249 29.5626 35.4063 28.9155 36.8357 28.7272C38.0195 28.5573 39.2272 28.7698 40.2796 29.3332C41.6987 30.0896 42.6258 31.2575 43.1093 32.7989ZM27.8668 14.0918V14.0848C25.8327 14.0848 23.7985 14.0848 21.7644 14.0848C20.6246 14.0848 19.6896 14.5071 18.9535 15.3658C18.2493 16.1857 18.1077 17.1545 18.1242 18.1929C18.157 20.259 19.6771 21.802 21.755 21.8051C25.8201 21.8123 29.8852 21.8123 33.9503 21.8051C35.2342 21.8051 36.2192 21.2169 36.9303 20.1714C37.4553 19.4019 37.4944 18.5347 37.4834 17.6442C37.4592 15.6409 35.9406 14.1057 33.923 14.0949C31.9053 14.084 29.8868 14.0918 27.8668 14.0918ZM18.0076 38.9429C20.5659 38.9506 22.6735 36.907 22.6868 34.4046C22.7009 31.8302 20.6394 29.7323 18.0772 29.7129C16.8416 29.7038 15.6529 30.1812 14.7727 31.0402C13.8925 31.8993 13.3928 33.0695 13.3835 34.2934C13.3743 35.5174 13.8563 36.6949 14.7235 37.5668C15.5906 38.4387 16.772 38.9337 18.0076 38.9429ZM37.5961 38.9429C40.1442 38.9499 42.2378 36.897 42.2472 34.3829C42.2533 33.7749 42.138 33.1716 41.9081 32.6078C41.6782 32.044 41.3382 31.5307 40.9074 31.0975C40.4767 30.6642 39.9639 30.3195 39.3983 30.0831C38.8327 29.8467 38.2256 29.7232 37.6118 29.7199C35.0488 29.7013 32.9426 31.7852 32.9356 34.3465C32.9301 36.8667 35.023 38.9313 37.5969 38.9382L37.5961 38.9429ZM2.41105 9.12258C2.42043 9.10786 2.38679 9.13731 2.38288 9.16985C2.27648 10.1703 2.13801 11.1701 2.09028 12.1737C2.0762 12.4658 2.24675 12.8448 2.46033 13.0587C6.05132 16.6556 6.60538 17.2118 10.2193 20.786C10.8061 21.3688 11.3803 21.964 11.9632 22.5568C12.9974 21.9167 14.0888 21.7586 15.3273 21.8128L2.41105 9.12258Z" stroke-width="0.3"/>
<path d="M27.8212 27.6222C26.5835 27.6222 25.3451 27.6222 24.1074 27.6222C23.8422 27.6222 23.6106 27.5772 23.4893 27.3122C23.3219 26.9487 23.5676 26.5884 24.0127 26.5806C24.7552 26.5674 25.4992 26.576 26.2409 26.576H31.4044C31.4435 26.576 31.4826 26.576 31.5217 26.576C31.9653 26.5837 32.1844 26.7588 32.1859 27.106C32.1859 27.4222 31.959 27.6075 31.5381 27.6098C30.665 27.6152 29.7919 27.6098 28.9188 27.6098H27.8236L27.8212 27.6222Z" stroke-width="0.3"/>
<path d="M27.8485 18.6983C26.6241 18.6983 25.3997 18.6983 24.1715 18.6983C23.7279 18.6983 23.4971 18.5139 23.4861 18.1791C23.4759 17.8691 23.7435 17.6498 24.1652 17.6521C25.7542 17.6583 27.3423 17.6777 28.9313 17.68C29.7614 17.68 30.5922 17.656 31.4223 17.649C31.8823 17.6451 32.1264 17.8396 32.1264 18.1915C32.1264 18.5185 31.8854 18.6975 31.4372 18.6975C30.2375 18.6975 29.04 18.6975 27.8446 18.6975L27.8485 18.6983Z" stroke-width="0.3"/>
<path d="M19.327 34.3312C19.327 35.0666 18.7622 35.6168 18.0127 35.6137C17.7566 35.6105 17.5071 35.5323 17.2958 35.389C17.0845 35.2456 16.9207 35.0435 16.8251 34.8082C16.7294 34.5728 16.7062 34.3147 16.7584 34.0663C16.8106 33.8179 16.9358 33.5903 17.1183 33.4123C17.3007 33.2342 17.5323 33.1136 17.7838 33.0657C18.0353 33.0177 18.2955 33.0445 18.5317 33.1428C18.7678 33.241 18.9694 33.4063 19.1109 33.6178C19.2524 33.8292 19.3276 34.0774 19.327 34.3312Z" stroke-width="0.3"/>
<path d="M38.8868 34.338C38.8893 34.5054 38.8578 34.6715 38.7944 34.8267C38.731 34.9819 38.6369 35.1229 38.5176 35.2415C38.3984 35.36 38.2563 35.4538 38.0999 35.5172C37.9435 35.5805 37.7759 35.6123 37.6069 35.6105C37.3498 35.6133 37.0977 35.5401 36.8827 35.4005C36.6677 35.2608 36.4996 35.0608 36.3997 34.8261C36.2999 34.5914 36.2728 34.3326 36.322 34.0826C36.3712 33.8326 36.4944 33.6028 36.6759 33.4225C36.8575 33.2421 37.0891 33.1193 37.3413 33.0699C37.5935 33.0204 37.8549 33.0464 38.0921 33.1446C38.3294 33.2428 38.5317 33.4087 38.6734 33.6213C38.815 33.8338 38.8896 34.0833 38.8876 34.338H38.8868Z" stroke-width="0.3"/>
</svg>
