<svg width="47" height="47" viewBox="0 0 47 47" fill="none" xmlns="http://www.w3.org/2000/svg">
<path fill-rule="evenodd" clip-rule="evenodd" d="M7.56061 31.2416L19.7515 19.0508L27.9499 27.2491L15.759 39.44C13.4951 41.7039 9.82453 41.7039 7.56061 39.44V39.44C5.29669 37.1761 5.29669 33.5056 7.56061 31.2416V31.2416Z" fill="none" stroke-width="1.6" stroke-linecap="round" stroke-linejoin="round"/>
<path fill-rule="evenodd" clip-rule="evenodd" d="M38.0252 25.236L27.9473 27.2519L19.7483 19.0529L21.7643 8.97503C22.1659 6.96359 24.0694 5.61663 26.0999 5.90701L26.3075 5.93639C30.0322 6.46932 33.4837 8.19542 36.1444 10.8558V10.8558C38.8048 13.5165 40.5309 16.968 41.0638 20.6927L41.0932 20.9004C41.3836 22.9309 40.0366 24.8343 38.0252 25.236V25.236Z" fill="none" stroke-width="1.6" stroke-linecap="round" stroke-linejoin="round"/>
<path d="M11.7451 35.2547L15.6634 31.3364" fill="none" stroke-width="1.6" stroke-linecap="round" stroke-linejoin="round"/>
</svg>
