<svg width="16" height="16" viewBox="0 0 16 16" fill="none" xmlns="http://www.w3.org/2000/svg">
<path d="M14 8H11.6126C11.09 8 10.6666 8.42333 10.6666 8.946V9.72067C10.6666 10.2433 11.09 10.6667 11.6126 10.6667H14" stroke-width="1.2" stroke-linecap="round" stroke-linejoin="round"/>
<path d="M12.6667 14H3.33333C2.59667 14 2 13.4034 2 12.6667V6.00002C2 5.26335 2.59667 4.66669 3.33333 4.66669H12.6667C13.4033 4.66669 14 5.26335 14 6.00002V12.6667C14 13.4034 13.4033 14 12.6667 14Z" stroke-width="1.2" stroke-linecap="round" stroke-linejoin="round"/>
<path d="M9.33333 4.66671L7.138 2.47138C6.87733 2.21071 6.45533 2.21071 6.19533 2.47138L4 4.66671" stroke-width="1.2" stroke-linecap="round" stroke-linejoin="round"/>
<path d="M8 3.33338L8.862 2.47138C9.12267 2.21071 9.54467 2.21071 9.80467 2.47138L12 4.66671" stroke-width="1.2" stroke-linecap="round" stroke-linejoin="round"/>
</svg>