<svg width="47" height="47" viewBox="0 0 47 47" fill="none" xmlns="http://www.w3.org/2000/svg">
<path d="M38.9166 8.7002H8.08336C6.38316 8.7002 5 10.0834 5 11.7836L5 36.417C5 38.1171 6.38316 39.5002 8.08336 39.5002H38.9167C40.6168 39.5002 42.0001 38.1171 42.0001 36.4169V11.7836C42 10.0834 40.6168 8.7002 38.9166 8.7002ZM40.7666 36.4169C40.7666 37.4368 39.9366 38.2669 38.9166 38.2669H8.08336C7.0634 38.2669 6.23336 37.4368 6.23336 36.4169V11.7836C6.23336 10.7636 7.0634 9.93355 8.08336 9.93355H38.9167C39.9367 9.93355 40.7667 10.7636 40.7667 11.7836L40.7666 36.4169Z" stroke-width="0.2"/>
<path d="M35.2166 17.3337H25.35V16.1004H27.8166C28.8366 16.1004 29.6666 15.2703 29.6666 14.2503V13.017C29.6666 11.997 28.8366 11.167 27.8166 11.167H19.1834C18.1634 11.167 17.3334 11.997 17.3334 13.017V14.2503C17.3334 15.2703 18.1634 16.1004 19.1834 16.1004H21.65V17.3337H11.7833C10.7634 17.3337 9.93335 18.1638 9.93335 19.1837V33.9837C9.93335 35.0037 10.7634 35.8337 11.7833 35.8337H35.2167C36.2367 35.8337 37.0667 35.0037 37.0667 33.9837V19.1837C37.0666 18.1638 36.2366 17.3337 35.2166 17.3337ZM22.8834 14.867C22.8834 14.5266 23.1596 14.2503 23.5 14.2503C23.8404 14.2503 24.1166 14.5266 24.1166 14.867V22.8836C24.1166 23.224 23.8404 23.5003 23.5 23.5003C23.1596 23.5003 22.8834 23.224 22.8834 22.8836V14.867ZM19.1834 14.867C18.843 14.867 18.5667 14.5907 18.5667 14.2503V13.017C18.5667 12.6766 18.843 12.4003 19.1834 12.4003H27.8167C28.1571 12.4003 28.4334 12.6766 28.4334 13.017V14.2503C28.4334 14.5907 28.1571 14.867 27.8167 14.867H25.35C25.35 13.847 24.52 13.017 23.5 13.017C22.48 13.017 21.65 13.847 21.65 14.867H19.1834ZM35.8334 33.9837C35.8334 34.3241 35.5571 34.6004 35.2167 34.6004H11.7833C11.443 34.6004 11.1667 34.3241 11.1667 33.9837V19.1837C11.1667 18.8433 11.443 18.5671 11.7833 18.5671H21.65V22.8837C21.65 23.9037 22.48 24.7337 23.5 24.7337C24.52 24.7337 25.35 23.9037 25.35 22.8837V18.5671H35.2166C35.557 18.5671 35.8333 18.8433 35.8333 19.1837V33.9837H35.8334Z" stroke-width="0.2"/>
</svg>
