<svg width="48" height="48" viewBox="0 0 48 48" fill="none" xmlns="http://www.w3.org/2000/svg">
<path d="M7.78855 20.2948C7.86553 20.4412 8.0109 20.5447 8.17449 20.5693C8.35567 20.5966 8.51455 20.4942 8.69469 20.4976C9.00994 20.5037 9.29167 20.7282 9.37106 21.0329C9.41316 21.1944 9.38697 21.3493 9.48804 21.4944C9.58806 21.6379 9.75752 21.7234 9.93253 21.7184C10.1365 21.7125 10.2781 21.5572 10.4728 21.5175C10.6393 21.4836 10.8162 21.5115 10.9641 21.5945C11.1092 21.6759 11.2065 21.7996 11.2759 21.9481C11.3487 22.1038 11.474 22.2221 11.6452 22.2607C11.8133 22.2986 11.9947 22.2481 12.12 22.1302C12.1819 22.072 12.2233 21.9967 12.2846 21.9374C12.3484 21.8756 12.4234 21.8258 12.5052 21.7914C12.6694 21.7223 12.8575 21.7175 13.025 21.7784C13.1996 21.8419 13.2977 21.9615 13.4087 22.1015C13.624 22.3735 14.0528 22.3639 14.2514 22.0773C14.3019 22.0045 14.3265 21.9182 14.3759 21.8445C14.427 21.7683 14.4929 21.7023 14.569 21.651C14.7225 21.5475 14.9144 21.5074 15.0966 21.541C15.1959 21.5593 15.2905 21.5993 15.3733 21.6572C15.4585 21.7169 15.5133 21.8009 15.5901 21.8686C15.7502 22.0097 15.9472 22.0178 16.1433 21.9619L16.1772 21.9523C16.3166 21.9134 16.4356 21.8161 16.5018 21.6875C16.5685 21.558 16.6062 21.4357 16.7159 21.3318C16.9377 21.1218 17.2659 21.0822 17.5363 21.2185C17.8107 21.357 18.1768 21.2667 18.3539 21.0067C18.4359 20.8864 18.4355 20.7406 18.4971 20.6118C18.5522 20.4965 18.6389 20.3969 18.7454 20.3262C18.8739 20.2409 19.0312 20.1978 19.1851 20.21C19.3779 20.2253 19.5495 20.2107 19.6926 20.0629L19.725 20.0296C19.8586 19.8884 19.8711 19.7247 19.8568 19.5415C19.8448 19.3885 19.8892 19.2327 19.9738 19.1052C20.0636 18.9698 20.1843 18.9074 20.317 18.824C20.4549 18.7374 20.5362 18.5958 20.5592 18.4368C20.6334 17.9256 20.5088 17.4047 20.2348 16.9702C19.6853 16.0989 18.6641 15.6216 17.7045 15.3579C16.297 14.9712 14.7826 14.9652 13.3469 15.1815C11.9439 15.393 10.5281 15.8316 9.33775 16.6204C8.31556 17.2978 7.28793 18.4255 7.58725 19.7525C7.62977 19.9411 7.69869 20.1235 7.78855 20.2948C7.91088 20.5276 7.66559 20.0607 7.78855 20.2948ZM18.8353 19.1864C18.2836 19.2822 17.8155 19.6342 17.5678 20.1268C16.9363 19.9937 16.2679 20.2265 15.8545 20.7217C15.7185 20.6419 15.5721 20.5812 15.4191 20.5407L15.1468 18.9698L19.0772 17.2109C19.3189 17.4396 19.5116 17.7361 19.5312 18.0761C19.167 18.3431 18.9163 18.7429 18.8353 19.1864ZM17.9737 16.5575L14.5443 18.0921L11.1965 16.832C13.8738 15.8475 16.2739 15.9086 17.9737 16.5575ZM9.9408 17.4785L14.0965 19.0428L14.3646 20.5897C14.1329 20.6739 13.9215 20.8041 13.7449 20.9748C13.1764 20.6024 12.4221 20.5965 11.8466 20.9572C11.4383 20.5571 10.8454 20.3801 10.284 20.4873C9.98803 19.8377 9.30947 19.4185 8.59562 19.4522C8.49088 18.7759 9.01821 18.1803 9.54009 17.7659C9.6421 17.6848 9.90739 17.5004 9.9408 17.4785Z" stroke="none"/>
<path d="M28.7418 14.8048C29.0559 14.8197 29.3257 15.0434 29.4004 15.3484C29.4339 15.485 29.425 15.6269 29.3791 15.7594C29.3242 15.9181 29.3091 16.0709 29.389 16.2255C29.4617 16.3661 29.5981 16.4683 29.7535 16.4982C29.9281 16.532 30.0965 16.4604 30.2737 16.5058C30.5758 16.5832 30.7926 16.8523 30.8098 17.1624C30.8187 17.3222 30.844 17.4623 30.9614 17.5815C31.0746 17.6965 31.2391 17.7537 31.3993 17.7338C31.5724 17.7122 31.7037 17.5855 31.8759 17.5545C32.0415 17.5247 32.2153 17.5547 32.3608 17.6392C32.4886 17.7134 32.5913 17.8278 32.6519 17.9626C32.7152 18.1038 32.7146 18.254 32.8172 18.3783C32.9121 18.4932 33.0551 18.563 33.2041 18.5673C33.3877 18.5726 33.5035 18.4831 33.6369 18.3724C33.9161 18.1407 34.3437 18.1558 34.6001 18.4144C34.6645 18.4793 34.7159 18.557 34.7512 18.6413C34.7844 18.7205 34.8002 18.8021 34.8477 18.8753C34.9482 19.0305 35.1046 19.0951 35.2813 19.1174L35.3198 19.1223C35.4675 19.1415 35.6204 19.0961 35.733 18.9984C35.8419 18.9039 35.9266 18.8116 36.0669 18.761C36.3463 18.6602 36.6557 18.7422 36.8506 18.9652C36.9493 19.0782 37.0521 19.1639 37.2057 19.1875C37.3439 19.2088 37.5178 19.1921 37.6439 19.1296C37.7773 19.0637 37.8325 18.9484 37.929 18.8445C38.0273 18.7388 38.1582 18.6638 38.299 18.632C38.4638 18.5949 38.6374 18.6193 38.786 18.699C38.9506 18.7873 39.1166 18.8302 39.2972 18.7531L39.3375 18.7362C39.5084 18.6621 39.5916 18.5218 39.6458 18.3523C39.6957 18.196 39.8003 18.0603 39.9389 17.9725C40.0928 17.875 40.2471 17.8902 40.4134 17.8431C40.6084 17.7879 40.7129 17.6354 40.8004 17.4637C41.0382 16.9964 41.0858 16.464 40.9651 15.9568C40.7029 14.8549 39.7997 13.9843 38.9036 13.3578C37.6177 12.459 36.0918 11.8926 34.5556 11.6074C33.7144 11.4513 32.8538 11.3813 31.999 11.4351C31.3092 11.4785 30.6129 11.601 29.9735 11.8709C29.4748 12.0813 29.0038 12.3901 28.6759 12.8274C28.5282 13.0242 28.4127 13.2446 28.3374 13.4791C28.278 13.6642 28.2445 13.857 28.2376 14.0513C28.231 14.234 28.229 14.4312 28.3398 14.5862C28.4327 14.7156 28.5828 14.7974 28.7418 14.8048C28.8282 14.8089 28.4791 14.7926 28.7418 14.8048ZM39.9225 16.8612C39.4829 16.9649 39.0962 17.2353 38.8487 17.6124C38.3125 17.4883 37.7344 17.6279 37.315 17.9841C36.7853 17.6148 36.0793 17.5687 35.5054 17.8639C35.0415 17.2403 34.1905 16.9968 33.4653 17.2759C33.4599 17.2677 33.4537 17.2602 33.4481 17.2521C33.6815 16.7026 33.7857 16.1311 33.8037 15.5724L39.7619 15.7201C40.1442 16.3364 39.931 16.8377 39.9225 16.8612ZM38.8628 14.65L33.7451 14.5232C33.635 13.7207 33.3969 13.0009 33.1883 12.4868C34.8279 12.5996 36.4934 13.0952 37.9001 13.9523C38.2388 14.1586 38.5636 14.3894 38.8628 14.65ZM29.3907 13.6611C29.7061 13.0117 30.697 12.574 32.0433 12.4827C32.3675 13.175 33.0968 15.013 32.5782 16.5923C32.3027 16.497 32.0078 16.4715 31.7227 16.5173C31.5027 15.9898 31.0258 15.5956 30.4672 15.4754C30.4507 14.8644 30.1083 14.2946 29.587 13.991C29.5013 13.9412 29.4108 13.8985 29.3161 13.864C29.3179 13.8568 29.3621 13.7199 29.3907 13.6611Z" stroke="none"/>
<path d="M36.1932 8.90876C33.356 8.03267 30.4772 7.8672 28.0872 8.44291C25.6004 9.04198 23.9222 10.3716 23.3619 12.1868C23.1935 12.7323 23.1356 13.3091 23.1852 13.8996C23.0865 13.8289 22.9865 13.759 22.8835 13.6909C20.9735 12.4264 18.4736 11.73 15.8441 11.73C15.0626 11.73 14.2614 11.7904 13.4625 11.9096C10.1967 12.3965 7.22287 13.5558 5.08863 15.1739C3.15202 16.6422 2.0937 18.345 2.04259 20.0397C2.03526 20.2819 2.85102 33.7594 2.85102 33.7594C2.84537 33.9954 2.85971 34.2338 2.89501 34.4683C3.18397 36.4067 4.78606 38.0052 7.40626 38.9695C9.07046 39.582 11.0277 39.8946 13.1087 39.8946C14.1708 39.8946 15.2653 39.8131 16.3688 39.6485C19.7536 39.1437 22.5064 38.2296 24.3296 37.0054C26.0513 35.8493 26.9669 34.4097 27.0169 32.8044C28.2013 33.5159 29.5362 34.1091 30.9323 34.5398C32.634 35.0651 34.4431 35.3322 36.1836 35.3322C37.3177 35.3322 38.423 35.2186 39.4497 34.9892C42.1745 34.3799 44.0527 33.0082 44.6028 31.226C44.6694 31.0107 44.7404 30.5221 44.7605 30.3775C44.7617 30.3689 44.7627 30.3604 44.7634 30.3518C44.7634 30.3518 45.9034 18.3355 45.9289 18.1262C46.3796 14.4077 41.4232 10.5228 36.1932 8.90876ZM24.3626 12.4956C24.8096 11.0478 26.2194 9.97012 28.3323 9.46112C30.5423 8.92898 33.2243 9.08806 35.8842 9.90938C41.6006 11.6737 45.6755 15.6093 44.7826 18.5036C44.3463 19.9174 42.7495 21.0292 40.4016 21.5542C37.9721 22.0973 35.0635 21.9411 32.4218 21.1258C29.7371 20.2962 27.3477 18.8466 25.8469 17.1421C25.5645 16.4175 25.1231 15.726 24.54 15.091C24.1741 14.1744 24.1137 13.3017 24.3626 12.4956ZM5.72142 16.0085C7.71794 14.4948 10.522 13.4069 13.617 12.9455C14.365 12.834 15.1143 12.7775 15.8442 12.7775C21.1123 12.7775 24.6926 15.6512 25.1203 18.4354L25.1598 19.1035C25.1179 20.3701 24.3745 21.498 22.9374 22.463C21.2422 23.6013 18.6378 24.4577 15.4057 24.9396C14.3664 25.0945 13.325 25.1732 12.3106 25.1732C7.2987 25.1732 3.52058 23.3094 3.12259 20.6409C2.8925 19.0986 3.8154 17.4535 5.72142 16.0085ZM23.7457 36.1359C22.0507 37.2741 19.4464 38.1305 16.2145 38.6126C13.1189 39.074 10.1194 38.8519 7.768 37.9865C5.53259 37.1639 4.17233 35.8668 3.93406 34.332L3.27634 23.2087C3.82786 23.8132 4.55586 24.3496 5.45258 24.8015C7.26832 25.7166 9.70377 26.2205 12.3104 26.2205C13.3763 26.2205 14.4696 26.1381 15.5599 25.9755C18.9447 25.4707 21.6976 24.5567 23.521 23.3324C24.2731 22.8275 24.8713 22.2684 25.311 21.6652L25.9316 32.1247C26.1603 33.6587 25.4248 35.0083 23.7457 36.1359ZM43.6021 30.9169C42.6696 33.9378 36.662 35.2121 31.2413 33.5391C29.6763 33.0562 28.196 32.359 26.9427 31.517C26.9427 31.517 26.2111 19.0143 26.2108 18.9664C27.7788 20.3183 29.8181 21.4175 32.1129 22.1264C33.8151 22.6518 35.6244 22.9189 37.3652 22.9189C38.4989 22.9189 39.6039 22.8055 40.6301 22.5761C42.3016 22.2026 43.6537 21.5416 44.5769 20.6751L43.7214 30.2454C43.6855 30.5001 43.6305 30.8251 43.6021 30.9169Z" stroke="none"/>
</svg>
