<svg width="32" height="32" viewBox="0 0 32 32" fill="none" xmlns="http://www.w3.org/2000/svg">
<path d="M18.6667 18H25.3334C26.0694 18 26.6667 18.5973 26.6667 19.3333V24.6667C26.6667 25.4027 26.0694 26 25.3334 26H20C19.264 26 18.6667 25.4027 18.6667 24.6667V18ZM18.6667 18C18.6667 10 20 8.66667 24 6" stroke="#E8E8E8" stroke-width="1.6" stroke-linecap="round" stroke-linejoin="round"/>
<path d="M5.33334 18H12C12.736 18 13.3333 18.5973 13.3333 19.3333V24.6667C13.3333 25.4027 12.736 26 12 26H6.66668C5.93068 26 5.33334 25.4027 5.33334 24.6667V18ZM5.33334 18C5.33334 10 6.66668 8.66667 10.6667 6" stroke="#E8E8E8" stroke-width="1.6" stroke-linecap="round" stroke-linejoin="round"/>
</svg>
