<svg xmlns="http://www.w3.org/2000/svg" viewBox="0 0 93 84"><g fill="none" fill-rule="evenodd"><path d="M-2-8H98V92H-2z"/><path fill="#E1E1E1" d="M74.877 77.438l13.419 5.751c2.37 1.016 4.766-1.38 3.75-3.75L86.604 66.74c.15-.259.295-.52.437-.786 2.49-4.656 3.816-10.314 3.816-16.812 0-6.498-1.326-12.156-3.816-16.812-2.49-4.656-6.144-8.31-10.8-10.8-4.656-2.49-10.314-3.817-16.812-3.817h-8.572c-6.498 0-12.156 1.326-16.812 3.816-4.656 2.49-8.31 6.145-10.8 10.8-2.49 4.657-3.816 10.315-3.816 16.813 0 6.498 1.326 12.156 3.816 16.812 2.49 4.656 6.144 8.31 10.8 10.8 4.656 2.49 10.314 3.816 16.812 3.816h8.572c5.876 0 11.065-1.084 15.448-3.133z"/><g transform="translate(.857 -5.143)"><path fill="#E1E1E1" stroke="#FFF" stroke-linecap="round" stroke-linejoin="round" stroke-width="3.429" d="M20.248 70.168L7.522 75.622c-3.792 1.625-7.626-2.21-6-6.001l5.11-11.924-.042-.076C3.934 52.653 2.571 46.7 2.571 40c0-6.7 1.363-12.653 4.02-17.62 2.65-4.955 6.548-8.854 11.503-11.504 4.967-2.657 10.92-4.019 17.62-4.019h8.572c6.7 0 12.653 1.362 17.62 4.019 4.955 2.65 8.854 6.549 11.504 11.503C76.066 27.347 77.429 33.3 77.429 40c0 6.7-1.363 12.653-4.02 17.62-2.65 4.955-6.548 8.854-11.503 11.504-4.967 2.657-10.92 4.019-17.62 4.019h-8.572c-5.756 0-10.961-1.005-15.466-2.975z"/><circle cx="21.429" cy="40" r="5.714" fill="#FFF"/><circle cx="40" cy="40" r="5.714" fill="#FFF"/><circle cx="58.571" cy="40" r="5.714" fill="#FFF"/></g></g></svg>