<svg width="47" height="47" viewBox="0 0 47 47" fill="none" xmlns="http://www.w3.org/2000/svg">
<path d="M6.64968 37.4119C6.11278 37.0035 5.57278 36.6446 5.09588 36.2167C4.41238 35.602 3.93796 34.8628 4.006 33.8922C4.03259 33.4954 4.18847 33.3428 4.58743 33.3428C5.27835 33.3428 5.96866 33.3428 6.65958 33.3428H7.03875C7.03875 33.1652 7.03875 33.0169 7.03875 32.8679C7.03875 23.2449 7.03875 23.7138 7.03875 14.0912C7.03875 10.4401 7.03875 11.2113 7.03875 7.56023C7.04122 5.53181 8.55419 4.02407 10.6078 4.02041C14.5046 4.01349 18.4015 4.01248 22.2984 4.01736C26.8422 4.01736 31.3867 4.05399 35.9306 4.00027C37.8549 3.97768 39.7112 5.38042 39.6827 7.70307C39.6499 10.4292 39.6747 8.73354 39.6747 11.4603C39.6747 15.0695 39.6747 18.6789 39.6747 22.2885C39.6747 27.4058 39.6747 22.4315 39.6747 27.5488C39.6747 29.3475 39.6747 31.146 39.6747 32.9442C39.6747 33.0663 39.6747 33.1835 39.6747 33.3416C40.2413 33.3416 40.7745 33.3416 41.307 33.3416C41.8192 33.3416 41.9602 33.4759 41.993 33.9862C42.1099 35.79 40.9712 37.0267 39.0567 37.1738C38.8316 37.1909 38.6064 37.2037 38.3714 37.2196C38.338 37.7763 38.325 38.3123 38.2693 38.8439C38.1339 40.1258 37.8011 41.3466 37.0211 42.4045C36.5279 43.0897 35.8352 43.6107 35.0349 43.8982C34.9089 43.9406 34.7765 43.9612 34.6434 43.9592C26.5095 43.9621 18.3755 43.9621 10.2416 43.9592C10.1024 43.9592 9.9416 43.9452 9.82779 43.8774C8.51523 43.1034 7.42967 42.1152 6.78329 40.7216C6.29834 39.6649 6.2736 38.753 6.64968 37.4119ZM16.5768 7.05541V33.3227H29.4426V7.05724H23.7996C23.7996 7.63653 23.8089 8.19445 23.7946 8.75177C23.7891 8.96114 23.8621 9.01669 24.0656 9.05331C26.1031 9.41956 27.5567 10.959 27.8035 12.9905C27.8573 13.4318 27.6835 13.6662 27.2752 13.6669C24.6361 13.6709 21.9969 13.6709 19.3578 13.6669C18.9836 13.6669 18.7819 13.441 18.8209 13.0796C18.9638 11.7593 19.5495 10.6825 20.6289 9.87249C21.2759 9.38904 22.012 9.12717 22.8167 9.00509V7.05541H16.5768ZM4.94805 34.3158C5.07176 34.5649 5.15588 34.7846 5.28516 34.972C5.79794 35.7174 6.53896 36.1929 7.32637 36.6098C7.81193 36.8662 7.86884 37.0084 7.65915 37.5059C7.22617 38.5332 7.2472 39.5447 7.76987 40.5378C8.27708 41.5023 9.04223 42.2311 9.94717 42.8232C10.1242 42.9372 10.3297 43.0006 10.541 43.0064C14.8593 43.017 19.1778 43.02 23.4965 43.0155C27.1352 43.0155 30.774 43.0133 34.4127 43.0088C34.6265 43.0037 34.8367 42.9522 35.0281 42.858C35.8434 42.4637 36.3741 41.8026 36.7335 40.9981C37.3223 39.6808 37.4238 38.2891 37.3638 36.8735C37.3434 36.3888 37.5141 36.2631 38.0003 36.2429C38.5625 36.2228 39.1359 36.1941 39.6802 36.0671C40.5462 35.8651 41.0528 35.1582 41.0194 34.3146L4.94805 34.3158ZM38.7128 33.3306C38.7128 33.1841 38.7128 33.0743 38.7128 32.9644C38.7128 31.4587 38.7128 29.953 38.7128 28.4473C38.7128 19.0803 38.7128 19.8049 38.7128 10.4378C38.7128 7.98639 38.7184 9.95795 38.7073 7.50651C38.7017 6.27835 37.8827 5.18692 36.6877 5.04286C35.6238 4.91223 35.5199 4.99708 34.4411 4.98732C34.4331 4.98732 34.4244 4.99891 34.4127 5.00746V33.3306H38.7128ZM11.5202 4.96107H11.1367C10.3431 4.96107 11.5053 4.969 10.7117 4.96107C9.13563 4.94398 7.99688 6.03052 7.99564 7.57549C7.99234 11.002 7.99234 10.0061 7.99564 13.4325C7.99564 22.2083 7.99564 20.8922 7.99564 29.6676C7.99564 30.7663 7.99564 31.865 7.99564 32.9638C7.99564 33.0828 7.99564 33.2012 7.99564 33.3166H11.5202V4.96107ZM15.5853 33.3282C15.5853 33.1585 15.5853 33.0181 15.5853 32.8777C15.5853 19.337 15.5853 20.3104 15.5853 6.76974C15.5853 6.21304 15.7127 6.09034 16.2762 6.09095H29.6059C29.7296 6.09095 29.8533 6.08485 29.9771 6.09645C30.2406 6.12025 30.3847 6.27347 30.41 6.52862C30.4177 6.64037 30.4194 6.75243 30.415 6.86435C30.415 20.3847 30.415 19.3909 30.415 32.9113V33.3227H33.4335C33.4335 33.1652 33.4335 33.026 33.4335 32.8863C33.4335 18.8674 33.436 19.3623 33.4409 5.34258C33.4409 5.03737 33.3611 4.95008 33.0457 4.9513C29.7785 4.96412 25.5253 4.96046 22.2582 4.96107H12.787C12.6973 4.96107 12.6076 4.96839 12.5 4.97328V33.3282H15.5853ZM26.7538 12.703C26.515 11.1416 24.9186 9.90424 23.2237 9.93842C21.6217 9.97077 20.0499 11.263 19.8891 12.703H23.3215H26.7538Z" stroke="none" stroke-width="0.5"/>
<path d="M21.5605 14.4605C21.5605 14.6235 21.5697 14.7865 21.5605 14.9489C21.5376 15.2541 21.3489 15.4256 21.0656 15.4189C20.7953 15.4128 20.6153 15.2419 20.6048 14.9489C20.5924 14.6137 20.5943 14.2774 20.6048 13.9423C20.6147 13.6566 20.8015 13.4753 21.0638 13.468C21.326 13.4607 21.5425 13.6511 21.5586 13.9423C21.5673 14.1138 21.5605 14.2872 21.5605 14.4605Z" stroke="none" stroke-width="0.5"/>
<path d="M21.5578 21.5442C21.5578 21.7273 21.5708 21.9105 21.5547 22.0936C21.5449 22.2167 21.4871 22.3312 21.3934 22.4131C21.2997 22.495 21.1775 22.5378 21.0525 22.5325C20.9331 22.5264 20.8205 22.476 20.7371 22.3915C20.6537 22.3069 20.6057 22.1944 20.6028 22.0765C20.591 21.731 20.5886 21.3849 20.5997 21.0388C20.5989 20.9773 20.6104 20.9163 20.6338 20.8593C20.6571 20.8023 20.6916 20.7505 20.7354 20.7068C20.7792 20.6631 20.8314 20.6285 20.8889 20.6049C20.9464 20.5813 21.0081 20.5692 21.0704 20.5694C21.1958 20.5677 21.3168 20.6146 21.4076 20.6999C21.4983 20.7853 21.5516 20.9023 21.556 21.026C21.5696 21.1969 21.5578 21.3739 21.5578 21.5442Z" stroke="none" stroke-width="0.5"/>
<path d="M20.5984 17.9814C20.5984 17.8086 20.5885 17.6353 20.5984 17.4637C20.6041 17.3458 20.6549 17.2343 20.7405 17.1518C20.8261 17.0692 20.9402 17.0217 21.0598 17.0187C21.3035 17.012 21.5343 17.186 21.5479 17.4338C21.5695 17.8091 21.5695 18.1854 21.5479 18.5607C21.5445 18.6197 21.5291 18.6774 21.5025 18.7304C21.476 18.7834 21.4389 18.8305 21.3934 18.869C21.3479 18.9075 21.2951 18.9365 21.238 18.9543C21.1809 18.9721 21.1207 18.9784 21.0611 18.9727C20.7846 18.955 20.6281 18.7981 20.6009 18.5295C20.5848 18.3482 20.5984 18.1645 20.5984 17.9814Z" stroke="none" stroke-width="0.5"/>
<path d="M25.3713 14.203C25.3628 14.0415 25.364 13.8796 25.375 13.7183C25.4078 13.4522 25.573 13.291 25.8464 13.291C26.1198 13.291 26.3016 13.4448 26.3208 13.7116C26.344 14.0549 26.344 14.3993 26.3208 14.7426C26.3035 15.0099 26.1266 15.1638 25.8513 15.1699C25.5761 15.176 25.4084 15.0173 25.3763 14.7511C25.3639 14.5697 25.3625 14.3876 25.372 14.206L25.3713 14.203Z" stroke="none" stroke-width="0.5"/>
<path d="M23.8596 14.2472C23.8596 14.3986 23.867 14.5524 23.8596 14.7019C23.8435 14.9803 23.6598 15.1616 23.3945 15.1665C23.1124 15.1713 22.9361 15.0206 22.9151 14.7563C22.8874 14.4036 22.8861 14.0494 22.9114 13.6966C22.9293 13.4457 23.1099 13.3028 23.3679 13.287C23.6103 13.2723 23.8126 13.4512 23.8547 13.7014C23.858 13.7216 23.8596 13.742 23.8596 13.7625C23.8596 13.9253 23.8596 14.088 23.8596 14.2508V14.2472Z" stroke="none" stroke-width="0.5"/>
<path d="M26.3297 20.8577C26.3297 21.0097 26.3396 21.1629 26.3297 21.313C26.3087 21.5957 26.1212 21.7733 25.8584 21.7745C25.5955 21.7757 25.3864 21.6091 25.3722 21.3295C25.3532 20.9959 25.3532 20.6615 25.3722 20.3278C25.3889 20.0586 25.5689 19.9103 25.8398 19.8944C26.1002 19.8792 26.3031 20.066 26.326 20.3413C26.3427 20.5128 26.3297 20.6855 26.3297 20.8577Z" stroke="none" stroke-width="0.5"/>
<path d="M26.3298 17.5522C26.3375 17.7149 26.3364 17.8779 26.3267 18.0405C26.2976 18.3072 26.1411 18.4629 25.8622 18.4757C25.603 18.4879 25.3976 18.3286 25.3809 18.0637C25.36 17.7099 25.36 17.3553 25.3809 17.0016C25.3945 16.7574 25.6284 16.5804 25.8702 16.5908C25.9885 16.5986 26.1 16.648 26.1845 16.7301C26.2689 16.8123 26.3207 16.9216 26.3304 17.0382C26.3304 17.0583 26.3304 17.0785 26.3304 17.0992C26.3304 17.251 26.3304 17.403 26.3304 17.5552L26.3298 17.5522Z" stroke="none" stroke-width="0.5"/>
<path d="M23.8614 17.5279C23.8614 17.6799 23.867 17.8332 23.8614 17.9833C23.8478 18.2733 23.6759 18.4564 23.4155 18.4717C23.3512 18.4781 23.2863 18.4713 23.225 18.4515C23.1636 18.4318 23.1071 18.3995 23.0591 18.3569C23.0111 18.3143 22.9726 18.2623 22.9462 18.2041C22.9198 18.146 22.906 18.0831 22.9058 18.0193C22.8885 17.6958 22.8885 17.3717 22.9058 17.0482C22.9206 16.7674 23.126 16.5848 23.379 16.5855C23.6462 16.5855 23.846 16.7851 23.8602 17.0738C23.8676 17.2252 23.8602 17.379 23.8602 17.5292L23.8614 17.5279Z" stroke="none" stroke-width="0.5"/>
<path d="M23.8604 20.8334C23.8604 20.9951 23.8709 21.1581 23.8604 21.3217C23.8375 21.6025 23.6457 21.7789 23.3835 21.7777C23.1212 21.7765 22.9214 21.6117 22.9053 21.3248C22.8874 21.0018 22.8886 20.6771 22.9016 20.3536C22.9037 20.2303 22.9552 20.1128 23.0448 20.0268C23.1344 19.9408 23.2548 19.8933 23.3797 19.8946C23.6395 19.8946 23.8381 20.0746 23.8585 20.3505C23.8703 20.5117 23.8585 20.6741 23.8585 20.8389L23.8604 20.8334Z" stroke="none" stroke-width="0.5"/>
<path d="M23.8558 23.9376C23.8619 24.0285 23.8619 24.1196 23.8558 24.2105C23.8445 24.3279 23.7879 24.4365 23.6976 24.5138C23.6073 24.5911 23.4903 24.6311 23.3709 24.6256C23.0913 24.6158 22.9348 24.4589 22.9027 24.1946C22.8849 24.0232 22.8835 23.8505 22.8984 23.6788C22.9194 23.3803 23.1161 23.1941 23.3882 23.1978C23.6604 23.2015 23.841 23.3883 23.8589 23.6941C23.8639 23.7746 23.8589 23.8558 23.8589 23.9382L23.8558 23.9376Z" stroke="none" stroke-width="0.5"/>
<path d="M21.561 24.8383C21.561 24.9091 21.5641 24.9799 21.561 25.0507C21.5437 25.3614 21.3457 25.5598 21.0661 25.5506C20.7866 25.5415 20.6127 25.3565 20.6004 25.0537C20.5948 24.9121 20.5948 24.7705 20.6004 24.6264C20.6164 24.317 20.7903 24.1314 21.0618 24.1247C21.3476 24.118 21.5437 24.3115 21.5635 24.6234C21.5678 24.6942 21.5635 24.765 21.5635 24.8358L21.561 24.8383Z" stroke="none" stroke-width="0.5"/>
<path d="M25.3792 23.8968C25.3701 23.7952 25.3711 23.693 25.3823 23.5916C25.4262 23.3743 25.5462 23.215 25.7942 23.2168C26.0422 23.2186 26.2569 23.2779 26.2958 23.5593C26.3253 23.7595 26.3356 23.962 26.3268 24.1642C26.3113 24.4584 26.1029 24.6348 25.8221 24.6226C25.5678 24.611 25.3928 24.4206 25.3798 24.1373C25.3761 24.0598 25.3792 23.978 25.3792 23.8968Z" stroke="none" stroke-width="0.5"/>
<path d="M36.088 38.0171C36.0725 38.6757 35.9934 39.3173 35.7076 39.921C35.1132 41.1747 33.8724 41.389 32.8196 41.1809C32.5654 41.1308 32.4311 40.8915 32.4732 40.6449C32.4928 40.5281 32.5564 40.4229 32.6513 40.3504C32.7461 40.2778 32.8652 40.2433 32.9847 40.2536C33.1388 40.261 33.294 40.2933 33.4456 40.2957C34.2534 40.311 34.7445 39.9509 34.9622 39.1805C35.1645 38.4706 35.141 37.7521 35.0297 37.0325C34.9542 36.5441 35.0556 36.3097 35.381 36.2554C35.72 36.1992 35.9265 36.4111 35.9828 36.8939C36.0261 37.2681 36.0534 37.6429 36.088 38.0171Z" stroke="none" stroke-width="0.5"/>
</svg>
