<svg width="31" height="31" viewBox="0 0 31 31" fill="none" xmlns="http://www.w3.org/2000/svg">
<rect width="31" height="31" rx="2" fill="url(#paint0_radial)"/>
<rect width="31" height="31" rx="2" fill="url(#paint1_radial)"/>
<path fill-rule="evenodd" clip-rule="evenodd" d="M15.5008 7.23334C13.2557 7.23334 12.9739 7.24315 12.0921 7.28328C11.212 7.32358 10.6113 7.46291 10.0857 7.66734C9.54199 7.87849 9.08078 8.16094 8.62128 8.6206C8.16144 9.0801 7.879 9.54131 7.66716 10.0849C7.46222 10.6107 7.32271 11.2115 7.2831 12.0913C7.24366 12.973 7.23333 13.255 7.23333 15.5001C7.23333 17.7452 7.24332 18.0261 7.28327 18.9079C7.32375 19.788 7.46308 20.3887 7.66733 20.9143C7.87865 21.458 8.1611 21.9192 8.62077 22.3787C9.08009 22.8386 9.5413 23.1217 10.0847 23.3328C10.6106 23.5373 11.2115 23.6766 12.0914 23.7169C12.9732 23.757 13.2548 23.7668 15.4997 23.7668C17.745 23.7668 18.0259 23.757 18.9077 23.7169C19.7878 23.6766 20.3892 23.5373 20.9151 23.3328C21.4587 23.1217 21.9192 22.8386 22.3785 22.3787C22.8384 21.9192 23.1208 21.458 23.3327 20.9145C23.5359 20.3887 23.6754 19.7878 23.7167 18.9081C23.7563 18.0263 23.7667 17.7452 23.7667 15.5001C23.7667 13.255 23.7563 12.9732 23.7167 12.0914C23.6754 11.2114 23.5359 10.6107 23.3327 10.085C23.1208 9.54131 22.8384 9.0801 22.3785 8.6206C21.9187 8.16076 21.4589 7.87832 20.9146 7.66734C20.3876 7.46291 19.7866 7.32358 18.9065 7.28328C18.0247 7.24315 17.744 7.23334 15.4982 7.23334H15.5008ZM14.7591 8.72312C14.9792 8.72278 15.2248 8.72312 15.5007 8.72312C17.7079 8.72312 17.9695 8.73104 18.8411 8.77066C19.6471 8.80751 20.0846 8.94219 20.376 9.05534C20.7618 9.20518 21.0368 9.38429 21.326 9.67363C21.6153 9.96296 21.7944 10.2385 21.9446 10.6243C22.0578 10.9154 22.1926 11.3528 22.2293 12.1588C22.2689 13.0303 22.2775 13.2921 22.2775 15.4982C22.2775 17.7044 22.2689 17.9662 22.2293 18.8377C22.1924 19.6437 22.0578 20.0811 21.9446 20.3722C21.7948 20.758 21.6153 21.0327 21.326 21.3218C21.0366 21.6112 20.762 21.7903 20.376 21.9401C20.0849 22.0538 19.6471 22.1881 18.8411 22.225C17.9697 22.2646 17.7079 22.2732 15.5007 22.2732C13.2933 22.2732 13.0317 22.2646 12.1602 22.225C11.3542 22.1878 10.9168 22.0531 10.6252 21.9399C10.2394 21.7901 9.96385 21.611 9.67451 21.3217C9.38518 21.0323 9.20607 20.7574 9.05589 20.3715C8.94273 20.0804 8.80788 19.643 8.7712 18.837C8.73159 17.9655 8.72367 17.7037 8.72367 15.4962C8.72367 13.2886 8.73159 13.0282 8.7712 12.1568C8.80806 11.3507 8.94273 10.9133 9.05589 10.6219C9.20572 10.2361 9.38518 9.96055 9.67451 9.67122C9.96385 9.38188 10.2394 9.20277 10.6252 9.05259C10.9166 8.93892 11.3542 8.80458 12.1602 8.76756C12.9228 8.73311 13.2184 8.72278 14.7591 8.72106V8.72312ZM19.9134 10.0958C19.3657 10.0958 18.9214 10.5396 18.9214 11.0874C18.9214 11.6351 19.3657 12.0794 19.9134 12.0794C20.4611 12.0794 20.9054 11.6351 20.9054 11.0874C20.9054 10.5397 20.4611 10.0954 19.9134 10.0954V10.0958ZM15.5006 11.2548C13.1561 11.2548 11.2553 13.1557 11.2553 15.5001C11.2553 17.8446 13.1561 19.7446 15.5006 19.7446C17.8451 19.7446 19.7452 17.8446 19.7452 15.5001C19.7452 13.1557 17.8449 11.2548 15.5004 11.2548H15.5006ZM15.5007 12.7445C17.0225 12.7445 18.2563 13.9782 18.2563 15.5001C18.2563 17.0219 17.0225 18.2557 15.5007 18.2557C13.9788 18.2557 12.7451 17.0219 12.7451 15.5001C12.7451 13.9782 13.9788 12.7445 15.5007 12.7445V12.7445Z" fill="white"/>
<defs>
<radialGradient id="paint0_radial" cx="0" cy="0" r="1" gradientUnits="userSpaceOnUse" gradientTransform="translate(21.4726 29.3255) scale(34.6358)">
<stop offset="0.64" stop-color="#8C3AAA" stop-opacity="0"/>
<stop offset="1" stop-color="#8C3AAA"/>
</radialGradient>
<radialGradient id="paint1_radial" cx="0" cy="0" r="1" gradientUnits="userSpaceOnUse" gradientTransform="translate(2.00629 30.3209) scale(39.3585)">
<stop offset="0.09" stop-color="#FA8F21"/>
<stop offset="0.78" stop-color="#D82D7E"/>
</radialGradient>
</defs>
</svg>
