<svg width="31" height="31" viewBox="0 0 31 31" fill="none" xmlns="http://www.w3.org/2000/svg">
    <rect width="31" height="31" rx="2" fill="#393C40"/>
    <rect x="1.29169" y="1.29169" width="28.4167" height="28.4167" rx="14.2083" fill="white"/>
    <path d="M5.90722 1.96901C8.97445 1.15906 12.1789 1.34853 15.3243 1.29169C15.1397 4.26386 15.3243 7.32839 14.3326 10.1845C13.9472 11.2658 13.2985 12.234 12.4452 13.0014C11.5919 13.7689 10.5609 14.3114 9.44542 14.58C6.78289 15.2147 4.02334 15.2644 1.29218 15.2858C1.37975 11.9702 1.14308 8.53621 2.18442 5.33905C2.71219 3.62206 4.20557 2.38583 5.90722 1.96901ZM15.729 1.29169C18.995 1.35089 22.3557 1.12354 25.5365 2.104C26.3379 2.34359 27.0665 2.78041 27.6557 3.37451C28.2449 3.96862 28.6758 4.70105 28.909 5.50483C29.8557 8.66646 29.6711 12.0223 29.709 15.2858C26.9826 15.2668 24.2183 15.2194 21.5605 14.5753C20.4152 14.2948 19.3602 13.7272 18.4948 12.9259C17.6294 12.1246 16.9822 11.1159 16.6141 9.99506C15.729 7.18156 15.8804 4.20228 15.729 1.29169ZM1.29218 15.712C3.71999 15.6971 6.14528 15.8713 8.54607 16.2331C10.9128 16.5954 13.2013 18.0495 14.1362 20.316C15.3787 23.2858 15.0687 26.5729 15.3195 29.7085C12.4795 29.6777 9.61818 29.7748 6.81603 29.2562C5.22325 28.9506 3.5358 28.252 2.69799 26.7766C1.62825 24.8607 1.50755 22.6061 1.38212 20.4486C1.36318 18.8689 1.26378 17.2917 1.29928 15.712H1.29218ZM21.9605 16.3349C24.5046 15.8257 27.1127 15.7428 29.7019 15.7168C29.664 18.9803 29.8604 22.3361 28.9019 25.4977C28.6668 26.2985 28.2362 27.0281 27.6492 27.6209C27.0621 28.2138 26.3369 28.6512 25.5389 28.8938C22.3628 29.8719 18.9855 29.6493 15.7053 29.7014C15.8568 26.7292 15.7053 23.6647 16.6756 20.8086C17.4614 18.4948 19.5867 16.7943 21.9605 16.3349Z" fill="#393C40"/>
</svg>
