<svg width="31" height="31" viewBox="0 0 31 31" fill="none" xmlns="http://www.w3.org/2000/svg">
    <rect width="31" height="31" rx="2" fill="#1060A6"/>
    <path d="M23.2461 23.25V23.2494H23.25V17.5647C23.25 14.7838 22.6513 12.6415 19.4002 12.6415C17.8373 12.6415 16.7884 13.4992 16.3603 14.3123H16.315V12.9012H13.2325V23.2494H16.4423V18.1253C16.4423 16.7762 16.698 15.4716 18.3688 15.4716C20.015 15.4716 20.0396 17.0113 20.0396 18.2119V23.25H23.2461Z" fill="white"/>
    <path d="M8.00574 12.9018H11.2194V23.25H8.00574V12.9018Z" fill="white"/>
    <path d="M9.61129 7.75C8.58377 7.75 7.75 8.58377 7.75 9.61129C7.75 10.6388 8.58377 11.49 9.61129 11.49C10.6388 11.49 11.4726 10.6388 11.4726 9.61129C11.4719 8.58377 10.6382 7.75 9.61129 7.75V7.75Z" fill="white"/>
</svg>
