<svg width="18" height="18" viewBox="0 0 18 18" fill="none" xmlns="http://www.w3.org/2000/svg">
<path d="M11.25 6H14.4922C14.799 6 15.075 6.18675 15.1882 6.47175L16.3928 9.48225C16.4633 9.65925 16.5 9.84825 16.5 10.0388V14.4998C16.5 14.9138 16.164 15.2498 15.75 15.2498H14.3768" stroke="#B0B0B0" stroke-width="1.2" stroke-linecap="round" stroke-linejoin="round"/>
<path d="M12.0001 15.315H6.12756" stroke="#B0B0B0" stroke-width="1.2" stroke-linecap="round" stroke-linejoin="round"/>
<path d="M16.5 11.25H13.5V8.25H15.9" stroke="#B0B0B0" stroke-width="1.2" stroke-linecap="round" stroke-linejoin="round"/>
<path d="M9.417 4.5H10.5C10.914 4.5 11.25 4.836 11.25 5.25V12H1.5" stroke="#B0B0B0" stroke-width="1.2" stroke-linecap="round" stroke-linejoin="round"/>
<path d="M5.80425 1.53753C4.491 1.73853 3.417 2.81253 3.216 4.12578C2.8935 6.23328 4.683 8.02278 6.7905 7.70028C8.10375 7.49928 9.17775 6.42528 9.37875 5.11203C9.702 3.00453 7.91175 1.21503 5.80425 1.53753V1.53753Z" stroke="#B0B0B0" stroke-width="1.2" stroke-linecap="round" stroke-linejoin="round"/>
<path d="M14.028 14.472C14.492 14.9359 14.492 15.6881 14.028 16.1521C13.5641 16.616 12.8119 16.616 12.348 16.1521C11.884 15.6881 11.884 14.9359 12.348 14.472C12.8119 14.008 13.5641 14.008 14.028 14.472Z" stroke="#B0B0B0" stroke-width="1.2" stroke-linecap="round" stroke-linejoin="round"/>
<path d="M5.77804 14.472C6.24198 14.9359 6.24198 15.6881 5.77804 16.1521C5.3141 16.616 4.5619 16.616 4.09796 16.1521C3.63401 15.6881 3.63401 14.9359 4.09796 14.472C4.5619 14.008 5.3141 14.008 5.77804 14.472Z" stroke="#B0B0B0" stroke-width="1.2" stroke-linecap="round" stroke-linejoin="round"/>
<path d="M3.75 15.312H2.25C1.836 15.312 1.5 14.976 1.5 14.562V5.25C1.5 4.836 1.836 4.5 2.25 4.5H3.1785" stroke="#B0B0B0" stroke-width="1.2" stroke-linecap="round" stroke-linejoin="round"/>
<path d="M7.5 4.50001H6V3.11926" stroke="#B0B0B0" stroke-width="1.2" stroke-linecap="round" stroke-linejoin="round"/>
</svg>