<svg width="16" height="16" viewBox="0 0 16 16" fill="none" xmlns="http://www.w3.org/2000/svg">
<path d="M6.07733 9.45801C3.708 9.77001 2 10.64 2 11.6667C2 12.9553 4.686 14 8 14C11.314 14 14 12.9553 14 11.6667C14 10.64 12.292 9.77001 9.92267 9.45801" stroke-width="1.2" stroke-linecap="round" stroke-linejoin="round"/>
<path d="M12 5.22192C12 3.07459 10.2093 1.33325 8 1.33325C5.79067 1.33325 4 3.07459 4 5.22192C4 8.13859 8 11.3333 8 11.3333C8 11.3333 12 8.13859 12 5.22192Z" stroke-width="1.2" stroke-linecap="round" stroke-linejoin="round"/>
<path d="M8.94216 4.39052C9.46286 4.91122 9.46286 5.75544 8.94216 6.27614C8.42146 6.79684 7.57724 6.79684 7.05654 6.27614C6.53584 5.75544 6.53584 4.91122 7.05654 4.39052C7.57724 3.86983 8.42146 3.86983 8.94216 4.39052" stroke-width="1.2" stroke-linecap="round" stroke-linejoin="round"/>
</svg>