<svg width="47" height="47" viewBox="0 0 47 47" fill="none" xmlns="http://www.w3.org/2000/svg">
<path fill-rule="evenodd" clip-rule="evenodd" d="M7.57092 35.25H39.4291C40.3652 35.25 41.125 36.0098 41.125 36.9459V37.7332C41.125 39.6073 39.6073 41.125 37.7332 41.125H9.26683C7.39271 41.125 5.875 39.6073 5.875 37.7332V36.9459C5.875 36.0098 6.63483 35.25 7.57092 35.25Z" fill="none" stroke-width="1.6" stroke-linecap="round" stroke-linejoin="round"/>
<path d="M20.5624 15.6665V19.1915" fill="none" stroke-width="1.6" stroke-linecap="round" stroke-linejoin="round"/>
<path d="M26.4374 15.6665V19.1915" fill="none" stroke-width="1.6" stroke-linecap="round" stroke-linejoin="round"/>
<path d="M9.79167 15.6665V35.2498" fill="none" stroke-width="1.6" stroke-linecap="round" stroke-linejoin="round"/>
<path d="M37.2084 15.6665V35.2498" fill="none" stroke-width="1.6" stroke-linecap="round" stroke-linejoin="round"/>
<path d="M25.4583 25.4582H31.3333" fill="none" stroke-width="1.6" stroke-linecap="round" stroke-linejoin="round"/>
<path fill-rule="evenodd" clip-rule="evenodd" d="M23.5001 35.2502V35.2502C20.3452 35.2502 17.7876 32.6926 17.7876 29.5377V27.4168C17.7876 26.3358 18.6649 25.4585 19.7459 25.4585H27.2522C28.3332 25.4585 29.2106 26.3358 29.2106 27.4168V29.5377C29.2125 32.6926 26.6549 35.2502 23.5001 35.2502Z" fill="none" stroke-width="1.6" stroke-linecap="round" stroke-linejoin="round"/>
<path fill-rule="evenodd" clip-rule="evenodd" d="M39.1667 15.6667H7.83333C6.75233 15.6667 5.875 14.7893 5.875 13.7083V7.83333C5.875 6.75233 6.75233 5.875 7.83333 5.875H39.1667C40.2477 5.875 41.125 6.75233 41.125 7.83333V13.7083C41.125 14.7893 40.2477 15.6667 39.1667 15.6667Z" fill="none" stroke-width="1.6" stroke-linecap="round" stroke-linejoin="round"/>
</svg>
