<svg xmlns="http://www.w3.org/2000/svg" width="16" height="14" viewBox="0 0 16 12" fill="none">
    <path class="intec-cl-background" d="M12.667 3.33317L10.0003 5.99984H12.0003C12.0003 7.0607 11.5789 8.07812 10.8288 8.82826C10.0786 9.57841 9.06119 9.99984 8.00033 9.99984C7.33366 9.99984 6.68699 9.83317 6.13366 9.53317L5.16033 10.5065C6.00905 11.0467 6.99429 11.3335 8.00033 11.3332C9.41481 11.3332 10.7714 10.7713 11.7716 9.77107C12.7718 8.77088 13.3337 7.41432 13.3337 5.99984H15.3337L12.667 3.33317ZM4.00033 5.99984C4.00033 4.93897 4.42175 3.92156 5.1719 3.17141C5.92204 2.42126 6.93946 1.99984 8.00033 1.99984C8.66699 1.99984 9.31366 2.1665 9.86699 2.4665L10.8403 1.49317C9.9916 0.953006 9.00636 0.666224 8.00033 0.666504C6.58584 0.666504 5.22928 1.22841 4.22909 2.2286C3.2289 3.2288 2.66699 4.58535 2.66699 5.99984H0.666992L3.33366 8.6665L6.00033 5.99984" fill="#808080"/>
</svg>