<svg width="48" height="48" viewBox="0 0 48 48" fill="none" xmlns="http://www.w3.org/2000/svg">
<path d="M40.6934 10.5097C40.4621 10.4553 40.219 10.526 40.052 10.6967L37.2106 13.5952H35.8485L34.349 12.0228V10.6249L37.1496 7.74811C37.3153 7.57794 37.3828 7.33326 37.3279 7.10051C37.2733 6.86802 37.1041 6.68052 36.8803 6.60411C36.1767 6.36404 35.4405 6.24238 34.6917 6.24238C32.4594 6.24238 30.4314 7.29587 29.1276 9.13272C27.9074 10.8522 27.5312 12.9595 28.0701 14.9763L23.0217 20.0858L14.611 11.5538V9.87922C14.611 9.63562 14.4847 9.40964 14.2782 9.28446L9.43223 6.34128C9.16237 6.17734 8.81728 6.22043 8.59507 6.4456L6.65677 8.40708C6.43456 8.63225 6.39199 8.98152 6.5537 9.25465L9.46114 14.1593C9.58483 14.3682 9.80784 14.4959 10.0485 14.4961L11.7025 14.4967L20.114 23.0287L15.0849 28.1187C13.0922 27.5735 11.0091 27.9548 9.30935 29.1906C7.49554 30.5094 6.45544 32.5614 6.45544 34.8206C6.45544 35.5783 6.57565 36.3237 6.81285 37.0355C6.88862 37.2634 7.07575 37.4354 7.30706 37.4896C7.53864 37.5441 7.78146 37.4734 7.94879 37.3027L10.7898 34.4045H12.1595L13.72 35.9839V37.3701L10.8565 40.2456C10.6878 40.4149 10.618 40.6607 10.6718 40.8951C10.7253 41.1292 10.8953 41.3186 11.1205 41.3952C11.8238 41.6353 12.5603 41.757 13.3088 41.757C15.5411 41.757 17.5683 40.704 18.8715 38.8683C20.0926 37.1479 20.4693 35.0399 19.9306 33.0231L23.9697 28.9351L24.895 29.9523L24.4704 30.3818C24.2026 30.6527 24.2026 31.092 24.4704 31.3629C24.7381 31.6336 25.1718 31.6336 25.4398 31.3629L25.8242 30.9738L34.5053 40.5176C34.5118 40.5247 34.5184 40.5314 34.5251 40.5382C36.1315 42.164 38.734 42.1645 40.3411 40.5379C41.9437 38.9151 41.9437 36.2746 40.3411 34.6518C40.3341 34.6448 40.3269 34.638 40.3197 34.6312L30.8753 25.8619L31.2555 25.4771C31.5232 25.2064 31.5232 24.7672 31.2555 24.4962C30.9877 24.2253 30.554 24.2253 30.2861 24.4962L29.8644 24.9232L28.8575 23.9879L32.9161 19.8801C33.4931 20.0362 34.0885 20.1153 34.6917 20.1153C38.4708 20.1153 41.545 17.0036 41.545 13.179C41.545 12.4211 41.4248 11.676 41.1876 10.9639C41.1119 10.736 40.9247 10.5639 40.6934 10.5097V10.5097ZM12.4719 13.3131C12.3434 13.1828 12.1691 13.1164 11.9871 13.1164L10.437 13.1158L8.00448 9.00537L9.18593 7.80961L13.2403 10.2721V11.841C13.2403 12.0247 13.3123 12.2008 13.4405 12.3309L22.0526 21.0669L21.0832 22.0478L12.4719 13.3131ZM29.9051 26.8438L39.3816 35.6427C40.4402 36.7255 40.4369 38.4786 39.3717 39.5573C38.304 40.6379 36.5756 40.6412 35.5037 39.5668L26.7942 29.9918L29.9051 26.8438ZM28.8942 25.9049L25.8649 28.9703L24.9397 27.9531L27.8873 24.9696L28.8942 25.9049ZM34.6917 18.728C34.0922 18.728 33.5027 18.6307 32.94 18.4389C32.6934 18.3552 32.4209 18.4196 32.2367 18.6058C28.8007 22.0833 21.3972 29.5762 18.671 32.3357C18.4868 32.5221 18.4228 32.7979 18.5061 33.0477C19.0758 34.76 18.8033 36.5862 17.7581 38.0589C16.7158 39.5272 15.094 40.3697 13.3088 40.3697C13.1083 40.3697 12.9088 40.3586 12.7113 40.3371L14.8881 38.151C15.0177 38.021 15.0908 37.8438 15.0908 37.6587V35.6964C15.0908 35.5124 15.0185 35.336 14.89 35.206L12.9279 33.2201C12.7994 33.09 12.6251 33.0169 12.4433 33.0169H10.5044C10.3216 33.0169 10.1465 33.0908 10.0177 33.222L7.85803 35.4252C7.83661 35.2252 7.82591 35.0233 7.82591 34.8204C7.82591 33.0133 8.65798 31.3721 10.109 30.3173C11.5638 29.2594 13.3685 28.9833 15.0605 29.5602C15.3071 29.6445 15.5796 29.5797 15.7638 29.3933C15.8016 29.3554 29.3199 15.6732 29.3295 15.6634C29.5137 15.477 29.5774 15.2014 29.4944 14.9516C28.9244 13.2394 29.1964 11.4137 30.2408 9.94208C31.2838 8.47239 32.906 7.6297 34.6914 7.6297C34.8981 7.6297 35.1034 7.64135 35.3069 7.66411L33.1753 9.85375C33.0489 9.98354 32.9783 10.1583 32.9783 10.3404V12.3027C32.9783 12.4826 33.0471 12.6552 33.1705 12.7845L35.0641 14.7703C35.1931 14.9058 35.3711 14.9822 35.5572 14.9822H37.496C37.6786 14.9822 37.8537 14.9085 37.9825 14.7771L40.1422 12.5742C40.1636 12.7742 40.1743 12.976 40.1743 13.179C40.1743 16.2387 37.7148 18.728 34.6917 18.728V18.728Z" stroke="none"/>
</svg>
