<svg width="24" height="24" viewBox="0 0 24 24" fill="none" xmlns="http://www.w3.org/2000/svg">
<path d="M8.46499 11.2931C9.59799 10.1601 11.574 10.1601 12.707 11.2931L13.414 12.0001L14.828 10.5861L14.121 9.87906C13.178 8.93506 11.922 8.41406 10.586 8.41406C9.24999 8.41406 7.99399 8.93506 7.05099 9.87906L4.92899 12.0001C3.99329 12.9388 3.46786 14.2101 3.46786 15.5356C3.46786 16.861 3.99329 18.1323 4.92899 19.0711C5.39287 19.5356 5.94396 19.9039 6.55061 20.1548C7.15726 20.4057 7.80751 20.5342 8.46399 20.5331C9.12065 20.5344 9.77111 20.406 10.3779 20.1551C10.9848 19.9042 11.536 19.5358 12 19.0711L12.707 18.3641L11.293 16.9501L10.586 17.6571C10.0225 18.2181 9.25966 18.533 8.46449 18.533C7.66932 18.533 6.90652 18.2181 6.34299 17.6571C5.7815 17.0938 5.4662 16.3309 5.4662 15.5356C5.4662 14.7402 5.7815 13.9773 6.34299 13.4141L8.46499 11.2931Z" stroke="none"/>
<path d="M12 4.92875L11.293 5.63575L12.707 7.04975L13.414 6.34275C13.9775 5.78174 14.7403 5.46678 15.5355 5.46678C16.3307 5.46678 17.0935 5.78174 17.657 6.34275C18.2185 6.90602 18.5338 7.66892 18.5338 8.46425C18.5338 9.25958 18.2185 10.0225 17.657 10.5857L15.535 12.7067C14.402 13.8397 12.426 13.8397 11.293 12.7067L10.586 11.9997L9.172 13.4137L9.879 14.1207C10.822 15.0647 12.078 15.5857 13.414 15.5857C14.75 15.5857 16.006 15.0647 16.949 14.1207L19.071 11.9997C20.0067 11.061 20.5321 9.78967 20.5321 8.46425C20.5321 7.13883 20.0067 5.86746 19.071 4.92875C18.1325 3.99256 16.8611 3.4668 15.5355 3.4668C14.2099 3.4668 12.9385 3.99256 12 4.92875Z" stroke="none"/>
</svg>
