<svg width="18" height="18" viewBox="0 0 18 18" fill="none" xmlns="http://www.w3.org/2000/svg">
<path d="M16.5643 12.7424L14.3315 10.5095C13.534 9.71209 12.1784 10.0311 11.8594 11.0678C11.6202 11.7855 10.8227 12.1842 10.105 12.0247C8.51012 11.626 6.35702 9.5526 5.9583 7.87797C5.71906 7.16024 6.19753 6.36279 6.91523 6.12359C7.95191 5.80461 8.27089 4.44895 7.47344 3.65151L5.2406 1.41866C4.60264 0.860447 3.64571 0.860447 3.08749 1.41866L1.57235 2.93381C0.0572004 4.5287 1.73184 8.75516 5.47983 12.5032C9.22782 16.2511 13.4543 18.0056 15.0492 16.4106L16.5643 14.8955C17.1226 14.2575 17.1226 13.3006 16.5643 12.7424Z" fill="#0065FF"/>
</svg>
