<svg width="24" height="24" viewBox="0 0 24 24" fill="none" xmlns="http://www.w3.org/2000/svg">
<path fill-rule="evenodd" clip-rule="evenodd" d="M12 0C5.37258 0 0 5.37258 0 12C0 18.6274 5.37258 24 12 24C18.6274 24 24 18.6274 24 12C24 5.37258 18.6274 0 12 0ZM11.6658 10.1691L11.6406 9.7539C11.5651 8.6777 12.2282 7.69472 13.2774 7.31339C13.6635 7.1778 14.3182 7.16085 14.7463 7.27949C14.9142 7.33033 15.2331 7.49981 15.4598 7.65235L15.8711 7.93199L16.3243 7.78793C16.5761 7.71166 16.9119 7.58455 17.063 7.49981C17.2057 7.42355 17.3316 7.38118 17.3316 7.4066C17.3316 7.55066 17.021 8.04215 16.7608 8.31332C16.4083 8.69465 16.509 8.72855 17.2224 8.47433C17.6505 8.33027 17.6589 8.33027 17.575 8.49127C17.5246 8.57601 17.2644 8.8726 16.9874 9.14377C16.5174 9.60984 16.4922 9.66069 16.4922 10.0505C16.4922 10.6521 16.2068 11.9063 15.9214 12.5927C15.3926 13.8808 14.2595 15.2112 13.1263 15.8806C11.5315 16.8212 9.40786 17.0585 7.61999 16.5077C7.02404 16.3213 6 15.8467 6 15.762C6 15.7366 6.31057 15.7027 6.68829 15.6942C7.4773 15.6772 8.26631 15.4569 8.93781 15.0671L9.39108 14.7959L8.87066 14.618C8.13201 14.3638 7.46891 13.7791 7.30103 13.2283C7.25067 13.0503 7.26746 13.0418 7.73751 13.0418L8.22434 13.0333L7.81305 12.8384C7.32621 12.5927 6.88134 12.1775 6.66311 11.7538C6.50362 11.4487 6.30218 10.6776 6.36093 10.6183C6.37772 10.5928 6.55399 10.6437 6.75544 10.7115C7.33461 10.9233 7.41015 10.8725 7.0744 10.5166C6.44487 9.87254 6.25181 8.91498 6.55399 8.00826L6.69668 7.6015L7.25067 8.15231C8.38383 9.26241 9.71843 9.92338 11.2461 10.1183L11.6658 10.1691Z" fill="#B0B0B0"/>
</svg>
