<svg width="22" height="58" viewBox="0 0 22 58" fill="none" xmlns="http://www.w3.org/2000/svg">
<path fill-rule="evenodd" clip-rule="evenodd" d="M4.2255 4.13287C4.9116 5.27395 6.1032 6.14587 7.54646 6.5629C7.70856 6.63748 7.84181 6.74923 7.93049 6.88504C8.42787 7.89755 8.94722 8.97449 9.44459 9.987C9.62506 10.392 9.7835 10.751 9.96396 11.2204C9.37635 10.5485 8.85697 9.98702 8.31338 9.43474C7.4687 8.42542 6.18924 7.72928 4.74379 7.49258C3.20623 7.2727 1.62857 7.35464 0.135332 7.73191C0.10206 7.771 0.0546055 7.80002 0 7.81472C0.360926 8.32098 0.699827 8.84564 1.08386 9.31508C1.81979 10.2358 2.8656 10.9533 4.08903 11.3769C5.86053 11.8865 7.75883 12.007 9.60196 11.7267C9.78242 11.6807 9.94086 11.6623 10.1213 11.6255C11.0466 13.9856 11.7565 16.4011 12.2451 18.8511C11.9061 18.3908 11.5903 17.8662 11.2734 17.3968C10.593 16.2165 9.41833 15.2863 7.97227 14.7827C6.82782 14.4378 5.61907 14.2663 4.40267 14.2764C3.99553 14.2764 3.61147 14.3132 3.13721 14.3132C3.38589 14.7827 3.54324 15.206 3.72481 15.611C4.21317 16.707 5.07752 17.6581 6.20947 18.3449C7.58693 19.1285 9.18146 19.6039 10.841 19.7256C11.3603 19.7624 11.926 19.8084 12.4674 19.8452C12.948 22.3172 13.2124 24.8152 13.2585 27.3194C13.1964 27.2175 13.1509 27.1091 13.1232 26.9971C12.9416 26.5277 12.7392 26.0491 12.5125 25.5428C12.2528 24.843 11.8264 24.1943 11.2591 23.6359C10.6918 23.0774 9.9952 22.6208 9.21134 22.2936C8.10422 21.8736 6.93348 21.5825 5.73188 21.4284C5.51833 21.4174 5.30655 21.3896 5.09921 21.3455V21.5848C5.16743 21.8149 5.20925 22.0912 5.27967 22.3765C5.53159 23.8385 6.38815 25.1804 7.70046 26.1688C9.15187 27.2015 10.8808 27.9247 12.7392 28.2766C12.9416 28.3134 13.1232 28.3135 13.3488 28.3595C13.3947 30.9149 13.1678 33.4685 12.6709 35.9901C12.4674 35.1617 12.31 34.3701 12.1064 33.5785C11.8579 32.4894 11.2103 31.4922 10.2534 30.7251C9.033 29.8555 7.63161 29.1815 6.11927 28.7368C5.92037 28.7082 5.72405 28.6682 5.53167 28.6172C5.57678 29.3443 5.59987 29.9703 5.6901 30.6054C5.77877 31.718 6.2495 32.7855 7.04577 33.6797C8.39003 35.1291 10.1888 36.2379 12.2418 36.8829C12.3242 36.8939 12.4019 36.9225 12.4674 36.9658C11.9671 39.2939 11.2417 41.5841 10.2985 43.814C10.2534 43.3998 10.2985 43.0225 10.2765 42.6175C10.3477 41.3185 9.92896 40.0337 9.0793 38.9448C8.33623 38.1116 7.42632 37.3922 6.38993 36.8185C5.84398 36.5049 5.27833 36.2162 4.69537 35.9533C4.62824 36.1742 4.58532 36.3766 4.538 36.5331C4.10655 38.143 4.32922 39.8274 5.17074 41.3196C5.95469 42.5315 7.02234 43.599 8.31009 44.4584C8.77392 44.7707 9.25691 45.0626 9.7571 45.3328C8.85358 47.452 7.77407 49.5158 6.5264 51.5091C6.51468 51.4142 6.51468 51.3186 6.5264 51.2238C6.59353 50.6531 6.68371 50.064 6.72883 49.5209C6.84471 48.5102 6.61783 47.4925 6.07413 46.5846C5.42784 45.5357 4.55437 44.5962 3.49813 43.814C3.1141 43.5287 2.72785 43.2618 2.32401 42.9396C1.77652 44.061 1.47034 45.2544 1.41954 46.4649C1.39 47.1349 1.49713 47.8041 1.73641 48.444C2.48021 50.1796 3.70327 51.7438 5.30607 53.0094C5.48653 53.1015 5.4645 53.1843 5.37317 53.35C4.31351 54.9165 3.15995 56.4372 1.91687 57.9063C1.91687 57.9063 2.12044 58.3113 3.65657 57.4369C3.99549 56.9583 4.35645 56.5072 4.69537 56.0009C5.41832 55.0068 6.09611 54.0219 6.75193 53.0094C6.7672 52.9568 6.79622 52.9076 6.83683 52.8654C6.87744 52.8232 6.92864 52.789 6.98687 52.7653C7.04509 52.7415 7.10888 52.7288 7.17365 52.7281C7.23841 52.7273 7.30258 52.7385 7.36156 52.7609C9.31775 53.1616 11.3645 53.1331 13.3037 52.6781C14.6911 52.3094 15.9071 51.5888 16.7831 50.6162C17.1891 50.1928 17.5533 49.659 17.9352 49.2355C17.9803 49.1527 17.9803 49.1159 18.0254 49.0331C17.9921 48.994 17.9446 48.965 17.89 48.9503C16.3402 48.4653 14.683 48.2674 13.0329 48.3704C12.2297 48.4268 11.4481 48.617 10.7341 48.93C10.0201 49.243 9.38827 49.6724 8.87573 50.1929C8.62685 50.432 8.35485 50.6537 8.06253 50.8556C8.08912 50.7728 8.12597 50.6926 8.17255 50.6162C9.22884 48.7427 10.1421 46.8151 10.907 44.8449C10.9129 44.8059 10.9284 44.7683 10.9523 44.7344C10.9762 44.7004 11.0081 44.6709 11.0461 44.6476C11.0841 44.6244 11.1274 44.6079 11.1733 44.5991C11.2192 44.5903 11.2667 44.5893 11.313 44.5964C13.2711 44.7141 15.2323 44.4066 17.0064 43.7036C18.3562 43.1195 19.4485 42.1909 20.1249 41.0526C20.4858 40.528 20.7345 39.9388 21.0955 39.3129C20.4407 39.3129 19.8531 39.2301 19.2655 39.2301C18.1226 39.1802 16.9778 39.289 15.8774 39.5523C14.4339 39.9735 13.2061 40.7953 12.398 41.8811C12.1945 42.1112 12.014 42.3505 11.8324 42.5898C12.3749 40.4083 12.9625 38.236 13.527 36.0729C14.4316 35.8704 15.3801 35.7048 16.3066 35.447C17.7403 35.0465 19.03 34.35 20.0567 33.4221C21.0957 32.2622 21.7646 30.9 22 29.464H21.9549C19.9997 29.4487 18.0797 29.8989 16.4188 30.7619C15.4312 31.3814 14.6654 32.2155 14.2048 33.1735C14.0695 33.376 13.9562 33.5785 13.7988 33.7994C14.0469 31.6457 14.0922 29.479 13.9342 27.3194C15.1285 27.0153 16.2627 26.5655 17.3002 25.9846C18.8546 25.1849 20.0232 23.9532 20.6014 22.5053C20.902 21.6682 21.0689 20.8017 21.0977 19.928C21.11 19.8055 21.11 19.6823 21.0977 19.5598C20.2174 19.8452 19.4262 20.0293 18.613 20.2686C17.5029 20.649 16.5073 21.2306 15.6981 21.9714C15.0268 22.6691 14.5417 23.4788 14.2753 24.3462C14.1557 24.7528 14.0046 25.1526 13.823 25.5428C13.801 25.414 13.801 25.3771 13.7779 25.2574C13.6202 23.1747 13.3033 21.1025 12.8294 19.0535C12.8084 19.0122 12.7977 18.9678 12.7977 18.923C12.7978 18.8781 12.8086 18.8338 12.8297 18.7925C12.8508 18.7513 12.8816 18.7139 12.9203 18.6829C12.959 18.6518 13.0048 18.6276 13.055 18.6117C14.9097 17.8253 16.4604 16.6159 17.528 15.1233C18.2504 14.0613 18.5808 12.8442 18.4776 11.6255C18.4545 11.1376 18.3874 10.7142 18.3412 10.1435C17.6414 10.4657 17.0087 10.7142 16.4211 11.0179C15.1304 11.6172 14.0662 12.5069 13.3488 13.586C12.8509 14.485 12.5743 15.4585 12.5356 16.4487C12.5345 16.7547 12.4976 17.0599 12.4255 17.3599C12.4061 17.2746 12.3759 17.1913 12.3353 17.1114C11.7752 15.001 11.0432 12.9251 10.1444 10.8982C10.1142 10.8637 10.0935 10.8239 10.0839 10.7818C10.0743 10.7398 10.076 10.6964 10.089 10.655C10.102 10.6135 10.1259 10.575 10.1589 10.5423C10.1919 10.5095 10.2332 10.4834 10.2798 10.4657C11.8458 9.47615 13.0824 8.16731 13.8714 6.66414C14.4803 5.47325 14.615 4.15011 14.2555 2.89027C14.1652 2.43004 14.0068 1.97902 13.8714 1.51879L13.8494 1.50036C12.8294 2.03212 11.9146 2.69359 11.1381 3.46095C10.5175 4.01213 10.0437 4.6671 9.74776 5.38266C9.45187 6.09822 9.34066 6.85812 9.42149 7.61225C9.4435 8.21975 9.51173 8.84565 9.57885 9.55441C9.52217 9.49584 9.48432 9.42617 9.46884 9.35193C8.97147 8.44068 8.49718 7.52941 7.9998 6.58133C7.95119 6.46312 7.93574 6.33712 7.95467 6.21312C8.01441 5.37998 7.9385 4.54396 7.72907 3.72792C7.56642 3.0967 7.22705 2.50678 6.73877 2.00666C5.76261 1.18988 4.63337 0.512021 3.39578 0C3.32756 0 3.28577 0.0368545 3.21424 0.0368545C3.23735 0.340607 3.30444 0.625924 3.30444 0.929676C3.35521 2.03785 3.66829 3.12658 4.2255 4.13287Z"/>
</svg>
