<svg width="24" height="24" viewBox="0 0 24 24" fill="none" xmlns="http://www.w3.org/2000/svg">
<rect width="24" height="24" fill="white"/>
<path d="M17.589 8.99517C17.589 9.13043 17.589 9.2657 17.589 9.38164C17.589 13.3816 14.6937 18 9.41623 18C7.78534 18 6.28272 17.4976 5 16.6473C5.2199 16.6667 5.45812 16.686 5.67801 16.686C7.01571 16.686 8.26178 16.2029 9.25131 15.3913C7.98691 15.372 6.92408 14.4831 6.57592 13.285C6.75916 13.3237 6.92408 13.343 7.12565 13.343C7.3822 13.343 7.63874 13.3043 7.87696 13.2271C6.55759 12.9565 5.56806 11.7391 5.56806 10.2705C5.56806 10.2512 5.56806 10.2512 5.56806 10.2319C5.95288 10.4638 6.39267 10.599 6.86911 10.6184C6.09948 10.0773 5.58639 9.14976 5.58639 8.08696C5.58639 7.52657 5.73298 7.00483 5.9712 6.56039C7.3822 8.39614 9.50785 9.5942 11.8901 9.72947C11.8351 9.51691 11.8168 9.2657 11.8168 9.03382C11.8168 7.35266 13.0995 6 14.6937 6C15.5183 6 16.2696 6.36715 16.7827 6.94686C17.4424 6.81159 18.0471 6.56039 18.6152 6.21256C18.3953 6.92754 17.9372 7.50725 17.3508 7.89372C17.9372 7.81643 18.4869 7.66184 19 7.41063C18.6335 8.02899 18.1571 8.57005 17.589 8.99517Z"/>
</svg>