<svg width="24" height="24" viewBox="0 0 24 24" fill="none" xmlns="http://www.w3.org/2000/svg">
<rect width="24" height="24" fill="white"/>
<path d="M18.5045 13.1687C18.5 13.1934 18.4969 13.2182 18.4923 13.2429L18.4683 13.1016C18.4814 13.1236 18.4923 13.1465 18.5045 13.1687C18.5768 12.7744 18.6147 12.3708 18.6147 11.9674C18.6147 11.0729 18.44 10.205 18.0947 9.38804C17.7617 8.59884 17.2853 7.8901 16.6778 7.28159C16.0712 6.67307 15.3637 6.19547 14.5768 5.86165C13.7621 5.51606 12.8963 5.34093 12.0039 5.34093C11.5833 5.34093 11.162 5.38049 10.7521 5.45938C10.7512 5.45961 10.7501 5.45961 10.749 5.45983C10.772 5.47205 10.7953 5.48294 10.8179 5.49561L10.6789 5.47383C10.7022 5.46939 10.7257 5.4645 10.749 5.45983C10.1865 5.16002 9.55396 5 8.91366 5C7.86829 5 6.88544 5.40805 6.14625 6.14924C5.40728 6.89021 5 7.87543 5 8.92332C5 9.59029 5.17116 10.2459 5.49242 10.8253C5.49663 10.8013 5.49952 10.7771 5.50417 10.7531L5.52812 10.892C5.5157 10.8702 5.50484 10.8475 5.49242 10.8253C5.42724 11.2007 5.39287 11.5843 5.39287 11.9674C5.39287 12.8622 5.56758 13.7299 5.91279 14.5471C6.24536 15.3365 6.72204 16.0448 7.32886 16.6533C7.93635 17.2618 8.64295 17.7401 9.43069 18.073C10.2455 18.4193 11.1115 18.5946 12.0039 18.5946C12.3923 18.5946 12.7816 18.5591 13.1617 18.4915C13.1395 18.4791 13.1169 18.4677 13.0943 18.4546L13.2355 18.4795C13.2111 18.4842 13.1865 18.4871 13.1617 18.4915C13.7472 18.8235 14.4101 19 15.087 19C16.1322 19 17.1146 18.5926 17.8537 17.8512C18.5932 17.1107 19 16.1252 19 15.0773C19 14.4082 18.828 13.7503 18.5045 13.1687ZM12.0303 16.0259C9.68167 16.0259 8.63098 14.8684 8.63098 14.001C8.63098 13.5561 8.95867 13.2442 9.41029 13.2442C10.4153 13.2442 10.155 14.6909 12.0303 14.6909C12.9903 14.6909 13.5204 14.1684 13.5204 13.6336C13.5204 13.312 13.3621 12.9556 12.73 12.7993L10.641 12.2766C8.95867 11.8537 8.65337 10.942 8.65337 10.085C8.65337 8.3057 10.3246 7.63763 11.8941 7.63763C13.3399 7.63763 15.0442 8.4386 15.0442 9.50606C15.0442 9.96344 14.6491 10.2295 14.1977 10.2295C13.3399 10.2295 13.4978 9.03934 11.77 9.03934C10.9126 9.03934 10.4377 9.42849 10.4377 9.98544C10.4377 10.5413 11.1148 10.7189 11.7028 10.8531L13.249 11.1971C14.9427 11.5754 15.3721 12.5666 15.3721 13.5003C15.3721 14.9462 14.2649 16.0259 12.0303 16.0259ZM13.0943 18.4546C13.1169 18.4677 13.1395 18.4791 13.1617 18.4915C13.1865 18.4871 13.2111 18.4842 13.2355 18.4795L13.0943 18.4546ZM18.4923 13.2429C18.4969 13.2182 18.5 13.1934 18.5045 13.1687C18.4923 13.1465 18.4814 13.1236 18.4683 13.1016L18.4923 13.2429ZM5.50417 10.7531C5.49952 10.7771 5.49663 10.8013 5.49242 10.8253C5.50484 10.8475 5.5157 10.8702 5.52812 10.892L5.50417 10.7531ZM10.8179 5.49561C10.7953 5.48294 10.772 5.47205 10.749 5.45983C10.7257 5.4645 10.7022 5.46939 10.6789 5.47383L10.8179 5.49561Z"/>
</svg>