<svg width="14" height="18" viewBox="0 0 14 18" fill="none" xmlns="http://www.w3.org/2000/svg">
<path d="M6.68727 17.3459C5.7296 16.0072 4.91642 14.8902 4.22592 13.9417C2.99421 12.2498 2.15285 11.094 1.57806 10.1724C1.13604 9.4637 0.871697 8.92333 0.714376 8.41107C0.558354 7.90303 0.5 7.3979 0.5 6.75C0.5 3.31519 3.39284 0.5 7 0.5C10.6072 0.5 13.5 3.31519 13.5 6.75C13.5 7.3979 13.4416 7.90303 13.2856 8.41107C13.1283 8.92333 12.864 9.4637 12.4219 10.1724C11.8471 11.094 11.0058 12.2498 9.77407 13.9417C9.08365 14.8901 8.27057 16.0069 7.31305 17.3455C7.16483 17.5516 6.83484 17.5515 6.68678 17.3453L6.28098 17.6366L6.68727 17.3459ZM7 10.0625C8.86969 10.0625 10.4167 8.59643 10.4167 6.75C10.4167 4.90357 8.86969 3.4375 7 3.4375C5.13031 3.4375 3.58333 4.90357 3.58333 6.75C3.58333 8.59643 5.13031 10.0625 7 10.0625Z"/>
</svg>
