<svg width="18" height="18" viewBox="0 0 18 18" fill="none" xmlns="http://www.w3.org/2000/svg">
<path fill-rule="evenodd" clip-rule="evenodd" d="M7.85599 10.144C6.68599 8.97399 5.80399 7.66399 5.21799 6.33499C5.09399 6.05399 5.16699 5.72499 5.38399 5.50799L6.20299 4.68999C6.87399 4.01899 6.87399 3.06999 6.28799 2.48399L5.11399 1.30999C4.33299 0.528993 3.06699 0.528993 2.28599 1.30999L1.63399 1.96199C0.892993 2.70299 0.583993 3.77199 0.783993 4.83199C1.27799 7.44499 2.79599 10.306 5.24499 12.755C7.69399 15.204 10.555 16.722 13.168 17.216C14.228 17.416 15.297 17.107 16.038 16.366L16.689 15.715C17.47 14.934 17.47 13.668 16.689 12.887L15.516 11.714C14.93 11.128 13.98 11.128 13.395 11.714L12.492 12.618C12.275 12.835 11.946 12.908 11.665 12.784C10.336 12.197 9.02599 11.314 7.85599 10.144Z" stroke-linecap="round" stroke-linejoin="round"/>
</svg>
