<svg width="47" height="47" viewBox="0 0 47 47" fill="none" xmlns="http://www.w3.org/2000/svg">
<path d="M6.45804 39.5854C9.68417 42.8048 14.9075 42.8048 18.1337 39.5854L18.3107 39.4089L18.7599 39.8581C19.5038 40.6017 20.7097 40.6017 21.4537 39.8581L23.6995 37.6128C24.442 36.868 24.442 35.663 23.6995 34.9181L23.2504 34.4693L34.3969 23.3201L34.846 23.7693C35.59 24.513 36.7959 24.513 37.5399 23.7693L39.7851 21.5241C40.5288 20.7801 40.5288 19.5742 39.7851 18.8302L39.3359 18.3811L39.724 17.9924C42.8534 14.7532 42.8092 9.60393 39.6246 6.41879C36.4404 3.23365 31.2911 3.18859 28.051 6.31704L27.6629 6.70515L27.214 6.25599C26.4599 5.53645 25.2735 5.53645 24.5194 6.25599L22.2738 8.50093C21.5299 9.24518 21.5299 10.4511 22.2738 11.195L22.7233 11.6448L11.5744 22.7931L11.1253 22.3442C10.768 21.9866 10.2833 21.786 9.77807 21.786C9.27251 21.786 8.78787 21.9866 8.43058 22.3442L6.18563 24.5891C5.82834 24.9464 5.62745 25.4311 5.62745 25.9363C5.62745 26.4419 5.82834 26.9265 6.18563 27.2838L6.63451 27.7327L6.45804 27.91C3.2386 31.1362 3.2386 36.3595 6.45804 39.5854ZM22.8015 35.8162C22.9207 35.9354 22.9878 36.097 22.9878 36.2656C22.9878 36.4342 22.9207 36.5959 22.8015 36.7148L20.5557 38.96C20.3077 39.2077 19.9056 39.2077 19.6576 38.96L19.2088 38.5109L22.3523 35.3673L22.8015 35.8162ZM38.8894 19.7283C39.1374 19.9763 39.1374 20.378 38.8894 20.6263L36.6444 22.8713C36.393 23.1108 35.9979 23.1108 35.7464 22.8713L35.2975 22.4221L38.4405 19.2791L38.8894 19.7283ZM38.826 7.21682C41.5498 9.94668 41.5498 14.3665 38.826 17.0964L37.9916 17.9339L33.9524 21.9732L21.904 34.0195L17.863 38.0611L17.2368 38.6868C15.4721 40.4517 12.8998 41.1413 10.4889 40.4956C8.07793 39.8499 6.19494 37.9669 5.54866 35.5563C4.90239 33.1453 5.5914 30.573 7.35607 28.8081L26.0913 10.0729L28.1095 8.05206L28.9459 7.21565C31.676 4.48957 36.0982 4.48928 38.8286 7.21507L38.826 7.21682ZM23.6187 10.7479L23.1698 10.299C22.9218 10.0511 22.9218 9.64899 23.1698 9.401L25.4162 7.15606C25.6674 6.91563 26.0631 6.91563 26.3143 7.15606L26.7626 7.60493L25.1932 9.17482L23.6187 10.7479ZM7.08367 26.3858C6.83568 26.1378 6.83568 25.7357 7.08367 25.4877L9.32861 23.2422C9.44781 23.1227 9.60945 23.0559 9.77807 23.0559C9.94669 23.0559 10.1083 23.1227 10.2272 23.2422L10.6764 23.6911L7.53254 26.8349L7.08367 26.3858Z" stroke-width="0.2"/>
<path d="M14.6755 29.0152C14.663 28.9768 14.6447 28.9405 14.6214 28.9074C14.504 28.7291 14.3051 28.6213 14.0917 28.6201C14.0086 28.6239 13.9263 28.6419 13.8493 28.6736C13.7722 28.7044 13.7022 28.7504 13.6429 28.8082C13.5213 28.926 13.4527 29.0879 13.4521 29.2571C13.4565 29.3402 13.4745 29.4222 13.5062 29.4993C13.5667 29.6563 13.6908 29.7804 13.8478 29.8409C13.9249 29.8726 14.0068 29.8909 14.09 29.8949C14.347 29.8949 14.5781 29.7382 14.6735 29.4998C14.7049 29.4228 14.7232 29.3408 14.7275 29.2577C14.7255 29.2173 14.7211 29.1766 14.7142 29.1364C14.7066 29.0946 14.6938 29.0539 14.6755 29.0152Z" stroke-width="0.2"/>
<path d="M11.9781 31.709C11.9653 31.6707 11.9472 31.6343 11.9249 31.6009C11.8065 31.4233 11.608 31.3157 11.3943 31.314C11.3111 31.3177 11.2289 31.3361 11.1518 31.368C10.9132 31.4634 10.757 31.6945 10.7573 31.9515C10.7614 32.0347 10.7794 32.1163 10.8108 32.1937C10.8719 32.3504 10.9957 32.4742 11.1524 32.5353C11.2297 32.5664 11.3117 32.5847 11.3952 32.5893C11.6522 32.5896 11.8833 32.4329 11.9781 32.1943C12.0098 32.1169 12.0281 32.0349 12.0321 31.9515C12.0301 31.9108 12.0257 31.8704 12.0188 31.8303C12.0106 31.7881 11.997 31.7474 11.9781 31.709Z" stroke-width="0.2"/>
<path d="M17.3697 31.7091C17.3572 31.6707 17.3392 31.6343 17.3162 31.6009C17.1979 31.4233 16.9994 31.3157 16.786 31.314C16.7025 31.318 16.6206 31.3361 16.5432 31.368C16.4665 31.3986 16.3964 31.4445 16.3377 31.5026C16.2159 31.6204 16.1473 31.7823 16.147 31.9515C16.151 32.0347 16.1694 32.1166 16.201 32.1937C16.2615 32.3504 16.3854 32.4745 16.5421 32.5353C16.6194 32.5664 16.7014 32.5847 16.7848 32.5894C16.9537 32.5885 17.1157 32.5199 17.2337 32.3986C17.2915 32.3393 17.3375 32.2693 17.3683 32.1922C17.4 32.1152 17.418 32.0329 17.4218 31.9498C17.4197 31.9091 17.4151 31.8687 17.4084 31.8283C17.4008 31.787 17.3878 31.7468 17.3697 31.7091Z" stroke-width="0.2"/>
<path d="M14.6755 34.4039C14.663 34.3652 14.6447 34.3289 14.6214 34.2957C14.5037 34.1178 14.3051 34.0102 14.0917 34.0088C14.0086 34.0123 13.9263 34.0306 13.8493 34.062C13.7725 34.0934 13.7025 34.139 13.6429 34.1969C13.5213 34.3146 13.4527 34.4766 13.4521 34.6458C13.4565 34.7292 13.4748 34.8112 13.5062 34.8885C13.5373 34.9653 13.583 35.0353 13.6408 35.0949C13.7001 35.1531 13.7705 35.1987 13.8478 35.2295C13.9249 35.2612 14.0068 35.2795 14.09 35.2833C14.2592 35.283 14.4208 35.2141 14.5389 35.0929C14.5967 35.0336 14.6427 34.9635 14.6735 34.8865C14.7049 34.8091 14.7232 34.7272 14.7275 34.644C14.7255 34.6033 14.7211 34.5626 14.7142 34.5225C14.7066 34.4815 14.6935 34.4417 14.6755 34.4039Z" stroke-width="0.2"/>
<path d="M31.6431 11.7059C31.7027 11.7638 31.773 11.8094 31.85 11.8405C31.9271 11.8722 32.0088 11.8905 32.0919 11.8943C32.2614 11.894 32.4233 11.8254 32.5411 11.7039C32.5989 11.6446 32.6446 11.5745 32.6757 11.4975C32.7071 11.4202 32.7254 11.3382 32.7298 11.255C32.7277 11.2143 32.7231 11.1742 32.7164 11.1341C32.7085 11.0919 32.6949 11.0512 32.6757 11.0129C32.6629 10.9742 32.6449 10.9379 32.6216 10.9044C32.5039 10.7265 32.3053 10.6189 32.0919 10.6172C32.0088 10.6215 31.9268 10.6399 31.8495 10.6713C31.7724 10.7021 31.7024 10.748 31.6431 10.8059C31.5218 10.9239 31.4532 11.0858 31.4526 11.255C31.4567 11.3379 31.475 11.4199 31.5064 11.4969C31.5378 11.5748 31.5843 11.6458 31.6431 11.7059Z" stroke-width="0.2"/>
<path d="M28.8136 14.1929C28.8747 14.3496 28.9985 14.4737 29.1552 14.5348C29.2326 14.5659 29.3145 14.5842 29.398 14.5886C29.655 14.5892 29.8861 14.4325 29.9809 14.1938C30.0126 14.1164 30.0309 14.0345 30.035 13.951C30.0329 13.9103 30.0283 13.8699 30.0216 13.8298C30.0137 13.7876 30.0001 13.7466 29.9809 13.7086C29.9687 13.6699 29.9506 13.6336 29.9277 13.6004C29.8094 13.4228 29.6108 13.3152 29.3971 13.3135C29.314 13.3175 29.232 13.3356 29.1546 13.3667C29.0776 13.3981 29.0075 13.444 28.9482 13.5022C28.8267 13.6199 28.7581 13.7818 28.7578 13.951C28.7625 14.0342 28.7814 14.1162 28.8136 14.1929Z" stroke-width="0.2"/>
<path d="M34.3379 14.4002C34.3975 14.4578 34.4675 14.5034 34.5443 14.5348C34.6216 14.5659 34.7036 14.5842 34.7868 14.5886C35.0438 14.5886 35.2749 14.4322 35.3705 14.1938C35.4019 14.1165 35.4202 14.0345 35.4246 13.951C35.422 13.9103 35.4173 13.8699 35.4107 13.8298C35.4025 13.7876 35.3891 13.7469 35.3705 13.7086C35.358 13.6699 35.3397 13.6336 35.3165 13.6004C35.1987 13.4228 35.0002 13.3152 34.7868 13.3135C34.7033 13.3175 34.621 13.3356 34.5437 13.3667C34.467 13.3981 34.3969 13.444 34.3379 13.5022C34.2161 13.6199 34.1475 13.7818 34.1475 13.951C34.1512 14.0342 34.1696 14.1162 34.2012 14.1929C34.2326 14.2702 34.2792 14.3406 34.3379 14.4002Z" stroke-width="0.2"/>
<path d="M31.6431 17.0946C31.7027 17.1525 31.773 17.1984 31.85 17.2292C31.9271 17.2612 32.0088 17.2795 32.0919 17.2833C32.3492 17.2839 32.5806 17.1275 32.6757 16.8882C32.7071 16.8112 32.7254 16.7295 32.7298 16.6463C32.7277 16.6056 32.7234 16.5652 32.7164 16.5251C32.7085 16.483 32.6949 16.442 32.6757 16.4039C32.6632 16.3652 32.6449 16.3289 32.6216 16.2957C32.5042 16.1175 32.3056 16.01 32.0919 16.0088C32.0088 16.0123 31.9265 16.0306 31.8495 16.062C31.7727 16.0934 31.7027 16.139 31.6431 16.1966C31.5218 16.3146 31.4532 16.4766 31.4526 16.6458C31.4567 16.7289 31.475 16.8112 31.5064 16.8882C31.5381 16.9656 31.5843 17.0356 31.6431 17.0946Z" stroke-width="0.2"/>
</svg>
