<svg width="40" height="36" viewBox="0 0 40 36" fill="none" xmlns="http://www.w3.org/2000/svg">
<path d="M0.5 0.5H39.5V35.5H0.5V0.5Z" fill="#FBFCFD" stroke="#E8E8E8"/>
<path d="M17.5337 18.526C17.3284 18.526 17.1511 18.4513 17.0017 18.302C16.8617 18.1527 16.7917 17.9707 16.7917 17.756C16.7917 17.5413 16.8617 17.364 17.0017 17.224C17.1511 17.0747 17.3284 17 17.5337 17C17.7391 17 17.9164 17.0747 18.0657 17.224C18.2151 17.364 18.2897 17.5413 18.2897 17.756C18.2897 17.9707 18.2151 18.1527 18.0657 18.302C17.9164 18.4513 17.7391 18.526 17.5337 18.526Z" fill="#808080"/>
<path d="M20.5005 18.526C20.2952 18.526 20.1179 18.4513 19.9685 18.302C19.8285 18.1527 19.7585 17.9707 19.7585 17.756C19.7585 17.5413 19.8285 17.364 19.9685 17.224C20.1179 17.0747 20.2952 17 20.5005 17C20.7059 17 20.8832 17.0747 21.0325 17.224C21.1819 17.364 21.2565 17.5413 21.2565 17.756C21.2565 17.9707 21.1819 18.1527 21.0325 18.302C20.8832 18.4513 20.7059 18.526 20.5005 18.526Z" fill="#808080"/>
<path d="M23.4673 18.526C23.262 18.526 23.0847 18.4513 22.9353 18.302C22.7953 18.1527 22.7253 17.9707 22.7253 17.756C22.7253 17.5413 22.7953 17.364 22.9353 17.224C23.0847 17.0747 23.262 17 23.4673 17C23.6727 17 23.85 17.0747 23.9993 17.224C24.1487 17.364 24.2233 17.5413 24.2233 17.756C24.2233 17.9707 24.1487 18.1527 23.9993 18.302C23.85 18.4513 23.6727 18.526 23.4673 18.526Z" fill="#808080"/>
</svg>
