<svg version="1.1" xmlns="http://www.w3.org/2000/svg" xmlns:xlink="http://www.w3.org/1999/xlink" x="0px" y="0px"
	 viewBox="0 0 200 200" style="enable-background:new 0 0 200 200;" xml:space="preserve">
<g>
	<path style="opacity:0.15;enable-background:new    ;" d="M167.8,89.8c-2.8,7.6-10,13.4-19.6,13.4
		c-17.2,0-45.7-15.4-45.7-32.6c0-15.7,11.6-28.7,26.8-30.8c-8.5-3.9-18-6.1-27.9-6.1c-13.9,0-26.8,4.2-37.5,11.4
		c-4,2.7-7.7,5.8-11,9.2L41.1,70.9c-4.6,9.1-7.2,19.4-7.2,30.3c0,30.6,20.3,56.4,48.2,64.6c0-0.3,0-0.7,0-1l11.2-55.6
		c0.4-2,2.3-3.3,4.3-2.9c2,0.4,3.3,2.3,2.9,4.3l-11.2,55.6c-0.1,0.4-0.3,0.8-0.5,1.2c4,0.8,8.2,1.2,12.5,1.2c2.9,0,5.7-0.2,8.4-0.5
		c-0.1-0.2-0.1-0.5-0.1-0.7v-20.3l3.4-16.7l-6.7,33.5c-0.4,2-2.3,3.3-4.3,2.9l0,0c-2-0.4-3.3-2.3-2.9-4.3l11.2-55.6
		c0.4-2,2.3-3.3,4.3-2.9c2,0.4,3.3,2.3,2.9,4.3l-0.5,2.3v56.1c1-0.2,1.9-0.5,2.9-0.8l11.2-55.5c0.4-2,2.3-3.3,4.3-2.9
		c2,0.4,3.3,2.3,2.9,4.3L128,163c24-10.3,40.8-34.2,40.8-62C168.8,97.3,168.4,93.5,167.8,89.8z M58.6,122.3
		c-11.5,0-20.9-9.4-20.9-20.9s9.4-20.9,20.9-20.9s20.9,9.4,20.9,20.9S70.2,122.3,58.6,122.3z M77.2,78.9c-10.1,0-18.3-8.2-18.3-18.3
		s8.2-18.3,18.3-18.3s18.3,8.2,18.3,18.3S87.3,78.9,77.2,78.9z"/>
	<path style="opacity:0.15;enable-background:new    ;" d="M146.1,79c0,8.8-4.2,12.8-12.7,12.8s-14.2-5.2-14.2-14.1
		S125.5,64,130.7,63C139,61.4,146.1,70.1,146.1,79z"/>
</g>
<g>
	<g>
		<path d="M130.7,93.7c-11.7,0-19.2-7.2-19.2-18.4c0-11.1,8-17.7,15.5-19.2c4.7-0.8,9.4,0.5,13.3,3.8
			c4.8,4,7.8,10.5,7.8,16.9C148.1,88,142.2,93.7,130.7,93.7z M129.8,59.9c-0.7,0-1.3,0.1-2,0.2c-5.9,1.1-12.2,6.4-12.2,15.2
			c0,9,5.7,14.4,15.2,14.4c9.4,0,13.4-3.9,13.4-12.9c0-5.2-2.4-10.5-6.4-13.8C136,61.5,133.3,59.9,129.8,59.9z"/>
	</g>
	<g>
		<g>
			<g>
				<path d="M100,183c-44.9,0-81.5-36.6-81.5-81.5c0-12.8,2.9-25.1,8.7-36.7c0.5-1,1.7-1.4,2.7-0.9
					c1,0.5,1.4,1.7,0.9,2.7c-5.5,11-8.3,22.7-8.3,34.9c0,42.7,34.8,77.5,77.5,77.5c42.7,0,77.5-34.8,77.5-77.5
					c0-42.7-34.8-77.5-77.5-77.5c-15.5,0-30.4,4.5-43.1,13.1c-4.8,3.3-9.1,6.9-12.7,10.6c-0.8,0.8-2,0.8-2.8,0.1
					c-0.8-0.8-0.8-2-0.1-2.8c3.8-4,8.3-7.7,13.3-11.2C68,24.8,83.7,20,100,20c44.9,0,81.5,36.6,81.5,81.5S144.9,183,100,183z"/>
			</g>
			<g>
				<path d="M32,62.2c-0.4,0-0.7-0.1-1-0.3c-0.9-0.6-1.3-1.8-0.7-2.7l4.8-8c0.6-0.9,1.8-1.3,2.7-0.7
					c0.9,0.6,1.3,1.8,0.7,2.7l-4.8,8C33.3,61.9,32.7,62.2,32,62.2z"/>
			</g>
		</g>
		<g>
			<g>
				<path d="M57.4,124.3c-12.6,0-22.9-10.3-22.9-22.9s10.3-22.9,22.9-22.9s22.9,10.3,22.9,22.9
					S70,124.3,57.4,124.3z M57.4,82.5c-10.4,0-18.9,8.5-18.9,18.9c0,10.4,8.5,18.9,18.9,18.9s18.9-8.5,18.9-18.9
					C76.3,91,67.8,82.5,57.4,82.5z"/>
			</g>
			<g>
				<path d="M56.4,116.8c0,0-0.1,0-0.1,0c-1.1-0.1-2-1-1.9-2.1l0.5-9.7c0.1-1.1,1-2,2.1-1.9
					c1.1,0.1,2,1,1.9,2.1l-0.5,9.7C58.3,116,57.5,116.8,56.4,116.8z"/>
			</g>
			<g>
				<path d="M71.7,108.6c-0.2,0-0.5,0-0.7-0.1l-9.6-3.6c-1-0.4-1.6-1.5-1.2-2.6c0.4-1,1.5-1.6,2.6-1.2
					l9.6,3.6c1,0.4,1.6,1.5,1.2,2.6C73.3,108.1,72.5,108.6,71.7,108.6z"/>
			</g>
			<g>
				<path d="M60.6,97.6c-0.3,0-0.6-0.1-0.9-0.2c-1-0.5-1.4-1.7-0.9-2.7l4.2-8.1c0.5-1,1.7-1.4,2.7-0.9
					c1,0.5,1.4,1.7,0.9,2.7l-4.2,8.1C62,97.2,61.3,97.6,60.6,97.6z"/>
			</g>
			<g>
				<path d="M51.2,99.3c-0.4,0-0.8-0.1-1.2-0.4l-7.5-5.7c-0.9-0.7-1.1-1.9-0.4-2.8c0.7-0.9,1.9-1.1,2.8-0.4
					l7.5,5.7c0.9,0.7,1.1,1.9,0.4,2.8C52.4,99,51.8,99.3,51.2,99.3z"/>
			</g>
			<g>
				<path d="M43.7,110.7c-0.6,0-1.3-0.3-1.7-0.9c-0.6-0.9-0.4-2.2,0.5-2.8l7.5-5.1c0.9-0.6,2.2-0.4,2.8,0.5
					c0.6,0.9,0.4,2.2-0.5,2.8l-7.5,5.1C44.5,110.6,44.1,110.7,43.7,110.7z"/>
			</g>
		</g>
		<g>
			<g>
				<path d="M76,80.8c-11.2,0-20.3-9.1-20.3-20.3c0-11.2,9.1-20.3,20.3-20.3s20.3,9.1,20.3,20.3
					C96.3,71.7,87.2,80.8,76,80.8z M76,44.2c-9,0-16.3,7.3-16.3,16.3S67,76.8,76,76.8s16.3-7.3,16.3-16.3S85,44.2,76,44.2z"/>
			</g>
			<g>
				<path d="M75.1,74.3C75.1,74.3,75,74.3,75.1,74.3c-1.2-0.1-2.1-1-2-2.1l0.4-8.5c0.1-1.1,1-2,2.1-1.9
					c1.1,0.1,2,1,1.9,2.1l-0.4,8.5C77,73.5,76.2,74.3,75.1,74.3z"/>
			</g>
			<g>
				<path d="M88.5,67.1c-0.2,0-0.5,0-0.7-0.1l-8.4-3.2c-1-0.4-1.6-1.5-1.2-2.6c0.4-1,1.5-1.5,2.6-1.2l8.4,3.2
					c1,0.4,1.6,1.5,1.2,2.6C90.1,66.6,89.3,67.1,88.5,67.1z"/>
			</g>
			<g>
				<path d="M78.7,57.4c-0.3,0-0.6-0.1-0.9-0.2c-1-0.5-1.3-1.7-0.8-2.7l3.7-7c0.5-1,1.7-1.4,2.7-0.8
					c1,0.5,1.3,1.7,0.8,2.7l-3.7,7C80.1,57,79.4,57.4,78.7,57.4z"/>
			</g>
			<g>
				<path d="M70.5,58.9c-0.4,0-0.8-0.1-1.2-0.4l-6.6-5c-0.9-0.7-1.1-1.9-0.4-2.8c0.7-0.9,1.9-1.1,2.8-0.4
					l6.6,5c0.9,0.7,1.1,1.9,0.4,2.8C71.7,58.6,71.1,58.9,70.5,58.9z"/>
			</g>
			<g>
				<path d="M63.9,68.9c-0.6,0-1.3-0.3-1.7-0.9c-0.6-0.9-0.4-2.2,0.5-2.8l6.6-4.5c0.9-0.6,2.2-0.4,2.8,0.5
					c0.6,0.9,0.4,2.2-0.5,2.8L65,68.6C64.7,68.8,64.3,68.9,63.9,68.9z"/>
			</g>
		</g>
		<g>
			<path d="M147,105.3c-18,0-47.7-16.2-47.7-34.6c0-18.3,14.9-33.2,33.2-33.2c13.8,0,19.5,9.9,25.5,20.4
				c2.2,3.8,4.4,7.8,7.2,11.6c5.2,7.1,6,15.8,2.2,23.5C163.5,100.7,155.9,105.3,147,105.3z M132.5,41.5c-16.1,0-29.2,13.1-29.2,29.2
				c0,15.8,27.3,30.6,43.7,30.6c7.3,0,13.6-3.8,16.8-10.1c3.2-6.3,2.5-13.5-1.8-19.3c0,0,0,0,0,0c-2.9-4-5.2-8-7.5-12
				C148.6,49.6,144,41.5,132.5,41.5z"/>
		</g>
		<g>
			<path d="M134.6,105.6c-3.1-0.6-6,1.4-6.7,4.5l-10,49.8v-49.2c0-0.1,0-0.1,0-0.1l0.4-1.9
				c0.3-1.5,0-3-0.9-4.3c-0.8-1.2-2.1-2.1-3.6-2.4c-1.5-0.3-3,0-4.3,0.9c-1.2,0.8-2.1,2.1-2.4,3.6l-11.2,55.6
				c-0.6,3.1,1.4,6,4.5,6.7c0.4,0.1,0.8,0.1,1.1,0.1c1.1,0,2.2-0.3,3.1-1c0.8-0.5,1.4-1.3,1.8-2.1v1.5c0,3.1,2.6,5.7,5.7,5.7
				c2.3,0,4.3-1.4,5.2-3.4c0.1,0.1,0.1,0.2,0.2,0.4c0.8,1.2,2.1,2.1,3.6,2.4c0.4,0.1,0.8,0.1,1.1,0.1c1.1,0,2.2-0.3,3.1-1
				c1.2-0.8,2.1-2.1,2.4-3.6l11.2-55.6C139.7,109.2,137.7,106.3,134.6,105.6z M103.1,163.5c-0.1,0.5-0.3,0.8-0.7,1.1
				c-0.4,0.2-0.8,0.3-1.2,0.2c-0.9-0.2-1.5-1-1.3-1.9l11.2-55.6c0.2-0.8,0.8-1.4,1.6-1.4c0.1,0,0.2,0,0.3,0c0.5,0.1,0.8,0.3,1.1,0.7
				c0.2,0.4,0.3,0.8,0.2,1.2L103.1,163.5z M113.9,167.3c0,1-0.7,1.7-1.7,1.7s-1.7-0.7-1.7-1.7v-20l3.4-16.7V167.3z M135.1,111.5
				l-11.2,55.6c-0.2,0.9-1,1.5-1.9,1.3h0c-0.5-0.1-0.8-0.3-1.1-0.7c-0.2-0.4-0.3-0.8-0.2-1.2l11.2-55.6c0.2-0.8,0.8-1.4,1.6-1.4
				c0.1,0,0.2,0,0.3,0C134.7,109.7,135.3,110.6,135.1,111.5z"/>
			<path  d="M100.4,106.7c-0.8-1.2-2.1-2.1-3.6-2.4c-1.5-0.3-3,0-4.3,0.9c-1.2,0.8-2.1,2.1-2.4,3.6l-11.2,55.6
				c-0.3,1.5,0,3,0.9,4.3c0.8,1.2,2.1,2.1,3.6,2.4c0.4,0.1,0.8,0.1,1.2,0.1c1.1,0,2.2-0.3,3.1-0.9c1.2-0.8,2.1-2.1,2.4-3.6
				l11.2-55.6C101.6,109.5,101.3,108,100.4,106.7z M97.3,110.2l-11.2,55.6c-0.1,0.5-0.3,0.8-0.7,1.1s-0.8,0.3-1.3,0.2c0,0,0,0,0,0
				c-0.5-0.1-0.8-0.3-1.1-0.7c-0.2-0.4-0.3-0.8-0.2-1.2l11.2-55.6c0.1-0.5,0.3-0.8,0.7-1.1c0.3-0.2,0.6-0.3,0.9-0.3
				c0.1,0,0.2,0,0.3,0C96.9,108.4,97.5,109.3,97.3,110.2z"/>
		</g>
	</g>
</g>
</svg>
