<svg width="47" height="47" viewBox="0 0 47 47" fill="none" xmlns="http://www.w3.org/2000/svg">
<path fill-rule="evenodd" clip-rule="evenodd" d="M28.4484 17.8604H22.4696C21.1321 17.8604 20.1881 16.5502 20.6111 15.2832V15.2832C21.2672 13.3131 23.11 11.9854 25.1858 11.9854H25.7302C27.8061 11.9854 29.6489 13.3131 30.3049 15.2832V15.2832C30.7279 16.5502 29.784 17.8604 28.4484 17.8604V17.8604Z" fill="none" stroke-width="1.6" stroke-linecap="round" stroke-linejoin="round"/>
<path d="M13.6944 25.9731H7.83312C6.6307 25.9731 5.71224 27.0463 5.89828 28.2331L6.57195 32.5414C7.16728 36.3562 10.4514 39.1664 14.3113 39.1664H32.6883C36.5482 39.1664 39.8323 36.3562 40.4276 32.5434L41.1013 28.235C41.2873 27.0483 40.3689 25.9751 39.1665 25.9751H24.0148" fill="none" stroke-width="1.6" stroke-linecap="round" stroke-linejoin="round"/>
<path d="M25.4583 11.985V11.75C25.4583 8.50504 28.0883 5.875 31.3333 5.875V5.875C34.5782 5.875 37.2083 8.50504 37.2083 11.75V25.9734" fill="none" stroke-width="1.6" stroke-linecap="round" stroke-linejoin="round"/>
<path fill-rule="evenodd" clip-rule="evenodd" d="M19.8927 33.8067H17.8305C15.555 33.8067 13.7083 31.962 13.7083 29.6844V25.758C13.7083 24.5105 14.7188 23.5 15.9662 23.5H21.757C23.0045 23.5 24.015 24.5105 24.015 25.758V29.6844C24.015 31.962 22.1702 33.8067 19.8927 33.8067Z" fill="none" stroke-width="1.6" stroke-linecap="round" stroke-linejoin="round"/>
<path d="M11.8284 38.7749L9.79175 41.1249" fill="none" stroke-width="1.6" stroke-linecap="round" stroke-linejoin="round"/>
<path d="M37.2083 41.1249L35.1716 38.7749" fill="none" stroke-width="1.6" stroke-linecap="round" stroke-linejoin="round"/>
</svg>
