<svg width="47" height="47" viewBox="0 0 47 47" fill="none" xmlns="http://www.w3.org/2000/svg">
<g clip-path="url(#clip25470)">
<path d="M41.8734 26.784C41.7538 26.6246 41.5663 26.5308 41.367 26.5308H39.8524L41.9493 17.1208C42.026 16.775 41.9586 16.4129 41.7626 16.1178C41.5775 15.8361 41.2842 15.6433 40.9522 15.5849L38.5092 15.1547C38.4009 15.1376 38.2908 15.1356 38.182 15.1487L38.1816 9.54773C38.1951 9.17742 38.0587 8.81719 37.8032 8.54873C37.5751 8.30934 37.2591 8.17366 36.9285 8.17322H34.4539C33.7572 8.19177 33.2017 8.76118 33.2003 9.45812L33.1536 11.0087L32.0078 10.7405C31.6703 10.6615 31.3151 10.7246 31.0255 10.9151C30.7359 11.1056 30.5371 11.4066 30.4759 11.7478L30.3219 12.5758C30.2448 12.5471 30.1651 12.5256 30.084 12.5119L27.3703 12.0597L27.3961 11.3874C27.4098 11.0434 27.2826 10.7085 27.0439 10.4603C26.8053 10.2121 26.4757 10.0718 26.1313 10.072H25.5167L26.3094 7.43912C26.4134 7.11131 26.3809 6.75538 26.2191 6.4519C26.0649 6.15533 25.7981 5.93315 25.4785 5.83531L23.0626 5.06997C22.7397 4.96679 22.3886 4.99824 22.0892 5.15721C21.7896 5.31618 21.5669 5.58932 21.4715 5.91468L19.9022 11.1354L19.8419 9.39537C19.8202 8.71178 19.2579 8.16988 18.574 8.17322H16.0295C15.6858 8.1727 15.3565 8.31194 15.1174 8.55897C14.8783 8.80599 14.7499 9.13959 14.7616 9.4832L14.8942 13.3109L12.0292 13.7814C11.3767 13.888 10.9152 14.4775 10.9683 15.1365H9.06328C8.36442 15.1373 7.79804 15.7037 7.79722 16.4026V20.302L7.13018 19.8131C6.86757 19.6156 6.5362 19.5328 6.21158 19.5834C5.87769 19.6343 5.57859 19.8184 5.3826 20.0934L4.24829 21.6873C3.84051 22.252 3.94533 23.037 4.48693 23.4751L7.7973 26.0174V26.5308H4.65199C4.45281 26.5308 4.2652 26.6246 4.14562 26.784C4.02611 26.9433 3.9885 27.1497 4.04429 27.3409L7.34479 38.6558C8.10255 41.2175 10.4509 42.9788 13.1223 42.9893H32.8973C35.5687 42.9789 37.917 41.2175 38.6749 38.6558L41.9747 27.3409C42.0305 27.1497 41.9929 26.9433 41.8734 26.784ZM38.1662 16.9088H38.1822V16.8432L38.2897 16.4016L40.7136 16.8461L38.5559 26.5308H35.8227L38.1662 16.9088ZM34.4657 9.49922C34.4669 9.46495 34.478 9.44329 34.4662 9.43928L36.8933 9.42912C36.8988 9.43372 36.918 9.46035 36.9161 9.528V16.8445L35.3916 23.0111L34.0947 21.4354L35.54 12.7988C35.6543 12.1362 35.234 11.4988 34.58 11.3427L34.4118 11.3033L34.4657 9.49922ZM31.7203 11.9736L33.6181 12.4164L34.2913 12.5886L33.0279 20.1391L31.6467 18.461C31.4153 18.1818 31.0784 18.0113 30.7164 17.9899C30.6777 17.9875 30.6399 17.9937 30.6014 17.9947L31.7203 11.9736ZM30.6045 19.2641L30.6688 19.265L35.0128 24.5434L34.5215 26.5308H33.6448L29.8676 22.0218L28.9008 20.8905L30.6045 19.2641ZM31.9555 26.4861L31.9481 26.5308H29.4123L29.7734 23.882L31.9555 26.4861ZM27.3212 13.3349L29.8757 13.7607L29.2621 18.2711L29.2544 18.3124L29.2564 18.3128L29.2484 18.3719L29.2439 18.3899H29.2433L29.2414 18.3986L29.2358 18.4233L29.1431 18.909L28.0267 19.9747C27.5422 20.4266 27.5 21.18 27.9308 21.6833L28.5044 22.3678L27.719 26.5308H26.8137L27.3212 13.3349ZM26.1313 11.338L25.5471 26.5305H23.0144L23.5986 11.338H26.1313ZM22.6782 6.27602L25.0989 7.06635L24.1938 10.072H23.5992C22.9183 10.0703 22.3585 10.6087 22.3338 11.2892L22.3076 11.9713H20.9726L22.6782 6.27602ZM22.2589 13.2374L21.7476 26.5308H20.4358L19.9751 13.2374H22.2589ZM18.5741 9.43928L19.1694 26.5308H16.6188L16.0296 9.43928H18.5741ZM14.9386 14.5866L15.3523 26.5307H13.3962L12.2346 15.0307L14.9386 14.5866ZM9.06328 16.4025H11.0949L11.7877 23.2272L9.06328 21.23V16.4025ZM5.27452 22.4285L6.37857 20.8315L11.9598 24.9229L12.1231 26.5308H10.5467L5.27452 22.4285ZM37.4595 38.3016C36.8612 40.3244 35.0067 41.7153 32.8973 41.7232H13.1223C11.0129 41.7152 9.15846 40.3244 8.56011 38.3016L5.4958 27.7968H40.5232L37.4595 38.3016Z" stroke="none"/>
<path d="M11.0161 37.1377C11.3757 38.3518 12.4889 39.1864 13.7552 39.1912H17.2924C17.642 39.1912 17.9254 38.9078 17.9254 38.5582C17.9254 38.2086 17.642 37.9252 17.2924 37.9252H13.7552C13.0552 37.924 12.4382 37.4655 12.2351 36.7955L10.9603 32.0633C10.8693 31.7257 10.5219 31.5257 10.1842 31.6167C9.8465 31.7077 9.64658 32.0552 9.73753 32.3928L11.0161 37.1377Z" stroke="none"/>
</g>
<defs>
<clipPath id="clip25470">
<rect width="38" height="38" fill="white" transform="translate(4 5)"/>
</clipPath>
</defs>
</svg>