<svg width="31" height="31" viewBox="0 0 31 31" fill="none" xmlns="http://www.w3.org/2000/svg">
    <rect width="31" height="31" rx="2" fill="#FFFD01"/>
    <path d="M24.1872 19.1184C21.7695 18.7205 20.68 16.2441 20.6359 16.139C20.6325 16.1322 20.6302 16.1254 20.6257 16.1187C20.5025 15.8677 20.4731 15.6609 20.5409 15.5038C20.6732 15.1941 21.1795 15.0336 21.5141 14.9274C21.6113 14.8968 21.7028 14.8675 21.7786 14.8381C22.1086 14.7081 22.3437 14.5668 22.4997 14.4074C22.685 14.2164 22.7212 14.0333 22.7189 13.9146C22.7133 13.6253 22.4918 13.3676 22.138 13.2421C22.0193 13.1935 21.8826 13.1675 21.7447 13.1675C21.6509 13.1675 21.5107 13.18 21.3785 13.2421C21.0959 13.3744 20.8427 13.4467 20.6246 13.4569C20.5093 13.4512 20.4279 13.4264 20.3748 13.4026C20.3816 13.2896 20.3884 13.1732 20.3963 13.0534L20.3997 13.0014C20.4776 11.7773 20.5737 10.2549 20.1691 9.35065C19.8922 8.73127 19.5203 8.19891 19.0626 7.76716C18.6794 7.40547 18.2341 7.1116 17.739 6.89459C16.8789 6.51483 16.0764 6.45831 15.674 6.45831H15.6729C15.6571 6.45831 15.6424 6.45831 15.6288 6.45831C15.5169 6.45944 15.335 6.4617 15.318 6.4617C14.9168 6.4617 14.1131 6.51822 13.2508 6.89798C12.7568 7.11499 12.3138 7.40773 11.9317 7.76942C11.4762 8.20118 11.1055 8.7324 10.8297 9.34952C10.4251 10.2526 10.5212 11.7751 10.598 12.998V13.0003C10.6059 13.1314 10.615 13.2681 10.6229 13.4015C10.5641 13.4275 10.4681 13.4569 10.3268 13.4569C10.0985 13.4569 9.8272 13.3846 9.5209 13.241C9.43048 13.1992 9.32762 13.1777 9.2146 13.1777C9.03262 13.1777 8.83935 13.2308 8.6732 13.3292C8.46297 13.4524 8.32734 13.6253 8.29004 13.8186C8.26631 13.9452 8.26744 14.1972 8.54774 14.4526C8.70259 14.5928 8.92864 14.7228 9.22138 14.8381C9.29824 14.8686 9.38979 14.8968 9.48586 14.9274C9.82042 15.0336 10.3279 15.1941 10.4601 15.5038C10.5268 15.6609 10.4974 15.8677 10.3742 16.1187C10.3709 16.1254 10.3675 16.1322 10.3652 16.139C10.3336 16.2113 10.0453 16.8612 9.45421 17.5473C9.11852 17.9372 8.74893 18.2639 8.3556 18.5171C7.87524 18.8268 7.35645 19.0279 6.81279 19.1172C6.59917 19.1523 6.44659 19.3422 6.45902 19.558C6.46241 19.6202 6.47711 19.6824 6.5031 19.7423V19.7434C6.59013 19.9457 6.79019 20.1164 7.1157 20.2667C7.51355 20.4509 8.10807 20.6058 8.88456 20.7267C8.92412 20.8013 8.96481 20.9878 8.99307 21.1155C9.02245 21.2512 9.05297 21.3913 9.09705 21.5394C9.14452 21.6999 9.26659 21.892 9.58193 21.892C9.70174 21.892 9.8385 21.8649 9.99787 21.8344C10.2307 21.7892 10.5494 21.727 10.9462 21.727C11.1666 21.727 11.3949 21.7462 11.6243 21.7847C12.0674 21.8581 12.4494 22.1271 12.8913 22.4391C13.5378 22.8957 14.2703 23.4122 15.3892 23.4122C15.4197 23.4122 15.4502 23.4111 15.4808 23.4088C15.5169 23.4111 15.5633 23.4122 15.6107 23.4122C16.7297 23.4122 17.4621 22.8957 18.1086 22.4402L18.1097 22.4391C18.5517 22.1283 18.9337 21.8592 19.3768 21.7858C19.6062 21.7474 19.8345 21.7281 20.0549 21.7281C20.4347 21.7281 20.7353 21.7767 21.0032 21.8287C21.1784 21.8626 21.314 21.8796 21.4191 21.8796H21.4293H21.4395C21.6701 21.8796 21.8396 21.753 21.904 21.5326C21.947 21.3868 21.9775 21.2512 22.008 21.1121C22.034 20.9923 22.077 20.8002 22.1154 20.7256C22.8919 20.6035 23.4864 20.4498 23.8842 20.2656C24.2086 20.1153 24.4087 19.9446 24.4957 19.7434C24.5217 19.6835 24.5375 19.6213 24.5409 19.5569C24.5534 19.3433 24.4008 19.1523 24.1872 19.1184Z" fill="white" stroke="black" stroke-width="0.3"/>
</svg>
