<svg width="31" height="31" viewBox="0 0 31 31" fill="none" xmlns="http://www.w3.org/2000/svg">
<rect width="31" height="31" rx="2" fill="#F68634"/>
<path fill-rule="evenodd" clip-rule="evenodd" d="M17.2052 11.75C17.2052 10.8368 16.4356 10.0942 15.4895 10.0942C14.5442 10.0942 13.7738 10.8368 13.7738 11.75C13.7738 12.6626 14.5442 13.4057 15.4895 13.4057C16.4356 13.4057 17.2052 12.6626 17.2052 11.75ZM19.6332 11.75C19.6332 13.9551 17.7752 15.7488 15.4896 15.7488C13.2044 15.7488 11.346 13.9551 11.346 11.75C11.346 9.54419 13.2044 7.75 15.4896 7.75C17.7752 7.75 19.6332 9.54419 19.6332 11.75ZM19.5828 18.0517C18.8336 18.5059 18.0201 18.8281 17.1767 19.0135L19.4931 21.2497C19.9676 21.7069 19.9676 22.4492 19.4931 22.9068C19.019 23.3644 18.2507 23.3644 17.7772 22.9068L15.4997 20.7094L13.2242 22.9068C12.987 23.1354 12.6761 23.2498 12.3651 23.2498C12.0547 23.2498 11.7443 23.1354 11.5071 22.9068C11.033 22.4492 11.033 21.7073 11.5066 21.2497L13.8232 19.0135C12.9798 18.8281 12.1663 18.5054 11.4171 18.0517C10.8501 17.7066 10.6797 16.9836 11.037 16.4358C11.3933 15.8873 12.1425 15.7221 12.7105 16.0672C14.4068 17.0973 16.5921 17.0975 18.2894 16.0672C18.8574 15.7221 19.6064 15.8873 19.9634 16.4358C20.3207 16.9831 20.1498 17.7066 19.5828 18.0517Z" fill="white"/>
</svg>
