<svg width="31" height="31" viewBox="0 0 31 31" fill="none" xmlns="http://www.w3.org/2000/svg">
<rect width="31" height="31" rx="2" fill="#4C6C91"/>
<path fill-rule="evenodd" clip-rule="evenodd" d="M16.3108 20.5866C16.3108 20.5866 16.6092 20.5541 16.762 20.393C16.9019 20.2453 16.8971 19.9667 16.8971 19.9667C16.8971 19.9667 16.8785 18.6657 17.4939 18.4736C18.1004 18.2847 18.8791 19.7318 19.7055 20.2882C20.3298 20.7089 20.8037 20.6168 20.8037 20.6168L23.0121 20.5866C23.0121 20.5866 24.1668 20.5168 23.6194 19.6254C23.5741 19.5524 23.2999 18.9658 21.9778 17.7608C20.5926 16.4995 20.7786 16.7035 22.446 14.5215C23.4617 13.1927 23.8676 12.3815 23.7407 12.0346C23.6202 11.7028 22.873 11.7909 22.873 11.7909L20.3872 11.806C20.3872 11.806 20.2028 11.7814 20.0662 11.8616C19.9327 11.9402 19.8462 12.1235 19.8462 12.1235C19.8462 12.1235 19.4532 13.1514 18.9284 14.0262C17.8214 15.8709 17.379 15.9685 17.1979 15.8542C16.7766 15.5867 16.8817 14.781 16.8817 14.2087C16.8817 12.4204 17.1583 11.675 16.344 11.4822C16.0739 11.4179 15.875 11.3758 15.1836 11.3687C14.2965 11.3599 13.5461 11.3718 13.1207 11.5758C12.8377 11.7116 12.6194 12.0148 12.7528 12.0322C12.9169 12.0537 13.2889 12.1307 13.4862 12.3942C13.7409 12.7347 13.7321 13.4983 13.7321 13.4983C13.7321 13.4983 13.8784 15.6034 13.39 15.8645C13.0552 16.0439 12.5959 15.678 11.6085 14.004C11.1031 13.1467 10.7215 12.1989 10.7215 12.1989C10.7215 12.1989 10.6479 12.0219 10.5161 11.9267C10.3568 11.8116 10.1344 11.7759 10.1344 11.7759L7.77233 11.7909C7.77233 11.7909 7.41734 11.8005 7.28714 11.9521C7.17151 12.0862 7.27825 12.3648 7.27825 12.3648C7.27825 12.3648 9.12762 16.6123 11.222 18.753C13.1425 20.7152 15.3227 20.5866 15.3227 20.5866H16.3108Z" fill="white"/>
</svg>
