<svg width="31" height="31" viewBox="0 0 31 31" fill="none" xmlns="http://www.w3.org/2000/svg">
    <rect width="31" height="31" rx="2" fill="#CA2128"/>
    <circle cx="15.4997" cy="13.9971" r="12.2708" fill="white"/>
    <path d="M12.022 25.7634C12.1165 25.6063 12.2036 25.4659 12.2873 25.3211C12.6743 24.6559 13.0181 23.9685 13.2268 23.2262C13.4016 22.604 13.5549 21.9771 13.7156 21.3517C13.8447 20.8496 13.9709 20.3467 14.0986 19.844C14.1032 19.8259 14.11 19.8081 14.1181 19.7826C14.1758 19.8673 14.2264 19.9479 14.2827 20.0226C14.5385 20.3564 14.8652 20.6056 15.2314 20.8071C15.7035 21.0651 16.223 21.2247 16.7586 21.2762C17.0521 21.3014 17.3473 21.2995 17.6404 21.2705C18.1149 21.2321 18.5829 21.1362 19.0341 20.9849C19.6218 20.7868 20.1736 20.4952 20.6682 20.1213C21.4507 19.5329 22.0576 18.7958 22.5334 17.9444C22.9911 17.1209 23.316 16.2305 23.4962 15.306C23.5774 14.9035 23.6381 14.4972 23.6781 14.0886C23.7208 13.6582 23.7415 13.2258 23.7401 12.7933C23.7347 11.9027 23.5396 11.0492 23.1809 10.233C22.8801 9.54845 22.4703 8.91708 21.9675 8.36343C21.4373 7.77852 20.8157 7.28351 20.1269 6.89771C19.436 6.50941 18.691 6.2263 17.9165 6.05773C17.5425 5.97626 17.1637 5.9187 16.7824 5.8854C16.3015 5.84346 15.8181 5.83649 15.3362 5.86457C14.6924 5.89775 14.053 5.99031 13.4263 6.14105C12.3882 6.39372 11.4219 6.8079 10.5403 7.41252C9.90004 7.8512 9.32846 8.38244 8.84427 8.98888C8.19903 9.78969 7.72314 10.7131 7.44542 11.7031C7.30541 12.1963 7.22303 12.704 7.19992 13.2161C7.16554 14.0242 7.24837 14.8179 7.48656 15.5927C7.67171 16.1944 7.94942 16.7476 8.36058 17.2289C8.71922 17.6543 9.17623 17.986 9.69203 18.1952C9.77754 18.2312 9.87005 18.2474 9.96271 18.2428C10.1665 18.2266 10.2734 18.0867 10.3232 17.9022C10.3925 17.6457 10.4564 17.3882 10.5195 17.1298C10.5539 16.9894 10.5863 16.8485 10.6118 16.7065C10.6204 16.6528 10.6178 16.5978 10.6042 16.5452C10.5905 16.4925 10.5661 16.4433 10.5325 16.4005C10.4291 16.2593 10.3159 16.1246 10.2147 15.982C9.90939 15.5554 9.73128 15.0774 9.64791 14.5615C9.58461 14.1483 9.57261 13.7288 9.61218 13.3127C9.70936 12.1808 10.0851 11.1512 10.7715 10.2425C11.4625 9.32812 12.3579 8.69022 13.4374 8.30797C13.8762 8.15385 14.3309 8.04932 14.7929 7.99632C15.3115 7.93493 15.8353 7.93003 16.355 7.98171C17.1199 8.05773 17.8518 8.24926 18.5269 8.62881C19.2802 9.05219 19.8556 9.64599 20.2419 10.4197C20.477 10.8978 20.6291 11.4124 20.6918 11.9414C20.7439 12.3757 20.7521 12.8141 20.7164 13.25C20.6872 13.6419 20.6555 14.0345 20.5957 14.4232C20.4333 15.4721 20.1266 16.4741 19.5693 17.3868C19.2864 17.8503 18.9432 18.2631 18.5058 18.591C18.1455 18.8615 17.7479 19.0495 17.3018 19.1244C16.663 19.2327 16.0673 19.1345 15.5473 18.7254C15.1591 18.42 14.9356 18.0166 14.8706 17.5259C14.8276 17.1994 14.8806 16.8834 14.9716 16.572C15.1933 15.8132 15.419 15.0552 15.6423 14.2966C15.7722 13.8551 15.8916 13.4106 15.9574 12.9543C16.0158 12.5485 16.018 12.1443 15.8965 11.7466C15.6767 11.0276 15.1269 10.6169 14.3728 10.6083C13.7654 10.6012 13.2701 10.8498 12.8589 11.28C12.4478 11.7101 12.212 12.2268 12.0783 12.7949C11.9516 13.3335 11.94 13.877 12.0082 14.4257C12.0593 14.8583 12.1696 15.282 12.336 15.6847C12.3489 15.7184 12.3515 15.7552 12.3436 15.7905C11.9749 17.3547 11.605 18.9186 11.2338 20.4822C11.0698 21.1758 10.9003 21.8684 10.7485 22.5653C10.6814 22.8726 10.6451 23.1875 10.6072 23.4999C10.5455 24.0123 10.5498 24.5279 10.556 25.0419C10.556 25.0979 10.556 25.1539 10.556 25.2227C8.70894 24.4 7.14037 23.2132 5.8939 21.6246C3.73797 18.8769 2.90726 15.7545 3.33953 12.2926C4.37 5.07653 11.3621 0.335273 18.45 2.0937C25.4595 3.83075 29.4706 11.1699 27.0754 18.0697C25.849 21.392 23.63 23.8048 20.3897 25.2367C17.6829 26.4338 14.882 26.5599 12.022 25.7634Z" fill="#CA2128"/>
</svg>
