<svg width="24" height="24" viewBox="0 0 24 24" fill="none" xmlns="http://www.w3.org/2000/svg">
<path d="M0.156982 4.56132C0.156982 3.61846 0.859276 2.85413 1.7256 2.85413H22.4313C23.2977 2.85413 24 3.61846 24 4.56132V19.2431C24 20.186 23.2977 20.9503 22.4313 20.9503H1.7256C0.859276 20.9503 0.156982 20.186 0.156982 19.2431V4.56132Z" fill="#FBFDFD"/>
<path fill-rule="evenodd" clip-rule="evenodd" d="M22.4313 4.56132H1.7256L1.7256 19.2431H22.4313V4.56132ZM1.7256 2.85413C0.859276 2.85413 0.156982 3.61846 0.156982 4.56132V19.2431C0.156982 20.186 0.859276 20.9503 1.7256 20.9503H22.4313C23.2977 20.9503 24 20.186 24 19.2431V4.56132C24 3.61846 23.2977 2.85413 22.4313 2.85413H1.7256Z" fill="#4E575A"/>
<path d="M18.0391 6.95143C18.0391 6.57429 18.32 6.26855 18.6665 6.26855H20.2351C20.5817 6.26855 20.8626 6.57429 20.8626 6.95143C20.8626 7.32857 20.5817 7.63431 20.2351 7.63431H18.6665C18.32 7.63431 18.0391 7.32857 18.0391 6.95143Z" fill="#4E575A"/>
<path d="M12.0784 6.95143C12.0784 6.57429 12.3593 6.26855 12.7058 6.26855H15.5293C15.8759 6.26855 16.1568 6.57429 16.1568 6.95143C16.1568 7.32857 15.8759 7.63431 15.5293 7.63431H12.7058C12.3593 7.63431 12.0784 7.32857 12.0784 6.95143Z" fill="#4E575A"/>
<path d="M18.0391 10.3659C18.0391 9.98872 18.32 9.68298 18.6665 9.68298H20.2351C20.5817 9.68298 20.8626 9.98872 20.8626 10.3659C20.8626 10.743 20.5817 11.0487 20.2351 11.0487H18.6665C18.32 11.0487 18.0391 10.743 18.0391 10.3659Z" fill="#4E575A"/>
<path d="M12.0784 10.3659C12.0784 9.98872 12.3593 9.68298 12.7058 9.68298H15.5293C15.8759 9.68298 16.1568 9.98872 16.1568 10.3659C16.1568 10.743 15.8759 11.0487 15.5293 11.0487H12.7058C12.3593 11.0487 12.0784 10.743 12.0784 10.3659Z" fill="#4E575A"/>
<path d="M18.0391 13.7802C18.0391 13.403 18.32 13.0973 18.6665 13.0973H20.2351C20.5817 13.0973 20.8626 13.403 20.8626 13.7802C20.8626 14.1573 20.5817 14.463 20.2351 14.463H18.6665C18.32 14.463 18.0391 14.1573 18.0391 13.7802Z" fill="#4E575A"/>
<path d="M12.0784 13.7802C12.0784 13.403 12.3593 13.0973 12.7058 13.0973H15.5293C15.8759 13.0973 16.1568 13.403 16.1568 13.7802C16.1568 14.1573 15.8759 14.463 15.5293 14.463H12.7058C12.3593 14.463 12.0784 14.1573 12.0784 13.7802Z" fill="#4E575A"/>
<path d="M18.0391 17.1946C18.0391 16.8175 18.32 16.5117 18.6665 16.5117H20.2351C20.5817 16.5117 20.8626 16.8175 20.8626 17.1946C20.8626 17.5717 20.5817 17.8775 20.2351 17.8775H18.6665C18.32 17.8775 18.0391 17.5717 18.0391 17.1946Z" fill="#4E575A"/>
<path d="M12.0784 17.1946C12.0784 16.8175 12.3593 16.5117 12.7058 16.5117H15.5293C15.8759 16.5117 16.1568 16.8175 16.1568 17.1946C16.1568 17.5717 15.8759 17.8775 15.5293 17.8775H12.7058C12.3593 17.8775 12.0784 17.5717 12.0784 17.1946Z" fill="#4E575A"/>
<path d="M11.1326 0.206817L1.40717 2.40118C0.679062 2.56546 0.156982 3.26355 0.156982 4.07282V20.0561C0.156982 20.8729 0.688585 21.5752 1.42519 21.7317L11.1506 23.7969C12.1192 24.0026 13.0196 23.1954 13.0196 22.1214V1.87846C13.0196 0.796247 12.1063 -0.0128729 11.1326 0.206817Z" fill="url(#paint0_linear_64_503)"/>
<path fill-rule="evenodd" clip-rule="evenodd" d="M12.8627 1.87859C12.8627 0.904595 12.0406 0.176387 11.1643 0.374108L1.43889 2.56847C0.783596 2.71633 0.313723 3.3446 0.313723 4.07295V20.0562C0.313723 20.7913 0.792166 21.4234 1.45511 21.5642L11.1805 23.6295C12.0523 23.8146 12.8627 23.0881 12.8627 22.1215V1.87859ZM11.1006 0.0397789C12.1717 -0.20188 13.1764 0.688152 13.1764 1.87859V22.1215C13.1764 23.3029 12.1859 24.1909 11.1205 23.9646L1.39503 21.8993C0.584763 21.7273 0 20.9547 0 20.0562V4.07295C0 3.18274 0.574288 2.41485 1.37521 2.23414L11.1006 0.0397789Z" fill="url(#paint1_linear_64_503)"/>
<path d="M4.76874 7.24573L3.34175 7.32948C3.27269 7.33354 3.22851 7.4048 3.25559 7.46846L4.93817 11.4229C4.94924 11.449 4.94877 11.4785 4.93689 11.5041L3.06375 15.5487C3.03357 15.6138 3.07986 15.6886 3.15163 15.6907L4.6176 15.7325C4.66026 15.7338 4.69899 15.7078 4.71403 15.6678L5.79475 12.7994C5.82735 12.7129 5.94979 12.7132 5.98205 12.7998L7.13199 15.8884C7.14623 15.9267 7.18228 15.9524 7.22309 15.9535L8.83932 15.9958C8.91338 15.9977 8.96375 15.9213 8.93277 15.854L6.93032 11.5055C6.91813 11.479 6.9181 11.4486 6.93023 11.4221L8.88664 7.15047C8.91796 7.08208 8.86541 7.00489 8.7903 7.00897L7.24295 7.09298C7.20335 7.09513 7.16876 7.12048 7.15478 7.1576L6.03109 10.1425C5.99809 10.2301 5.87347 10.2284 5.84296 10.1398L4.86914 7.31299C4.85454 7.27059 4.8135 7.2431 4.76874 7.24573Z" fill="white"/>
<defs>
<linearGradient id="paint0_linear_64_503" x1="11.5" y1="10" x2="-4.5" y2="13.5" gradientUnits="userSpaceOnUse">
<stop stop-color="#4E575A"/>
<stop offset="1" stop-color="#707D81"/>
</linearGradient>
<linearGradient id="paint1_linear_64_503" x1="12.5" y1="8.5" x2="-1.5" y2="14.5" gradientUnits="userSpaceOnUse">
<stop stop-color="#4E575A"/>
<stop offset="1" stop-color="#707D81"/>
</linearGradient>
</defs>
</svg>
