<svg width="34" height="40" viewBox="0 0 34 40" fill="none" xmlns="http://www.w3.org/2000/svg">
<path d="M33.304 33.9556L30.2379 25.7988C28.9091 22.2636 26.7131 19.0869 23.8785 16.5932C23.9279 11.6805 25.1502 8.4793 26.1139 5.82945C27.0953 3.13078 25.2444 0 21.8676 0C20.5744 0 19.3578 0.569766 18.5299 1.56328L17.0004 3.39875L15.4709 1.56328C14.643 0.569766 13.4264 0 12.1332 0C8.75469 0 6.90602 3.13234 7.88688 5.82945C8.79938 8.33859 10.0713 11.5752 10.1223 16.59C7.23641 19.0859 5.01539 22.2877 3.69024 25.8679L0.695079 33.9604C0.284141 35.081 1.01086 36.2935 2.19023 36.462L4.87422 36.8455C4.85539 37.8596 5.67148 38.75 6.74961 38.75H12.3478C12.6155 39.5063 13.3264 40 14.1153 40H19.8855C20.6755 40 21.3857 39.5051 21.653 38.75H27.2513C28.3292 38.75 29.1455 37.8598 29.1267 36.8455L31.8106 36.462C32.9891 36.2937 33.7176 35.0835 33.304 33.9556ZM11.3754 16.25V15H22.6254V16.25C22.001 16.25 11.9998 16.25 11.3754 16.25ZM9.06172 5.40219C8.32859 3.38609 9.82789 1.25 11.9702 1.25H12.1333C13.0545 1.25 13.9209 1.65586 14.5107 2.36352C16.6812 4.96805 16.5543 4.84625 16.7092 4.92789C16.957 5.05836 17.2705 5.01078 17.467 4.78992C17.4996 4.75328 17.9116 4.25789 19.4902 2.36352C20.0799 1.65586 20.9464 1.25 21.8676 1.25H22.0307C24.1745 1.25 25.6718 3.38711 24.9391 5.40227C24.1381 7.60477 23.2014 9.98148 22.7943 13.75H11.2065C10.8032 10.0166 9.87742 7.64508 9.06172 5.40219ZM31.6338 35.2246L28.8589 35.621L25.6741 23.5901C25.5858 23.2564 25.2438 23.0573 24.9101 23.1459C24.5764 23.2341 24.3775 23.5763 24.4658 23.91L27.8556 36.7157C27.9608 37.112 27.6616 37.5001 27.2513 37.5001H21.6792L20.1159 28.6415C20.0559 28.3015 19.7314 28.0747 19.3918 28.1346C19.0519 28.1946 18.8249 28.5187 18.885 28.8587L20.5011 38.0166C20.5687 38.3995 20.2747 38.7502 19.8856 38.7502C19.2356 38.7502 14.8003 38.7502 14.1154 38.7502C13.7266 38.7502 13.4323 38.3998 13.4999 38.0165L15.116 28.8587C15.1761 28.5188 14.9491 28.1947 14.6092 28.1346C14.2693 28.0748 13.9451 28.3016 13.8851 28.6415L12.3217 37.5H6.74969C6.33922 37.5 6.04016 37.1121 6.14531 36.7155L9.53516 23.91C9.62352 23.5763 9.42461 23.2342 9.09086 23.1459C8.75734 23.0573 8.41516 23.2564 8.3268 23.5901L5.14195 35.621L2.36711 35.2246C1.97094 35.168 1.73305 34.7606 1.86813 34.3925L4.86273 26.3017C6.12109 22.9018 8.23461 19.8634 10.9815 17.5H23.0166C25.7152 19.8633 27.8055 22.8798 29.068 26.2387L32.1323 34.3907C32.2691 34.7643 32.0269 35.1684 31.6338 35.2246Z" stroke="none" />
</svg>
