<svg width="47" height="47" viewBox="0 0 47 47" fill="none" xmlns="http://www.w3.org/2000/svg">
<path d="M11.75 37.079H9.79167C7.62771 37.079 5.875 35.3263 5.875 33.1623V28.3585C5.875 26.1006 7.70604 24.2695 9.964 24.2695H11.75" fill="none" stroke-width="1.6" stroke-linecap="round" stroke-linejoin="round"/>
<path d="M35.25 37.0793H37.2083C39.3723 37.0793 41.125 35.3266 41.125 33.1626V28.2668C41.125 26.1028 39.3723 24.3501 37.2083 24.3501H35.25" fill="none" stroke-width="1.6" stroke-linecap="round" stroke-linejoin="round"/>
<path fill-rule="evenodd" clip-rule="evenodd" d="M27.4167 35.0423H19.5833C18.5023 35.0423 17.625 34.165 17.625 33.084V29.1673C17.625 28.0863 18.5023 27.209 19.5833 27.209H27.4167C28.4977 27.209 29.375 28.0863 29.375 29.1673V33.084C29.375 34.1669 28.4977 35.0423 27.4167 35.0423Z" fill="none" stroke-width="1.6" stroke-linecap="round" stroke-linejoin="round"/>
<path d="M29.375 11.75V9.79167C29.375 7.62771 27.6223 5.875 25.4583 5.875H21.5417C19.3777 5.875 17.625 7.62771 17.625 9.79167V11.75" fill="none" stroke-width="1.6" stroke-linecap="round" stroke-linejoin="round"/>
<path d="M25.4584 19.5832H21.5417" fill="none" stroke-width="1.6" stroke-linecap="round" stroke-linejoin="round"/>
<path fill-rule="evenodd" clip-rule="evenodd" d="M27.4167 11.75H19.5833C15.2574 11.75 11.75 15.2574 11.75 19.5833V37.2083C11.75 39.3723 13.5027 41.125 15.6667 41.125H31.3333C33.4973 41.125 35.25 39.3723 35.25 37.2083V19.5833C35.25 15.2574 31.7426 11.75 27.4167 11.75Z" fill="none" stroke-width="1.6" stroke-linecap="round" stroke-linejoin="round"/>
</svg>
