<svg xmlns="http://www.w3.org/2000/svg" width="17" height="17" viewBox="0 0 17 17" fill="none" class="instagram-icon">
    <path fill-rule="evenodd" clip-rule="evenodd" d="M8.0004 3C6.37093 3 6.16643 3.00712 5.52644 3.03625C4.8877 3.0655 4.45171 3.16662 4.07022 3.31499C3.6756 3.46824 3.34085 3.67324 3.00736 4.00686C2.67361 4.34035 2.46862 4.6751 2.31487 5.06959C2.16612 5.45121 2.06487 5.88733 2.03612 6.52582C2.0075 7.16581 2 7.37043 2 8.9999C2 10.6294 2.00725 10.8332 2.03625 11.4732C2.06562 12.112 2.16675 12.548 2.31499 12.9295C2.46837 13.3241 2.67336 13.6588 3.00698 13.9923C3.34035 14.3261 3.6751 14.5316 4.06947 14.6848C4.45121 14.8332 4.88733 14.9343 5.52594 14.9636C6.16593 14.9927 6.3703 14.9998 7.99965 14.9998C9.62925 14.9998 9.83312 14.9927 10.4731 14.9636C11.1119 14.9343 11.5483 14.8332 11.9301 14.6848C12.3246 14.5316 12.6588 14.3261 12.9922 13.9923C13.3259 13.6588 13.5309 13.3241 13.6847 12.9296C13.8322 12.548 13.9334 12.1119 13.9634 11.4734C13.9922 10.8334 13.9997 10.6294 13.9997 8.9999C13.9997 7.37043 13.9922 7.16593 13.9634 6.52594C13.9334 5.8872 13.8322 5.45121 13.6847 5.06972C13.5309 4.6751 13.3259 4.34035 12.9922 4.00686C12.6585 3.67311 12.3247 3.46812 11.9297 3.31499C11.5472 3.16662 11.111 3.0655 10.4722 3.03625C9.83225 3.00712 9.6285 3 7.99853 3H8.0004ZM7.46226 4.08142C7.62201 4.08117 7.80025 4.08142 8.0005 4.08142C9.60247 4.08142 9.79235 4.08717 10.425 4.11592C11.01 4.14267 11.3274 4.24042 11.5389 4.32254C11.8189 4.43129 12.0186 4.56129 12.2284 4.77128C12.4384 4.98128 12.5684 5.18128 12.6774 5.46127C12.7595 5.67252 12.8574 5.99001 12.884 6.575C12.9128 7.20749 12.919 7.39749 12.919 8.99871C12.919 10.5999 12.9128 10.7899 12.884 11.4224C12.8573 12.0074 12.7595 12.3249 12.6774 12.5362C12.5687 12.8162 12.4384 13.0155 12.2284 13.2254C12.0184 13.4354 11.8191 13.5654 11.5389 13.6741C11.3277 13.7566 11.01 13.8541 10.425 13.8809C9.79247 13.9096 9.60247 13.9159 8.0005 13.9159C6.3984 13.9159 6.20853 13.9096 5.57604 13.8809C4.99105 13.8539 4.67356 13.7561 4.46193 13.674C4.18194 13.5653 3.98194 13.4353 3.77195 13.2253C3.56195 13.0153 3.43195 12.8158 3.32295 12.5357C3.24083 12.3244 3.14296 12.0069 3.11633 11.4219C3.08758 10.7894 3.08183 10.5994 3.08183 8.99721C3.08183 7.39499 3.08758 7.20599 3.11633 6.5735C3.14308 5.98851 3.24083 5.67102 3.32295 5.45952C3.4317 5.17953 3.56195 4.97953 3.77195 4.76953C3.98194 4.55954 4.18194 4.42954 4.46193 4.32054C4.67343 4.23804 4.99105 4.14054 5.57604 4.11367C6.12953 4.08867 6.34403 4.08117 7.46226 4.07992V4.08142ZM8.00044 5.91894C6.29885 5.91894 4.91924 7.29854 4.91924 9.00014C4.91924 10.7017 6.29885 12.0807 8.00044 12.0807C9.70204 12.0807 11.0811 10.7017 11.0811 9.00014C11.0811 7.29854 9.70191 5.91894 8.00032 5.91894H8.00044ZM8.00051 7.00005C9.10499 7.00005 10.0005 7.89541 10.0005 9.00001C10.0005 10.1045 9.10499 11 8.00051 11C6.89591 11 6.00055 10.1045 6.00055 9.00001C6.00055 7.89541 6.89591 7.00005 8.00051 7.00005Z" fill="#808080"/>
</svg>