<svg width="48" height="48" viewBox="0 0 48 48" fill="none" xmlns="http://www.w3.org/2000/svg">
<path d="M20.477 16.3222C19.966 16.6837 19.5281 17.1388 19.1866 17.6634C19.1462 17.7252 19.1184 17.7944 19.1048 17.8671C19.0912 17.9397 19.092 18.0142 19.1072 18.0865C19.1224 18.1588 19.1517 18.2274 19.1934 18.2884C19.2352 18.3493 19.2885 18.4015 19.3503 18.4419C19.4122 18.4822 19.4814 18.51 19.554 18.5236C19.6266 18.5372 19.7012 18.5364 19.7735 18.5212C19.8458 18.506 19.9144 18.4767 19.9754 18.435C20.0363 18.3933 20.0885 18.34 20.1288 18.2781C20.3931 17.8719 20.732 17.5196 21.1276 17.2396C21.2482 17.1529 21.3296 17.022 21.3541 16.8755C21.3786 16.729 21.3441 16.5788 21.2582 16.4576C21.1723 16.3364 21.042 16.2541 20.8956 16.2286C20.7493 16.2032 20.5988 16.2367 20.477 16.3218V16.3222Z" stroke="none"/>
<path d="M10.2891 40.4432H6.16594V14.675C6.16594 14.6656 6.16725 14.657 6.16725 14.6478C6.16725 10.1991 9.59925 6.57978 13.8177 6.57978C17.8731 6.57978 21.1999 9.92534 21.451 14.1365C20.2458 14.2798 19.1348 14.8597 18.3282 15.7666C17.5215 16.6736 17.0752 17.8446 17.0735 19.0584V19.9373C17.0735 20.0865 17.1327 20.2295 17.2382 20.335C17.3437 20.4405 17.4868 20.4998 17.636 20.4998H20.1391C20.3877 21.3998 21.1917 22.0646 22.1333 22.0646C23.075 22.0646 23.8789 21.4002 24.1274 20.4998H26.4251C26.5743 20.4998 26.7174 20.4405 26.8229 20.335C26.9284 20.2295 26.9876 20.0865 26.9876 19.9373V19.0584C26.986 17.8392 26.5357 16.6632 25.7227 15.7547C24.9096 14.8462 23.7906 14.2687 22.579 14.1324C22.323 9.30209 18.4915 5.45459 13.8178 5.45459C8.99512 5.45459 5.06906 9.55147 5.04281 14.5972C5.04187 14.6102 5.04084 14.6232 5.04084 14.6365V40.443H1.5C1.35082 40.443 1.20774 40.5023 1.10225 40.6078C0.996763 40.7133 0.9375 40.8563 0.9375 41.0055C0.9375 41.1547 0.996763 41.2978 1.10225 41.4033C1.20774 41.5088 1.35082 41.568 1.5 41.568H10.2891C10.4382 41.568 10.5813 41.5088 10.6868 41.4033C10.7923 41.2978 10.8516 41.1547 10.8516 41.0055C10.8516 40.8563 10.7923 40.7133 10.6868 40.6078C10.5813 40.5023 10.4382 40.443 10.2891 40.443V40.4432ZM22.1332 20.9397C21.9774 20.9372 21.8246 20.8957 21.6889 20.8188C21.5533 20.742 21.439 20.6324 21.3567 20.5H22.9097C22.8274 20.6324 22.7132 20.742 22.5775 20.8188C22.4419 20.8957 22.2891 20.9372 22.1332 20.9397V20.9397ZM25.8625 19.0584V19.3748H18.1985V19.0584C18.1985 18.0421 18.6022 17.0674 19.3208 16.3487C20.0395 15.6301 21.0142 15.2263 22.0305 15.2263C23.0468 15.2263 24.0215 15.6301 24.7402 16.3487C25.4588 17.0674 25.8625 18.0421 25.8625 19.0584Z" stroke="none"/>
<path d="M44.4058 31.7521V28.0303C44.4002 27.4026 44.1459 26.8027 43.6986 26.3622C43.2513 25.9218 42.6475 25.6768 42.0198 25.6809H31.7266C31.4132 25.6793 31.1026 25.7401 30.8129 25.8596C30.5232 25.9792 30.2602 26.1551 30.0391 26.3773C29.9928 26.4241 29.9492 26.4723 29.9073 26.522C29.6818 26.2577 29.4016 26.0456 29.0861 25.9004C28.7705 25.7552 28.4271 25.6803 28.0797 25.6809H17.7281C17.1003 25.6768 16.4966 25.9218 16.0492 26.3622C15.6019 26.8027 15.3475 27.4025 15.3419 28.0303V31.7628C14.6686 31.8224 14.0416 32.1306 13.5831 32.6272C13.1246 33.1239 12.8675 33.7735 12.8619 34.4494V41.006C12.8619 41.1552 12.9211 41.2983 13.0266 41.4038C13.1321 41.5093 13.2752 41.5685 13.4244 41.5685H17.7855C17.9347 41.5685 18.0778 41.5093 18.1833 41.4038C18.2888 41.2983 18.348 41.1552 18.348 41.006V40.2567L41.5764 40.2638V41.006C41.5764 41.1552 41.6356 41.2983 41.7411 41.4038C41.8466 41.5093 41.9897 41.5685 42.1389 41.5685H46.4999C46.6491 41.5685 46.7922 41.5093 46.8977 41.4038C47.0032 41.2983 47.0624 41.1552 47.0624 41.006V34.4491C47.056 33.7428 46.7753 33.0666 46.2796 32.5633C45.7839 32.0601 45.112 31.7692 44.4058 31.7521V31.7521ZM30.836 27.171C30.9528 27.054 31.0917 26.9615 31.2446 26.8987C31.3975 26.836 31.5613 26.8042 31.7266 26.8053H42.0198C42.3493 26.8009 42.667 26.9273 42.9034 27.1569C43.1398 27.3864 43.2755 27.7003 43.2808 28.0297V31.9512C42.7802 32.1503 42.3505 32.4944 42.0468 32.9394C41.7431 33.3845 41.5793 33.9101 41.5764 34.4489V34.6692L30.4687 34.6664L30.4701 28.0863C30.4674 27.9171 30.4983 27.749 30.5611 27.5919C30.6239 27.4348 30.7174 27.2917 30.836 27.171V27.171ZM17.7281 26.8053H28.0796C28.4091 26.8009 28.7269 26.9274 28.9634 27.1571C29.1998 27.3867 29.3354 27.7007 29.3406 28.0303L29.3431 34.6661L18.348 34.6631V34.4492C18.3445 33.8785 18.1607 33.3234 17.8229 32.8633C17.4851 32.4032 17.0105 32.0616 16.4669 31.8873V28.0303C16.4722 27.7008 16.6079 27.3868 16.8443 27.1572C17.0807 26.9277 17.3985 26.8012 17.7281 26.8056V26.8053ZM17.223 40.443H13.9869V34.4491C13.9984 34.0277 14.174 33.6274 14.4762 33.3334C14.7784 33.0394 15.1833 32.8749 15.6049 32.8749C16.0266 32.8749 16.4315 33.0394 16.7337 33.3334C17.0359 33.6274 17.2115 34.0277 17.223 34.4491V40.443ZM18.348 39.1311V35.788L29.9053 35.7912H29.9062L41.5763 35.7945V39.1385L18.348 39.1311ZM45.9374 40.4432H42.7014V34.4491C42.7125 34.0274 42.8878 33.6267 43.1901 33.3323C43.4923 33.0379 43.8975 32.8732 44.3194 32.8732C44.7413 32.8732 45.1465 33.0379 45.4487 33.3323C45.751 33.6267 45.9263 34.0274 45.9374 34.4491V40.4432Z" stroke="none"/>
</svg>
