<svg width="47" height="47" viewBox="0 0 47 47" fill="none" xmlns="http://www.w3.org/2000/svg">
<path d="M7.80288 38.6834C7.48978 38.3712 6.98288 38.3712 6.66978 38.6834C6.35747 38.9965 6.35747 39.5034 6.66978 39.8165C6.98288 40.1288 7.48978 40.1288 7.80288 39.8165C8.11511 39.5034 8.11511 38.9965 7.80288 38.6834Z" stroke="none"/>
<path d="M14.3137 32.0533C13.9971 31.7445 13.4901 31.7507 13.1813 32.0672L8.92832 36.4259C8.61945 36.7423 8.6257 37.2493 8.94217 37.5583C9.09792 37.7102 9.29972 37.7859 9.50136 37.7859C9.70964 37.7859 9.91768 37.7052 10.0746 37.5443L14.3275 33.1857C14.6364 32.8692 14.6301 32.3622 14.3137 32.0533Z" stroke="none"/>
<path d="M41.7568 21.0647L38.8273 18.1352C38.8229 18.1307 38.8185 18.1263 38.814 18.1219L35.3028 14.6107C35.2987 14.6065 35.2946 14.6025 35.2905 14.5984L31.7795 11.0874C31.7755 11.0833 31.7714 11.0793 31.7673 11.0753L28.2553 7.56328C28.2514 7.55929 28.2475 7.55531 28.2434 7.55132L25.3128 4.62071C25.157 4.46498 24.9458 4.37744 24.7255 4.37744C24.5052 4.37744 24.2939 4.46498 24.1382 4.62071L14.7422 14.0164L13.5666 15.1913C11.948 16.8109 11.9481 19.4455 13.5668 21.0642L15.9165 23.4138C16.0733 23.5707 16.1597 23.7791 16.1597 24.0009C16.1597 24.2226 16.0733 24.4312 15.9165 24.588L14.7578 25.7466L4.69645 34.7574C4.69603 34.7578 4.6957 34.7582 4.69528 34.7585C4.61007 34.8338 4.532 34.9068 4.45725 34.9815C2.51425 36.9245 2.51425 40.086 4.45725 42.029C5.39702 42.9687 6.64841 43.4863 7.98095 43.4863C9.31341 43.4863 10.5649 42.9688 11.5045 42.0292C11.5805 41.9533 11.6553 41.8733 11.7333 41.7847C11.7335 41.7846 11.7336 41.7843 11.7338 41.7841C11.7342 41.7837 11.7346 41.7833 11.735 41.7828L20.6344 31.616L21.7894 30.461C22.1132 30.1372 22.6399 30.1373 22.9637 30.4611L25.3131 32.8095C26.0974 33.5944 27.1402 34.0266 28.2494 34.0266C29.3585 34.0266 30.4013 33.5944 31.1853 32.8099L32.3608 31.6354L41.7567 22.2393C42.0811 21.915 42.0811 21.3891 41.7568 21.0647ZM10.4852 40.6887C10.4313 40.7497 10.3807 40.8039 10.3302 40.8544C9.7041 41.4804 8.86989 41.8251 7.98104 41.8251C7.09218 41.8251 6.25797 41.4804 5.63198 40.8544C4.33665 39.559 4.33665 37.4514 5.63182 36.1563C5.68339 36.1048 5.73829 36.0535 5.79967 35.9994C5.8005 35.9986 5.80125 35.9978 5.80208 35.997C5.80299 35.9962 5.80391 35.9956 5.80482 35.9948L15.298 27.4928L18.8911 31.0859L10.4852 40.6887ZM30.0108 31.6355C29.5403 32.1063 28.9147 32.3656 28.2494 32.3656C27.5842 32.3656 26.9587 32.1063 26.4878 31.6351L24.1383 29.2864C23.167 28.3151 21.5863 28.3152 20.6149 29.2864L20.0278 29.8735L16.504 26.3497L17.091 25.7627C17.5616 25.292 17.8208 24.6664 17.8208 24.0009C17.8208 23.3355 17.5616 22.7098 17.091 22.2392L14.7414 19.8896C13.7702 18.9184 13.7702 17.3375 14.7412 16.366L15.3291 15.7785L30.5987 31.048L30.0108 31.6355ZM31.7736 29.8736L16.5039 14.604L24.7253 6.38256L26.4875 8.14475L22.3765 12.2551C22.0521 12.5793 22.0521 13.1052 22.3764 13.4296C22.5386 13.5919 22.7512 13.673 22.9638 13.673C23.1763 13.673 23.3889 13.5919 23.551 13.4297L27.6622 9.31932L30.0116 11.6688L25.9006 15.7791C25.5761 16.1034 25.5761 16.6293 25.9005 16.9537C26.0627 17.1159 26.2752 17.197 26.4878 17.197C26.7004 17.197 26.9129 17.1159 27.075 16.9538L31.1862 12.8434L33.5348 15.192L29.4239 19.3023C29.0994 19.6266 29.0994 20.1525 29.4238 20.4769C29.586 20.6391 29.7985 20.7202 30.0111 20.7202C30.2237 20.7202 30.4362 20.6391 30.5983 20.477L34.7094 16.3666L37.0589 18.716L32.9479 22.8264C32.6235 23.1506 32.6235 23.6765 32.9478 24.0009C33.11 24.1631 33.3226 24.2443 33.5352 24.2443C33.7477 24.2443 33.9602 24.1631 34.1224 24.001L38.2335 19.8906L39.9951 21.6521L31.7736 29.8736Z" stroke="none"/>
</svg>
