<svg width="40" height="40" viewBox="0 0 40 40" fill="none" xmlns="http://www.w3.org/2000/svg">
<path d="M10 0C8.625 0 7.5 1.125 7.5 2.5V37.5C7.5 38.875 8.625 40 10 40H35C36.375 40 37.5 38.875 37.5 37.5V10L27.5 0H10Z" fill="#E2E5E7"/>
<path d="M30 10H37.5L27.5 0V7.5C27.5 8.875 28.625 10 30 10Z" fill="#B0B7BD"/>
<path d="M37.5 17.5L30 10H37.5V17.5Z" fill="#CAD1D8"/>
<path d="M32.5 32.5C32.5 33.1875 31.9375 33.75 31.25 33.75H3.75C3.0625 33.75 2.5 33.1875 2.5 32.5V20C2.5 19.3125 3.0625 18.75 3.75 18.75H31.25C31.9375 18.75 32.5 19.3125 32.5 20V32.5Z" fill="#50BEE8"/>
<path d="M7.23248 30C6.90248 30 6.54248 29.8188 6.54248 29.38V23.7038C6.54248 23.3438 6.90248 23.0838 7.23248 23.0838H9.52123C14.0887 23.0838 13.9875 30 9.60998 30H7.23248ZM7.86248 24.3025V28.78H9.52123C12.22 28.78 12.3387 24.3025 9.52123 24.3025H7.86248Z" fill="white"/>
<path d="M17.8122 30.1001C15.9635 30.1801 14.0435 28.9501 14.0435 26.5013C14.0435 24.0426 15.9622 22.8338 17.8122 22.8338C19.561 22.9226 21.3897 24.1326 21.3897 26.5013C21.3897 28.8713 19.561 30.1001 17.8122 30.1001ZM17.7022 24.1338C16.5822 24.1338 15.3635 24.9238 15.3635 26.5026C15.3635 28.0726 16.5835 28.8726 17.7022 28.8726C18.8522 28.8726 20.081 28.0726 20.081 26.5026C20.081 24.9226 18.8522 24.1338 17.7022 24.1338Z" fill="white"/>
<path d="M22.5659 26.4913C22.5659 24.5625 23.7759 22.9038 26.0747 22.9038C26.9447 22.9038 27.6347 23.1638 28.3634 23.7938C28.6334 24.0425 28.6634 24.4825 28.3934 24.7625C28.1234 25.0013 27.7134 24.9725 27.4734 24.7325C27.0647 24.3025 26.6447 24.1838 26.0747 24.1838C24.5359 24.1838 23.7972 25.2738 23.7972 26.4925C23.7972 27.7325 24.5259 28.8713 26.0747 28.8713C26.6447 28.8713 27.1747 28.64 27.6347 28.2313C27.9434 27.9913 28.3734 28.11 28.5534 28.3513C28.7134 28.5713 28.7922 28.9413 28.4434 29.29C27.7434 29.9413 26.9047 30.0713 26.0734 30.0713C23.6559 30.0713 22.5659 28.42 22.5659 26.4913Z" fill="white"/>
<path d="M31.25 33.75H7.5V35H31.25C31.9375 35 32.5 34.4375 32.5 33.75V32.5C32.5 33.1875 31.9375 33.75 31.25 33.75Z" fill="#CAD1D8"/>
</svg>
