<svg width="47" height="47" viewBox="0 0 47 47" fill="none" xmlns="http://www.w3.org/2000/svg">
<path fill-rule="evenodd" clip-rule="evenodd" d="M33.2917 35.2498H13.7083C12.6273 35.2498 11.75 34.3725 11.75 33.2915V23.4998C11.75 22.4188 12.6273 21.5415 13.7083 21.5415H33.2917C34.3727 21.5415 35.25 22.4188 35.25 23.4998V33.2915C35.25 34.3725 34.3727 35.2498 33.2917 35.2498Z" fill="none" stroke-width="1.6" stroke-linecap="round" stroke-linejoin="round"/>
<path fill-rule="evenodd" clip-rule="evenodd" d="M9.79167 41.125H37.2083C39.3723 41.125 41.125 39.3723 41.125 37.2083V9.79167C41.125 7.62771 39.3723 5.875 37.2083 5.875H9.79167C7.62771 5.875 5.875 7.62771 5.875 9.79167V37.2083C5.875 39.3723 7.62771 41.125 9.79167 41.125Z" fill="none" stroke-width="1.6" stroke-linecap="round" stroke-linejoin="round"/>
<path d="M41.125 15.6667H5.875" fill="none" stroke-width="1.6" stroke-linecap="round" stroke-linejoin="round"/>
</svg>
