<svg width="49" height="49" viewBox="0 0 49 49" fill="none" xmlns="http://www.w3.org/2000/svg">
<path d="M43.4226 40.672H40.8488V3.82306C40.8488 3.44641 40.5977 3.19531 40.2211 3.19531H8.83355C8.4569 3.19531 8.2058 3.44641 8.2058 3.82306V40.672H5.63202C5.25537 40.672 5.00427 40.9231 5.00427 41.2998V44.2502C5.00427 44.6268 5.25537 44.8779 5.63202 44.8779H43.3598C43.7365 44.8779 43.9876 44.6268 43.9876 44.2502V41.2998C44.0504 40.9859 43.7365 40.672 43.4226 40.672ZM9.4613 4.45081H39.5933V40.672H37.9612V6.64794C37.9612 6.27129 37.7101 6.02019 37.3334 6.02019H11.7212C11.3446 6.02019 11.0935 6.27129 11.0935 6.64794V40.672H9.4613V4.45081ZM25.1551 29.1214V18.8263H36.7057V29.1214H25.1551ZM36.7057 30.3769V40.672H25.1551V30.3769H36.7057V30.3769ZM25.1551 17.5708V7.27569H36.7057V17.5708H25.1551ZM12.349 29.1214V18.8263H23.8996V29.1214H12.349ZM23.8996 30.3769V40.672H12.349V30.3769H23.8996V30.3769ZM12.349 17.5708V7.27569H23.8996V17.5708H12.349ZM6.25977 43.6224V41.9275H11.7212H37.3334H42.7949V43.6224H6.25977Z" stroke="none"/>
</svg>
