<svg width="20" height="20" viewBox="0 0 20 20" fill="none" xmlns="http://www.w3.org/2000/svg">
<path d="M4.16667 11.6666C3.24583 11.6666 2.5 10.9208 2.5 9.99998C2.5 9.07915 3.24583 8.33331 4.16667 8.33331C5.0875 8.33331 5.83333 9.07915 5.83333 9.99998C5.83333 10.9208 5.0875 11.6666 4.16667 11.6666Z" stroke="#B0B0B0" stroke-width="1.2" stroke-linecap="round" stroke-linejoin="round"/>
<path d="M10 11.6666C9.07918 11.6666 8.33334 10.9208 8.33334 9.99998C8.33334 9.07915 9.07918 8.33331 10 8.33331C10.9208 8.33331 11.6667 9.07915 11.6667 9.99998C11.6667 10.9208 10.9208 11.6666 10 11.6666Z" stroke="#B0B0B0" stroke-width="1.2" stroke-linecap="round" stroke-linejoin="round"/>
<path d="M15.8333 11.6666C14.9125 11.6666 14.1667 10.9208 14.1667 9.99998C14.1667 9.07915 14.9125 8.33331 15.8333 8.33331C16.7542 8.33331 17.5 9.07915 17.5 9.99998C17.5 10.9208 16.7542 11.6666 15.8333 11.6666Z" stroke="#B0B0B0" stroke-width="1.2" stroke-linecap="round" stroke-linejoin="round"/>
<path d="M4.16667 17.5C3.24583 17.5 2.5 16.7542 2.5 15.8334C2.5 14.9125 3.24583 14.1667 4.16667 14.1667C5.0875 14.1667 5.83333 14.9125 5.83333 15.8334C5.83333 16.7542 5.0875 17.5 4.16667 17.5Z" stroke="#B0B0B0" stroke-width="1.2" stroke-linecap="round" stroke-linejoin="round"/>
<path d="M10 17.5C9.07918 17.5 8.33334 16.7542 8.33334 15.8334C8.33334 14.9125 9.07918 14.1667 10 14.1667C10.9208 14.1667 11.6667 14.9125 11.6667 15.8334C11.6667 16.7542 10.9208 17.5 10 17.5Z" stroke="#B0B0B0" stroke-width="1.2" stroke-linecap="round" stroke-linejoin="round"/>
<path d="M15.8333 17.5C14.9125 17.5 14.1667 16.7542 14.1667 15.8334C14.1667 14.9125 14.9125 14.1667 15.8333 14.1667C16.7542 14.1667 17.5 14.9125 17.5 15.8334C17.5 16.7542 16.7542 17.5 15.8333 17.5Z" stroke="#B0B0B0" stroke-width="1.2" stroke-linecap="round" stroke-linejoin="round"/>
<path d="M4.16667 5.83333C3.24583 5.83333 2.5 5.0875 2.5 4.16667C2.5 3.24583 3.24583 2.5 4.16667 2.5C5.0875 2.5 5.83333 3.24583 5.83333 4.16667C5.83333 5.0875 5.0875 5.83333 4.16667 5.83333Z" stroke="#B0B0B0" stroke-width="1.2" stroke-linecap="round" stroke-linejoin="round"/>
<path d="M10 5.83333C9.07918 5.83333 8.33334 5.0875 8.33334 4.16667C8.33334 3.24583 9.07918 2.5 10 2.5C10.9208 2.5 11.6667 3.24583 11.6667 4.16667C11.6667 5.0875 10.9208 5.83333 10 5.83333Z" stroke="#B0B0B0" stroke-width="1.2" stroke-linecap="round" stroke-linejoin="round"/>
<path d="M15.8333 5.83333C14.9125 5.83333 14.1667 5.0875 14.1667 4.16667C14.1667 3.24583 14.9125 2.5 15.8333 2.5C16.7542 2.5 17.5 3.24583 17.5 4.16667C17.5 5.0875 16.7542 5.83333 15.8333 5.83333Z" stroke="#B0B0B0" stroke-width="1.2" stroke-linecap="round" stroke-linejoin="round"/>
</svg>
