<svg width="31" height="31" viewBox="0 0 31 31" fill="none" xmlns="http://www.w3.org/2000/svg">
<rect width="31" height="31" rx="2" fill="#FF0000"/>
<path fill-rule="evenodd" clip-rule="evenodd" d="M23.4212 11.6723C23.231 10.9418 22.6708 10.3667 21.9594 10.1714C20.6701 9.81667 15.5 9.81667 15.5 9.81667C15.5 9.81667 10.3299 9.81667 9.04054 10.1714C8.32914 10.3667 7.76888 10.9418 7.57875 11.6723C7.23333 12.9961 7.23333 15.7583 7.23333 15.7583C7.23333 15.7583 7.23333 18.5204 7.57875 19.8444C7.76888 20.5748 8.32914 21.15 9.04054 21.3453C10.3299 21.7 15.5 21.7 15.5 21.7C15.5 21.7 20.6701 21.7 21.9594 21.3453C22.6708 21.15 23.231 20.5748 23.4212 19.8444C23.7667 18.5204 23.7667 15.7583 23.7667 15.7583C23.7667 15.7583 23.7667 12.9961 23.4212 11.6723" fill="white"/>
<path fill-rule="evenodd" clip-rule="evenodd" d="M13.95 18.6V13.4333L18.0833 16.0168L13.95 18.6Z" fill="#FF0000"/>
</svg>
