<svg width="31" height="31" viewBox="0 0 31 31" fill="none" xmlns="http://www.w3.org/2000/svg">
    <rect width="31" height="31" rx="2" fill="#7F4DA0"/>
    <path fill-rule="evenodd" clip-rule="evenodd" d="M20.4557 13.8565C20.3803 13.2441 20.1921 12.7632 19.8578 12.3372C19.4237 11.7887 18.869 11.4603 18.0477 11.2655C17.5125 11.1356 17.2962 11.1505 17.1026 11.3273C16.9223 11.493 16.8871 11.8251 17.0249 12.0402C17.1218 12.1963 17.2336 12.2522 17.5445 12.3132C17.9586 12.3894 18.2447 12.4883 18.505 12.6371C19.0575 12.9561 19.3147 13.4553 19.3423 14.2635C19.3552 14.6429 19.388 14.7596 19.5205 14.8942C19.7661 15.1402 20.2033 15.0923 20.3887 14.7979C20.4568 14.687 20.4672 14.6387 20.4744 14.381C20.4791 14.2215 20.4722 13.984 20.4557 13.8565V13.8565Z" fill="white"/>
    <path fill-rule="evenodd" clip-rule="evenodd" d="M22.6193 14.5471C22.5102 12.6707 21.7763 11.1611 20.4628 10.0989C19.7228 9.50208 18.8282 9.09169 17.8477 8.8921C17.4885 8.82072 16.8272 8.76286 16.7137 8.79596C16.6067 8.82661 16.4553 8.94253 16.3878 9.04736C16.3164 9.16104 16.3003 9.41485 16.3612 9.56167C16.4595 9.80711 16.6423 9.89382 17.1543 9.93861C17.9435 10.0077 18.7576 10.285 19.3727 10.6955C20.0749 11.1629 20.6332 11.8022 20.9943 12.5534C21.3063 13.1989 21.4982 14.1291 21.4929 14.9621C21.4911 15.2634 21.5377 15.4335 21.6588 15.5579C21.8417 15.7492 22.1083 15.791 22.3435 15.6639C22.6043 15.5268 22.6652 15.2861 22.6193 14.5471V14.5471Z" fill="white"/>
    <path fill-rule="evenodd" clip-rule="evenodd" d="M25.014 21.7731C24.9773 21.6659 24.8917 21.5004 24.8305 21.4054C24.445 20.8234 22.374 19.2026 21.34 18.6726C20.7496 18.3693 20.3122 18.2682 19.9879 18.3631C19.6392 18.4612 19.4556 18.6236 18.8713 19.3497C18.6358 19.6407 18.3941 19.9134 18.3299 19.9563C18.1708 20.0666 17.8588 20.1555 17.6385 20.1555C17.1276 20.1524 16.2007 19.8215 15.488 19.3864C14.9343 19.0495 14.2246 18.4459 13.68 17.8485C13.0376 17.1469 12.6002 16.528 12.2545 15.8295C11.8079 14.9318 11.6947 14.3834 11.8813 13.982C11.9272 13.8809 11.9883 13.7737 12.0158 13.7399C12.0434 13.7094 12.331 13.4734 12.6491 13.2161C13.2732 12.7198 13.3741 12.6064 13.4903 12.2663C13.6372 11.8343 13.5974 11.3931 13.3711 10.9489C13.1967 10.6119 12.7409 9.87659 12.4105 9.40172C11.973 8.77674 10.884 7.44095 10.6668 7.26014C10.2752 6.94154 9.77356 6.88636 9.21981 7.10086C8.63557 7.32759 7.54038 8.20993 7.07232 8.82576C6.65017 9.38334 6.48808 9.77855 6.46359 10.2994C6.44219 10.7283 6.47888 10.906 6.70526 11.4544C8.47649 15.7559 11.1195 19.1904 14.7507 21.9171C16.6474 23.3417 18.6144 24.4263 20.6548 25.1678C21.8448 25.5997 22.3618 25.6212 22.9705 25.2658C23.2275 25.1126 23.8638 24.46 24.2186 23.9851C24.806 23.1947 25.0232 22.8301 25.0844 22.5391C25.1272 22.3399 25.0936 21.9937 25.014 21.7731V21.7731Z" fill="white"/>
    <path fill-rule="evenodd" clip-rule="evenodd" d="M24.8222 14.978C24.783 13.9166 24.6043 13.046 24.2317 12.0754C23.8638 11.1206 23.4915 10.4975 22.7883 9.65485C22.1235 8.86472 21.6072 8.41358 20.7882 7.91139C19.6457 7.2117 18.2552 6.74867 16.6969 6.55393C16.1655 6.48588 16.0453 6.49074 15.8823 6.59952C15.5663 6.8056 15.5705 7.3196 15.8875 7.52259C15.9924 7.58716 16.0855 7.61068 16.5106 7.66632C17.1631 7.75417 17.5827 7.83697 18.0806 7.97281C20.0329 8.50651 21.5343 9.59742 22.538 11.2168C23.378 12.5666 23.7267 13.9165 23.6772 15.6405C23.66 16.2234 23.6725 16.3259 23.7616 16.466C23.9322 16.727 24.3822 16.7786 24.613 16.562C24.7566 16.43 24.7837 16.3309 24.812 15.8321C24.8255 15.5719 24.8284 15.1877 24.8222 14.978V14.978Z" fill="white"/>
</svg>
