<svg width="31" height="31" viewBox="0 0 31 31" fill="none" xmlns="http://www.w3.org/2000/svg">
<rect width="31" height="31" rx="2" fill="#55ACEE"/>
<path fill-rule="evenodd" clip-rule="evenodd" d="M15.0358 12.5986L15.0683 13.1349L14.5262 13.0693C12.553 12.8175 10.8291 11.9637 9.36545 10.5299L8.64988 9.8184L8.46557 10.3438C8.07526 11.515 8.32462 12.7518 9.13777 13.5837C9.57144 14.0434 9.47387 14.1091 8.72577 13.8354C8.46557 13.7479 8.23789 13.6822 8.2162 13.715C8.14031 13.7917 8.40052 14.7877 8.60651 15.1818C8.8884 15.729 9.46302 16.2654 10.0919 16.5828L10.6231 16.8345L9.99428 16.8455C9.38713 16.8455 9.36545 16.8564 9.4305 17.0863C9.64734 17.7978 10.5039 18.553 11.4579 18.8814L12.1301 19.1112L11.5447 19.4615C10.6773 19.965 9.65818 20.2496 8.63904 20.2715C8.15115 20.2824 7.75 20.3262 7.75 20.359C7.75 20.4685 9.07272 21.0814 9.84249 21.3222C12.1518 22.0337 14.8948 21.7272 16.9548 20.5123C18.4185 19.6476 19.8821 17.9291 20.5652 16.2654C20.9338 15.3788 21.3024 13.7588 21.3024 12.9817C21.3024 12.4782 21.3349 12.4125 21.9421 11.8105C22.2999 11.4602 22.636 11.0771 22.701 10.9677C22.8094 10.7597 22.7986 10.7597 22.2457 10.9458C21.3241 11.2742 21.194 11.2304 21.6494 10.7378C21.9855 10.3876 22.3866 9.75273 22.3866 9.56666C22.3866 9.53382 22.224 9.58855 22.0397 9.68706C21.8445 9.79651 21.4108 9.9607 21.0856 10.0592L20.5001 10.2453L19.9689 9.88408C19.6761 9.68706 19.2641 9.46814 19.0473 9.40247C18.4944 9.24923 17.6487 9.27112 17.15 9.44625C15.7947 9.93881 14.9382 11.2085 15.0358 12.5986Z" fill="white"/>
</svg>
