<svg width="31" height="31" viewBox="0 0 31 31" fill="none" xmlns="http://www.w3.org/2000/svg">
    <rect width="31" height="31" rx="2" fill="#25D366"/>
    <path fill-rule="evenodd" clip-rule="evenodd" d="M15.7525 24.8985H15.7487C14.2062 24.898 12.6905 24.5109 11.3443 23.7766L6.45831 25.0583L7.76588 20.2823C6.95931 18.8845 6.5349 17.2989 6.53559 15.6745C6.53761 10.5927 10.6723 6.45831 15.7525 6.45831C18.2181 6.45938 20.5322 7.41923 22.2723 9.16139C24.0124 10.9035 24.9703 13.2191 24.9693 15.6818C24.9672 20.7624 20.8342 24.8964 15.7525 24.8985V24.8985ZM11.5702 22.1081L11.85 22.2741C13.0261 22.972 14.3744 23.3414 15.749 23.3419H15.7521C19.9744 23.3419 23.411 19.9053 23.4127 15.6812C23.4134 13.6343 22.6174 11.7096 21.1711 10.2616C19.7247 8.81358 17.8013 8.01574 15.7551 8.01503C11.5296 8.01503 8.093 11.4513 8.09132 15.675C8.09073 17.1225 8.49573 18.5322 9.26258 19.7519L9.44472 20.0417L8.67083 22.8686L11.5702 22.1081ZM20.3958 17.8735C20.3383 17.7774 20.1848 17.7198 19.9545 17.6045C19.7242 17.4892 18.592 16.9321 18.3808 16.8552C18.1698 16.7784 18.0162 16.74 17.8627 16.9705C17.7092 17.201 17.2678 17.7198 17.1335 17.8735C16.9991 18.0271 16.8648 18.0464 16.6346 17.9311C16.4043 17.8159 15.6622 17.5727 14.7826 16.7881C14.0979 16.1774 13.6358 15.4233 13.5014 15.1927C13.3671 14.9621 13.4871 14.8376 13.6024 14.7227C13.706 14.6195 13.8327 14.4537 13.9478 14.3192C14.063 14.1848 14.1014 14.0887 14.1781 13.9351C14.2549 13.7813 14.2165 13.6469 14.1589 13.5316C14.1014 13.4163 13.6408 12.2827 13.4489 11.8216C13.2619 11.3726 13.0721 11.4334 12.9307 11.4263C12.7965 11.4196 12.6429 11.4181 12.4893 11.4181C12.3358 11.4181 12.0863 11.4758 11.8752 11.7063C11.6641 11.9369 11.0692 12.4941 11.0692 13.6275C11.0692 14.7611 11.8944 15.8562 12.0096 16.0099C12.1247 16.1636 13.6335 18.4897 15.9437 19.4873C16.4931 19.7246 16.9221 19.8663 17.2566 19.9724C17.8082 20.1477 18.3103 20.123 18.7071 20.0636C19.1496 19.9975 20.0696 19.5066 20.2616 18.9686C20.4534 18.4306 20.4534 17.9695 20.3958 17.8735V17.8735Z" fill="#FDFDFD"/>
</svg>
