<svg width="49" height="48" viewBox="0 0 49 48" fill="none" xmlns="http://www.w3.org/2000/svg">
<path d="M30.5449 14.0004H39.1909C40.0089 14.0004 40.7449 14.4984 41.0469 15.2584L44.2589 23.2864C44.4469 23.7584 44.5449 24.2624 44.5449 24.7704V36.6664C44.5449 37.7704 43.6489 38.6664 42.5449 38.6664H38.8829" fill="none" stroke-width="1.5" stroke-linecap="round" stroke-linejoin="round"/>
<path d="M32.5449 38.8403H16.8849" fill="none" stroke-width="1.5" stroke-linecap="round" stroke-linejoin="round"/>
<path d="M44.5449 28.0004H36.5449V20.0004H42.9449" fill="none" stroke-width="1.5" stroke-linecap="round" stroke-linejoin="round"/>
<path d="M25.6569 10.0004H28.5449C29.6489 10.0004 30.5449 10.8964 30.5449 12.0004V30.0004H4.54492" fill="none" stroke-width="1.5" stroke-linecap="round" stroke-linejoin="round"/>
<path d="M37.9527 36.5924C39.1907 37.8304 39.1907 39.8364 37.9527 41.0724C36.7147 42.3104 34.7087 42.3104 33.4727 41.0724C32.2347 39.8344 32.2347 37.8284 33.4727 36.5924C34.7107 35.3564 36.7167 35.3564 37.9527 36.5924" fill="none" stroke-width="1.5" stroke-linecap="round" stroke-linejoin="round"/>
<path d="M15.9528 36.5924C17.1908 37.8304 17.1908 39.8364 15.9528 41.0724C14.7148 42.3104 12.7088 42.3104 11.4728 41.0724C10.2368 39.8344 10.2348 37.8284 11.4728 36.5924C12.7108 35.3564 14.7148 35.3564 15.9528 36.5924" fill="none" stroke-width="1.5" stroke-linecap="round" stroke-linejoin="round"/>
<path d="M10.5449 38.8324H6.54492C5.44092 38.8324 4.54492 37.9364 4.54492 36.8324V12.0004C4.54492 10.8964 5.44092 10.0004 6.54492 10.0004H9.02092" fill="none" stroke-width="1.5" stroke-linecap="round" stroke-linejoin="round"/>
<path d="M17.3388 18.6364C12.7448 18.6364 9.02075 14.9124 9.02075 10.3184C9.02075 5.81837 12.8468 1.99637 17.3448 2.00037C21.9368 2.00437 25.6548 5.72637 25.6548 10.3184C25.6548 14.9104 21.9328 18.6364 17.3388 18.6364" fill="none" stroke-width="1.5"/>
<path d="M21.0347 8.47034L16.4127 13.0923L13.6407 10.3183" fill="none" stroke-width="1.5" stroke-linecap="round" stroke-linejoin="round"/>
</svg>
