<svg width="47" height="47" viewBox="0 0 47 47" fill="none" xmlns="http://www.w3.org/2000/svg">
<g clip-path="url(#clip451487)">
<path d="M12.5995 10.9888C12.0072 10.3965 11.0898 10.2737 10.3674 10.6927C9.64501 11.1116 9.29105 11.9713 9.50776 12.7803C9.72447 13.5894 10.4613 14.1456 11.292 14.1456C12.0433 14.1456 12.7151 13.6977 13.0041 13.0043C13.293 12.3109 13.1341 11.5162 12.5995 10.9888ZM11.5304 12.8671C11.2992 12.961 11.032 12.9104 10.8586 12.7371C10.743 12.6215 10.678 12.4626 10.678 12.3036C10.678 12.1375 10.743 11.9786 10.8586 11.863C11.032 11.6896 11.2992 11.6318 11.5304 11.7257C11.7616 11.8196 11.9133 12.0436 11.9133 12.2964C11.9133 12.5492 11.7616 12.7731 11.5304 12.8671Z" stroke="none"/>
<path d="M39.2261 14.7894C40.4397 13.0774 40.2374 10.7369 38.7565 9.24883C37.2684 7.76074 34.928 7.5657 33.2159 8.77929C27.2636 5.08073 19.7364 5.08073 13.7841 8.77929C12.072 7.5657 9.73155 7.76074 8.24346 9.24883C6.75537 10.7369 6.56033 13.0774 7.77392 14.7894C4.07536 20.7418 4.07536 28.2689 7.77392 34.2213C6.54588 35.9261 6.7337 38.2738 8.22179 39.7619C9.70988 41.25 12.0504 41.445 13.7624 40.217C19.722 43.9228 27.2708 43.9228 33.2304 40.217C34.9424 41.4306 37.2757 41.2356 38.7638 39.7547C40.2446 38.2738 40.4397 35.9333 39.2261 34.2213C42.9246 28.2689 42.9246 20.7417 39.2261 14.7894ZM38.3592 33.2677L36.5533 31.4618C38.8721 27.1131 38.8721 21.8975 36.5533 17.5561L38.3592 15.7501C41.5593 21.1463 41.5593 27.8644 38.3592 33.2677ZM23.5 38.0643C16.009 38.0643 9.94104 31.9892 9.94104 24.5054C9.94104 17.0216 16.009 10.9464 23.5 10.9464C30.991 10.9464 37.059 17.0144 37.059 24.5054C37.0517 31.9891 30.9838 38.057 23.5 38.0643ZM33.5266 10.1301C33.5554 10.1012 33.5843 10.0723 33.6205 10.0434C33.6421 10.029 33.6566 10.0145 33.6782 10.0001C34.8918 8.91654 36.7339 8.97433 37.8825 10.1229C39.031 11.2715 39.0888 13.1135 38.0125 14.3343C37.998 14.3488 37.9836 14.3705 37.9692 14.3921C37.9403 14.4283 37.9114 14.4571 37.8825 14.486L35.9032 16.4653C34.769 14.7244 33.2882 13.2436 31.5472 12.1094L33.5266 10.1301ZM32.2624 9.64614L30.4565 11.4521C26.1078 9.13325 20.8922 9.13325 16.5508 11.4521L14.7448 9.64614C20.141 6.44602 26.859 6.44602 32.2624 9.64614ZM9.11753 10.1229C10.2661 8.9671 12.1082 8.90931 13.329 9.99288C13.3434 10.0073 13.3651 10.0218 13.3868 10.0362C13.4229 10.0651 13.4518 10.094 13.4807 10.1229L15.46 12.1022C13.7191 13.2363 12.2382 14.7172 11.1041 16.4581L9.12476 14.4788C9.09586 14.4499 9.06697 14.421 9.03807 14.3849C9.02362 14.3632 9.00918 14.3488 8.99473 14.3271C7.91117 13.1135 7.96896 11.2715 9.11753 10.1229ZM8.64077 15.743L10.4467 17.5489C8.12788 21.8976 8.12788 27.1131 10.4467 31.4546L8.64077 33.2605C5.44065 27.8644 5.44065 21.1463 8.64077 15.743ZM13.4734 38.8806C13.4446 38.9095 13.4157 38.9384 13.3795 38.9673C13.3579 38.9817 13.3434 38.9962 13.3217 39.0106C12.1082 40.0942 10.2661 40.0364 9.11753 38.8878C7.96173 37.7393 7.90394 35.8972 8.9875 34.6764C9.00195 34.662 9.0164 34.6403 9.03085 34.6186C9.05974 34.5825 9.08864 34.5536 9.11753 34.5247L11.0968 32.5454C12.231 34.2863 13.7118 35.7672 15.4528 36.9013L13.4734 38.8806ZM14.7376 39.3646L16.5435 37.5587C20.8922 39.8775 26.1078 39.8775 30.4492 37.5587L32.2552 39.3646C26.859 42.5647 20.141 42.5647 14.7376 39.3646ZM37.8825 38.8878C36.7339 40.0363 34.8918 40.0941 33.671 39.0178C33.6566 39.0033 33.6349 38.9889 33.6132 38.9744C33.5771 38.9456 33.5482 38.9167 33.5193 38.8878L31.54 36.9085C33.2809 35.7743 34.7618 34.2935 35.8959 32.5525L37.8752 34.5319C37.9041 34.5607 37.933 34.5896 37.9619 34.6258C37.9764 34.6474 37.9908 34.6619 38.0053 34.6835C39.0888 35.8972 39.031 37.7393 37.8825 38.8878Z" stroke="none"/>
<path d="M12.5994 35.3977C11.877 34.6825 10.7068 34.6825 9.98441 35.3977C9.26203 36.1201 9.26203 37.2903 9.98441 38.0127C10.7068 38.735 11.877 38.735 12.5994 38.0127C13.3218 37.2903 13.3218 36.1201 12.5994 35.3977ZM11.7326 37.1459C11.5592 37.3193 11.2919 37.3771 11.0607 37.2831C10.8296 37.1892 10.6779 36.9653 10.6779 36.7125C10.6779 36.4596 10.8296 36.2357 11.0607 36.1418C11.2919 36.0479 11.5592 36.0985 11.7326 36.2791C11.9709 36.5174 11.9709 36.9075 11.7326 37.1459Z" stroke="none"/>
<path d="M36.6326 10.6927C35.9102 10.2737 34.9928 10.3965 34.4005 10.9888C33.8731 11.5162 33.7142 12.3108 33.9959 13.0043C34.2849 13.6977 34.9567 14.1456 35.708 14.1456C36.5459 14.1456 37.2755 13.5822 37.4922 12.7731C37.7089 11.964 37.355 11.1116 36.6326 10.6927ZM35.9391 12.867C35.708 12.9609 35.4407 12.9104 35.2673 12.7298C35.0289 12.4914 35.0289 12.1013 35.2673 11.8629C35.4407 11.6895 35.708 11.6318 35.9391 11.7257C36.1703 11.8196 36.322 12.0435 36.322 12.2963C36.322 12.5492 36.1703 12.773 35.9391 12.867Z" stroke="none"/>
<path d="M27.8559 20.1488C26.7073 18.9857 25.1325 18.3356 23.4999 18.3428C20.5599 18.3428 18.0243 20.4233 17.4537 23.3055C16.883 26.1878 18.4216 29.0773 21.1378 30.2042C23.8539 31.3311 26.989 30.3776 28.6216 27.936C30.2541 25.487 29.9363 22.2292 27.8559 20.1488ZM26.989 27.9937C25.3275 29.6551 22.7198 29.9152 20.7621 28.6077C18.8045 27.3002 18.046 24.7936 18.949 22.6192C19.8519 20.4449 22.1563 19.2096 24.4679 19.6719C26.7723 20.1342 28.4338 22.1569 28.4338 24.5118C28.4338 25.8121 27.9136 27.0691 26.989 27.9937Z" stroke="none"/>
<path d="M26.1148 21.8825C25.4214 21.1962 24.4823 20.8062 23.4998 20.8062C21.7373 20.8062 20.213 22.0559 19.8735 23.7823C19.534 25.5088 20.4587 27.2497 22.084 27.9215C23.7093 28.5933 25.5947 28.0299 26.5771 26.5562C27.5596 25.0898 27.3645 23.1322 26.1148 21.8825ZM25.2408 26.2456C24.2656 27.1774 22.7269 27.1774 21.7517 26.2456C21.0438 25.5376 20.8343 24.483 21.2171 23.5583C21.6 22.6337 22.4957 22.0341 23.4926 22.0341C24.4895 22.0341 25.3925 22.6337 25.7681 23.5583C26.1582 24.483 25.9487 25.5448 25.2408 26.2456Z" stroke="none"/>
<path d="M23.4998 34.365C18.0531 34.3578 13.6466 29.9441 13.6394 24.5046C13.6394 24.1651 13.3649 23.8906 13.0254 23.8906C12.6859 23.8906 12.4114 24.1651 12.4114 24.5046C12.4186 30.6304 17.3813 35.5931 23.507 35.6003C23.8466 35.6003 24.1211 35.3258 24.1211 34.9863C24.1211 34.6468 23.8393 34.365 23.4998 34.365Z" stroke="none"/>
<path d="M23.5 13.4092C23.1605 13.4092 22.886 13.6837 22.886 14.0232C22.886 14.3627 23.1605 14.6372 23.5 14.6372C28.9467 14.6444 33.3532 19.0581 33.3604 24.4976C33.3604 24.8371 33.6349 25.1116 33.9744 25.1116C34.3139 25.1116 34.5884 24.8371 34.5884 24.4976C34.5884 18.3791 29.6257 13.4164 23.5 13.4092Z" stroke="none"/>
<path d="M36.6326 35.1018C35.9102 34.6829 34.9928 34.8057 34.4005 35.398C33.8731 35.9253 33.7142 36.72 33.9959 37.4134C34.2849 38.1069 34.9567 38.562 35.708 38.5548C36.5459 38.5548 37.2755 37.9913 37.4922 37.1823C37.7089 36.3732 37.355 35.5208 36.6326 35.1018ZM35.9391 37.2761C35.708 37.37 35.4407 37.3195 35.2673 37.1389C35.0289 36.9077 35.0289 36.5176 35.2673 36.272C35.4407 36.0986 35.708 36.0409 35.9391 36.1348C36.1703 36.2287 36.322 36.4526 36.322 36.7054C36.322 36.9583 36.1703 37.1823 35.9391 37.2761Z" stroke="none"/>
</g>
<defs>
<clipPath id="clip451487">
<rect width="37" height="37" fill="white" transform="translate(5 6)"/>
</clipPath>
</defs>
</svg>
