<svg width="16" height="16" viewBox="0 0 16 16" fill="none" xmlns="http://www.w3.org/2000/svg">
<path d="M7.23678 8.76274C6.45678 7.98274 5.86878 7.10941 5.47811 6.22341C5.39545 6.03608 5.44411 5.81674 5.58878 5.67208L6.13478 5.12674C6.58211 4.67941 6.58211 4.04674 6.19145 3.65608L5.40878 2.87341C4.88811 2.35274 4.04411 2.35274 3.52345 2.87341L3.08878 3.30808C2.59478 3.80208 2.38878 4.51474 2.52211 5.22141C2.85145 6.96341 3.86345 8.87074 5.49611 10.5034C7.12878 12.1361 9.03611 13.1481 10.7781 13.4774C11.4848 13.6107 12.1974 13.4047 12.6914 12.9107L13.1254 12.4767C13.6461 11.9561 13.6461 11.1121 13.1254 10.5914L12.3434 9.80941C11.9528 9.41874 11.3194 9.41874 10.9294 9.80941L10.3274 10.4121C10.1828 10.5567 9.96345 10.6054 9.77611 10.5227C8.89011 10.1314 8.01678 9.54274 7.23678 8.76274V8.76274Z" stroke-width="1.2" stroke-linecap="round" stroke-linejoin="round"/>
</svg>