<svg width="16" height="16" viewBox="0 0 16 16" fill="none" xmlns="http://www.w3.org/2000/svg">
<path d="M9.8056 6.19745C9.63627 6.19745 9.49902 6.33469 9.49902 6.50403V12.2984C9.49902 12.4676 9.63627 12.6049 9.8056 12.6049C9.97494 12.6049 10.1122 12.4676 10.1122 12.2984V6.50403C10.1122 6.33469 9.97494 6.19745 9.8056 6.19745Z" fill="#808080"/>
<path d="M6.18841 6.19745C6.01908 6.19745 5.88184 6.33469 5.88184 6.50403V12.2984C5.88184 12.4676 6.01908 12.6049 6.18841 12.6049C6.35775 12.6049 6.49499 12.4676 6.49499 12.2984V6.50403C6.49499 6.33469 6.35775 6.19745 6.18841 6.19745Z" fill="#808080"/>
<path d="M3.55139 5.35182V12.9052C3.55139 13.3517 3.7151 13.771 4.00108 14.0718C4.28574 14.3735 4.6819 14.5447 5.0965 14.5454H10.897C11.3118 14.5447 11.7079 14.3735 11.9925 14.0718C12.2784 13.771 12.4422 13.3517 12.4422 12.9052V5.35182C13.0106 5.20092 13.379 4.65172 13.303 4.06838C13.2268 3.48517 12.7299 3.04889 12.1417 3.04877H10.572V2.66555C10.5738 2.34329 10.4464 2.03383 10.2183 1.80618C9.99013 1.57864 9.6802 1.45193 9.35793 1.45457H6.63561C6.31335 1.45193 6.00342 1.57864 5.77528 1.80618C5.54714 2.03383 5.41972 2.34329 5.42152 2.66555V3.04877H3.85187C3.26362 3.04889 2.76675 3.48517 2.69058 4.06838C2.61454 4.65172 2.98291 5.20092 3.55139 5.35182ZM10.897 13.9323H5.0965C4.57232 13.9323 4.16455 13.482 4.16455 12.9052V5.37876H11.829V12.9052C11.829 13.482 11.4212 13.9323 10.897 13.9323ZM6.03467 2.66555C6.03264 2.50592 6.09539 2.35227 6.20868 2.23958C6.32185 2.12688 6.47586 2.06497 6.63561 2.06772H9.35793C9.51769 2.06497 9.67169 2.12688 9.78486 2.23958C9.89815 2.35215 9.96091 2.50592 9.95887 2.66555V3.04877H6.03467V2.66555ZM3.85187 3.66193H12.1417C12.4465 3.66193 12.6935 3.90899 12.6935 4.21377C12.6935 4.51855 12.4465 4.76561 12.1417 4.76561H3.85187C3.54708 4.76561 3.30003 4.51855 3.30003 4.21377C3.30003 3.90899 3.54708 3.66193 3.85187 3.66193Z" fill="#808080"/>
<path d="M7.997 6.19745C7.82767 6.19745 7.69043 6.33469 7.69043 6.50403V12.2984C7.69043 12.4676 7.82767 12.6049 7.997 12.6049C8.16634 12.6049 8.30358 12.4676 8.30358 12.2984V6.50403C8.30358 6.33469 8.16634 6.19745 7.997 6.19745Z" fill="#808080"/>
</svg>