<svg width="47" height="47" viewBox="0 0 47 47" fill="none" xmlns="http://www.w3.org/2000/svg">
<path d="M42.9999 13.1527C42.9832 13.1945 42.9656 13.2359 42.9501 13.278C42.8351 13.5855 42.5633 13.7633 42.2338 13.7251C41.8458 13.6802 41.4598 13.6146 41.0714 13.5736C40.9989 13.566 40.8847 13.609 40.8481 13.6659C40.5844 14.0783 40.3308 14.4971 40.0872 14.9225C40.0574 14.9746 40.0737 15.0931 40.1151 15.1401C40.3515 15.4086 40.6109 15.6572 40.8453 15.9269C41.1267 16.2507 41.0626 16.6429 40.7112 16.8852C40.5071 17.0252 40.2922 17.0344 40.0991 16.8919C39.8707 16.7237 39.6614 16.5296 39.4493 16.3402C39.3211 16.226 39.2041 16.1015 39.0764 15.9734L38.0612 17.0351C38.1591 17.1235 38.2876 17.2277 38.4026 17.3454C38.5778 17.5176 38.7441 17.6986 38.9009 17.8876C39.1739 18.2301 39.15 18.4771 38.8388 18.7743C38.6072 18.9958 38.3063 18.9935 38.0162 18.7452C37.7747 18.5384 37.5502 18.312 37.3182 18.0941L37.1447 17.9314L36.1355 18.9433C36.2481 19.0627 36.3822 19.1955 36.5072 19.3368C36.6866 19.54 36.8773 19.7369 37.0309 19.9589C37.2219 20.2346 37.1634 20.4541 36.8717 20.723C36.6178 20.9581 36.4503 20.9744 36.1693 20.7577C35.9703 20.6041 35.7912 20.4255 35.6018 20.2596C35.4677 20.1423 35.3312 20.0277 35.172 19.8913L34.1652 20.8571C34.3936 21.099 34.6161 21.3165 34.8166 21.5528C34.9667 21.7295 35.1748 21.8798 35.1613 22.1543C35.1477 22.4049 35.0817 22.6316 34.8349 22.747C34.5806 22.8663 34.3264 22.8512 34.1083 22.6635C33.8572 22.4475 33.6176 22.2179 33.3728 21.9948C33.3195 21.9462 33.2658 21.8985 33.261 21.9152L32.1953 22.8091C32.4412 23.0831 32.643 23.3011 32.8368 23.5251C32.9589 23.6641 33.0726 23.8102 33.1774 23.9626C33.2861 24.1245 33.257 24.2864 33.142 24.44C32.8217 24.8692 32.5328 24.9142 32.1225 24.5689C31.8292 24.3222 31.5538 24.0517 31.2824 23.8055L30.2294 24.8736C30.2719 24.8986 30.3667 24.9313 30.4283 24.9929C30.6711 25.2372 30.9154 25.4818 31.1363 25.7455C31.224 25.8514 31.2707 25.9853 31.2679 26.1227C31.265 26.2602 31.2128 26.392 31.1208 26.4942C30.882 26.7611 30.6034 26.8223 30.3249 26.6274C30.0984 26.4683 29.8991 26.2694 29.6929 26.0852C29.566 25.9707 29.4482 25.8466 29.3646 25.763L28.4584 26.602C28.3609 26.6919 28.3665 26.7774 28.4584 26.8729C28.6427 27.0638 28.8238 27.2571 28.9997 27.4556C29.0891 27.554 29.169 27.6605 29.2384 27.7739C29.3976 28.04 29.3578 28.291 29.1342 28.5114C28.9404 28.7019 28.6073 28.75 28.3852 28.579C28.1234 28.3777 27.8846 28.1462 27.6426 27.9202C27.561 27.8439 27.5006 27.7448 27.4285 27.6537C27.2773 27.7707 27.1738 27.8622 27.0592 27.9369C26.7735 28.1235 26.4961 28.0682 26.251 27.7842C26.0293 27.5272 26.0249 27.2766 26.2697 27.0252C27.4476 25.8125 28.6301 24.6037 29.8171 23.399C32.5869 20.5985 35.3593 17.8008 38.1344 15.0056C38.3334 14.8032 38.5189 14.5836 38.7246 14.3867C39.8062 13.3524 40.1616 12.0548 40.09 10.6077C39.9953 8.70466 38.5734 7.39156 37.2549 7.05145C36.024 6.73322 34.8274 6.86846 33.6793 7.4381C33.2699 7.63669 32.8962 7.90162 32.5733 8.22214C28.5672 12.2141 24.555 16.2011 20.5367 20.1832C20.3484 20.3702 20.1554 20.5524 19.9608 20.7322C19.722 20.9546 19.4777 20.9621 19.2306 20.7628C18.9436 20.5313 18.8668 20.2533 19.0292 19.9796C19.106 19.8499 19.2083 19.7353 19.3054 19.6057C19.0606 19.3455 18.8139 19.0885 18.5719 18.8248C18.4128 18.651 18.2862 18.4668 18.3192 18.2046C18.3769 17.7512 18.8895 17.5022 19.2548 17.7746C19.5036 17.9604 19.7209 18.1871 19.9576 18.3896C20.3059 18.6876 20.2287 18.6892 20.5701 18.3737C20.7595 18.1983 20.9283 18.0014 21.1109 17.8168C21.2092 17.7178 21.2144 17.629 21.1133 17.5288C21.0238 17.4405 20.9402 17.3462 20.8562 17.2504C20.697 17.0721 20.5311 16.9003 20.3866 16.711C20.1773 16.4357 20.1936 16.1354 20.4093 15.9154C20.5211 15.8051 20.6689 15.7388 20.8256 15.7286C20.9823 15.7185 21.1375 15.7651 21.2625 15.8601C21.4209 15.991 21.5723 16.13 21.7162 16.2766C21.873 16.4281 22.0242 16.5852 22.1623 16.7241L23.1851 15.699C23.0725 15.5796 22.928 15.4364 22.7951 15.2833C22.6216 15.0844 22.4401 14.8855 22.2937 14.6687C22.111 14.395 22.1512 14.1961 22.388 13.9598C22.6248 13.7236 22.8222 13.6846 23.0983 13.86C23.2762 13.973 23.435 14.1166 23.5966 14.253C23.7836 14.4121 23.9643 14.576 24.1752 14.7626L25.1419 13.6981C24.9214 13.4666 24.6567 13.1909 24.3949 12.9125C24.2544 12.7633 24.1621 12.5966 24.1784 12.3778C24.2122 11.9295 24.6372 11.6722 25.0376 11.8798C25.2004 11.9685 25.3503 12.0792 25.4829 12.2088C25.6819 12.3949 25.8582 12.6018 26.0289 12.7832L27.1265 11.6901C26.9832 11.5731 26.8081 11.4482 26.6569 11.3018C26.5091 11.159 26.3728 11.0048 26.249 10.8408C26.0253 10.5472 26.05 10.2839 26.3134 10.0269C26.4201 9.92519 26.5602 9.86597 26.7075 9.8604C26.8547 9.85483 26.999 9.9033 27.1129 9.99668C27.3199 10.1618 27.5109 10.3479 27.7011 10.5317C27.8058 10.6319 27.8965 10.7465 27.9968 10.8583L29.0176 9.80773C28.7979 9.57462 28.5571 9.32203 28.32 9.06545C28.164 8.89679 28.0414 8.71659 28.0704 8.46399C28.1202 8.00932 28.6276 7.75593 28.9989 8.01927C29.1764 8.14537 29.3336 8.30011 29.4955 8.44689C29.6575 8.59367 29.8035 8.73847 29.9393 8.86735L30.9473 7.86771C30.6902 7.57653 30.4088 7.26864 30.1414 6.94922C30.0037 6.78453 29.9476 6.59319 30.0395 6.37521C30.2079 5.97463 30.6365 5.84018 30.9871 6.09914C31.1602 6.23286 31.3233 6.37911 31.475 6.53671C31.625 6.68588 31.7615 6.84897 31.904 7.0057C32.2621 6.78572 32.5805 6.58484 32.9032 6.3943C33.0971 6.28014 33.298 6.17751 33.5002 6.07925C33.5973 6.03231 33.6148 5.97861 33.5881 5.87598C33.4879 5.49212 33.3892 5.10745 33.3064 4.71921C33.195 4.18299 33.811 3.88386 34.131 4.04655C34.265 4.11358 34.3745 4.22119 34.4438 4.35404C34.5879 4.68007 34.7152 5.01334 34.825 5.35249C34.8899 5.54263 34.9806 5.61782 35.1987 5.6027C35.6945 5.56849 36.1936 5.5673 36.6898 5.56292C36.8188 5.56292 36.8749 5.52314 36.9083 5.39864C36.9803 5.13053 37.0631 4.8648 37.1519 4.60306C37.1894 4.49696 37.2398 4.39584 37.3019 4.30193C37.477 4.02945 37.7524 3.93358 38.0182 4.04257C38.3083 4.16191 38.4707 4.43798 38.4054 4.74427C38.3354 5.07404 38.2518 5.40182 38.1603 5.72641C38.1205 5.8724 38.146 5.95156 38.2849 6.02714C38.6454 6.22285 38.996 6.43647 39.3733 6.65565C39.5468 6.48818 39.7314 6.30082 39.9256 6.125C40.0683 5.98697 40.2231 5.86196 40.3881 5.75147C40.4806 5.69249 40.5871 5.65891 40.6968 5.65411C40.8065 5.64931 40.9155 5.67347 41.0129 5.72416C41.1102 5.77484 41.1926 5.85026 41.2515 5.94283C41.3105 6.0354 41.344 6.14186 41.3487 6.25149C41.3489 6.38202 41.3038 6.50857 41.221 6.6095C40.9762 6.89631 40.7112 7.16641 40.4454 7.43492C40.3371 7.54391 40.3331 7.63023 40.4123 7.76031C40.6428 8.13821 40.8585 8.52486 41.0968 8.93657C41.2333 8.89241 41.3945 8.83991 41.5561 8.78899C41.7176 8.73807 41.8836 8.68238 42.0495 8.63703C42.5542 8.4994 42.7599 8.59169 42.9979 9.05392V9.33237C42.8594 9.60724 42.6234 9.76994 42.3468 9.87654C42.0881 9.97718 41.8235 10.0631 41.5664 10.1665C41.5119 10.1884 41.4411 10.2568 41.4383 10.307C41.4025 10.9605 41.3774 11.6145 41.3487 12.2856C41.6647 12.3381 41.9576 12.3862 42.2497 12.4359C42.6079 12.4972 42.9119 12.628 42.9979 13.0326L42.9999 13.1527Z" stroke="none"/>
<path d="M4 24.2907C4.08636 23.7338 4.45168 23.3468 4.82577 22.9713C6.23852 21.554 7.66122 20.1446 9.07 18.7253C9.65381 18.1378 10.3435 17.9747 11.1286 18.1684C11.2576 18.1978 11.3805 18.2492 11.492 18.3204C12.0149 18.6732 12.4771 19.1084 12.8606 19.6092C13.0237 19.8208 13.0528 20.0595 12.9155 20.2978C12.7782 20.536 12.5573 20.6339 12.2927 20.5921C12.1644 20.5663 12.0448 20.5083 11.9453 20.4235C11.7666 20.2767 11.6106 20.1028 11.4418 19.9437C11.3165 19.8244 11.1911 19.7051 11.0566 19.5996C10.6427 19.2711 10.4099 19.2619 10.0331 19.6323C8.563 21.0754 7.10408 22.5317 5.64278 23.9845C5.57878 24.0517 5.51847 24.1223 5.4621 24.1961C5.21736 24.4988 5.21338 24.6655 5.4621 24.9698C5.60497 25.1436 5.76455 25.3035 5.91538 25.4706C6.0662 25.6377 6.2234 25.8004 6.36348 25.9762C6.69936 26.3978 6.62812 26.759 6.14898 27.0148C6.04295 27.0614 5.92358 27.0679 5.8131 27.0331C5.68947 26.9859 5.57699 26.9136 5.4828 26.8207C5.22293 26.5848 4.97062 26.3401 4.7211 26.0931C4.3705 25.7439 4.07521 25.3588 4 24.8476V24.2907Z" stroke="none"/>
<path d="M8.17307 33.3291C7.81769 32.9313 7.45674 32.5502 7.12484 32.1473C6.41449 31.2845 6.21551 30.3003 6.47617 29.2199C6.57049 28.8277 6.78698 28.5015 7.05401 28.2135C7.65731 27.562 8.26022 26.9088 8.8878 26.2803C10.4896 24.6756 12.1045 23.0837 13.7154 21.4877C13.8046 21.399 13.9065 21.323 13.9968 21.2355C14.9372 20.3206 16.0363 20.2661 17.2107 20.648C17.5772 20.7697 17.9092 20.9776 18.1786 21.2542C20.6234 23.7038 23.0691 26.1526 25.5157 28.6006C25.893 28.9793 26.2754 29.3639 26.4414 29.899C26.7717 30.9658 26.7148 31.979 26.0176 32.8983C25.6813 33.3418 25.3378 33.7802 24.9829 34.211C24.852 34.3584 24.781 34.5494 24.7839 34.7464C24.7819 35.8006 24.7465 36.8547 24.7628 37.908C24.7704 38.3981 24.5941 38.7967 24.325 39.1726C24.1787 39.3778 24.0164 39.5711 23.8395 39.7506C23.0464 40.5509 22.2632 41.3628 21.4426 42.1345C20.3375 43.174 18.7405 43.2917 17.4929 42.4293C17.0495 42.119 16.6552 41.7372 16.2572 41.3676C16.1032 41.2244 15.9973 41.1966 15.8012 41.2881C15.5848 41.3848 15.3537 41.4443 15.1175 41.4639C14.975 41.479 14.8309 41.4614 14.6963 41.4126C14.5616 41.3637 14.4398 41.2848 14.3402 41.1818C12.7822 39.646 11.2171 38.1189 9.66143 36.5786C9.17155 36.0937 8.69917 35.5909 8.22878 35.0873C7.8356 34.6669 7.76795 34.1171 8.02662 33.6008C8.07358 33.5081 8.12571 33.417 8.17307 33.3291ZM9.15722 34.2185L15.1266 40.1854C15.1943 40.1225 15.275 40.0454 15.3578 39.9706C15.4406 39.8958 15.5341 39.8095 15.6272 39.7355C15.9014 39.5175 16.1625 39.5135 16.4439 39.7212C16.5186 39.7762 16.5901 39.8356 16.658 39.899C17.0742 40.2888 17.4841 40.685 17.9052 41.0689C18.2052 41.3422 18.5212 41.586 18.9498 41.6405C19.5738 41.7201 20.1333 41.5832 20.5814 41.1425C21.4462 40.2932 22.2927 39.424 23.1467 38.5652C23.3719 38.3392 23.4547 38.0632 23.4579 37.7541C23.469 36.5679 23.4778 35.3817 23.4977 34.1955C23.5027 34.0807 23.5416 33.97 23.6095 33.8772C24.0652 33.275 24.5296 32.6791 24.996 32.0848C25.189 31.8459 25.3006 31.5515 25.3144 31.2447C25.341 30.6981 25.2527 30.1961 24.842 29.7824C24.3051 29.2414 23.8009 28.6686 23.2601 28.1312C21.2608 26.1462 19.2554 24.1674 17.2441 22.1946C16.6671 21.6293 15.6714 21.5904 15.0319 22.0812C14.7363 22.3058 14.4552 22.5488 14.1902 22.8088C12.5801 24.405 10.975 26.0061 9.3749 27.6121C8.92123 28.0675 8.47671 28.5334 8.05448 29.0175C7.6784 29.4487 7.57692 29.9574 7.72019 30.5219C7.82565 30.9412 8.08273 31.251 8.36488 31.5526C8.78155 31.9977 9.20697 32.4353 9.60811 32.8939C9.86121 33.1831 9.83733 33.4822 9.58145 33.769C9.44176 33.9286 9.29292 34.0777 9.15762 34.2185H9.15722Z" stroke="none"/>
<path d="M35.8271 8.21636C37.4691 8.21994 38.8226 9.5939 38.7796 11.2221C38.7645 11.7933 38.6137 12.3263 38.2173 12.7563C37.4811 13.5559 36.7564 14.3678 35.9887 15.1363C32.6392 18.4904 29.2816 21.837 25.916 25.1761C25.6529 25.4378 25.3747 25.6849 25.0926 25.9255C24.8335 26.1467 24.4889 26.1013 24.276 25.8368C24.1168 25.6403 24.1419 25.1757 24.3194 24.9975C27.9734 21.3277 31.6268 17.6577 35.2796 13.9875C35.8765 13.3856 36.4229 12.7253 37.0596 12.1688C37.776 11.5439 37.4456 10.183 36.7126 9.77967C36.3706 9.5845 35.9764 9.50014 35.5844 9.53821C35.3166 9.56446 35.1009 9.68698 34.9079 9.87713C32.4211 12.332 29.9327 14.785 27.4425 17.2362C25.6187 19.0414 23.8092 20.8609 21.9933 22.674C21.8468 22.8204 21.4549 22.8697 21.2372 22.7695C21.068 22.6899 20.885 22.3916 20.9136 22.1907C20.9335 22.0878 20.9814 21.9924 21.0521 21.915C21.3506 21.5773 21.6491 21.2368 21.9674 20.9185C25.7297 17.1616 29.4956 13.4075 33.2651 9.65635C33.603 9.32022 33.9655 9.00716 34.3344 8.70484C34.7956 8.32615 35.1781 8.21357 35.8271 8.21636Z" stroke="none"/>
<path d="M14.4094 31.2955C14.4094 30.2087 14.4245 29.1212 14.4035 28.0336C14.3915 27.4139 14.6753 26.9461 15.1019 26.5618C15.8102 25.9253 16.8441 25.9556 17.5744 26.5698C18.0014 26.9278 18.2434 27.3626 18.2509 27.9222C18.2633 28.6574 18.2907 29.3941 18.2927 30.128C18.2927 31.6125 18.2648 33.0975 18.2851 34.5832C18.2927 35.1401 18.0543 35.5638 17.7037 35.9242C16.7677 36.886 15.1198 36.5745 14.5758 35.3498C14.5109 35.205 14.4743 35.0492 14.4679 34.8907C14.4361 33.6918 14.4154 32.4928 14.3911 31.2935L14.4094 31.2955ZM15.7362 31.4451H15.7183C15.7183 32.4793 15.7243 33.5136 15.7131 34.5478C15.7107 34.7539 15.7696 34.8899 15.9292 35.0188C16.1374 35.1871 16.3399 35.2229 16.5918 35.1326C16.8306 35.047 16.9102 34.8732 16.9373 34.6496C16.9568 34.5254 16.9695 34.4002 16.9751 34.2745C16.985 32.4594 16.995 30.6439 16.9958 28.8288C16.9927 28.5175 16.9696 28.2067 16.9265 27.8984C16.8867 27.5825 16.6348 27.3785 16.3133 27.4011C16.0665 27.4186 15.7959 27.5547 15.7764 27.9306C15.7657 28.1486 15.7366 28.3682 15.7366 28.5846C15.7338 29.5381 15.7362 30.4928 15.7362 31.4451Z" stroke="none"/>
<path d="M22.507 30.0151C23.17 30.0124 23.4569 30.4925 23.4864 31.0168C23.5123 31.4734 22.985 31.9536 22.5006 31.9552C22.0378 31.9552 21.5419 31.4432 21.5396 30.9607C21.5372 30.4782 22.0147 30.0151 22.507 30.0151ZM22.7884 30.9595C22.7915 30.7686 22.702 30.6699 22.5221 30.6659C22.3534 30.6624 22.1918 30.8095 22.1906 30.9679C22.1894 31.1262 22.3375 31.2598 22.5026 31.2634C22.6765 31.2682 22.7856 31.152 22.7888 30.9603L22.7884 30.9595Z" stroke="none"/>
</svg>
