<svg xmlns="http://www.w3.org/2000/svg" xml:space="preserve" style="enable-background:new 0 0 64 64" viewBox="0 0 64 64"><path d="M-310-425.6h-2.5l1.5-2.1c1.1-1.6 1.9-3.5 2.3-6-7.1-3.2-10.9-9.2-10.9-17.1 0-12.1 9.1-19.6 23.8-19.6 14.7 0 23.8 7.5 23.8 19.6 0 12.2-8.9 19.6-23.8 19.6h-1c-2.4 2.6-6.4 5.6-13.2 5.6zm14-42.2c-13.3 0-21.2 6.3-21.2 17 0 9.1 5.6 13.2 10.2 15.1l.9.4-.1 1c-.3 2.3-.8 4.3-1.6 6 4.8-.6 7.6-3 9.1-5l.4-.5h2.2c19.1 0 21.2-11.9 21.2-17 .1-10.6-7.8-17-21.1-17z" style="fill:#134563" transform="translate(328 480)"/></svg>