<svg width="47" height="47" viewBox="0 0 47 47" fill="none" xmlns="http://www.w3.org/2000/svg">
<path d="M13.9517 39.4194H17.5323V40.613H13.9517V39.4194Z" stroke="none"/>
<path d="M42 14.3548H38.3931C38.1306 11.679 35.8682 9.58065 33.1247 9.58065H32.972C30.2286 9.58065 27.9662 11.679 27.7036 14.3548H26.4839V8.98387C26.4839 7.33866 25.1452 6 23.5 6H7.98387C6.33866 6 5 7.33866 5 8.98387V40.0161C5 41.6613 6.33866 43 7.98387 43H23.5C25.1452 43 26.4839 41.6613 26.4839 40.0161V33.4516H42V14.3548ZM32.972 10.7742H33.1247C35.3859 10.7742 37.2258 12.6141 37.2258 14.8753C37.2258 15.6003 37.0329 16.3148 36.6666 16.9412L33.4304 22.4894C33.2716 22.7604 32.8234 22.7604 32.6664 22.4894L29.4296 16.9407C29.0639 16.3148 28.871 15.6003 28.871 14.8753C28.871 12.6141 30.7108 10.7742 32.972 10.7742ZM31.6357 23.0923C31.9283 23.5923 32.4694 23.9032 33.0484 23.9032C33.6274 23.9032 34.1685 23.5923 34.4616 23.0917L35.0328 22.1129H37.2258V25.0968H25.2903V15.5484H27.7223C27.8123 16.2495 28.0408 16.9287 28.3983 17.5427L31.6357 23.0923ZM14.5484 14.3548V33.4516H22.9032V34.6452H8.58065V13.1613H25.2903V14.3548H14.5484ZM24.0968 32.2581H15.7419V29.871H24.0968V32.2581ZM20.5161 15.5484V17.9355H15.7419V15.5484H20.5161ZM7.98387 7.19355H23.5C24.4869 7.19355 25.2903 7.99692 25.2903 8.98387V9.58065H6.19355V8.98387C6.19355 7.99692 6.99692 7.19355 7.98387 7.19355ZM23.5 41.8065H7.98387C6.99692 41.8065 6.19355 41.0031 6.19355 40.0161V38.2258H25.2903V40.0161C25.2903 41.0031 24.4869 41.8065 23.5 41.8065ZM25.2903 37.0323H6.19355V10.7742H25.2903V11.9677H7.3871V35.8387H24.0968V33.4516H25.2903V37.0323ZM28.871 32.2581V29.871H38.4194V28.6774H27.6774V32.2581H25.2903V28.6774H15.7419V26.2903H21.7097V21.5161H18.129V22.7097H20.5161V25.0968H15.7419V22.7097H16.9355V21.5161H15.7419V19.129H21.7097V15.5484H24.0968V26.2903H38.4194V20.9194H35.7292L37.6984 17.5427C38.0566 16.9287 38.2844 16.2489 38.3745 15.5484H40.8065V28.6774H39.6129V29.871H40.8065V32.2581H28.871Z" stroke="none"/>
<path d="M33.0486 17.9355C34.6938 17.9355 36.0324 16.5969 36.0324 14.9516C36.0324 13.3064 34.6938 11.9678 33.0486 11.9678C31.4034 11.9678 30.0647 13.3064 30.0647 14.9516C30.0647 16.5969 31.4034 17.9355 33.0486 17.9355ZM33.0486 13.1613C34.0355 13.1613 34.8389 13.9647 34.8389 14.9516C34.8389 15.9386 34.0355 16.742 33.0486 16.742C32.0616 16.742 31.2582 15.9386 31.2582 14.9516C31.2582 13.9647 32.0616 13.1613 33.0486 13.1613Z" stroke="none"/>
</svg>
