<svg width="49" height="49" viewBox="0 0 49 49" fill="none" xmlns="http://www.w3.org/2000/svg">
<path fill-rule="evenodd" clip-rule="evenodd" d="M12.1584 42.0507H8.15672C7.05226 42.0507 6.15588 41.1543 6.15588 40.0499V28.0449C6.15588 26.9404 7.05226 26.044 8.15672 26.044H12.1584C13.2628 26.044 14.1592 26.9404 14.1592 28.0449V40.0499C14.1592 41.1543 13.2628 42.0507 12.1584 42.0507Z" fill="none" stroke-width="1.5" stroke-linecap="round" stroke-linejoin="round"/>
<path d="M26.1641 34.0474H30.832C31.6984 34.0474 32.5407 33.7673 33.233 33.247L38.067 29.6215C39.2735 28.7172 40.9622 28.8372 42.0287 29.9037V29.9037C43.2132 31.0881 43.2132 33.0069 42.0287 34.1894L37.8809 38.3372C36.7645 39.4536 35.3399 40.216 33.7912 40.5261L27.9288 41.6986C26.7663 41.9307 25.5678 41.9027 24.4173 41.6145L19.1151 40.29C18.4809 40.1299 17.8306 40.0499 17.1763 40.0499H14.1591" fill="none" stroke-width="1.5" stroke-linecap="round" stroke-linejoin="round"/>
<path d="M26.1641 34.0474H29.1353C30.81 34.0474 32.1666 32.6908 32.1666 31.0161V30.4099C32.1666 29.0193 31.2202 27.8068 29.8716 27.4706L25.2857 26.3242C24.5394 26.1381 23.7751 26.044 23.0067 26.044V26.044C21.152 26.044 19.3372 26.5923 17.7946 27.6227L14.1591 30.0457" fill="none" stroke-width="1.5" stroke-linecap="round" stroke-linejoin="round"/>
<path d="M27.0627 8.38469L17.8088 8.39069C17.2786 8.39069 16.7704 8.60278 16.3962 8.97694L14.7456 10.6276C13.9632 11.41 13.9632 12.6765 14.7456 13.4568L16.4022 15.1135C16.7764 15.4876 17.2866 15.6997 17.8168 15.6977L27.0687 15.6917L27.0907 15.6937C28.4173 18.2688 31.0724 20.0455 34.1716 20.0415C38.5895 20.0295 42.171 16.438 42.171 12.0222C42.173 7.60437 38.5955 4.03088 34.1777 4.03488C31.0904 4.04288 28.4413 5.82162 27.1087 8.38669" fill="none" stroke-width="1.5" stroke-linecap="round" stroke-linejoin="round"/>
<path d="M34.1717 12.5664C34.4598 12.5664 34.6919 12.3323 34.6919 12.0442C34.6919 11.7561 34.4558 11.522 34.1697 11.522C33.8816 11.522 33.6475 11.7561 33.6475 12.0442C33.6475 12.3323 33.8816 12.5664 34.1717 12.5664" fill="none" stroke-width="1.5" stroke-linecap="round" stroke-linejoin="round"/>
</svg>
