<svg width="48" height="48" viewBox="0 0 48 48" fill="none" xmlns="http://www.w3.org/2000/svg">
<path fill-rule="evenodd" clip-rule="evenodd" d="M6.99307 38.0058H8.39366C10.7437 38.0069 13.041 38.703 14.9964 40.0066V40.0066C16.9518 41.3102 19.2491 42.0064 21.5992 42.0075H26.4012C28.7513 42.0064 31.0485 41.3102 33.0039 40.0066V40.0066C34.9593 38.703 37.2566 38.0069 39.6067 38.0058H41.0072C42.6648 38.0058 44.0085 36.6621 44.0085 35.0045V35.0045C44.0085 33.347 42.6648 32.0033 41.0072 32.0033H6.99307C5.33553 32.0033 3.99182 33.347 3.99182 35.0045V35.0045C3.99182 36.6621 5.33553 38.0058 6.99307 38.0058Z" fill="none" stroke-width="1.5" stroke-linecap="round" stroke-linejoin="round"/>
<path d="M13.996 11.5948V15.9967C13.996 17.6542 15.3397 18.9979 16.9972 18.9979V18.9979C18.6548 18.9979 19.9985 17.6542 19.9985 15.9967V11.995C19.9985 9.78495 21.7901 7.99335 24.0001 7.99335V7.99335C26.2102 7.99335 28.0018 9.78495 28.0018 11.995V15.9967C28.0018 17.6542 29.3455 18.9979 31.0031 18.9979V18.9979C32.6606 18.9979 34.0043 17.6542 34.0043 15.9967V11.5948" fill="none" stroke-width="1.5" stroke-linecap="round" stroke-linejoin="round"/>
<path d="M27.4656 9.99414H28.0018C34.632 9.99414 40.0068 15.369 40.0068 21.9991V32.0033" fill="none" stroke-width="1.5" stroke-linecap="round" stroke-linejoin="round"/>
<path d="M20.5345 9.99414H19.9983C13.3681 9.99414 7.99329 15.369 7.99329 21.9991V32.0033" fill="none" stroke-width="1.5" stroke-linecap="round" stroke-linejoin="round"/>
</svg>
