<svg width="24" height="24" viewBox="0 0 24 24" fill="none" xmlns="http://www.w3.org/2000/svg">
<rect width="24" height="24" fill="white"/>
<path d="M9.66723 12C9.66723 10.7114 10.7116 9.66648 12.0003 9.66648C13.2889 9.66648 14.3339 10.7114 14.3339 12C14.3339 13.2886 13.2889 14.3335 12.0003 14.3335C10.7116 14.3335 9.66723 13.2886 9.66723 12ZM8.40572 12C8.40572 13.9852 10.015 15.5944 12.0003 15.5944C13.9856 15.5944 15.5948 13.9852 15.5948 12C15.5948 10.0148 13.9856 8.40558 12.0003 8.40558C10.015 8.40558 8.40572 10.0148 8.40572 12ZM14.8971 8.26306C14.897 8.4292 14.9462 8.59163 15.0385 8.7298C15.1307 8.86797 15.2619 8.97569 15.4154 9.03933C15.5688 9.10297 15.7377 9.11967 15.9007 9.08732C16.0637 9.05498 16.2134 8.97504 16.3309 8.85761C16.4484 8.74018 16.5285 8.59054 16.561 8.42761C16.5934 8.26467 16.5769 8.09577 16.5134 7.94226C16.4498 7.78874 16.3422 7.65751 16.2041 7.56515C16.066 7.4728 15.9036 7.42347 15.7375 7.4234H15.7371C15.5144 7.4235 15.3009 7.51199 15.1434 7.66943C14.9859 7.82686 14.8973 8.04037 14.8971 8.26306V8.26306ZM9.17217 17.6978C8.48967 17.6668 8.11871 17.5531 7.87219 17.457C7.54536 17.3298 7.31216 17.1783 7.06699 16.9334C6.82181 16.6886 6.67004 16.4556 6.54337 16.1288C6.44727 15.8824 6.33358 15.5114 6.30256 14.8289C6.26862 14.091 6.26184 13.8694 6.26184 12.0001C6.26184 10.1307 6.26918 9.90969 6.30256 9.17122C6.33364 8.48874 6.44816 8.11842 6.54337 7.87129C6.6706 7.54447 6.82214 7.31129 7.06699 7.06612C7.31183 6.82095 7.5448 6.66919 7.87219 6.54252C8.1186 6.44642 8.48967 6.33274 9.17217 6.30172C9.91005 6.26778 10.1317 6.26101 12.0003 6.26101C13.8689 6.26101 14.0907 6.26834 14.8292 6.30172C15.5117 6.3328 15.8821 6.44732 16.1292 6.54252C16.456 6.66919 16.6892 6.82129 16.9344 7.06612C17.1796 7.31095 17.3308 7.54447 17.458 7.87129C17.5541 8.11769 17.6678 8.48874 17.6988 9.17122C17.7328 9.90969 17.7396 10.1307 17.7396 12.0001C17.7396 13.8694 17.7328 14.0904 17.6988 14.8289C17.6678 15.5114 17.5535 15.8823 17.458 16.1288C17.3308 16.4556 17.1793 16.6888 16.9344 16.9334C16.6896 17.178 16.456 17.3298 16.1292 17.457C15.8828 17.5531 15.5117 17.6668 14.8292 17.6978C14.0913 17.7318 13.8697 17.7385 12.0003 17.7385C10.1309 17.7385 9.90983 17.7318 9.17217 17.6978V17.6978ZM9.1142 5.04239C8.36898 5.07633 7.85975 5.19449 7.41504 5.36753C6.95448 5.54622 6.56459 5.78596 6.17498 6.17494C5.78538 6.56391 5.54625 6.9544 5.36754 7.41494C5.1945 7.85992 5.07633 8.36885 5.04239 9.11404C5.0079 9.86041 5 10.099 5 12C5 13.901 5.0079 14.1396 5.04239 14.886C5.07633 15.6312 5.1945 16.1401 5.36754 16.5851C5.54625 17.0453 5.78543 17.4363 6.17498 17.8251C6.56453 18.2139 6.95448 18.4533 7.41504 18.6325C7.86059 18.8055 8.36898 18.9237 9.1142 18.9576C9.86099 18.9915 10.0992 19 12.0003 19C13.9013 19 14.14 18.9921 14.8864 18.9576C15.6316 18.9237 16.1405 18.8055 16.5855 18.6325C17.0458 18.4533 17.436 18.214 17.8256 17.8251C18.2152 17.4361 18.4538 17.0453 18.633 16.5851C18.8061 16.1401 18.9248 15.6312 18.9582 14.886C18.9921 14.139 19 13.901 19 12C19 10.099 18.9921 9.86041 18.9582 9.11404C18.9242 8.36879 18.8061 7.85964 18.633 7.41494C18.4538 6.95468 18.2146 6.56453 17.8256 6.17494C17.4366 5.78534 17.0458 5.54622 16.5861 5.36753C16.1405 5.19449 15.6316 5.07577 14.8869 5.04239C14.1405 5.00846 13.9019 5 12.0008 5C10.0998 5 9.86099 5.0079 9.1142 5.04239Z"/>
</svg>