<svg width="22" height="58" viewBox="0 0 22 58" fill="none" xmlns="http://www.w3.org/2000/svg">
<path fill-rule="evenodd" clip-rule="evenodd" d="M17.7745 4.13287C17.0884 5.27395 15.8968 6.14587 14.4535 6.5629C14.2914 6.63748 14.1582 6.74923 14.0695 6.88504C13.5721 7.89755 13.0528 8.97449 12.5554 9.987C12.3749 10.392 12.2165 10.751 12.036 11.2204C12.6236 10.5485 13.143 9.98702 13.6866 9.43474C14.5313 8.42542 15.8108 7.72928 17.2562 7.49258C18.7938 7.2727 20.3714 7.35464 21.8647 7.73191C21.8979 7.771 21.9454 7.80002 22 7.81472C21.6391 8.32098 21.3002 8.84564 20.9161 9.31508C20.1802 10.2358 19.1344 10.9533 17.911 11.3769C16.1395 11.8865 14.2412 12.007 12.398 11.7267C12.2176 11.6807 12.0591 11.6623 11.8787 11.6255C10.9534 13.9856 10.2435 16.4011 9.75495 18.8511C10.0939 18.3908 10.4097 17.8662 10.7266 17.3968C11.407 16.2165 12.5817 15.2863 14.0277 14.7827C15.1722 14.4378 16.3809 14.2663 17.5973 14.2764C18.0045 14.2764 18.3885 14.3132 18.8628 14.3132C18.6141 14.7827 18.4568 15.206 18.2752 15.611C17.7868 16.707 16.9225 17.6581 15.7905 18.3449C14.4131 19.1285 12.8185 19.6039 11.159 19.7256C10.6397 19.7624 10.074 19.8084 9.53264 19.8452C9.05201 22.3172 8.78759 24.8152 8.74148 27.3194C8.80362 27.2175 8.84913 27.1091 8.87681 26.9971C9.05837 26.5277 9.26083 26.0491 9.48751 25.5428C9.74721 24.843 10.1736 24.1943 10.7409 23.6359C11.3082 23.0774 12.0048 22.6208 12.7887 22.2936C13.8958 21.8736 15.0665 21.5825 16.2681 21.4284C16.4817 21.4174 16.6935 21.3896 16.9008 21.3455V21.5848C16.8326 21.8149 16.7907 22.0912 16.7203 22.3765C16.4684 23.8385 15.6118 25.1804 14.2995 26.1688C12.8481 27.2015 11.1192 27.9247 9.26084 28.2766C9.05837 28.3134 8.87679 28.3135 8.65121 28.3595C8.60532 30.9149 8.8322 33.4685 9.32908 35.9901C9.53265 35.1617 9.69 34.3701 9.89357 33.5785C10.1421 32.4894 10.7897 31.4922 11.7466 30.7251C12.967 29.8555 14.3684 29.1815 15.8807 28.7368C16.0796 28.7082 16.2759 28.6682 16.4683 28.6172C16.4232 29.3443 16.4001 29.9703 16.3099 30.6054C16.2212 31.718 15.7505 32.7855 14.9542 33.6797C13.61 35.1291 11.8112 36.2379 9.75824 36.8829C9.67581 36.8939 9.59812 36.9225 9.53264 36.9658C10.0329 39.2939 10.7583 41.5841 11.7015 43.814C11.7466 43.3998 11.7015 43.0225 11.7235 42.6175C11.6523 41.3185 12.071 40.0337 12.9207 38.9448C13.6638 38.1116 14.5737 37.3922 15.6101 36.8185C16.156 36.5049 16.7217 36.2162 17.3046 35.9533C17.3718 36.1742 17.4147 36.3766 17.462 36.5331C17.8934 38.143 17.6708 39.8274 16.8293 41.3196C16.0453 42.5315 14.9777 43.599 13.6899 44.4584C13.2261 44.7707 12.7431 45.0626 12.2429 45.3328C13.1464 47.452 14.2259 49.5158 15.4736 51.5091C15.4853 51.4142 15.4853 51.3186 15.4736 51.2238C15.4065 50.6531 15.3163 50.064 15.2712 49.5209C15.1553 48.5102 15.3822 47.4925 15.9259 46.5846C16.5722 45.5357 17.4456 44.5962 18.5019 43.814C18.8859 43.5287 19.2722 43.2618 19.676 42.9396C20.2235 44.061 20.5297 45.2544 20.5805 46.4649C20.61 47.1349 20.5029 47.8041 20.2636 48.444C19.5198 50.1796 18.2967 51.7438 16.6939 53.0094C16.5135 53.1015 16.5355 53.1843 16.6268 53.35C17.6865 54.9165 18.8401 56.4372 20.0831 57.9063C20.0831 57.9063 19.8796 58.3113 18.3434 57.4369C18.0045 56.9583 17.6436 56.5072 17.3046 56.0009C16.5817 55.0068 15.9039 54.0219 15.2481 53.0094C15.2328 52.9568 15.2038 52.9076 15.1632 52.8654C15.1226 52.8232 15.0714 52.789 15.0131 52.7653C14.9549 52.7415 14.8911 52.7288 14.8264 52.7281C14.7616 52.7273 14.6974 52.7385 14.6384 52.7609C12.6823 53.1616 10.6355 53.1331 8.69634 52.6781C7.30891 52.3094 6.09295 51.5888 5.21695 50.6162C4.8109 50.1928 4.44668 49.659 4.06485 49.2355C4.01973 49.1527 4.0197 49.1159 3.97458 49.0331C4.00791 48.994 4.05541 48.965 4.10998 48.9503C5.65978 48.4653 7.31695 48.2674 8.96707 48.3704C9.77033 48.4268 10.5519 48.617 11.2659 48.93C11.9799 49.243 12.6117 49.6724 13.1243 50.1929C13.3732 50.432 13.6451 50.6537 13.9375 50.8556C13.9109 50.7728 13.874 50.6926 13.8275 50.6162C12.7712 48.7427 11.8579 46.8151 11.093 44.8449C11.0871 44.8059 11.0716 44.7683 11.0477 44.7344C11.0238 44.7004 10.9919 44.6709 10.9539 44.6476C10.9159 44.6244 10.8726 44.6079 10.8267 44.5991C10.7808 44.5903 10.7333 44.5893 10.687 44.5964C8.72889 44.7141 6.76766 44.4066 4.99356 43.7036C3.6438 43.1195 2.55153 42.1909 1.8751 41.0526C1.51417 40.528 1.26546 39.9388 0.904538 39.3129C1.55927 39.3129 2.1469 39.2301 2.7345 39.2301C3.87738 39.1802 5.02224 39.289 6.12256 39.5523C7.56615 39.9735 8.79395 40.7953 9.60195 41.8811C9.80553 42.1112 9.98603 42.3505 10.1676 42.5898C9.6251 40.4083 9.03746 38.236 8.47296 36.0729C7.56845 35.8704 6.61992 35.7048 5.69339 35.447C4.25972 35.0465 2.96998 34.35 1.94333 33.4221C0.904258 32.2622 0.23542 30.9 0 29.464H0.0451329C2.00027 29.4487 3.92031 29.8989 5.58117 30.7619C6.56883 31.3814 7.3346 32.2155 7.79516 33.1735C7.93051 33.376 8.0438 33.5785 8.20116 33.7994C7.95306 31.6457 7.90782 29.479 8.06582 27.3194C6.87149 27.0153 5.73731 26.5655 4.6998 25.9846C3.14538 25.1849 1.97681 23.9532 1.39865 22.5053C1.09803 21.6682 0.931105 20.8017 0.902322 19.928C0.890038 19.8055 0.890038 19.6823 0.902322 19.5598C1.78263 19.8452 2.5738 20.0293 3.38698 20.2686C4.49713 20.649 5.4927 21.2306 6.30195 21.9714C6.97318 22.6691 7.45826 23.4788 7.72471 24.3462C7.84429 24.7528 7.99537 25.1526 8.17698 25.5428C8.19899 25.414 8.199 25.3771 8.22211 25.2574C8.37983 23.1747 8.69665 21.1025 9.17064 19.0535C9.1916 19.0122 9.20233 18.9678 9.20227 18.923C9.20222 18.8781 9.19137 18.8338 9.1703 18.7925C9.14924 18.7513 9.11841 18.7139 9.0797 18.6829C9.041 18.6518 8.9952 18.6276 8.94504 18.6117C7.09033 17.8253 5.53955 16.6159 4.47198 15.1233C3.74958 14.0613 3.41918 12.8442 3.52238 11.6255C3.54549 11.1376 3.61257 10.7142 3.65879 10.1435C4.35863 10.4657 4.99134 10.7142 5.57895 11.0179C6.86956 11.6172 7.9338 12.5069 8.65121 13.586C9.14913 14.485 9.4257 15.4585 9.46441 16.4487C9.46549 16.7547 9.50239 17.0599 9.57449 17.3599C9.59389 17.2746 9.62411 17.1913 9.66468 17.1114C10.2248 15.001 10.9568 12.9251 11.8556 10.8982C11.8858 10.8637 11.9065 10.8239 11.9161 10.7818C11.9257 10.7398 11.924 10.6964 11.911 10.655C11.898 10.6135 11.8741 10.575 11.8411 10.5423C11.8081 10.5095 11.7668 10.4834 11.7202 10.4657C10.1542 9.47615 8.91759 8.16731 8.12855 6.66414C7.51969 5.47325 7.38504 4.15011 7.74452 2.89027C7.83475 2.43004 7.99321 1.97902 8.12855 1.51879L8.15058 1.50036C9.17061 2.03212 10.0854 2.69359 10.8619 3.46095C11.4825 4.01213 11.9563 4.6671 12.2522 5.38266C12.5481 6.09822 12.6593 6.85812 12.5785 7.61225C12.5565 8.21975 12.4883 8.84565 12.4211 9.55441C12.4778 9.49584 12.5157 9.42617 12.5312 9.35193C13.0285 8.44068 13.5028 7.52941 14.0002 6.58133C14.0488 6.46312 14.0643 6.33712 14.0453 6.21312C13.9856 5.37998 14.0615 4.54396 14.2709 3.72792C14.4336 3.0967 14.773 2.50678 15.2612 2.00666C16.2374 1.18988 17.3666 0.512021 18.6042 0C18.6724 0 18.7142 0.0368545 18.7858 0.0368545C18.7627 0.340607 18.6956 0.625924 18.6956 0.929676C18.6448 2.03785 18.3317 3.12658 17.7745 4.13287Z"/>
</svg>
