<svg xmlns="http://www.w3.org/2000/svg" xml:space="preserve" id="Layer_1" style="enable-background:new 0 0 64 64" version="1.1" viewBox="0 0 64 64"><style>.st0{fill:#134563}</style><g id="Icon-External-Link" transform="translate(382 380)"><path id="Fill-118" d="m-352.3-343.4-2.3-2.3 25.8-25.7 2.2 2.2-25.7 25.8" class="st0"/><path id="Fill-119" d="M-326-354.9h-3.4v-13.7h-13.7v-3.4h17.1v17.1" class="st0"/><path id="Fill-120" d="M-334.6-324h-34.3c-2.8 0-5.1-2.3-5.1-5.1v-34.3c0-2.8 2.3-5.1 5.1-5.1h18.9v3.4h-18.9c-.9 0-1.7.8-1.7 1.7v34.3c0 .9.8 1.7 1.7 1.7h34.3c.9 0 1.7-.8 1.7-1.7V-348h3.4v18.9c.1 2.8-2.2 5.1-5.1 5.1" class="st0"/></g></svg>