<svg width="128" height="122" viewBox="0 0 128 122" fill="none" xmlns="http://www.w3.org/2000/svg">
    <path d="M127.211 23.6697C126.439 22.6101 125.205 21.9831 123.893 21.9831H31.4871C31.308 21.9831 31.1293 21.9939 30.9571 22.0171L27.1542 11.0545C26.76 9.92076 25.8921 9.017 24.7766 8.57786L5.61054 1.0487C3.49823 0.22171 1.11464 1.25925 0.285072 3.36898C-0.543067 5.47986 0.494183 7.86488 2.60535 8.69445L20.0126 15.5327L41.3193 76.9482C40.3789 77.2759 39.582 77.9974 39.2191 79.0069L33.0586 96.1194C32.681 97.1687 32.8366 98.3345 33.4791 99.2463C34.1207 100.158 35.1643 100.701 36.2786 100.701H39.4422C37.4817 102.883 36.2786 105.756 36.2786 108.915C36.2786 115.709 41.8066 121.236 48.5996 121.236C55.3925 121.236 60.9205 115.709 60.9205 108.915C60.9205 105.756 59.7174 102.883 57.7569 100.701H84.6195C82.6581 102.883 81.4547 105.756 81.4547 108.915C81.4547 115.709 86.9816 121.236 93.776 121.236C100.57 121.236 106.097 115.709 106.097 108.915C106.097 105.756 104.894 102.883 102.934 100.701H106.782C108.672 100.701 110.204 99.1687 110.204 97.2784C110.204 95.3881 108.672 93.8561 106.782 93.8561H41.1483L44.9636 83.2585C45.4563 83.4658 45.9885 83.5884 46.5457 83.5884H106.781C108.566 83.5884 110.147 82.4349 110.691 80.7356L127.803 27.3443C128.205 26.0942 127.984 24.7293 127.211 23.6697ZM48.5996 114.391C45.5795 114.391 43.1237 111.935 43.1237 108.915C43.1237 105.895 45.5795 103.439 48.5996 103.439C51.6196 103.439 54.0754 105.895 54.0754 108.915C54.0754 111.935 51.6196 114.391 48.5996 114.391ZM93.7757 114.391C90.7556 114.391 88.2995 111.935 88.2995 108.915C88.2995 105.895 90.7556 103.439 93.7757 103.439C96.7955 103.439 99.2515 105.895 99.2515 108.915C99.2515 111.935 96.7955 114.391 93.7757 114.391ZM115.304 39.4378H94.3463V30.1971H118.265L115.304 39.4378ZM109.269 58.2613H94.3463V47.6516H112.67L109.269 58.2613ZM67.1939 58.2613V47.6516H86.1322V58.2613H67.1939ZM86.1322 66.476V75.3744H67.1939V66.476H86.1322ZM39.8501 47.6516H58.9807V58.2613H43.5313L39.8501 47.6516ZM67.1939 39.4378V30.1971H86.1322V39.4378H67.1939ZM58.9804 30.1971V39.4378H36.9996L33.7939 30.1971H58.9804ZM46.3815 66.476H58.9804V75.3744H49.4684L46.3815 66.476ZM94.3463 75.3747V66.4762H106.638L103.786 75.3747H94.3463Z" fill="#F2F2F2"/>
</svg>
