<svg width="47" height="47" viewBox="0 0 47 47" fill="none" xmlns="http://www.w3.org/2000/svg">
<path d="M37.1666 18.0333H31.9568C33.5507 16.3834 34.439 14.1774 34.4332 11.8833C34.4332 11.506 34.1273 11.2 33.7499 11.2H28.9666V9.83333C28.9666 9.45596 28.6606 9.15 28.2832 9.15H25.5499C25.1725 9.15 24.8666 9.45596 24.8666 9.83333V11.2H24.1832V6.41667C24.1832 5.28447 25.101 4.36667 26.2332 4.36667C27.3654 4.36667 28.2832 5.28447 28.2832 6.41667C28.2832 6.79404 28.5892 7.1 28.9666 7.1C29.3439 7.1 29.6499 6.79404 29.6499 6.41667C29.6499 4.52973 28.1202 3 26.2332 3C24.3463 3 22.8166 4.52973 22.8166 6.41667V11.2H22.1332V9.83333C22.1332 9.45596 21.8273 9.15 21.4499 9.15H18.7166C18.3392 9.15 18.0332 9.45596 18.0332 9.83333V11.2H13.2499C12.8725 11.2 12.5666 11.506 12.5666 11.8833C12.5657 14.1782 13.4572 16.3836 15.0525 18.0333H9.83324C9.45586 18.0333 9.1499 18.3393 9.1499 18.7167V36.4833C9.1499 36.8607 9.45586 37.1667 9.83324 37.1667H10.5166V43.3167C10.5166 43.694 10.8225 44 11.1999 44H13.2499C13.584 43.9998 13.8689 43.7583 13.9237 43.4287L14.417 40.4706C14.4721 40.1414 14.757 39.9001 15.0908 39.9H31.909C32.2428 39.9001 32.5277 40.1414 32.5828 40.4706L33.0761 43.4287C33.1309 43.7583 33.4158 43.9998 33.7499 44H35.7999C36.1773 44 36.4832 43.694 36.4832 43.3167V37.1667H37.1666C37.5439 37.1667 37.8499 36.8607 37.8499 36.4833V18.7167C37.8499 18.3393 37.5439 18.0333 37.1666 18.0333ZM26.2332 10.5167H27.5999V11.2H26.2332V10.5167ZM19.3999 10.5167H20.7666V11.2H19.3999V10.5167ZM13.964 12.5667H33.0365C32.8403 14.7653 31.6844 16.7655 29.8775 18.0333H17.1299C15.3184 16.7686 14.1594 14.7673 13.964 12.5667ZM10.5166 35.8V19.4H22.8166V35.8H10.5166ZM35.1166 42.6333H34.3287L33.931 40.2464C33.7687 39.2566 32.9121 38.5309 31.909 38.5333H15.0908C14.0878 38.5309 13.2311 39.2566 13.0688 40.2464L12.6711 42.6333H11.8832V37.1667H35.1166V42.6333ZM36.4832 35.8H24.1832V19.4H36.4832V35.8Z" stroke="none"/>
<path d="M25.5499 29.65C25.9273 29.65 26.2332 29.3441 26.2332 28.9667V26.2333C26.2332 25.856 25.9273 25.55 25.5499 25.55C25.1725 25.55 24.8666 25.856 24.8666 26.2333V28.9667C24.8666 29.3441 25.1725 29.65 25.5499 29.65Z" stroke="none"/>
<path d="M21.4499 25.55C21.0725 25.55 20.7666 25.856 20.7666 26.2333V28.9667C20.7666 29.3441 21.0725 29.65 21.4499 29.65C21.8273 29.65 22.1332 29.3441 22.1332 28.9667V26.2333C22.1332 25.856 21.8273 25.55 21.4499 25.55Z" stroke="none"/>
</svg>
