<svg width="49" height="49" viewBox="0 0 49 49" fill="none" xmlns="http://www.w3.org/2000/svg">
<path d="M39.439 19.2652V8.03654C39.439 6.93208 38.5426 6.03571 37.4382 6.03571H33.7226C32.6182 6.03571 31.7218 6.93208 31.7218 8.03654V12.6505" fill="none" stroke-width="1.5" stroke-linecap="round" stroke-linejoin="round"/>
<path d="M5.99719 21.4701L21.3996 8.26864C22.8982 6.9841 25.1092 6.9841 26.6078 8.26864L42.0122 21.4701" fill="none" stroke-width="1.5" stroke-linecap="round" stroke-linejoin="round"/>
<path d="M8.57031 19.2652V38.049C8.57031 40.26 10.3611 42.0507 12.572 42.0507H22.0039" fill="none" stroke-width="1.5" stroke-linecap="round" stroke-linejoin="round"/>
<path d="M36.696 40.0959L40.2074 41.9407C40.8917 42.3008 41.69 41.7186 41.56 40.9583L40.8897 37.0486L43.7309 34.2815C44.2851 33.7433 43.979 32.8029 43.2147 32.6928L39.289 32.1226L37.5343 28.5631C37.1922 27.8708 36.2038 27.8708 35.8636 28.5631L34.1089 32.1226L30.1833 32.6928C29.4189 32.8049 29.1128 33.7433 29.667 34.2815L32.5082 37.0486L31.8359 40.9603C31.7059 41.7206 32.5042 42.3008 33.1885 41.9427L36.7 40.0979" fill="none" stroke-width="1.5" stroke-linecap="round" stroke-linejoin="round"/>
</svg>
