<svg width="18" height="18" viewBox="0 0 18 18" fill="none" xmlns="http://www.w3.org/2000/svg">
<g clip-path="url(#clip0)">
<path d="M11.9316 9.09224L17.9999 12.9285V5.09399L11.9316 9.09224Z" fill="#0065FF"/>
<path d="M0 5.09399V12.9285L6.06825 9.09224L0 5.09399Z" fill="#0065FF"/>
<path d="M16.8754 2.8125H1.12543C0.564055 2.8125 0.118555 3.231 0.0341797 3.76988L9.00043 9.67725L17.9667 3.76988C17.8823 3.231 17.4368 2.8125 16.8754 2.8125Z" fill="#0065FF"/>
<path d="M10.9014 9.77188L9.30951 10.8204C9.21501 10.8823 9.10813 10.9126 9.00013 10.9126C8.89213 10.9126 8.78526 10.8823 8.69076 10.8204L7.09888 9.77075L0.0361328 14.2381C0.122758 14.7725 0.566008 15.1876 1.12513 15.1876H16.8751C17.4343 15.1876 17.8775 14.7725 17.9641 14.2381L10.9014 9.77188Z" fill="#0065FF"/>
</g>
<defs>
<clipPath id="clip0">
<rect width="18" height="18" fill="white"/>
</clipPath>
</defs>
</svg>
