<svg width="24" height="24" viewBox="0 0 24 24" fill="none" xmlns="http://www.w3.org/2000/svg">
<path fill-rule="evenodd" clip-rule="evenodd" d="M12 0C5.37258 0 0 5.37258 0 12C0 18.6274 5.37258 24 12 24C18.6274 24 24 18.6274 24 12C24 5.37258 18.6274 0 12 0ZM9.36116 5.63845C10.0438 5.60738 10.262 5.59978 12.0001 5.59978H11.9981C13.7368 5.59978 13.9541 5.60738 14.6368 5.63845C15.3182 5.66965 15.7835 5.77751 16.1915 5.93578C16.6128 6.09912 16.9688 6.31779 17.3248 6.67379C17.6809 7.02953 17.8995 7.3866 18.0635 7.80754C18.2209 8.21447 18.3289 8.67954 18.3609 9.36088C18.3915 10.0436 18.3995 10.2617 18.3995 11.9998C18.3995 13.738 18.3915 13.9556 18.3609 14.6383C18.3289 15.3193 18.2209 15.7846 18.0635 16.1916C17.8995 16.6124 17.6809 16.9695 17.3248 17.3252C16.9692 17.6812 16.6127 17.9004 16.1919 18.0639C15.7847 18.2222 15.3191 18.33 14.6378 18.3612C13.9551 18.3923 13.7376 18.3999 11.9993 18.3999C10.2613 18.3999 10.0433 18.3923 9.36063 18.3612C8.67942 18.33 8.21422 18.2222 7.80701 18.0639C7.38634 17.9004 7.02927 17.6812 6.67367 17.3252C6.3178 16.9695 6.09913 16.6124 5.93553 16.1915C5.77739 15.7846 5.66953 15.3195 5.63819 14.6381C5.60726 13.9555 5.59952 13.738 5.59952 11.9998C5.59952 10.2617 5.60752 10.0434 5.63806 9.36075C5.66873 8.67968 5.77673 8.21447 5.93539 7.8074C6.0994 7.3866 6.31807 7.02953 6.67407 6.67379C7.02981 6.31792 7.38688 6.09925 7.80781 5.93578C8.21475 5.77751 8.67982 5.66965 9.36116 5.63845Z" fill="#B0B0B0"/>
<path fill-rule="evenodd" clip-rule="evenodd" d="M11.4255 6.75355C11.537 6.75338 11.6569 6.75343 11.7863 6.75349L11.9997 6.75355C13.7085 6.75355 13.911 6.75969 14.5858 6.79035C15.2098 6.81889 15.5485 6.92315 15.7741 7.01076C16.0728 7.12676 16.2857 7.26543 16.5096 7.48943C16.7336 7.71343 16.8722 7.92677 16.9885 8.22543C17.0761 8.45077 17.1805 8.78944 17.2089 9.41345C17.2396 10.0881 17.2462 10.2908 17.2462 11.9988C17.2462 13.7068 17.2396 13.9095 17.2089 14.5842C17.1804 15.2082 17.0761 15.5468 16.9885 15.7722C16.8725 16.0708 16.7336 16.2835 16.5096 16.5074C16.2856 16.7314 16.0729 16.8701 15.7741 16.9861C15.5488 17.0741 15.2098 17.1781 14.5858 17.2066C13.9111 17.2373 13.7085 17.2439 11.9997 17.2439C10.2907 17.2439 10.0882 17.2373 9.41349 17.2066C8.78948 17.1778 8.45081 17.0735 8.22508 16.9859C7.92641 16.8699 7.71307 16.7313 7.48907 16.5073C7.26507 16.2833 7.1264 16.0704 7.01013 15.7716C6.92253 15.5463 6.81813 15.2076 6.78973 14.5836C6.75906 13.909 6.75293 13.7063 6.75293 11.9972C6.75293 10.2881 6.75906 10.0865 6.78973 9.41185C6.81826 8.78784 6.92253 8.44917 7.01013 8.22357C7.12613 7.9249 7.26507 7.71156 7.48907 7.48756C7.71307 7.26356 7.92641 7.12489 8.22508 7.00862C8.45068 6.92062 8.78948 6.81662 9.41349 6.78795C10.0039 6.76129 10.2327 6.75329 11.4255 6.75195V6.75355ZM15.4164 7.81616C14.9924 7.81616 14.6484 8.15977 14.6484 8.5839C14.6484 9.00791 14.9924 9.35191 15.4164 9.35191C15.8404 9.35191 16.1845 9.00791 16.1845 8.5839C16.1845 8.1599 15.8404 7.8159 15.4164 7.8159V7.81616ZM8.71467 12C8.71467 10.1849 10.1862 8.71334 12.0012 8.71327C13.8163 8.71327 15.2875 10.1849 15.2875 12C15.2875 13.8151 13.8165 15.286 12.0014 15.286C10.1863 15.286 8.71467 13.8151 8.71467 12Z" fill="#B0B0B0"/>
<path fill-rule="evenodd" clip-rule="evenodd" d="M12.0005 9.8667C13.1787 9.8667 14.1339 10.8218 14.1339 12.0001C14.1339 13.1782 13.1787 14.1334 12.0005 14.1334C10.8223 14.1334 9.86719 13.1782 9.86719 12.0001C9.86719 10.8218 10.8223 9.8667 12.0005 9.8667V9.8667Z" fill="#B0B0B0"/>
</svg>
