<svg width="24" height="24" viewBox="0 0 24 24" fill="none" xmlns="http://www.w3.org/2000/svg">
<path fill-rule="evenodd" clip-rule="evenodd" d="M12 0C5.37258 0 0 5.37258 0 12C0 18.6274 5.37258 24 12 24C18.6274 24 24 18.6274 24 12C24 5.37258 18.6274 0 12 0ZM12.9766 15.7882C12.8583 15.913 12.6273 15.9382 12.6273 15.9382H11.8622C11.8622 15.9382 10.1744 16.0377 8.68753 14.5186C7.06607 12.8612 5.63429 9.57291 5.63429 9.57291C5.63429 9.57291 5.55166 9.35721 5.64118 9.25336C5.74197 9.13598 6.01681 9.12861 6.01681 9.12861L7.8455 9.11693C7.8455 9.11693 8.01766 9.14459 8.14099 9.23369C8.24304 9.30744 8.30001 9.44448 8.30001 9.44448C8.30001 9.44448 8.5955 10.1782 8.98678 10.8419C9.75119 12.1379 10.1068 12.4212 10.366 12.2824C10.7441 12.0802 10.6308 10.4505 10.6308 10.4505C10.6308 10.4505 10.6377 9.85928 10.4405 9.59565C10.2877 9.39163 9.99973 9.33202 9.87264 9.31543C9.76935 9.30191 9.93838 9.06716 10.1575 8.96207C10.4868 8.80414 11.0678 8.79492 11.7545 8.80168C12.2898 8.80721 12.4438 8.83978 12.6529 8.88956C13.1382 9.00451 13.1231 9.37291 13.0904 10.168C13.0806 10.4058 13.0692 10.6817 13.0692 11.0005C13.0692 11.0721 13.0671 11.1484 13.0649 11.227C13.0536 11.6343 13.0406 12.1008 13.314 12.2744C13.4543 12.3629 13.7967 12.2873 14.6538 10.8591C15.0601 10.1819 15.3643 9.3861 15.3643 9.3861C15.3643 9.3861 15.4313 9.24414 15.5346 9.1833C15.6404 9.12124 15.7832 9.14029 15.7832 9.14029L17.7076 9.12861C17.7076 9.12861 18.2861 9.0604 18.3794 9.31727C18.4777 9.58582 18.1634 10.2139 17.3771 11.2426C16.6312 12.2187 16.2682 12.5781 16.3015 12.8959C16.3259 13.1281 16.5618 13.3382 17.0146 13.7505C17.9598 14.6119 18.2132 15.0651 18.274 15.174C18.2791 15.183 18.2828 15.1897 18.2855 15.194C18.7093 15.8841 17.8153 15.9382 17.8153 15.9382L16.1056 15.9615C16.1056 15.9615 15.7387 16.0328 15.2554 15.7071C15.0022 15.5367 14.7548 15.2582 14.5192 14.993C14.1593 14.5881 13.8269 14.2139 13.5432 14.3023C13.0667 14.451 13.0811 15.4582 13.0811 15.4582C13.0811 15.4582 13.0849 15.6739 12.9766 15.7882Z" fill="#B0B0B0"/>
</svg>
