<svg width="17" height="17" viewBox="0 0 17 17" fill="none" xmlns="http://www.w3.org/2000/svg">
<path d="M13.8673 8.76064C13.8697 8.75824 13.8697 8.75824 13.8721 8.75584C13.8793 8.74623 13.8865 8.73902 13.8913 8.72941C13.8937 8.72701 13.8937 8.7246 13.8961 8.7222C13.9009 8.71259 13.9082 8.70298 13.913 8.69337C13.913 8.69097 13.9154 8.68857 13.9154 8.68857C13.9202 8.67896 13.925 8.66935 13.9298 8.65734C13.9298 8.65494 13.9298 8.65494 13.9322 8.65253C13.937 8.64292 13.9394 8.63091 13.9442 8.6189C13.9442 8.6165 13.9442 8.61409 13.9466 8.61409C13.949 8.60208 13.9538 8.59247 13.9538 8.58046C13.9538 8.57566 13.9538 8.57325 13.9562 8.56845C13.9586 8.55884 13.9586 8.54923 13.961 8.53962C13.9634 8.52521 13.9634 8.5132 13.9634 8.49878C13.9634 8.48437 13.9634 8.47235 13.961 8.45794C13.961 8.44833 13.9586 8.43872 13.9562 8.42911C13.9562 8.42431 13.9562 8.42191 13.9538 8.4171C13.9514 8.40509 13.949 8.39548 13.9466 8.38347C13.9466 8.38106 13.9466 8.37866 13.9442 8.37866C13.9418 8.36665 13.937 8.35704 13.9322 8.34503C13.9322 8.34263 13.9322 8.34263 13.9298 8.34022C13.925 8.33061 13.9202 8.3186 13.9154 8.30899C13.9154 8.30659 13.913 8.30419 13.913 8.30419C13.9082 8.29458 13.9033 8.28497 13.8961 8.27536C13.8937 8.27296 13.8937 8.27056 13.8913 8.26815C13.8841 8.25854 13.8793 8.24893 13.8721 8.24173C13.8697 8.23932 13.8697 8.23932 13.8673 8.23692C13.8577 8.22731 13.8505 8.2153 13.8385 8.20569L11.4625 5.83215C11.3016 5.67119 11.0397 5.67119 10.8788 5.83215C10.7178 5.9931 10.7178 6.25496 10.8788 6.41592L12.5508 8.08798H5.90344C5.67522 8.08798 5.49023 8.27296 5.49023 8.49878C5.49023 8.72701 5.67522 8.91199 5.90344 8.91199H12.5532L10.8932 10.572C10.7322 10.733 10.7322 10.9948 10.8932 11.1558C10.9725 11.2351 11.0782 11.2759 11.1839 11.2759C11.2896 11.2759 11.3953 11.2351 11.4745 11.1558L13.8361 8.79427C13.8481 8.77986 13.8577 8.77025 13.8673 8.76064Z" fill="#404040"/>
<path d="M5.27568 3.43937H8.35072C8.57894 3.43937 8.76393 3.25439 8.76393 3.02856C8.76393 2.80034 8.57894 2.61536 8.35072 2.61536H5.27568C4.04326 2.61536 3.03906 3.61955 3.03906 4.85197V12.148C3.03906 13.3804 4.04326 14.3846 5.27568 14.3846H8.30027C8.52849 14.3846 8.71348 14.1996 8.71348 13.9738C8.71348 13.7456 8.52849 13.5606 8.30027 13.5606H5.27568C4.49731 13.5606 3.86308 12.9263 3.86308 12.148V4.85197C3.86548 4.0712 4.49731 3.43937 5.27568 3.43937Z" fill="#404040"/>
</svg>
