<svg width="24" height="24" viewBox="0 0 24 24" fill="none" xmlns="http://www.w3.org/2000/svg">
<path d="M21.8729 11.611C21.6942 11.3666 17.4371 5.92969 11.9999 5.92969C6.56274 5.92969 2.30539 11.3666 2.12691 11.6108C1.9577 11.8427 1.9577 12.1572 2.12691 12.389C2.30539 12.6335 6.67826 18.0272 12.1154 18.0272C17.5526 18.0272 21.6942 12.6334 21.8729 12.3892C22.0423 12.1574 22.0423 11.8427 21.8729 11.611ZM11.9999 16.593C7.99486 16.593 4.67152 13.2451 3.64468 11.9996C4.67019 10.753 7.98626 7.41642 11.9999 7.41642C16.0048 7.41642 19.3138 10.7534 20.3411 11.9996C19.3155 13.2462 16.0135 16.593 11.9999 16.593Z" fill="#808080"/>
<path d="M11.9999 8.74072C10.2028 8.74072 8.74072 10.2028 8.74072 11.9999C8.74072 13.7969 10.2028 15.259 11.9999 15.259C13.7969 15.259 15.259 13.7969 15.259 11.9999C15.259 10.2028 13.7969 8.74072 11.9999 8.74072ZM11.9999 14.1726C10.8018 14.1726 9.82712 13.1979 9.82712 11.9999C9.82712 10.8018 10.8018 9.82712 11.9999 9.82712C13.1979 9.82712 14.1726 10.8018 14.1726 11.9999C14.1726 13.1979 13.1979 14.1726 11.9999 14.1726Z" fill="#808080" stroke="#808080" stroke-width="0.37"/>
</svg>
