<svg width="31" height="31" viewBox="0 0 31 31" fill="none" xmlns="http://www.w3.org/2000/svg">
    <rect width="31" height="31" rx="2" fill="#222222"/>
    <path d="M24.5315 10.5652C23.2991 10.5652 22.162 10.157 21.2489 9.46824C20.2017 8.6787 19.4492 7.52054 19.1835 6.18566C19.1177 5.85585 19.0823 5.51548 19.0789 5.16669H15.5585V14.7862L15.5543 20.0553C15.5543 21.464 14.6369 22.6584 13.3653 23.0785C12.9963 23.2004 12.5977 23.2582 12.1827 23.2354C11.653 23.2063 11.1566 23.0464 10.7251 22.7883C9.80692 22.2392 9.1844 21.243 9.16753 20.1034C9.14096 18.3223 10.5809 16.8702 12.3607 16.8702C12.712 16.8702 13.0494 16.9275 13.3653 17.0317V14.4024V13.4573C13.0321 13.4079 12.693 13.3822 12.3501 13.3822C10.402 13.3822 8.58001 14.192 7.27761 15.6508C6.29322 16.7533 5.70275 18.1599 5.61165 19.6348C5.4923 21.5724 6.20128 23.4142 7.57622 24.7731C7.77824 24.9726 7.99039 25.1578 8.21224 25.3286C9.39106 26.2358 10.8322 26.7276 12.3501 26.7276C12.693 26.7276 13.0321 26.7023 13.3653 26.6529C14.7833 26.4429 16.0916 25.7938 17.1241 24.7731C18.3927 23.5192 19.0937 21.8545 19.1013 20.0827L19.0831 12.2143C19.6884 12.6812 20.3501 13.0676 21.0604 13.3674C22.165 13.8335 23.3362 14.0697 24.5416 14.0692V11.5129V10.5644C24.5424 10.5652 24.5323 10.5652 24.5315 10.5652V10.5652Z" fill="white"/>
</svg>
