<svg width="31" height="31" viewBox="0 0 31 31" fill="none" xmlns="http://www.w3.org/2000/svg">
    <rect width="31" height="31" rx="2" fill="#168DE2"/>
    <path fill-rule="evenodd" clip-rule="evenodd" d="M18.712 15.4151C18.6062 13.3584 17.0799 12.1218 15.2364 12.1218H15.167C13.0397 12.1218 11.8598 13.7947 11.8598 15.695C11.8598 17.823 13.2873 19.1669 15.1587 19.1669C17.2454 19.1669 18.6177 17.6384 18.7169 15.8306L18.712 15.4151ZM15.1776 10.282C16.5989 10.282 17.9352 10.9102 18.9166 11.8938V11.8977C18.9166 11.4252 19.2344 11.0693 19.6759 11.0693L19.7873 11.0686C20.4778 11.0686 20.6194 11.722 20.6194 11.9287L20.6228 19.2725C20.5741 19.7528 21.119 20.0009 21.4211 19.6929C22.6002 18.481 24.0109 13.4633 20.688 10.5558C17.5911 7.84525 13.436 8.29207 11.2261 9.81513C8.87682 11.4355 7.37356 15.0211 8.8338 18.3888C10.4255 22.0632 14.9805 23.1582 17.6876 22.0658C19.0584 21.5125 19.6917 23.3657 18.2679 23.971C16.1167 24.8878 10.1293 24.7954 7.33225 19.9503C5.44254 16.6786 5.54325 10.9219 10.5551 7.9396C14.3893 5.65831 19.4441 6.29017 22.4922 9.47366C25.6784 12.8014 25.4926 19.0327 22.3847 21.4567C20.9767 22.5569 18.8854 21.4856 18.8988 19.8816L18.8841 19.357C17.9037 20.3301 16.5989 20.8977 15.1776 20.8977C12.3688 20.8977 9.89757 18.4262 9.89757 15.6185C9.89757 12.7818 12.3688 10.282 15.1776 10.282V10.282Z" fill="#FFA930"/>
</svg>
