<svg width="47" height="47" viewBox="0 0 47 47" fill="none" xmlns="http://www.w3.org/2000/svg">
<path d="M39.1803 33.812C38.1769 33.812 37.3606 34.6283 37.3606 35.6317C37.3606 36.6352 38.1769 37.4515 39.1803 37.4515C40.1837 37.4515 41 36.6352 41 35.6317C41 34.6283 40.1837 33.812 39.1803 33.812ZM39.1803 36.2383C38.8459 36.2383 38.5737 35.9664 38.5737 35.6317C38.5737 35.2971 38.8459 35.0252 39.1803 35.0252C39.5147 35.0252 39.7869 35.2971 39.7869 35.6317C39.7869 35.9664 39.5147 36.2383 39.1803 36.2383Z" stroke="none"/>
<path d="M6.85458 13.9726C6.61771 13.7357 6.23375 13.7357 5.99688 13.9726L5.51587 14.4536L5.03486 13.9726C4.79799 13.7357 4.41403 13.7357 4.17716 13.9726C3.94029 14.2094 3.94029 14.5934 4.17716 14.8303L4.65818 15.3113L4.17716 15.7923C3.94029 16.0292 3.94029 16.4131 4.17716 16.65C4.2956 16.7684 4.45088 16.8277 4.60601 16.8277C4.76114 16.8277 4.91642 16.7684 5.03486 16.65L5.51587 16.169L5.99688 16.65C6.11532 16.7684 6.2706 16.8277 6.42573 16.8277C6.58086 16.8277 6.73615 16.7684 6.85458 16.65C7.09145 16.4131 7.09145 16.0292 6.85458 15.7923L6.37357 15.3113L6.85458 14.8303C7.0916 14.5934 7.0916 14.2094 6.85458 13.9726Z" stroke="none"/>
<path d="M7.94213 23.2388C8.30025 23.2388 8.59056 22.9484 8.59056 22.5903C8.59056 22.2322 8.30025 21.9419 7.94213 21.9419C7.58401 21.9419 7.2937 22.2322 7.2937 22.5903C7.2937 22.9484 7.58401 23.2388 7.94213 23.2388Z" stroke="none"/>
<path d="M33.9171 4.69629H12.902C11.3377 4.69629 10.0649 5.96934 10.0649 7.53369V39.4665C10.0649 41.0308 11.3377 42.3039 12.902 42.3039H33.9171C35.4815 42.3039 36.7542 41.0308 36.7542 39.4665V7.53369C36.7542 5.96934 35.4815 4.69629 33.9171 4.69629ZM35.5411 39.4665C35.5411 40.3621 34.8124 41.0907 33.9171 41.0907H12.902C12.0067 41.0907 11.2781 40.3621 11.2781 39.4665V7.53369C11.2781 6.63808 12.0067 5.90944 12.902 5.90944H33.9171C34.8124 5.90944 35.5411 6.63808 35.5411 7.53369V39.4665Z" stroke="none"/>
<path d="M33.7218 7.12256H13.0983C12.7633 7.12256 12.4917 7.39385 12.4917 7.72913V30.779C12.4917 31.1142 12.7633 31.3855 13.0983 31.3855H33.7218C34.0568 31.3855 34.3284 31.1142 34.3284 30.779V7.72913C34.3284 7.39385 34.0568 7.12256 33.7218 7.12256ZM22.1089 22.8935H23.73L24.2981 23.4224C24.4488 23.5622 24.5352 23.7624 24.5352 23.9709C24.5352 24.3802 24.2092 24.7132 23.8084 24.7132H22.3751C22.1312 23.7727 21.2829 23.073 20.2674 23.073C19.2518 23.073 18.4034 23.7727 18.1597 24.7132H13.7048V21.0738H20.2158C20.9666 21.0738 21.6931 21.2861 22.3215 21.6803H22.1091C21.7741 21.6803 21.5025 21.9516 21.5025 22.2869C21.5025 22.6222 21.774 22.8935 22.1089 22.8935ZM21.2391 25.2582C21.2391 25.7937 20.8031 26.2296 20.2674 26.2296C19.7316 26.2296 19.2956 25.7937 19.2956 25.2582C19.2956 24.7222 19.7316 24.2862 20.2674 24.2862C20.8031 24.2862 21.2391 24.7222 21.2391 25.2582ZM13.7048 19.8606V18.6475H16.0902L17.685 19.8606H13.7048ZM33.1152 30.1724H13.7048V25.9264H18.1979C18.4821 26.803 19.297 27.4428 20.2672 27.4428C21.2374 27.4428 22.0524 26.803 22.3366 25.9264H23.8083C24.8781 25.9264 25.7482 25.0491 25.7482 23.9709C25.7482 23.4265 25.5208 22.9029 25.1245 22.5344L23.7494 21.2538C22.7833 20.3551 21.5284 19.8605 20.2157 19.8605H19.689L19.6462 19.8279L16.6619 17.5579C16.5562 17.4774 16.4273 17.4342 16.2946 17.4342H13.7048V8.33571H33.1152V30.1724Z" stroke="none"/>
<path d="M15.3085 33.2051H13.7047C13.3697 33.2051 13.0981 33.4764 13.0981 33.8117V38.0577C13.0981 38.3929 13.3697 38.6642 13.7047 38.6642C14.0397 38.6642 14.3113 38.3929 14.3113 38.0577V37.0956L15.7022 38.4865C15.8206 38.6049 15.9759 38.6642 16.131 38.6642C16.2861 38.6642 16.4414 38.6049 16.5599 38.4865C16.7967 38.2496 16.7967 37.8657 16.5599 37.6288L15.7164 36.7854C16.3065 36.6095 16.7376 36.0616 16.7376 35.4153V34.6346C16.7376 33.8461 16.0966 33.2051 15.3085 33.2051ZM15.5244 35.4151C15.5244 35.5342 15.4275 35.6314 15.3085 35.6314H14.3113V34.4182H15.3085C15.4275 34.4182 15.5244 34.5154 15.5244 34.6345V35.4151Z" stroke="none"/>
<path d="M32.2926 33.2051H30.6888C30.3539 33.2051 30.0823 33.4764 30.0823 33.8117V38.0577C30.0823 38.3929 30.3539 38.6642 30.6888 38.6642C31.0238 38.6642 31.2954 38.3929 31.2954 38.0577V37.0956L32.6863 38.4865C32.8047 38.6049 32.96 38.6642 33.1151 38.6642C33.2703 38.6642 33.4256 38.6049 33.544 38.4865C33.7809 38.2496 33.7809 37.8657 33.544 37.6288L32.7006 36.7854C33.2906 36.6095 33.7217 36.0616 33.7217 35.4153V34.6346C33.7217 33.8461 33.0807 33.2051 32.2926 33.2051ZM32.5086 35.4151C32.5086 35.5342 32.4117 35.6314 32.2926 35.6314H31.2954V34.4182H32.2926C32.4117 34.4182 32.5086 34.5154 32.5086 34.6345V35.4151Z" stroke="none"/>
<path d="M19.6802 33.2051H18.6472C17.9287 33.2051 17.344 33.7897 17.344 34.5083V38.0577C17.344 38.3929 17.6156 38.6642 17.9506 38.6642C18.2855 38.6642 18.5571 38.3929 18.5571 38.0577V36.8445H19.7703V38.0577C19.7703 38.3929 20.0419 38.6642 20.3769 38.6642C20.7118 38.6642 20.9834 38.3929 20.9834 38.0577V34.5083C20.9834 33.7897 20.3989 33.2051 19.6802 33.2051ZM18.5571 35.6314V34.5083C18.5571 34.4586 18.5975 34.4182 18.6472 34.4182H19.6802C19.73 34.4182 19.7703 34.4586 19.7703 34.5083V35.6314H18.5571Z" stroke="none"/>
<path d="M23.7715 33.2051H22.1967C21.8617 33.2051 21.5901 33.4764 21.5901 33.8117V38.0577C21.5901 38.3929 21.8617 38.6642 22.1967 38.6642H23.7715C24.5756 38.6642 25.2295 38.0104 25.2295 37.2059V34.6634C25.2295 33.859 24.5756 33.2051 23.7715 33.2051ZM24.0164 37.2059C24.0164 37.341 23.9064 37.4511 23.7715 37.4511H22.8032V34.4182H23.7715C23.9066 34.4182 24.0164 34.5285 24.0164 34.6634V37.2059Z" stroke="none"/>
<path d="M28.1719 33.2051H27.1389C26.4204 33.2051 25.8357 33.7897 25.8357 34.5083V38.0577C25.8357 38.3929 26.1073 38.6642 26.4423 38.6642C26.7772 38.6642 27.0488 38.3929 27.0488 38.0577V36.8445H28.262V38.0577C28.262 38.3929 28.5336 38.6642 28.8686 38.6642C29.2036 38.6642 29.4751 38.3929 29.4751 38.0577V34.5083C29.4751 33.7897 28.8906 33.2051 28.1719 33.2051ZM27.0488 35.6314V34.5083C27.0488 34.4586 27.0892 34.4182 27.1389 34.4182H28.1719C28.2217 34.4182 28.262 34.4586 28.262 34.5083V35.6314H27.0488Z" stroke="none"/>
<path d="M30.0823 15.1954C30.5211 15.1954 30.8768 14.8397 30.8768 14.4009C30.8768 13.9621 30.5211 13.6064 30.0823 13.6064C29.6435 13.6064 29.2878 13.9621 29.2878 14.4009C29.2878 14.8397 29.6435 15.1954 30.0823 15.1954Z" stroke="none"/>
<path d="M26.0539 17.8234C26.1723 17.9418 26.3276 18.0011 26.4827 18.0011C26.6378 18.0011 26.7934 17.9418 26.9116 17.8234C27.1484 17.5865 27.1484 17.2026 26.9116 16.9657C26.2264 16.2809 25.8491 15.3699 25.8491 14.4014C25.8491 13.4328 26.2264 12.5218 26.9113 11.8371C27.1481 11.6002 27.1481 11.2163 26.9113 10.9794C26.6744 10.7425 26.2904 10.7425 26.0536 10.9794C25.1396 11.8934 24.636 13.1089 24.636 14.4014C24.636 15.6945 25.1394 16.9094 26.0539 17.8234Z" stroke="none"/>
<path d="M24.8204 19.6628C24.9756 19.6628 25.1308 19.6036 25.2493 19.4851C25.4861 19.2483 25.4861 18.8643 25.2493 18.6274C24.1203 17.4984 23.4986 15.9979 23.4986 14.401C23.4986 12.8046 24.1203 11.3035 25.249 10.1745C25.4858 9.93764 25.4858 9.55368 25.249 9.31681C25.0121 9.07994 24.6281 9.07994 24.3913 9.31681C23.0333 10.6745 22.2854 12.4806 22.2854 14.401C22.2854 16.322 23.0333 18.1275 24.3916 19.4851C24.51 19.6037 24.6651 19.6628 24.8204 19.6628Z" stroke="none"/>
<path d="M27.7605 16.1167C27.8789 16.2352 28.0342 16.2945 28.1893 16.2945C28.3444 16.2945 28.4997 16.2352 28.6182 16.1167C28.855 15.8799 28.855 15.4959 28.6182 15.259C28.3889 15.0299 28.2627 14.7254 28.2627 14.4013C28.2627 14.0773 28.3889 13.7728 28.6182 13.5436C28.8549 13.3068 28.8549 12.9222 28.6176 12.686C28.3811 12.4491 27.9967 12.4491 27.7599 12.686C27.3019 13.1444 27.0496 13.7538 27.0496 14.4013C27.0496 15.0493 27.3019 15.6583 27.7605 16.1167Z" stroke="none"/>
<path d="M16.4505 21.7202H15.0975C14.7626 21.7202 14.491 21.9915 14.491 22.3268C14.491 22.6621 14.7626 22.9334 15.0975 22.9334H16.4505C16.7855 22.9334 17.0571 22.6621 17.0571 22.3268C17.0571 21.9915 16.7855 21.7202 16.4505 21.7202Z" stroke="none"/>
</svg>
