<svg width="48" height="48" viewBox="0 0 48 48" fill="none" xmlns="http://www.w3.org/2000/svg">
<path d="M41.6937 19.0842C41.143 15.5467 39.8739 12.4093 37.9232 9.75875C36.7205 8.12446 34.4074 6.50436 31.5768 5.31379C28.5479 4.03944 25.1358 3.33768 21.9672 3.33768C18.4707 3.33768 15.3507 4.14322 12.6931 5.73144C9.60254 7.57763 7.26378 10.4267 5.73966 14.1987C3.03596 20.8914 6.07526 28.0131 6.43003 28.8034C6.50947 28.9789 6.64521 29.1249 6.81678 29.2158L32.8243 43.0726C32.9537 43.1418 33.0946 43.175 33.2355 43.175C33.3969 43.175 33.557 43.1302 33.6991 43.0418C36.3631 41.3793 38.8414 37.5575 40.3822 32.9518C40.3872 32.9377 40.3937 32.9236 40.3976 32.9083C40.3989 32.9032 40.4001 32.8994 40.4014 32.8955C40.8305 31.6019 41.1866 30.2493 41.4517 28.8649C42.0882 25.5361 42.1728 22.1536 41.6937 19.0842ZM33.1817 41.282L7.90931 27.8159C7.62241 27.1269 6.97687 25.4099 6.62087 23.1725C6.12903 20.0845 6.3788 17.286 7.36116 14.8538C8.73928 11.4432 10.8347 8.87902 13.5896 7.23252C15.9719 5.80833 18.7908 5.08656 21.9672 5.08656C24.9079 5.08656 28.0804 5.7398 30.8993 6.92578C33.4468 7.99782 35.4935 9.40791 36.5142 10.7957C37.836 12.5913 38.8171 14.6393 39.4422 16.9056C38.1921 16.7296 36.1237 16.4152 33.7427 15.963C28.6414 14.9953 24.4315 13.8402 21.565 12.6227C21.5535 12.6176 21.542 12.6138 21.5304 12.6093C21.0181 12.3852 20.452 12.2602 19.8577 12.2602C17.5498 12.2602 15.6709 14.136 15.6657 16.4433C15.6657 16.4452 15.6657 16.4478 15.6657 16.4497C15.6657 16.4497 15.6657 16.4516 15.6657 16.4522V16.4529C15.6644 16.6969 15.667 21.6017 16.9068 24.1471C17.3461 25.0468 19.0982 26.4377 28.7707 29.9279C32.7744 31.3739 36.7358 32.6611 38.4354 33.2054C37.1111 36.8031 35.1925 39.8092 33.1817 41.282ZM22.3027 16.4529C22.3027 17.8003 21.2063 18.8966 19.8577 18.8966C18.5103 18.8966 17.4139 17.8003 17.4139 16.4529C17.4139 15.1054 18.5103 14.0091 19.8577 14.0091C21.2064 14.0091 22.3027 15.1054 22.3027 16.4529ZM39.7343 28.5358C39.5383 29.5591 39.2873 30.5683 38.9914 31.5481C37.3366 31.0178 33.452 29.755 29.4996 28.3322C26.4577 27.2371 23.9755 26.2637 22.1222 25.4388C18.9766 24.0397 18.5232 23.4498 18.4758 23.3749C18.0519 22.4994 17.797 21.2264 17.6433 20.0102C18.2863 20.4124 19.0458 20.6455 19.8578 20.6455C22.1697 20.6455 24.0511 18.7647 24.0511 16.453C24.0511 16.07 23.9986 15.6998 23.9013 15.347C30.0221 17.3315 37.6248 18.433 39.8598 18.7296C39.8982 18.9363 39.934 19.1438 39.9661 19.3532C40.4143 22.2273 40.3336 25.4022 39.7343 28.5358Z" stroke="none"/>
<path d="M39.0836 19.8916C39.0388 19.4107 38.6123 19.0592 38.132 19.1034C37.6504 19.1482 37.2982 19.5746 37.343 20.0549C37.3481 20.1068 37.813 25.2779 36.5604 28.8059C36.3977 29.2607 36.6359 29.7613 37.0906 29.9227C37.188 29.9573 37.2866 29.9726 37.3839 29.9726C37.7439 29.9726 38.0807 29.7497 38.2075 29.3913C39.5921 25.495 39.1053 20.1184 39.0836 19.8916Z" stroke="none"/>
<path d="M31.5152 43.6591L6.22745 30.1878C5.80095 29.9599 5.27198 30.1213 5.04401 30.5478C4.81728 30.9743 4.97868 31.5033 5.40519 31.73L30.6929 45.2037C30.8248 45.2729 30.9657 45.3062 31.1041 45.3062C31.4166 45.3062 31.7188 45.1372 31.8763 44.8427C32.1031 44.4174 31.9417 43.8872 31.5152 43.6591Z" stroke="none"/>
</svg>
