<svg width="18" height="18" viewBox="0 0 18 18" fill="none" xmlns="http://www.w3.org/2000/svg">
<path fill-rule="evenodd" clip-rule="evenodd" d="M1.2653 1.26542C0 2.53072 0 4.56717 0 8.64012V9.36012C0 13.4331 0 15.4695 1.2653 16.7348C2.5306 18.0001 4.56705 18.0001 8.64 18.0001H9.36C13.433 18.0001 15.4694 18.0001 16.7347 16.7348C18 15.4695 18 13.4331 18 9.36012V8.64012C18 4.56717 18 2.53072 16.7347 1.26542C15.4694 0.00012207 13.433 0.00012207 9.36 0.00012207H8.64C4.56705 0.00012207 2.5306 0.00012207 1.2653 1.26542ZM3.03711 5.47504C3.13461 10.155 5.47457 12.9675 9.57707 12.9675H9.80965V10.29C11.3171 10.44 12.457 11.5425 12.9145 12.9675H15.0446C14.4596 10.8375 12.922 9.66004 11.962 9.21004C12.922 8.65504 14.272 7.30504 14.5945 5.47504H12.6595C12.2395 6.96004 10.9946 8.31004 9.80965 8.43754V5.47504H7.87457V10.665C6.67457 10.365 5.15961 8.91004 5.09211 5.47504H3.03711Z"/>
</svg>
