<svg width="49" height="49" viewBox="0 0 49 49" fill="none" xmlns="http://www.w3.org/2000/svg">
<path d="M39.212 16.3796V8.37988C39.1988 8.06981 39.0321 7.78663 38.7677 7.62432C38.5153 7.46907 38.2112 7.42101 37.9232 7.49102L20.2793 14.513H11.5685C9.92627 14.5454 8.43012 15.4636 7.65746 16.9129L6.85749 17.224C4.83213 17.9259 3.47549 19.8359 3.47983 21.9794C3.46707 24.1154 4.83043 26.0169 6.85749 26.6904L7.39077 26.9126C7.80139 27.9756 8.59379 28.8472 9.61289 29.357L11.9684 37.8901C12.6003 40.211 14.994 41.5803 17.315 40.9484C18.2512 40.6935 19.0755 40.1334 19.6571 39.3567C20.4637 38.2404 20.7248 36.8203 20.3681 35.4902L18.7682 29.6237H20.2792L37.9231 36.779L38.2342 36.8679C38.4206 36.8708 38.6044 36.8249 38.7675 36.7346C39.0312 36.593 39.2002 36.3225 39.2119 36.0235V27.5794C42.3046 27.5793 44.8117 25.0721 44.8116 21.9793C44.8116 18.8867 42.3046 16.3797 39.212 16.3796ZM7.21307 24.9127C6.02536 24.4374 5.27397 23.2566 5.34645 21.9794C5.27397 20.7022 6.02536 19.5214 7.21307 19.0461V24.9127ZM18.2349 38.2456C17.7454 38.9047 16.9668 39.2857 16.1461 39.2678C14.9775 39.2321 13.9685 38.4392 13.6573 37.3123L11.5685 29.6236H16.9461L18.6349 35.9345C18.8657 36.7253 18.7181 37.5784 18.2349 38.2456ZM19.6571 27.8459H11.5685C10.2205 27.9198 9.06786 26.8869 8.99394 25.539C8.99062 25.4784 8.98952 25.4177 8.99079 25.3571V19.0461C8.94094 17.5743 10.0937 16.3407 11.5655 16.2908C11.5665 16.2908 11.5675 16.2907 11.5685 16.2907H19.6571V27.8459ZM37.4343 34.6902L21.4348 28.2904V16.113L37.4343 9.71313V34.6902ZM39.212 25.8016V18.1574C41.323 18.1575 43.0341 19.8687 43.034 21.9797C43.0338 24.0904 41.3228 25.8015 39.212 25.8016Z" stroke="none"/>
</svg>
