<svg width="48" height="48" viewBox="0 0 48 48" fill="none" xmlns="http://www.w3.org/2000/svg">
    <path d="M28 27H38C39.104 27 40 27.896 40 29V37C40 38.104 39.104 39 38 39H30C28.896 39 28 38.104 28 37V27ZM28 27C28 15 30 13 36 9" stroke="#0065FF" stroke-width="1.6" stroke-linecap="round" stroke-linejoin="round"/>
    <path d="M8 27H18C19.104 27 20 27.896 20 29V37C20 38.104 19.104 39 18 39H10C8.896 39 8 38.104 8 37V27ZM8 27C8 15 10 13 16 9" stroke="#0065FF" stroke-width="1.6" stroke-linecap="round" stroke-linejoin="round"/>
</svg>
