<svg width="16" height="16" viewBox="0 0 16 16" fill="none" xmlns="http://www.w3.org/2000/svg">
<path d="M2.1955 4.09403L4.09417 2.19537C4.35417 1.93537 4.77617 1.93537 5.03683 2.19537L13.8048 10.9634C14.0648 11.2234 14.0648 11.6454 13.8048 11.906L11.9062 13.8047C11.6462 14.0647 11.2242 14.0647 10.9635 13.8047L2.1955 5.0367C1.93483 4.77603 1.93483 4.35403 2.1955 4.09403V4.09403Z" stroke-width="1.2" stroke-linecap="round" stroke-linejoin="round"/>
<path d="M9.41992 6.58002L8.41992 7.58002" stroke-width="1.2" stroke-linecap="round" stroke-linejoin="round"/>
<path d="M11.1466 8.3067L10.48 8.97337" stroke-width="1.2" stroke-linecap="round" stroke-linejoin="round"/>
<path d="M12.7334 9.89337L11.7334 10.8934" stroke-width="1.2" stroke-linecap="round" stroke-linejoin="round"/>
<path d="M7.83366 4.99335L7.16699 5.65335" stroke-width="1.2" stroke-linecap="round" stroke-linejoin="round"/>
<path d="M6.10693 3.26666L5.10693 4.26666" stroke-width="1.2" stroke-linecap="round" stroke-linejoin="round"/>
<path d="M8.23633 5.39468L11.211 2.42001C11.7283 1.90268 12.5697 1.90534 13.0903 2.42601L13.5677 2.90334C14.0883 3.42401 14.091 4.26534 13.5737 4.78268L10.599 7.75734" stroke-width="1.2" stroke-linecap="round" stroke-linejoin="round"/>
<path d="M5.39493 8.23602L2.70826 10.9227C2.62426 11.0067 2.56427 11.112 2.53427 11.2274L2.0396 13.1414C1.9116 13.636 2.36226 14.086 2.85693 13.9567L4.76693 13.4587C4.8816 13.4287 4.98626 13.3687 5.07026 13.2847L7.7576 10.5974" stroke-width="1.2" stroke-linecap="round" stroke-linejoin="round"/>
<path d="M10.0801 3.55341L12.4401 5.91341" stroke-width="1.2" stroke-linecap="round" stroke-linejoin="round"/>
</svg>