<svg width="47" height="47" viewBox="0 0 47 47" fill="none" xmlns="http://www.w3.org/2000/svg">
<mask id="path-1-outside-1" maskUnits="userSpaceOnUse" x="3" y="3" width="41" height="41" fill="black">
<rect fill="white" x="3" y="3" width="41" height="41"/>
<path d="M42.4261 9.80249C42.5783 9.80249 42.7243 9.742 42.832 9.63434C42.9397 9.52668 43.0001 9.38066 43.0001 9.22841V6.93044C43.0002 6.85504 42.9854 6.78037 42.9565 6.7107C42.9277 6.64103 42.8854 6.57772 42.8321 6.52441C42.7788 6.47109 42.7155 6.4288 42.6458 6.39997C42.5761 6.37113 42.5015 6.35631 42.4261 6.35636H24.7604C24.7351 5.72351 24.4662 5.12495 24.0098 4.6858C23.5534 4.24666 22.9449 4.00093 22.3116 4H14.1288C13.4954 4.00093 12.8869 4.24666 12.4306 4.6858C11.9742 5.12495 11.7052 5.72351 11.6799 6.35636H9.5476C9.09473 6.36261 8.66253 6.54689 8.34449 6.86935C8.02645 7.19181 7.84814 7.62651 7.84814 8.07942C7.84814 8.53233 8.02645 8.96704 8.34449 9.28949C8.66253 9.61195 9.09473 9.79624 9.5476 9.80249H11.675V11.6051H9.5476C9.09473 11.6114 8.66253 11.7956 8.34449 12.1181C8.02645 12.4406 7.84814 12.8753 7.84814 13.3282C7.84814 13.7811 8.02645 14.2158 8.34449 14.5382C8.66253 14.8607 9.09473 15.045 9.5476 15.0512H11.675V21.6138H4.57408C4.42183 21.6138 4.27581 21.6743 4.16815 21.7819C4.06049 21.8896 4 22.0356 4 22.1879C3.99836 25.6606 4.92512 29.0707 6.68429 32.0649C8.44347 35.0592 10.9711 37.5287 14.0054 39.2178V42.4261C14.0054 42.5015 14.0202 42.5761 14.049 42.6458C14.0779 42.7155 14.1202 42.7788 14.1735 42.8321C14.2268 42.8854 14.2901 42.9277 14.3598 42.9565C14.4294 42.9854 14.5041 43.0002 14.5795 43.0001H32.4229C32.4983 43.0002 32.573 42.9854 32.6427 42.9565C32.7123 42.9277 32.7757 42.8854 32.829 42.8321C32.8823 42.7788 32.9246 42.7155 32.9534 42.6458C32.9822 42.5761 32.9971 42.5015 32.997 42.4261V39.2178C36.0309 37.5284 38.5581 35.0587 40.3168 32.0645C42.0756 29.0703 43.002 25.6604 43.0001 22.1879C43.0001 22.0356 42.9397 21.8896 42.832 21.7819C42.7243 21.6743 42.5783 21.6138 42.4261 21.6138H24.7653V15.0512H42.4261C42.5783 15.0512 42.7243 14.9907 42.832 14.8831C42.9397 14.7754 43.0001 14.6294 43.0001 14.4771V12.1808C43.0002 12.1054 42.9854 12.0308 42.9565 11.9611C42.9277 11.8914 42.8854 11.8281 42.8321 11.7748C42.7788 11.7215 42.7155 11.6792 42.6458 11.6504C42.5761 11.6215 42.5015 11.6067 42.4261 11.6067H24.7653V9.80249H42.4261ZM41.852 8.65432H24.7653V7.50452H41.852V8.65432ZM18.7191 21.6138V5.14816H20.5972V21.6138H18.7191ZM15.6932 21.6138V5.14816H17.571V21.6138H15.6932ZM9.5476 8.65596C9.3975 8.65238 9.25476 8.59023 9.14987 8.48281C9.04498 8.37539 8.98627 8.2312 8.98627 8.08106C8.98627 7.93092 9.04498 7.78674 9.14987 7.67931C9.25476 7.57189 9.3975 7.50975 9.5476 7.50616H11.675V8.65596H9.5476ZM9.5476 13.9047C9.40115 13.8961 9.26352 13.8319 9.16287 13.7252C9.06222 13.6185 9.00616 13.4773 9.00616 13.3306C9.00616 13.1839 9.06222 13.0428 9.16287 12.9361C9.26352 12.8293 9.40115 12.7651 9.5476 12.7565H11.675V13.9047H9.5476ZM12.8231 6.45543C12.8235 6.10926 12.9612 5.77737 13.2059 5.5326C13.4507 5.28782 13.7826 5.15015 14.1288 5.1498H14.5444V21.6138H12.8231V6.45543ZM15.1523 41.8536V39.4566H31.8475V41.8536H15.1523ZM32.2763 38.3084H14.7238C11.9105 36.7781 9.547 34.5377 7.86855 31.8102C6.19011 29.0826 5.25525 25.9631 5.15702 22.762H41.8431C41.7446 25.9628 40.8096 29.082 39.1312 31.8092C37.4528 34.5365 35.0894 36.7766 32.2763 38.3068V38.3084ZM21.7453 21.6138V5.14816H22.3116C22.6577 5.14851 22.9896 5.28618 23.2344 5.53096C23.4792 5.77573 23.6168 6.10762 23.6172 6.45379V21.6138H21.7453ZM41.852 12.7533V13.9014H24.7653V12.7533H41.852Z" stroke="none"/>
</mask>
<path d="M42.4261 9.80249C42.5783 9.80249 42.7243 9.742 42.832 9.63434C42.9397 9.52668 43.0001 9.38066 43.0001 9.22841V6.93044C43.0002 6.85504 42.9854 6.78037 42.9565 6.7107C42.9277 6.64103 42.8854 6.57772 42.8321 6.52441C42.7788 6.47109 42.7155 6.4288 42.6458 6.39997C42.5761 6.37113 42.5015 6.35631 42.4261 6.35636H24.7604C24.7351 5.72351 24.4662 5.12495 24.0098 4.6858C23.5534 4.24666 22.9449 4.00093 22.3116 4H14.1288C13.4954 4.00093 12.8869 4.24666 12.4306 4.6858C11.9742 5.12495 11.7052 5.72351 11.6799 6.35636H9.5476C9.09473 6.36261 8.66253 6.54689 8.34449 6.86935C8.02645 7.19181 7.84814 7.62651 7.84814 8.07942C7.84814 8.53233 8.02645 8.96704 8.34449 9.28949C8.66253 9.61195 9.09473 9.79624 9.5476 9.80249H11.675V11.6051H9.5476C9.09473 11.6114 8.66253 11.7956 8.34449 12.1181C8.02645 12.4406 7.84814 12.8753 7.84814 13.3282C7.84814 13.7811 8.02645 14.2158 8.34449 14.5382C8.66253 14.8607 9.09473 15.045 9.5476 15.0512H11.675V21.6138H4.57408C4.42183 21.6138 4.27581 21.6743 4.16815 21.7819C4.06049 21.8896 4 22.0356 4 22.1879C3.99836 25.6606 4.92512 29.0707 6.68429 32.0649C8.44347 35.0592 10.9711 37.5287 14.0054 39.2178V42.4261C14.0054 42.5015 14.0202 42.5761 14.049 42.6458C14.0779 42.7155 14.1202 42.7788 14.1735 42.8321C14.2268 42.8854 14.2901 42.9277 14.3598 42.9565C14.4294 42.9854 14.5041 43.0002 14.5795 43.0001H32.4229C32.4983 43.0002 32.573 42.9854 32.6427 42.9565C32.7123 42.9277 32.7757 42.8854 32.829 42.8321C32.8823 42.7788 32.9246 42.7155 32.9534 42.6458C32.9822 42.5761 32.9971 42.5015 32.997 42.4261V39.2178C36.0309 37.5284 38.5581 35.0587 40.3168 32.0645C42.0756 29.0703 43.002 25.6604 43.0001 22.1879C43.0001 22.0356 42.9397 21.8896 42.832 21.7819C42.7243 21.6743 42.5783 21.6138 42.4261 21.6138H24.7653V15.0512H42.4261C42.5783 15.0512 42.7243 14.9907 42.832 14.8831C42.9397 14.7754 43.0001 14.6294 43.0001 14.4771V12.1808C43.0002 12.1054 42.9854 12.0308 42.9565 11.9611C42.9277 11.8914 42.8854 11.8281 42.8321 11.7748C42.7788 11.7215 42.7155 11.6792 42.6458 11.6504C42.5761 11.6215 42.5015 11.6067 42.4261 11.6067H24.7653V9.80249H42.4261ZM41.852 8.65432H24.7653V7.50452H41.852V8.65432ZM18.7191 21.6138V5.14816H20.5972V21.6138H18.7191ZM15.6932 21.6138V5.14816H17.571V21.6138H15.6932ZM9.5476 8.65596C9.3975 8.65238 9.25476 8.59023 9.14987 8.48281C9.04498 8.37539 8.98627 8.2312 8.98627 8.08106C8.98627 7.93092 9.04498 7.78674 9.14987 7.67931C9.25476 7.57189 9.3975 7.50975 9.5476 7.50616H11.675V8.65596H9.5476ZM9.5476 13.9047C9.40115 13.8961 9.26352 13.8319 9.16287 13.7252C9.06222 13.6185 9.00616 13.4773 9.00616 13.3306C9.00616 13.1839 9.06222 13.0428 9.16287 12.9361C9.26352 12.8293 9.40115 12.7651 9.5476 12.7565H11.675V13.9047H9.5476ZM12.8231 6.45543C12.8235 6.10926 12.9612 5.77737 13.2059 5.5326C13.4507 5.28782 13.7826 5.15015 14.1288 5.1498H14.5444V21.6138H12.8231V6.45543ZM15.1523 41.8536V39.4566H31.8475V41.8536H15.1523ZM32.2763 38.3084H14.7238C11.9105 36.7781 9.547 34.5377 7.86855 31.8102C6.19011 29.0826 5.25525 25.9631 5.15702 22.762H41.8431C41.7446 25.9628 40.8096 29.082 39.1312 31.8092C37.4528 34.5365 35.0894 36.7766 32.2763 38.3068V38.3084ZM21.7453 21.6138V5.14816H22.3116C22.6577 5.14851 22.9896 5.28618 23.2344 5.53096C23.4792 5.77573 23.6168 6.10762 23.6172 6.45379V21.6138H21.7453ZM41.852 12.7533V13.9014H24.7653V12.7533H41.852Z" stroke="none"/>
<path d="M42.4261 9.80249C42.5783 9.80249 42.7243 9.742 42.832 9.63434C42.9397 9.52668 43.0001 9.38066 43.0001 9.22841V6.93044C43.0002 6.85504 42.9854 6.78037 42.9565 6.7107C42.9277 6.64103 42.8854 6.57772 42.8321 6.52441C42.7788 6.47109 42.7155 6.4288 42.6458 6.39997C42.5761 6.37113 42.5015 6.35631 42.4261 6.35636H24.7604C24.7351 5.72351 24.4662 5.12495 24.0098 4.6858C23.5534 4.24666 22.9449 4.00093 22.3116 4H14.1288C13.4954 4.00093 12.8869 4.24666 12.4306 4.6858C11.9742 5.12495 11.7052 5.72351 11.6799 6.35636H9.5476C9.09473 6.36261 8.66253 6.54689 8.34449 6.86935C8.02645 7.19181 7.84814 7.62651 7.84814 8.07942C7.84814 8.53233 8.02645 8.96704 8.34449 9.28949C8.66253 9.61195 9.09473 9.79624 9.5476 9.80249H11.675V11.6051H9.5476C9.09473 11.6114 8.66253 11.7956 8.34449 12.1181C8.02645 12.4406 7.84814 12.8753 7.84814 13.3282C7.84814 13.7811 8.02645 14.2158 8.34449 14.5382C8.66253 14.8607 9.09473 15.045 9.5476 15.0512H11.675V21.6138H4.57408C4.42183 21.6138 4.27581 21.6743 4.16815 21.7819C4.06049 21.8896 4 22.0356 4 22.1879C3.99836 25.6606 4.92512 29.0707 6.68429 32.0649C8.44347 35.0592 10.9711 37.5287 14.0054 39.2178V42.4261C14.0054 42.5015 14.0202 42.5761 14.049 42.6458C14.0779 42.7155 14.1202 42.7788 14.1735 42.8321C14.2268 42.8854 14.2901 42.9277 14.3598 42.9565C14.4294 42.9854 14.5041 43.0002 14.5795 43.0001H32.4229C32.4983 43.0002 32.573 42.9854 32.6427 42.9565C32.7123 42.9277 32.7757 42.8854 32.829 42.8321C32.8823 42.7788 32.9246 42.7155 32.9534 42.6458C32.9822 42.5761 32.9971 42.5015 32.997 42.4261V39.2178C36.0309 37.5284 38.5581 35.0587 40.3168 32.0645C42.0756 29.0703 43.002 25.6604 43.0001 22.1879C43.0001 22.0356 42.9397 21.8896 42.832 21.7819C42.7243 21.6743 42.5783 21.6138 42.4261 21.6138H24.7653V15.0512H42.4261C42.5783 15.0512 42.7243 14.9907 42.832 14.8831C42.9397 14.7754 43.0001 14.6294 43.0001 14.4771V12.1808C43.0002 12.1054 42.9854 12.0308 42.9565 11.9611C42.9277 11.8914 42.8854 11.8281 42.8321 11.7748C42.7788 11.7215 42.7155 11.6792 42.6458 11.6504C42.5761 11.6215 42.5015 11.6067 42.4261 11.6067H24.7653V9.80249H42.4261ZM41.852 8.65432H24.7653V7.50452H41.852V8.65432ZM18.7191 21.6138V5.14816H20.5972V21.6138H18.7191ZM15.6932 21.6138V5.14816H17.571V21.6138H15.6932ZM9.5476 8.65596C9.3975 8.65238 9.25476 8.59023 9.14987 8.48281C9.04498 8.37539 8.98627 8.2312 8.98627 8.08106C8.98627 7.93092 9.04498 7.78674 9.14987 7.67931C9.25476 7.57189 9.3975 7.50975 9.5476 7.50616H11.675V8.65596H9.5476ZM9.5476 13.9047C9.40115 13.8961 9.26352 13.8319 9.16287 13.7252C9.06222 13.6185 9.00616 13.4773 9.00616 13.3306C9.00616 13.1839 9.06222 13.0428 9.16287 12.9361C9.26352 12.8293 9.40115 12.7651 9.5476 12.7565H11.675V13.9047H9.5476ZM12.8231 6.45543C12.8235 6.10926 12.9612 5.77737 13.2059 5.5326C13.4507 5.28782 13.7826 5.15015 14.1288 5.1498H14.5444V21.6138H12.8231V6.45543ZM15.1523 41.8536V39.4566H31.8475V41.8536H15.1523ZM32.2763 38.3084H14.7238C11.9105 36.7781 9.547 34.5377 7.86855 31.8102C6.19011 29.0826 5.25525 25.9631 5.15702 22.762H41.8431C41.7446 25.9628 40.8096 29.082 39.1312 31.8092C37.4528 34.5365 35.0894 36.7766 32.2763 38.3068V38.3084ZM21.7453 21.6138V5.14816H22.3116C22.6577 5.14851 22.9896 5.28618 23.2344 5.53096C23.4792 5.77573 23.6168 6.10762 23.6172 6.45379V21.6138H21.7453ZM41.852 12.7533V13.9014H24.7653V12.7533H41.852Z" fill="none" stroke="none" stroke-width="0.2" mask="url(#path-1-outside-1)"/>
<path d="M30.9488 36.0103C31.0562 36.0104 31.1618 35.9825 31.2552 35.9294C33.8714 34.4518 36.0121 32.2588 37.4262 29.6076L37.4264 29.6072L30.6657 34.8863L30.6411 34.8428C30.5209 34.9106 30.4266 35.0163 30.3729 35.1435C30.3193 35.2706 30.3092 35.4119 30.3444 35.5453C30.3796 35.6788 30.458 35.7968 30.5673 35.8809C30.6767 35.965 30.8108 36.0105 30.9488 36.0103ZM30.9488 36.0103L30.9488 35.9603L30.9489 36.0103C30.9488 36.0103 30.9488 36.0103 30.9488 36.0103Z" stroke="none" stroke-width="0.1"/>
</svg>
