<svg width="49" height="49" viewBox="0 0 49 49" fill="none" xmlns="http://www.w3.org/2000/svg">
<path d="M36.1683 28.7781C40.5884 28.7781 44.1716 32.3613 44.1716 36.7814C44.1716 41.2015 40.5884 44.7847 36.1683 44.7847C31.7481 44.7847 28.1649 41.2015 28.1649 36.7814C28.1649 32.3613 31.7481 28.7781 36.1683 28.7781" fill="none" stroke-width="1.5" stroke-linecap="round" stroke-linejoin="round"/>
<path d="M38.8656 35.4348L35.4962 38.8142L33.4713 36.7814" fill="none" stroke-width="1.5" stroke-linecap="round" stroke-linejoin="round"/>
<path d="M16.8081 23.7179H12.5703" fill="none" stroke-width="1.5" stroke-linecap="round" stroke-linejoin="round"/>
<path d="M33.8733 23.7179H29.6355" fill="none" stroke-width="1.5" stroke-linecap="round" stroke-linejoin="round"/>
<path d="M35.9921 17.3613L40.2278 15.2424" fill="none" stroke-width="1.5" stroke-linecap="round" stroke-linejoin="round"/>
<path d="M10.4515 17.3613L6.21375 15.2424" fill="none" stroke-width="1.5" stroke-linecap="round" stroke-linejoin="round"/>
<path d="M16.3279 6.7688C14.3588 6.769 12.649 8.1249 12.2002 10.0422L10.3994 17.7254L12.2002 10.0422C12.649 8.1249 14.3588 6.769 16.3279 6.7688H30.1156C32.0845 6.76846 33.794 8.12479 34.2413 10.0422L36.0421 17.7254" fill="none" stroke-width="1.5" stroke-linecap="round" stroke-linejoin="round"/>
<path d="M40.2279 24.7764V23.1957C40.2279 20.0683 37.695 17.5318 34.5676 17.5273H11.8841C10.3804 17.5268 8.93813 18.1238 7.87468 19.1869C6.81122 20.2499 6.21375 21.692 6.21375 23.1957V32.7797C6.21375 33.8847 7.10955 34.7805 8.21458 34.7805H12.6884C13.7935 34.7805 14.6893 33.8847 14.6893 32.7797V30.0726H24.1632" fill="none" stroke-width="1.5" stroke-linecap="round" stroke-linejoin="round"/>
</svg>
