<svg width="16" height="12" viewBox="0 0 16 12" fill="none" xmlns="http://www.w3.org/2000/svg">
    <path d="M1.33856 6.35025C1.22081 6.132 1.22081 5.86725 1.33856 5.649C2.75756 3.02475 5.37881 0.75 8.00006 0.75C10.6213 0.75 13.2426 3.02475 14.6616 5.64975C14.7793 5.868 14.7793 6.13275 14.6616 6.351C13.2426 8.97525 10.6213 11.25 8.00006 11.25C5.37881 11.25 2.75756 8.97525 1.33856 6.35025V6.35025Z" stroke="#404040" stroke-width="1.2" stroke-linecap="round" stroke-linejoin="round"/>
    <path d="M9.59099 4.40901C10.4697 5.28769 10.4697 6.71231 9.59099 7.59099C8.71231 8.46967 7.28769 8.46967 6.40901 7.59099C5.53033 6.71231 5.53033 5.28769 6.40901 4.40901C7.28769 3.53033 8.71231 3.53033 9.59099 4.40901Z" stroke="#404040" stroke-width="1.2" stroke-linecap="round" stroke-linejoin="round"/>
</svg>