<svg width="24" height="24" viewBox="0 0 24 24" fill="none" xmlns="http://www.w3.org/2000/svg">
    <path d="M20 7H11C10.448 7 10 6.552 10 6V4C10 3.448 10.448 3 11 3H20C20.552 3 21 3.448 21 4V6C21 6.552 20.552 7 20 7Z" fill="none" stroke-width="1.2" stroke-linecap="round" stroke-linejoin="round"/>
    <path d="M20 14H11C10.448 14 10 13.552 10 13V11C10 10.448 10.448 10 11 10H20C20.552 10 21 10.448 21 11V13C21 13.552 20.552 14 20 14Z" fill="none" stroke-width="1.2" stroke-linecap="round" stroke-linejoin="round"/>
    <path d="M20 21H11C10.448 21 10 20.552 10 20V18C10 17.448 10.448 17 11 17H20C20.552 17 21 17.448 21 18V20C21 20.552 20.552 21 20 21Z" fill="none" stroke-width="1.2" stroke-linecap="round" stroke-linejoin="round"/>
    <path d="M6 7H4C3.448 7 3 6.552 3 6V4C3 3.448 3.448 3 4 3H6C6.552 3 7 3.448 7 4V6C7 6.552 6.552 7 6 7Z" fill="none" stroke-width="1.2" stroke-linecap="round" stroke-linejoin="round"/>
    <path d="M6 14H4C3.448 14 3 13.552 3 13V11C3 10.448 3.448 10 4 10H6C6.552 10 7 10.448 7 11V13C7 13.552 6.552 14 6 14Z" fill="none" stroke-width="1.2" stroke-linecap="round" stroke-linejoin="round"/>
    <path d="M6 21H4C3.448 21 3 20.552 3 20V18C3 17.448 3.448 17 4 17H6C6.552 17 7 17.448 7 18V20C7 20.552 6.552 21 6 21Z" fill="none" stroke-width="1.2" stroke-linecap="round" stroke-linejoin="round"/>
</svg>
