<svg width="25" height="25" viewBox="0 0 25 25" fill="none" xmlns="http://www.w3.org/2000/svg">
    <path d="M6.21784 6.90103L5.52305 3.77603H3.51367" stroke="#B0B0B0" stroke-width="1.5" stroke-linecap="round" stroke-linejoin="round"/>
    <path fill-rule="evenodd" clip-rule="evenodd" d="M8.05319 15.4531L6.21777 6.90103H19.4032C20.0667 6.90103 20.5605 7.51249 20.4219 8.16145L18.8574 15.4531C18.7542 15.9333 18.3303 16.276 17.8386 16.276H9.0709C8.58027 16.276 8.15631 15.9333 8.05319 15.4531Z" stroke="#B0B0B0" stroke-width="1.5" stroke-linecap="round" stroke-linejoin="round"/>
    <path d="M18.1926 20.0521C17.977 20.0521 17.802 20.2271 17.804 20.4427C17.804 20.6583 17.979 20.8333 18.1947 20.8333C18.4103 20.8333 18.5853 20.6583 18.5853 20.4427C18.5843 20.2271 18.4093 20.0521 18.1926 20.0521" stroke="#B0B0B0" stroke-width="1.5" stroke-linecap="round" stroke-linejoin="round"/>
    <path d="M9.22485 20.0521C9.00922 20.0521 8.83422 20.2271 8.8363 20.4427C8.83526 20.6583 9.01026 20.8333 9.22589 20.8333C9.44151 20.8333 9.61651 20.6583 9.61651 20.4427C9.61651 20.2271 9.44151 20.0521 9.22485 20.0521" stroke="#B0B0B0" stroke-width="1.5" stroke-linecap="round" stroke-linejoin="round"/>
</svg>