<svg width="48" height="48" viewBox="0 0 48 48" stroke="#000" fill="none" xmlns="http://www.w3.org/2000/svg">
<path d="M6 14H4" stroke-width="1.6" stroke-linecap="round" stroke-linejoin="round"/>
<path d="M8 8H4" stroke-width="1.6" stroke-linecap="round" stroke-linejoin="round"/>
<path d="M34 40H6" stroke-width="1.6" stroke-linecap="round" stroke-linejoin="round"/>
<path d="M34.5499 8L32.5779 14.574C32.3239 15.42 31.5439 16 30.6619 16H24.4379C23.0979 16 22.1379 14.708 22.5219 13.426L24.1499 8" fill="transparent" stroke-width="1.6" stroke-linecap="round" stroke-linejoin="round"/>
<path d="M16 26H20.26" stroke-width="1.6" stroke-linecap="round" stroke-linejoin="round"/>
<path d="M34.876 32H13.7C10.484 32 8.17804 28.9 9.10204 25.82L13.422 11.42C14.032 9.39 15.9 8 18.02 8H39.198C42.414 8 44.72 11.1 43.796 14.18L39.476 28.58C38.866 30.61 36.996 32 34.876 32Z" fill="transparent" stroke-width="1.6" stroke-linecap="round" stroke-linejoin="round"/>
</svg>
