<svg xmlns="http://www.w3.org/2000/svg" width="472" height="24" viewBox="0 0 472 24" fill="none">
<path fill-rule="evenodd" clip-rule="evenodd" d="M236 0C242.627 0 248 5.37258 248 12C248 18.6274 242.627 24 236 24C229.373 24 224 18.6274 224 12C224 5.37258 229.373 0 236 0Z" fill="#7F4DA0"/>
<path fill-rule="evenodd" clip-rule="evenodd" d="M239.197 10.4792C239.139 10.005 238.993 9.63273 238.734 9.30295C238.398 8.87832 237.969 8.62404 237.333 8.4732C236.919 8.37266 236.751 8.3842 236.601 8.5211C236.462 8.64935 236.434 8.90647 236.541 9.07298C236.616 9.19383 236.703 9.23712 236.943 9.28437C237.264 9.34335 237.485 9.41989 237.687 9.53511C238.115 9.78208 238.314 10.1686 238.335 10.7942C238.345 11.088 238.371 11.1783 238.473 11.2825C238.663 11.473 239.002 11.4359 239.145 11.208C239.198 11.1221 239.206 11.0847 239.212 10.8852C239.215 10.7617 239.21 10.5779 239.197 10.4792Z" fill="white"/>
<path fill-rule="evenodd" clip-rule="evenodd" d="M240.872 11.0138C240.788 9.56111 240.22 8.39236 239.203 7.57005C238.63 7.10799 237.937 6.79027 237.178 6.63575C236.9 6.58049 236.388 6.5357 236.3 6.56132C236.217 6.58505 236.1 6.67479 236.048 6.75595C235.993 6.84396 235.98 7.04046 236.027 7.15413C236.103 7.34414 236.245 7.41127 236.641 7.44595C237.252 7.49941 237.883 7.71409 238.359 8.03192C238.902 8.39378 239.335 8.88873 239.614 9.47034C239.856 9.97006 240.004 10.6902 240 11.3351C239.999 11.5683 240.035 11.7001 240.129 11.7964C240.27 11.9444 240.477 11.9768 240.659 11.8785C240.861 11.7723 240.908 11.586 240.872 11.0138Z" fill="white"/>
<path fill-rule="evenodd" clip-rule="evenodd" d="M242.726 16.6082C242.698 16.5252 242.632 16.3971 242.584 16.3235C242.286 15.8729 240.682 14.6181 239.882 14.2078C239.425 13.973 239.086 13.8947 238.835 13.9682C238.565 14.0441 238.423 14.1698 237.971 14.732C237.788 14.9573 237.601 15.1684 237.551 15.2016C237.428 15.287 237.187 15.3558 237.016 15.3558C236.621 15.3534 235.903 15.0973 235.351 14.7604C234.923 14.4996 234.373 14.0323 233.952 13.5697C233.454 13.0266 233.116 12.5474 232.848 12.0066C232.502 11.3117 232.414 10.8871 232.559 10.5763C232.594 10.4981 232.642 10.4151 232.663 10.389C232.684 10.3653 232.907 10.1826 233.153 9.98337C233.637 9.59914 233.715 9.51137 233.805 9.24809C233.918 8.91362 233.888 8.57207 233.712 8.22816C233.577 7.96723 233.224 7.39798 232.969 7.03033C232.63 6.54648 231.787 5.51232 231.619 5.37233C231.316 5.12568 230.927 5.08296 230.498 5.24902C230.046 5.42455 229.198 6.10766 228.836 6.58442C228.509 7.01611 228.384 7.32207 228.365 7.7253C228.348 8.05736 228.376 8.19493 228.552 8.61952C229.923 11.9497 231.969 14.6086 234.78 16.7197C236.249 17.8226 237.772 18.6623 239.351 19.2363C240.273 19.5707 240.673 19.5873 241.144 19.3122C241.343 19.1936 241.836 18.6884 242.11 18.3207C242.565 17.7088 242.733 17.4265 242.781 17.2012C242.814 17.047 242.788 16.779 242.726 16.6082Z" fill="white"/>
<path fill-rule="evenodd" clip-rule="evenodd" d="M242.578 11.3474C242.547 10.5257 242.409 9.8517 242.121 9.10024C241.836 8.36105 241.547 7.87869 241.003 7.22628C240.488 6.61457 240.089 6.26529 239.455 5.8765C238.57 5.3348 237.494 4.97633 236.287 4.82557C235.876 4.77288 235.783 4.77664 235.656 4.86086C235.412 5.0204 235.415 5.41834 235.66 5.57549C235.742 5.62548 235.814 5.64369 236.143 5.68677C236.648 5.75478 236.973 5.81888 237.358 5.92405C238.87 6.33724 240.032 7.18181 240.809 8.43555C241.46 9.48054 241.73 10.5256 241.691 11.8603C241.678 12.3116 241.688 12.391 241.757 12.4994C241.889 12.7015 242.237 12.7414 242.416 12.5738C242.527 12.4716 242.548 12.3949 242.57 12.0087C242.58 11.8072 242.583 11.5098 242.578 11.3474Z" fill="white"/>
<path fill-rule="evenodd" clip-rule="evenodd" d="M204 24C210.627 24 216 18.6274 216 12C216 5.37258 210.627 0 204 0C197.373 0 192 5.37258 192 12C192 18.6274 197.373 24 204 24Z" fill="url(#paint0_linear)"/>
<path fill-rule="evenodd" clip-rule="evenodd" d="M201.8 17.5C201.411 17.5 201.477 17.3532 201.343 16.9831L200.2 13.2206L209 8" fill="#C8DAEA"/>
<path fill-rule="evenodd" clip-rule="evenodd" d="M201.8 17.5C202.1 17.5 202.233 17.3628 202.4 17.2L204 15.6442L202.004 14.4407" fill="#A9C9DD"/>
<path fill-rule="evenodd" clip-rule="evenodd" d="M202.004 14.441L206.84 18.0139C207.392 18.3184 207.79 18.1607 207.928 17.5015L209.896 8.22524C210.098 7.41722 209.588 7.05074 209.06 7.29042L197.501 11.7475C196.712 12.064 196.717 12.5042 197.357 12.7003L200.324 13.6262L207.191 9.29365C207.515 9.09706 207.813 9.20275 207.568 9.41949" fill="url(#paint1_linear)"/>
<path fill-rule="evenodd" clip-rule="evenodd" d="M268 24C274.627 24 280 18.6274 280 12C280 5.37258 274.627 0 268 0C261.373 0 256 5.37258 256 12C256 18.6274 261.373 24 268 24Z" fill="#25D366"/>
<path fill-rule="evenodd" clip-rule="evenodd" d="M268.396 18.6763H268.393C267.198 18.6759 266.025 18.3762 264.983 17.8077L261.2 18.8L262.212 15.1024C261.588 14.0203 261.259 12.7928 261.26 11.5351C261.261 7.60087 264.462 4.40002 268.395 4.40002C270.304 4.40085 272.096 5.14396 273.443 6.49273C274.79 7.84143 275.532 9.63419 275.531 11.5408C275.53 15.4742 272.33 18.6747 268.396 18.6763ZM265.158 16.5159L265.374 16.6445C266.285 17.1848 267.329 17.4708 268.393 17.4712H268.395C271.664 17.4712 274.325 14.8106 274.326 11.5403C274.327 9.95561 273.71 8.46555 272.591 7.3445C271.471 6.22345 269.982 5.60577 268.398 5.60522C265.126 5.60522 262.466 8.26556 262.464 11.5355C262.464 12.6562 262.777 13.7476 263.371 14.6918L263.512 14.9162L262.913 17.1048L265.158 16.5159ZM271.99 13.2376C271.946 13.1632 271.827 13.1186 271.649 13.0293C271.47 12.9401 270.594 12.5088 270.43 12.4492C270.267 12.3898 270.148 12.36 270.029 12.5385C269.91 12.7169 269.569 13.1186 269.465 13.2376C269.361 13.3565 269.257 13.3715 269.078 13.2822C268.9 13.193 268.326 13.0047 267.645 12.3973C267.115 11.9245 266.757 11.3406 266.653 11.1621C266.549 10.9836 266.642 10.8872 266.731 10.7983C266.811 10.7184 266.909 10.59 266.998 10.4859C267.087 10.3818 267.117 10.3074 267.177 10.1885C267.236 10.0694 267.206 9.96537 267.162 9.87612C267.117 9.78687 266.761 8.90927 266.612 8.55227C266.467 8.2046 266.32 8.2517 266.211 8.24621C266.107 8.24099 265.988 8.23989 265.869 8.23989C265.75 8.23989 265.557 8.28452 265.394 8.46302C265.23 8.64152 264.77 9.07287 264.77 9.9504C264.77 10.828 265.409 11.6758 265.498 11.7948C265.587 11.9138 266.755 13.7147 268.544 14.487C268.969 14.6707 269.301 14.7804 269.56 14.8625C269.987 14.9983 270.376 14.9791 270.683 14.9332C271.026 14.882 271.738 14.5019 271.886 14.0854C272.035 13.6689 272.035 13.3119 271.99 13.2376Z" fill="#FDFDFD"/>
<path fill-rule="evenodd" clip-rule="evenodd" d="M268.396 18.6763H268.393C267.198 18.6759 266.025 18.3762 264.983 17.8077L261.2 18.8L262.212 15.1024C261.588 14.0203 261.259 12.7928 261.26 11.5351C261.261 7.60087 264.462 4.40002 268.395 4.40002C270.304 4.40085 272.096 5.14396 273.443 6.49273C274.79 7.84143 275.532 9.63419 275.531 11.5408C275.53 15.4742 272.33 18.6747 268.396 18.6763ZM265.158 16.5159L265.374 16.6445C266.285 17.1848 267.329 17.4708 268.393 17.4712H268.395C271.664 17.4712 274.325 14.8106 274.326 11.5403C274.327 9.95561 273.71 8.46555 272.591 7.3445C271.471 6.22345 269.982 5.60577 268.398 5.60522C265.126 5.60522 262.466 8.26556 262.464 11.5355C262.464 12.6562 262.777 13.7476 263.371 14.6918L263.512 14.9162L262.913 17.1048L265.158 16.5159ZM271.99 13.2376C271.946 13.1632 271.827 13.1186 271.649 13.0293C271.47 12.9401 270.594 12.5088 270.43 12.4492C270.267 12.3898 270.148 12.36 270.029 12.5385C269.91 12.7169 269.569 13.1186 269.465 13.2376C269.361 13.3565 269.257 13.3715 269.078 13.2822C268.9 13.193 268.326 13.0047 267.645 12.3973C267.115 11.9245 266.757 11.3406 266.653 11.1621C266.549 10.9836 266.642 10.8872 266.731 10.7983C266.811 10.7184 266.909 10.59 266.998 10.4859C267.087 10.3818 267.117 10.3074 267.177 10.1885C267.236 10.0694 267.206 9.96537 267.162 9.87612C267.117 9.78687 266.761 8.90927 266.612 8.55227C266.467 8.2046 266.32 8.2517 266.211 8.24621C266.107 8.24099 265.988 8.23989 265.869 8.23989C265.75 8.23989 265.557 8.28452 265.394 8.46302C265.23 8.64152 264.77 9.07287 264.77 9.9504C264.77 10.828 265.409 11.6758 265.498 11.7948C265.587 11.9138 266.755 13.7147 268.544 14.487C268.969 14.6707 269.301 14.7804 269.56 14.8625C269.987 14.9983 270.376 14.9791 270.683 14.9332C271.026 14.882 271.738 14.5019 271.886 14.0854C272.035 13.6689 272.035 13.3119 271.99 13.2376Z" fill="#FDFDFD"/>
<path fill-rule="evenodd" clip-rule="evenodd" d="M384 12C384 5.37258 389.373 0 396 0C402.627 0 408 5.37258 408 12C408 18.6274 402.627 24 396 24C389.373 24 384 18.6274 384 12Z" fill="url(#paint2_linear)"/>
<mask id="mask0" style="mask-type:alpha" maskUnits="userSpaceOnUse" x="384" y="0" width="24" height="24">
<path fill-rule="evenodd" clip-rule="evenodd" d="M384 12C384 5.37258 389.373 0 396 0C402.627 0 408 5.37258 408 12C408 18.6274 402.627 24 396 24C389.373 24 384 18.6274 384 12Z" fill="white"/>
</mask>
<g mask="url(#mask0)">
<path fill-rule="evenodd" clip-rule="evenodd" d="M396.001 5.59998C394.262 5.59998 394.044 5.60758 393.362 5.63864C392.68 5.66984 392.215 5.77771 391.808 5.93598C391.387 6.09945 391.03 6.31812 390.675 6.67399C390.319 7.02972 390.1 7.38679 389.936 7.8076C389.777 8.21467 389.669 8.67987 389.639 9.36095C389.608 10.0436 389.6 10.2619 389.6 12C389.6 13.7382 389.608 13.9557 389.639 14.6383C389.67 15.3197 389.778 15.7847 389.936 16.1917C390.1 16.6126 390.318 16.9697 390.674 17.3254C391.03 17.6814 391.387 17.9006 391.807 18.0641C392.215 18.2224 392.68 18.3302 393.361 18.3614C394.044 18.3925 394.262 18.4001 396 18.4001C397.738 18.4001 397.956 18.3925 398.638 18.3614C399.32 18.3302 399.785 18.2224 400.192 18.0641C400.613 17.9006 400.97 17.6814 401.325 17.3254C401.681 16.9697 401.9 16.6126 402.064 16.1918C402.221 15.7847 402.329 15.3195 402.361 14.6385C402.392 13.9558 402.4 13.7382 402.4 12C402.4 10.2619 402.392 10.0438 402.361 9.36108C402.329 8.67974 402.221 8.21467 402.064 7.80773C401.9 7.38679 401.681 7.02972 401.325 6.67399C400.969 6.31798 400.613 6.09931 400.192 5.93598C399.784 5.77771 399.319 5.66984 398.637 5.63864C397.955 5.60758 397.737 5.59998 395.999 5.59998H396.001ZM395.427 6.75336C395.597 6.75309 395.787 6.75336 396.001 6.75336C397.71 6.75336 397.912 6.75949 398.587 6.79016C399.211 6.81869 399.55 6.92296 399.775 7.01056C400.074 7.12656 400.287 7.26523 400.511 7.48923C400.735 7.71323 400.874 7.92657 400.99 8.22524C401.077 8.45058 401.182 8.78925 401.21 9.41325C401.241 10.0879 401.248 10.2906 401.248 11.9986C401.248 13.7066 401.241 13.9093 401.21 14.584C401.182 15.208 401.077 15.5466 400.99 15.772C400.874 16.0707 400.735 16.2833 400.511 16.5072C400.287 16.7312 400.074 16.8699 399.775 16.9859C399.55 17.0739 399.211 17.1779 398.587 17.2064C397.912 17.2371 397.71 17.2437 396.001 17.2437C394.292 17.2437 394.09 17.2371 393.415 17.2064C392.791 17.1776 392.452 17.0733 392.226 16.9857C391.928 16.8697 391.714 16.7311 391.49 16.5071C391.266 16.2831 391.128 16.0703 391.011 15.7715C390.924 15.5461 390.819 15.2074 390.791 14.5834C390.76 13.9088 390.754 13.7061 390.754 11.997C390.754 10.2879 390.76 10.0863 390.791 9.41165C390.82 8.78765 390.924 8.44898 391.011 8.22337C391.127 7.9247 391.266 7.71137 391.49 7.48737C391.714 7.26336 391.928 7.1247 392.226 7.00843C392.452 6.92043 392.791 6.81643 393.415 6.78776C394.005 6.76109 394.234 6.75309 395.427 6.75176V6.75336ZM399.417 7.81604C398.993 7.81604 398.649 8.15964 398.649 8.58378C398.649 9.00778 398.993 9.35179 399.417 9.35179C399.841 9.35179 400.185 9.00778 400.185 8.58378C400.185 8.15978 399.841 7.81577 399.417 7.81577V7.81604ZM396.001 8.71338C394.186 8.71338 392.714 10.185 392.714 12.0001C392.714 13.8152 394.186 15.2861 396.001 15.2861C397.816 15.2861 399.287 13.8152 399.287 12.0001C399.287 10.185 397.816 8.71338 396.001 8.71338H396.001ZM396.001 9.8667C397.179 9.8667 398.134 10.8218 398.134 12.0001C398.134 13.1782 397.179 14.1334 396.001 14.1334C394.823 14.1334 393.868 13.1782 393.868 12.0001C393.868 10.8218 394.823 9.8667 396.001 9.8667Z" fill="white"/>
</g>
<path fill-rule="evenodd" clip-rule="evenodd" d="M416 12C416 5.37258 421.373 0 428 0C434.627 0 440 5.37258 440 12C440 18.6274 434.627 24 428 24C421.373 24 416 18.6274 416 12Z" fill="#55ACEE"/>
<path fill-rule="evenodd" clip-rule="evenodd" d="M427.641 9.75376L427.666 10.169L427.246 10.1181C425.718 9.92324 424.384 9.26227 423.251 8.15217L422.697 7.60136L422.554 8.00811C422.252 8.91483 422.445 9.8724 423.074 10.5164C423.41 10.8723 423.335 10.9232 422.755 10.7113C422.554 10.6435 422.378 10.5927 422.361 10.6181C422.302 10.6774 422.504 11.4486 422.663 11.7536C422.881 12.1773 423.326 12.5926 423.813 12.8383L424.224 13.0332L423.738 13.0417C423.267 13.0417 423.251 13.0502 423.301 13.2281C423.469 13.7789 424.132 14.3636 424.871 14.6179L425.391 14.7958L424.938 15.067C424.266 15.4568 423.477 15.6771 422.688 15.6941C422.311 15.7025 422 15.7364 422 15.7618C422 15.8466 423.024 16.3211 423.62 16.5076C425.408 17.0584 427.531 16.8211 429.126 15.8805C430.259 15.211 431.393 13.8806 431.921 12.5926C432.207 11.9062 432.492 10.652 432.492 10.0504C432.492 9.66055 432.517 9.6097 432.987 9.14363C433.264 8.87246 433.525 8.57587 433.575 8.49113C433.659 8.33013 433.651 8.33013 433.222 8.47419C432.509 8.72841 432.408 8.69451 432.761 8.31318C433.021 8.04201 433.332 7.55052 433.332 7.40646C433.332 7.38104 433.206 7.42341 433.063 7.49967C432.912 7.58441 432.576 7.71152 432.324 7.78779L431.871 7.93185L431.46 7.65221C431.233 7.49967 430.914 7.33019 430.746 7.27935C430.318 7.16071 429.663 7.17766 429.277 7.31324C428.228 7.69458 427.565 8.67756 427.641 9.75376Z" fill="white"/>
<path fill-rule="evenodd" clip-rule="evenodd" d="M288 12C288 5.37258 293.373 0 300 0C306.627 0 312 5.37258 312 12C312 18.6274 306.627 24 300 24C293.373 24 288 18.6274 288 12Z" fill="#3B5998"/>
<path fill-rule="evenodd" clip-rule="evenodd" d="M301.251 19.0557V12.5271H303.053L303.292 10.2773H301.251L301.254 9.15125C301.254 8.56447 301.31 8.25006 302.152 8.25006H303.279V6H301.477C299.312 6 298.55 7.0914 298.55 8.92678V10.2776H297.2V12.5274H298.55V19.0557H301.251Z" fill="white"/>
<path fill-rule="evenodd" clip-rule="evenodd" d="M320 12C320 5.37258 325.373 0 332 0C338.627 0 344 5.37258 344 12C344 18.6274 338.627 24 332 24C325.373 24 320 18.6274 320 12Z" fill="#4C6C91"/>
<path fill-rule="evenodd" clip-rule="evenodd" d="M332.628 15.938C332.628 15.938 332.859 15.9128 332.977 15.7881C333.085 15.6738 333.082 15.4581 333.082 15.4581C333.082 15.4581 333.067 14.4509 333.544 14.3022C334.013 14.1559 334.616 15.2762 335.256 15.707C335.739 16.0327 336.106 15.9614 336.106 15.9614L337.816 15.938C337.816 15.938 338.71 15.8839 338.286 15.1938C338.251 15.1373 338.039 14.6832 337.015 13.7503C335.943 12.7738 336.087 12.9318 337.378 11.2424C338.164 10.2137 338.478 9.58566 338.38 9.31711C338.287 9.06024 337.708 9.12845 337.708 9.12845L335.784 9.14013C335.784 9.14013 335.641 9.12108 335.535 9.18315C335.432 9.24398 335.365 9.38594 335.365 9.38594C335.365 9.38594 335.061 10.1818 334.654 10.859C333.797 12.2871 333.455 12.3627 333.314 12.2742C332.988 12.0671 333.07 11.4434 333.07 11.0003C333.07 9.61577 333.284 9.03873 332.653 8.8894C332.444 8.83963 332.29 8.80706 331.755 8.80153C331.068 8.79477 330.487 8.80398 330.158 8.96192C329.939 9.067 329.77 9.30175 329.873 9.31527C330 9.33186 330.288 9.39147 330.441 9.59549C330.638 9.85913 330.631 10.4503 330.631 10.4503C330.631 10.4503 330.745 12.08 330.366 12.2822C330.107 12.4211 329.752 12.1378 328.987 10.8418C328.596 10.1781 328.3 9.44432 328.3 9.44432C328.3 9.44432 328.243 9.30728 328.141 9.23354C328.018 9.14443 327.846 9.11678 327.846 9.11678L326.017 9.12845C326.017 9.12845 325.742 9.13583 325.642 9.2532C325.552 9.35706 325.635 9.57276 325.635 9.57276C325.635 9.57276 327.067 12.8611 328.688 14.5185C330.175 16.0376 331.863 15.938 331.863 15.938H332.628Z" fill="white"/>
<path fill-rule="evenodd" clip-rule="evenodd" d="M352 12C352 5.37258 357.373 0 364 0C370.627 0 376 5.37258 376 12C376 18.6274 370.627 24 364 24C357.373 24 352 18.6274 352 12Z" fill="#F68634"/>
<path fill-rule="evenodd" clip-rule="evenodd" d="M365.32 9.0968C365.32 8.38977 364.724 7.81484 363.991 7.81484C363.259 7.81484 362.663 8.38977 362.663 9.0968C362.663 9.80328 363.259 10.3786 363.991 10.3786C364.724 10.3786 365.32 9.80328 365.32 9.0968ZM367.2 9.09679C367.2 10.804 365.761 12.1927 363.992 12.1927C362.222 12.1927 360.784 10.804 360.784 9.09679C360.784 7.38905 362.222 6 363.992 6C365.761 6 367.2 7.38905 367.2 9.09679ZM367.16 13.9755C366.58 14.3272 365.951 14.5766 365.298 14.7201L367.091 16.4514C367.458 16.8053 367.458 17.38 367.091 17.7343C366.724 18.0886 366.129 18.0886 365.762 17.7343L363.999 16.0331L362.238 17.7343C362.054 17.9112 361.813 17.9998 361.573 17.9998C361.332 17.9998 361.092 17.9112 360.908 17.7343C360.541 17.38 360.541 16.8057 360.908 16.4514L362.701 14.7201C362.048 14.5766 361.419 14.3268 360.839 13.9755C360.4 13.7083 360.268 13.1486 360.544 12.7245C360.82 12.2998 361.4 12.172 361.84 12.4392C363.153 13.2366 364.845 13.2368 366.159 12.4392C366.599 12.172 367.179 12.2998 367.455 12.7245C367.732 13.1482 367.599 13.7083 367.16 13.9755Z" fill="white"/>
<path fill-rule="evenodd" clip-rule="evenodd" d="M172 24C178.627 24 184 18.6274 184 12C184 5.37258 178.627 0 172 0C165.373 0 160 5.37258 160 12C160 18.6274 165.373 24 172 24Z" fill="#168DE2"/>
<path fill-rule="evenodd" clip-rule="evenodd" d="M174.003 11.947C173.937 10.6644 172.985 9.8932 171.836 9.8932H171.792C170.466 9.8932 169.73 10.9365 169.73 12.1216C169.73 13.4488 170.62 14.2869 171.787 14.2869C173.089 14.2869 173.944 13.3337 174.006 12.2062L174.003 11.947ZM171.799 8.74576C172.685 8.74576 173.519 9.13753 174.131 9.75096V9.7534C174.131 9.45873 174.329 9.23677 174.604 9.23677L174.674 9.23631C175.104 9.23631 175.193 9.64379 175.193 9.77276L175.195 14.3527C175.165 14.6523 175.504 14.807 175.693 14.6149C176.428 13.8591 177.308 10.7298 175.236 8.91649C173.304 7.22606 170.713 7.50473 169.335 8.45459C167.869 9.46513 166.932 11.7013 167.843 13.8016C168.835 16.0931 171.676 16.7761 173.364 16.0948C174.219 15.7497 174.614 16.9055 173.726 17.283C172.385 17.8548 168.651 17.7971 166.906 14.7754C165.728 12.735 165.79 9.14485 168.916 7.28491C171.307 5.86217 174.46 6.25623 176.361 8.24163C178.348 10.317 178.232 14.2032 176.294 15.7149C175.416 16.4011 174.111 15.7329 174.12 14.7326L174.111 14.4055C173.499 15.0123 172.685 15.3663 171.799 15.3663C170.047 15.3663 168.506 13.825 168.506 12.0739C168.506 10.3048 170.047 8.74576 171.799 8.74576Z" fill="#FFA930"/>
<path fill-rule="evenodd" clip-rule="evenodd" d="M140 24C146.627 24 152 18.6274 152 12C152 5.37258 146.627 0 140 0C133.373 0 128 5.37258 128 12C128 18.6274 133.373 24 140 24Z" fill="#393C40"/>
<rect x="131" y="3.00043" width="17.9991" height="17.9991" rx="8.99956" fill="white"/>
<path d="M133.924 3.42944C135.867 2.91642 137.896 3.03643 139.888 3.00043C139.772 4.883 139.888 6.82408 139.26 8.63315C139.016 9.31806 138.605 9.93129 138.065 10.4174C137.524 10.9035 136.871 11.2471 136.165 11.4173C134.478 11.8193 132.73 11.8508 131.001 11.8643C131.056 9.76419 130.906 7.58911 131.566 5.56403C131.9 4.47649 132.846 3.69345 133.924 3.42944ZM140.145 3.00043C142.214 3.03793 144.342 2.89392 146.357 3.51495C146.865 3.6667 147.326 3.94338 147.699 4.31969C148.072 4.696 148.345 5.15992 148.493 5.66903C149.093 7.67161 148.976 9.79719 149 11.8643C147.273 11.8523 145.522 11.8223 143.838 11.4143C143.113 11.2366 142.445 10.8771 141.897 10.3695C141.349 9.86197 140.939 9.22311 140.705 8.51314C140.145 6.73107 140.241 4.844 140.145 3.00043ZM131.001 12.1343C132.538 12.1248 134.075 12.2352 135.595 12.4643C137.094 12.6938 138.544 13.6148 139.136 15.0504C139.923 16.9315 139.727 19.0136 139.885 20.9996C138.087 20.9801 136.274 21.0416 134.499 20.7131C133.49 20.5196 132.422 20.0771 131.891 19.1426C131.213 17.929 131.137 16.501 131.058 15.1344C131.046 14.1339 130.983 13.1348 131.005 12.1343H131.001ZM144.092 12.5288C145.703 12.2063 147.355 12.1538 148.995 12.1373C148.971 14.2044 149.096 16.33 148.489 18.3325C148.34 18.8397 148.067 19.3019 147.695 19.6774C147.323 20.0529 146.864 20.3299 146.358 20.4836C144.347 21.1031 142.208 20.9621 140.13 20.9951C140.226 19.1126 140.13 17.1715 140.744 15.3624C141.242 13.8969 142.588 12.8198 144.092 12.5288Z" fill="#393C40"/>
<path fill-rule="evenodd" clip-rule="evenodd" d="M108 24C114.627 24 120 18.6274 120 12C120 5.37258 114.627 0 108 0C101.373 0 96 5.37258 96 12C96 18.6274 101.373 24 108 24Z" fill="#CA2128"/>
<circle cx="108" cy="10.6425" r="9" fill="white"/>
<path d="M105.307 19.7519C105.38 19.6303 105.448 19.5216 105.513 19.4095C105.812 18.8945 106.079 18.3623 106.24 17.7876C106.375 17.3059 106.494 16.8206 106.619 16.3364C106.718 15.9477 106.816 15.5583 106.915 15.1692C106.919 15.1552 106.924 15.1413 106.93 15.1216C106.975 15.1872 107.014 15.2496 107.058 15.3074C107.256 15.5659 107.509 15.7588 107.792 15.9148C108.158 16.1146 108.56 16.2381 108.974 16.278C109.202 16.2974 109.43 16.296 109.657 16.2736C110.024 16.2438 110.387 16.1695 110.736 16.0524C111.191 15.8991 111.618 15.6733 112.001 15.3839C112.607 14.9283 113.077 14.3576 113.445 13.6985C113.8 13.061 114.051 12.3716 114.191 11.6558C114.253 11.3442 114.3 11.0297 114.331 10.7134C114.364 10.3801 114.38 10.0454 114.379 9.71055C114.375 9.02107 114.224 8.36029 113.946 7.72841C113.714 7.19841 113.396 6.7096 113.007 6.28097C112.597 5.82814 112.115 5.44491 111.582 5.14622C111.047 4.84561 110.47 4.62642 109.871 4.49591C109.581 4.43284 109.288 4.38828 108.993 4.3625C108.62 4.33002 108.246 4.32463 107.873 4.34637C107.375 4.37206 106.88 4.44372 106.395 4.56042C105.591 4.75604 104.843 5.07669 104.16 5.54479C103.665 5.88441 103.222 6.29569 102.847 6.7652C102.348 7.38518 101.979 8.10005 101.764 8.86651C101.656 9.24833 101.592 9.64142 101.574 10.0379C101.547 10.6635 101.612 11.278 101.796 11.8778C101.939 12.3436 102.154 12.7719 102.473 13.1445C102.75 13.4739 103.104 13.7307 103.503 13.8927C103.57 13.9205 103.641 13.9331 103.713 13.9295C103.871 13.9169 103.954 13.8087 103.992 13.6658C104.046 13.4673 104.095 13.2679 104.144 13.0679C104.171 12.9592 104.196 12.8501 104.216 12.7401C104.222 12.6985 104.22 12.656 104.21 12.6152C104.199 12.5745 104.18 12.5363 104.154 12.5032C104.074 12.3939 103.987 12.2896 103.908 12.1792C103.672 11.8489 103.534 11.4789 103.469 11.0795C103.42 10.7596 103.411 10.4348 103.442 10.1127C103.517 9.23638 103.808 8.43925 104.339 7.73574C104.874 7.02783 105.567 6.53397 106.403 6.23804C106.743 6.11872 107.095 6.03779 107.453 5.99676C107.854 5.94923 108.26 5.94544 108.662 5.98545C109.254 6.0443 109.821 6.19259 110.343 6.48643C110.927 6.8142 111.372 7.27393 111.671 7.87292C111.853 8.24307 111.971 8.64144 112.019 9.05102C112.06 9.38722 112.066 9.72661 112.038 10.0641C112.016 10.3676 111.991 10.6715 111.945 10.9724C111.819 11.7844 111.582 12.5602 111.15 13.2668C110.931 13.6256 110.666 13.9452 110.327 14.1991C110.048 14.4085 109.74 14.5541 109.395 14.6121C108.9 14.6959 108.439 14.6198 108.037 14.3032C107.736 14.0667 107.563 13.7544 107.513 13.3745C107.479 13.1217 107.52 12.8771 107.591 12.636C107.762 12.0485 107.937 11.4617 108.11 10.8744C108.211 10.5326 108.303 10.1885 108.354 9.83517C108.399 9.52101 108.401 9.2081 108.307 8.90023C108.137 8.34354 107.711 8.02561 107.127 8.0189C106.657 8.01346 106.274 8.20593 105.955 8.53894C105.637 8.87195 105.454 9.27198 105.351 9.71181C105.253 10.1288 105.244 10.5496 105.297 10.9743C105.336 11.3093 105.422 11.6373 105.55 11.949C105.56 11.9752 105.562 12.0037 105.556 12.0309C105.271 13.2419 104.984 14.4527 104.697 15.6633C104.57 16.2003 104.439 16.7364 104.321 17.2759C104.269 17.5139 104.241 17.7577 104.212 17.9996C104.164 18.3962 104.168 18.7954 104.172 19.1934C104.172 19.2367 104.172 19.2801 104.172 19.3333C102.742 18.6964 101.528 17.7776 100.563 16.5477C98.8939 14.4204 98.2508 12.0031 98.5854 9.32288C99.3832 3.73627 104.796 0.065626 110.284 1.42699C115.711 2.7718 118.816 8.4537 116.962 13.7955C116.012 16.3676 114.294 18.2356 111.786 19.3442C109.69 20.2709 107.522 20.3685 105.307 19.7519Z" fill="#CA2128"/>
<path fill-rule="evenodd" clip-rule="evenodd" d="M76 24C82.6274 24 88 18.6274 88 12C88 5.37258 82.6274 0 76 0C69.3726 0 64 5.37258 64 12C64 18.6274 69.3726 24 76 24Z" fill="#222222"/>
<path d="M81.4941 8.75502C80.7785 8.75502 80.1182 8.50886 79.5879 8.09359C78.9798 7.61754 78.5429 6.91924 78.3886 6.11439C78.3504 5.91552 78.3298 5.7103 78.3279 5.5H76.2836V11.3L76.2811 14.477C76.2811 15.3264 75.7484 16.0465 75.01 16.2998C74.7957 16.3733 74.5643 16.4081 74.3233 16.3944C74.0157 16.3769 73.7274 16.2805 73.4769 16.1249C72.9437 15.7938 72.5822 15.1931 72.5724 14.506C72.557 13.4321 73.3931 12.5565 74.4266 12.5565C74.6306 12.5565 74.8266 12.5911 75.01 12.6539V11.0686V10.4987C74.8165 10.469 74.6196 10.4535 74.4205 10.4535C73.2893 10.4535 72.2312 10.9417 71.4749 11.8214C70.9033 12.4861 70.5604 13.3342 70.5075 14.2235C70.4382 15.3917 70.8499 16.5022 71.6483 17.3216C71.7656 17.4419 71.8888 17.5535 72.0177 17.6565C72.7022 18.2035 73.5391 18.5 74.4205 18.5C74.6196 18.5 74.8165 18.4847 75.01 18.455C75.8334 18.3283 76.5931 17.937 77.1927 17.3216C77.9294 16.5656 78.3364 15.5618 78.3408 14.4935L78.3303 9.74933C78.6818 10.0308 79.066 10.2638 79.4785 10.4446C80.1199 10.7256 80.8 10.868 81.5 10.8677V9.32643V8.75451C81.5005 8.75502 81.4946 8.75502 81.4941 8.75502Z" fill="white"/>
<path fill-rule="evenodd" clip-rule="evenodd" d="M44 24C50.6274 24 56 18.6274 56 12C56 5.37258 50.6274 0 44 0C37.3726 0 32 5.37258 32 12C32 18.6274 37.3726 24 44 24Z" fill="#FFFD01"/>
<path d="M50.7256 14.8013C48.8538 14.4933 48.0103 12.5761 47.9762 12.4947C47.9736 12.4895 47.9718 12.4842 47.9683 12.479C47.8729 12.2847 47.8502 12.1246 47.9027 12.003C48.0051 11.7632 48.3971 11.6389 48.6561 11.5567C48.7313 11.5331 48.8022 11.5103 48.8608 11.4876C49.1164 11.3869 49.2984 11.2775 49.4191 11.1542C49.5626 11.0063 49.5906 10.8645 49.5889 10.7726C49.5845 10.5486 49.413 10.3491 49.1391 10.252C49.0472 10.2144 48.9413 10.1942 48.8346 10.1942C48.762 10.1942 48.6535 10.2039 48.5511 10.252C48.3323 10.3544 48.1363 10.4104 47.9674 10.4183C47.8782 10.4139 47.8152 10.3946 47.774 10.3762C47.7793 10.2887 47.7845 10.1986 47.7907 10.1059L47.7933 10.0656C47.8537 9.11794 47.9281 7.93926 47.6148 7.23923C47.4004 6.75971 47.1125 6.34756 46.7581 6.0133C46.4615 5.73328 46.1167 5.50577 45.7335 5.33777C45.0675 5.04375 44.4463 5 44.1348 5C44.1225 5 44.1103 5 44.0998 5C44.0131 5.00088 43.8722 5.00263 43.8591 5.00263C43.5485 5.00263 42.9263 5.04638 42.2587 5.34039C41.8763 5.5084 41.5333 5.73503 41.2375 6.01505C40.8849 6.34931 40.5978 6.76058 40.3843 7.23835C40.0711 7.93751 40.1454 9.11619 40.2049 10.063V10.0647C40.2111 10.1662 40.2181 10.2721 40.2242 10.3754C40.1787 10.3955 40.1043 10.4183 39.9949 10.4183C39.8182 10.4183 39.6082 10.3622 39.371 10.2511C39.301 10.2187 39.2214 10.2021 39.1339 10.2021C38.993 10.2021 38.8434 10.2432 38.7148 10.3194C38.552 10.4148 38.447 10.5486 38.4181 10.6983C38.3997 10.7963 38.4006 10.9914 38.6176 11.1892C38.7375 11.2977 38.9125 11.3983 39.1391 11.4876C39.1986 11.5112 39.2695 11.5331 39.3439 11.5567C39.6029 11.6389 39.9958 11.7632 40.0982 12.003C40.1498 12.1246 40.1271 12.2847 40.0317 12.479C40.0291 12.4842 40.0264 12.4895 40.0247 12.4947C40.0002 12.5507 39.7771 13.0539 39.3194 13.585C39.0595 13.8869 38.7734 14.1398 38.4689 14.3358C38.097 14.5756 37.6953 14.7313 37.2744 14.8005C37.1091 14.8276 36.9909 14.9746 37.0005 15.1417C37.0032 15.1898 37.0145 15.238 37.0347 15.2844C37.1021 15.441 37.2569 15.574 37.5089 15.6904C37.817 15.833 38.2772 15.9529 38.8784 16.0465C38.909 16.1043 38.9405 16.2486 38.9624 16.3475C38.9851 16.4525 39.0088 16.561 39.0429 16.6757C39.0796 16.7999 39.1741 16.9487 39.4183 16.9487C39.511 16.9487 39.6169 16.9277 39.7403 16.9041C39.9206 16.8691 40.1673 16.8209 40.4745 16.8209C40.6451 16.8209 40.8218 16.8358 40.9995 16.8656C41.3425 16.9224 41.6383 17.1307 41.9804 17.3722C42.4809 17.7257 43.048 18.1256 43.9142 18.1256C43.9379 18.1256 43.9615 18.1247 43.9851 18.123C44.0131 18.1247 44.049 18.1256 44.0858 18.1256C44.952 18.1256 45.5191 17.7257 46.0196 17.3731L46.0205 17.3722C46.3626 17.1316 46.6584 16.9233 47.0014 16.8664C47.179 16.8367 47.3558 16.8218 47.5264 16.8218C47.8204 16.8218 48.0532 16.8594 48.2606 16.8997C48.3962 16.9259 48.5012 16.9391 48.5826 16.9391H48.5905H48.5983C48.7768 16.9391 48.9081 16.841 48.958 16.6704C48.9912 16.5575 49.0149 16.4525 49.0385 16.3449C49.0586 16.2521 49.0919 16.1034 49.1216 16.0456C49.7228 15.9511 50.183 15.8321 50.491 15.6895C50.7422 15.5731 50.8971 15.441 50.9644 15.2852C50.9846 15.2389 50.9968 15.1907 50.9994 15.1408C51.0091 14.9755 50.8909 14.8276 50.7256 14.8013Z" fill="white" stroke="black" stroke-width="0.3"/>
<path fill-rule="evenodd" clip-rule="evenodd" d="M448 12C448 5.37258 453.373 0 460 0C466.627 0 472 5.37258 472 12C472 18.6274 466.627 24 460 24C453.373 24 448 18.6274 448 12Z" fill="#FF0000"/>
<path fill-rule="evenodd" clip-rule="evenodd" d="M466.132 9.03659C465.985 8.47108 465.552 8.02577 465.001 7.87464C464.003 7.59998 460 7.59998 460 7.59998C460 7.59998 455.997 7.59998 454.999 7.87464C454.448 8.02577 454.015 8.47108 453.867 9.03659C453.6 10.0615 453.6 12.2 453.6 12.2C453.6 12.2 453.6 14.3384 453.867 15.3634C454.015 15.9289 454.448 16.3742 454.999 16.5254C455.997 16.8 460 16.8 460 16.8C460 16.8 464.003 16.8 465.001 16.5254C465.552 16.3742 465.985 15.9289 466.132 15.3634C466.4 14.3384 466.4 12.2 466.4 12.2C466.4 12.2 466.4 10.0615 466.132 9.03659Z" fill="white"/>
<path fill-rule="evenodd" clip-rule="evenodd" d="M458.8 14.4V10.4L462 12.4001L458.8 14.4Z" fill="#FF0000"/>
<path fill-rule="evenodd" clip-rule="evenodd" d="M12 24C18.6274 24 24 18.6274 24 12C24 5.37258 18.6274 0 12 0C5.37258 0 0 5.37258 0 12C0 18.6274 5.37258 24 12 24Z" fill="#1060A6"/>
<path d="M17.997 18V17.9995H18V13.5985C18 11.4455 17.5365 9.78699 15.0195 9.78699C13.8095 9.78699 12.9975 10.451 12.666 11.0805H12.631V9.98799H10.2445V17.9995H12.7295V14.0325C12.7295 12.988 12.9275 11.978 14.221 11.978C15.4955 11.978 15.5145 13.17 15.5145 14.0995V18H17.997Z" fill="white"/>
<path d="M6.198 9.98846H8.686V18H6.198V9.98846Z" fill="white"/>
<path d="M7.441 6C6.6455 6 6 6.6455 6 7.441C6 8.2365 6.6455 8.8955 7.441 8.8955C8.2365 8.8955 8.882 8.2365 8.882 7.441C8.8815 6.6455 8.236 6 7.441 6V6Z" fill="white"/>
<defs>
<linearGradient id="paint0_linear" x1="201.001" y1="1.0008" x2="195.001" y2="15" gradientUnits="userSpaceOnUse">
<stop stop-color="#37AEE2"/>
<stop offset="1" stop-color="#1E96C8"/>
</linearGradient>
<linearGradient id="paint1_linear" x1="202.498" y1="12.7371" x2="203.78" y2="16.8846" gradientUnits="userSpaceOnUse">
<stop stop-color="#EFF7FC"/>
<stop offset="1" stop-color="white"/>
</linearGradient>
<linearGradient id="paint2_linear" x1="396" y1="22.2064" x2="396" y2="-1.7936" gradientUnits="userSpaceOnUse">
<stop stop-color="#FFDC7F"/>
<stop offset="0.07" stop-color="#FDBC68"/>
<stop offset="0.26" stop-color="#F76D30"/>
<stop offset="0.31" stop-color="#EA6145"/>
<stop offset="0.42" stop-color="#D14970"/>
<stop offset="0.51" stop-color="#C23A8A"/>
<stop offset="0.56" stop-color="#BC3494"/>
<stop offset="0.61" stop-color="#A33FA2"/>
<stop offset="0.67" stop-color="#884BB2"/>
<stop offset="0.73" stop-color="#7752BC"/>
<stop offset="0.77" stop-color="#7155BF"/>
<stop offset="0.83" stop-color="#655AC6"/>
<stop offset="0.91" stop-color="#595FCD"/>
<stop offset="1" stop-color="#5561CF"/>
</linearGradient>
</defs>
</svg>