<svg width="472" height="24" viewBox="0 0 472 24" fill="none" xmlns="http://www.w3.org/2000/svg">
<path fill-rule="evenodd" clip-rule="evenodd" d="M204 24C210.627 24 216 18.6274 216 12C216 5.37258 210.627 0 204 0C197.373 0 192 5.37258 192 12C192 18.6274 197.373 24 204 24ZM201.799 17.5C202.091 17.5 202.224 17.3701 202.385 17.2132L202.399 17.2L203.841 15.7979L206.84 18.014C207.392 18.3185 207.791 18.1608 207.928 17.5016L209.897 8.22534C210.098 7.41732 209.589 7.05084 209.061 7.29052L197.502 11.7476C196.713 12.0641 196.717 12.5043 197.358 12.7004L200.324 13.6262L207.191 9.29375C207.516 9.09716 207.813 9.20285 207.569 9.41959L202.004 14.4411L202.007 14.4433L202.003 14.4407L201.799 17.5Z" fill="#B0B0B0"/>
<path fill-rule="evenodd" clip-rule="evenodd" d="M396 0C389.373 0 384 5.37258 384 12C384 18.6274 389.373 24 396 24C402.627 24 408 18.6274 408 12C408 5.37258 402.627 0 396 0ZM393.361 5.63845C394.044 5.60738 394.262 5.59978 396 5.59978H395.998C397.737 5.59978 397.954 5.60738 398.637 5.63845C399.318 5.66965 399.783 5.77751 400.192 5.93578C400.613 6.09912 400.969 6.31779 401.325 6.67379C401.681 7.02953 401.9 7.3866 402.064 7.80754C402.221 8.21447 402.329 8.67954 402.361 9.36088C402.392 10.0436 402.4 10.2617 402.4 11.9998C402.4 13.738 402.392 13.9556 402.361 14.6383C402.329 15.3193 402.221 15.7846 402.064 16.1916C401.9 16.6124 401.681 16.9695 401.325 17.3252C400.969 17.6812 400.613 17.9004 400.192 18.0639C399.785 18.2222 399.319 18.33 398.638 18.3612C397.955 18.3923 397.738 18.3999 395.999 18.3999C394.261 18.3999 394.043 18.3923 393.361 18.3612C392.679 18.33 392.214 18.2222 391.807 18.0639C391.386 17.9004 391.029 17.6812 390.674 17.3252C390.318 16.9695 390.099 16.6124 389.936 16.1915C389.777 15.7846 389.67 15.3195 389.638 14.6381C389.607 13.9555 389.6 13.738 389.6 11.9998C389.6 10.2617 389.608 10.0434 389.638 9.36075C389.669 8.67968 389.777 8.21447 389.935 7.8074C390.099 7.3866 390.318 7.02953 390.674 6.67379C391.03 6.31792 391.387 6.09925 391.808 5.93578C392.215 5.77751 392.68 5.66965 393.361 5.63845Z" fill="#B0B0B0"/>
<path fill-rule="evenodd" clip-rule="evenodd" d="M395.426 6.75352C395.537 6.75335 395.657 6.7534 395.786 6.75346L396 6.75352C397.709 6.75352 397.911 6.75966 398.586 6.79032C399.21 6.81886 399.549 6.92312 399.774 7.01073C400.073 7.12673 400.286 7.26539 400.51 7.4894C400.734 7.7134 400.872 7.92673 400.989 8.2254C401.076 8.45074 401.181 8.78941 401.209 9.41342C401.24 10.0881 401.246 10.2908 401.246 11.9988C401.246 13.7068 401.24 13.9095 401.209 14.5841C401.18 15.2081 401.076 15.5468 400.989 15.7721C400.873 16.0708 400.734 16.2835 400.51 16.5074C400.286 16.7314 400.073 16.87 399.774 16.986C399.549 17.074 399.21 17.178 398.586 17.2066C397.911 17.2372 397.709 17.2439 396 17.2439C394.291 17.2439 394.088 17.2372 393.414 17.2066C392.79 17.1778 392.451 17.0735 392.225 16.9859C391.927 16.8699 391.713 16.7312 391.489 16.5072C391.265 16.2832 391.127 16.0704 391.01 15.7716C390.923 15.5463 390.818 15.2076 390.79 14.5836C390.759 13.9089 390.753 13.7063 390.753 11.9972C390.753 10.2881 390.759 10.0865 390.79 9.41182C390.818 8.78781 390.923 8.44914 391.01 8.22354C391.126 7.92487 391.265 7.71153 391.489 7.48753C391.713 7.26353 391.927 7.12486 392.225 7.00859C392.451 6.92059 392.79 6.81659 393.414 6.78792C394.004 6.76126 394.233 6.75326 395.426 6.75192V6.75352ZM399.417 7.81613C398.993 7.81613 398.649 8.15974 398.649 8.58387C398.649 9.00788 398.993 9.35188 399.417 9.35188C399.841 9.35188 400.185 9.00788 400.185 8.58387C400.185 8.15987 399.841 7.81587 399.417 7.81587V7.81613ZM392.715 11.9999C392.715 10.1849 394.186 8.71331 396.001 8.71324C397.816 8.71324 399.288 10.1849 399.288 11.9999C399.288 13.815 397.817 15.286 396.001 15.286C394.186 15.286 392.715 13.815 392.715 11.9999Z" fill="#B0B0B0"/>
<path fill-rule="evenodd" clip-rule="evenodd" d="M396.001 9.86679C397.179 9.86679 398.134 10.8219 398.134 12.0001C398.134 13.1783 397.179 14.1335 396.001 14.1335C394.822 14.1335 393.867 13.1783 393.867 12.0001C393.867 10.8219 394.822 9.86679 396.001 9.86679V9.86679Z" fill="#B0B0B0"/>
<path fill-rule="evenodd" clip-rule="evenodd" d="M428 0C421.373 0 416 5.37258 416 12C416 18.6274 421.373 24 428 24C434.627 24 440 18.6274 440 12C440 5.37258 434.627 0 428 0ZM427.666 10.1691L427.641 9.7539C427.565 8.6777 428.228 7.69472 429.277 7.31339C429.663 7.1778 430.318 7.16085 430.746 7.27949C430.914 7.33033 431.233 7.49981 431.46 7.65235L431.871 7.93199L432.324 7.78793C432.576 7.71166 432.912 7.58455 433.063 7.49981C433.206 7.42355 433.332 7.38118 433.332 7.4066C433.332 7.55066 433.021 8.04215 432.761 8.31332C432.408 8.69465 432.509 8.72855 433.222 8.47433C433.651 8.33027 433.659 8.33027 433.575 8.49127C433.525 8.57601 433.264 8.8726 432.987 9.14377C432.517 9.60984 432.492 9.66069 432.492 10.0505C432.492 10.6521 432.207 11.9063 431.921 12.5927C431.393 13.8808 430.259 15.2112 429.126 15.8806C427.531 16.8212 425.408 17.0585 423.62 16.5077C423.024 16.3213 422 15.8467 422 15.762C422 15.7366 422.311 15.7027 422.688 15.6942C423.477 15.6772 424.266 15.4569 424.938 15.0671L425.391 14.7959L424.871 14.618C424.132 14.3638 423.469 13.7791 423.301 13.2283C423.251 13.0503 423.267 13.0418 423.738 13.0418L424.224 13.0333L423.813 12.8384C423.326 12.5927 422.881 12.1775 422.663 11.7538C422.504 11.4487 422.302 10.6776 422.361 10.6183C422.378 10.5928 422.554 10.6437 422.755 10.7115C423.335 10.9233 423.41 10.8725 423.074 10.5166C422.445 9.87254 422.252 8.91498 422.554 8.00826L422.697 7.6015L423.251 8.15231C424.384 9.26241 425.718 9.92338 427.246 10.1183L427.666 10.1691Z" fill="#B0B0B0"/>
<path fill-rule="evenodd" clip-rule="evenodd" d="M300 0C293.373 0 288 5.37258 288 12C288 18.6274 293.373 24 300 24C306.627 24 312 18.6274 312 12C312 5.37258 306.627 0 300 0ZM301.253 12.5271V19.0557H298.551V12.5274H297.202V10.2776H298.551V8.92678C298.551 7.0914 299.313 6 301.478 6H303.281V8.25006H302.154C301.311 8.25006 301.256 8.56447 301.256 9.15125L301.253 10.2773H303.294L303.055 12.5271H301.253Z" fill="#B0B0B0"/>
<path fill-rule="evenodd" clip-rule="evenodd" d="M332 0C325.373 0 320 5.37258 320 12C320 18.6274 325.373 24 332 24C338.627 24 344 18.6274 344 12C344 5.37258 338.627 0 332 0ZM332.977 15.7882C332.858 15.913 332.627 15.9382 332.627 15.9382H331.862C331.862 15.9382 330.174 16.0377 328.688 14.5186C327.066 12.8612 325.634 9.57291 325.634 9.57291C325.634 9.57291 325.552 9.35721 325.641 9.25336C325.742 9.13598 326.017 9.12861 326.017 9.12861L327.845 9.11693C327.845 9.11693 328.018 9.14459 328.141 9.23369C328.243 9.30744 328.3 9.44448 328.3 9.44448C328.3 9.44448 328.596 10.1782 328.987 10.8419C329.751 12.1379 330.107 12.4212 330.366 12.2824C330.744 12.0802 330.631 10.4505 330.631 10.4505C330.631 10.4505 330.638 9.85928 330.44 9.59565C330.288 9.39163 330 9.33202 329.873 9.31543C329.769 9.30191 329.938 9.06716 330.157 8.96207C330.487 8.80414 331.068 8.79492 331.755 8.80168C332.29 8.80721 332.444 8.83978 332.653 8.88956C333.138 9.00451 333.123 9.37291 333.09 10.168C333.081 10.4058 333.069 10.6817 333.069 11.0005C333.069 11.0721 333.067 11.1484 333.065 11.227C333.054 11.6343 333.041 12.1008 333.314 12.2744C333.454 12.3629 333.797 12.2873 334.654 10.8591C335.06 10.1819 335.364 9.3861 335.364 9.3861C335.364 9.3861 335.431 9.24414 335.535 9.1833C335.64 9.12124 335.783 9.14029 335.783 9.14029L337.708 9.12861C337.708 9.12861 338.286 9.0604 338.379 9.31727C338.478 9.58582 338.163 10.2139 337.377 11.2426C336.631 12.2187 336.268 12.5781 336.302 12.8959C336.326 13.1281 336.562 13.3382 337.015 13.7505C337.96 14.6119 338.213 15.0651 338.274 15.174C338.279 15.183 338.283 15.1897 338.285 15.194C338.709 15.8841 337.815 15.9382 337.815 15.9382L336.106 15.9615C336.106 15.9615 335.739 16.0328 335.255 15.7071C335.002 15.5367 334.755 15.2582 334.519 14.993C334.159 14.5881 333.827 14.2139 333.543 14.3023C333.067 14.451 333.081 15.4582 333.081 15.4582C333.081 15.4582 333.085 15.6739 332.977 15.7882Z" fill="#B0B0B0"/>
<path fill-rule="evenodd" clip-rule="evenodd" d="M352 12C352 5.37258 357.373 0 364 0C370.627 0 376 5.37258 376 12C376 18.6274 370.627 24 364 24C357.373 24 352 18.6274 352 12ZM363.993 12.1927C365.762 12.1927 367.201 10.804 367.201 9.09679C367.201 7.38905 365.762 6 363.993 6C362.224 6 360.785 7.38905 360.785 9.09679C360.785 10.804 362.224 12.1927 363.993 12.1927ZM367.16 13.9754C366.58 14.3271 365.95 14.5765 365.297 14.7201L367.09 16.4513C367.457 16.8052 367.457 17.38 367.09 17.7342C366.723 18.0885 366.128 18.0885 365.762 17.7342L363.998 16.033L362.237 17.7342C362.053 17.9112 361.812 17.9997 361.572 17.9997C361.331 17.9997 361.091 17.9112 360.907 17.7342C360.54 17.38 360.54 16.8056 360.907 16.4513L362.701 14.7201C362.048 14.5765 361.418 14.3267 360.838 13.9754C360.399 13.7082 360.267 13.1485 360.543 12.7244C360.819 12.2997 361.399 12.1719 361.839 12.4391C363.152 13.2365 364.844 13.2367 366.158 12.4391C366.598 12.1719 367.178 12.2997 367.454 12.7244C367.731 13.1481 367.599 13.7082 367.16 13.9754Z" fill="#B0B0B0"/>
<path fill-rule="evenodd" clip-rule="evenodd" d="M363.992 7.81464C364.725 7.81464 365.321 8.38956 365.321 9.0966C365.321 9.80308 364.725 10.3784 363.992 10.3784C363.26 10.3784 362.664 9.80308 362.664 9.0966C362.664 8.38956 363.26 7.81464 363.992 7.81464Z" fill="#B0B0B0"/>
<path fill-rule="evenodd" clip-rule="evenodd" d="M280 12C280 18.6274 274.627 24 268 24C261.373 24 256 18.6274 256 12C256 5.37258 261.373 0 268 0C274.627 0 280 5.37258 280 12ZM268.394 18.6764H268.397C272.331 18.6748 275.531 15.4743 275.532 11.5409C275.533 9.6343 274.791 7.84155 273.444 6.49284C272.097 5.14407 270.305 4.40096 268.397 4.40014C264.463 4.40014 261.262 7.60098 261.261 11.5353C261.26 12.7929 261.589 14.0204 262.213 15.1026L261.201 18.8001L264.984 17.8079C266.026 18.3764 267.199 18.676 268.394 18.6764Z" fill="#B0B0B0"/>
<path fill-rule="evenodd" clip-rule="evenodd" d="M265.376 16.6444L265.159 16.5159L262.914 17.1047L263.513 14.9161L263.372 14.6917C262.779 13.7475 262.465 12.6561 262.466 11.5354C262.467 8.26547 265.128 5.60513 268.399 5.60513C269.983 5.60568 271.472 6.22336 272.592 7.34441C273.712 8.46546 274.328 9.95552 274.327 11.5403C274.326 14.8105 271.666 17.4711 268.397 17.4711H268.394C267.33 17.4707 266.286 17.1848 265.376 16.6444ZM271.745 13.0772C271.869 13.1373 271.953 13.1779 271.989 13.2378C272.034 13.3121 272.034 13.6691 271.885 14.0856C271.737 14.5021 271.024 14.8822 270.682 14.9334C270.375 14.9793 269.986 14.9985 269.559 14.8627C269.3 14.7806 268.968 14.6709 268.542 14.4872C266.871 13.7654 265.741 12.1454 265.528 11.8392C265.513 11.8178 265.502 11.8028 265.497 11.795L265.495 11.7931C265.401 11.6672 264.769 10.8236 264.769 9.9506C264.769 9.12934 265.172 8.69887 265.358 8.50073C265.37 8.48715 265.382 8.47467 265.393 8.46322C265.556 8.28472 265.749 8.2401 265.868 8.2401C265.987 8.2401 266.106 8.24119 266.21 8.24641C266.223 8.24705 266.236 8.24698 266.25 8.2469C266.354 8.24629 266.483 8.24553 266.611 8.55247C266.66 8.6706 266.732 8.84572 266.808 9.03043C266.961 9.40393 267.131 9.8166 267.161 9.87632C267.205 9.96557 267.235 10.0697 267.175 10.1887C267.167 10.2065 267.158 10.2234 267.15 10.2395C267.106 10.3306 267.073 10.3976 266.997 10.4861C266.967 10.5209 266.937 10.5584 266.906 10.5959C266.844 10.6706 266.783 10.7453 266.73 10.7985C266.64 10.8874 266.548 10.9838 266.652 11.1623C266.756 11.3408 267.113 11.9247 267.643 12.3975C268.213 12.9057 268.708 13.1205 268.959 13.2293C269.008 13.2506 269.048 13.2678 269.077 13.2824C269.255 13.3717 269.359 13.3567 269.463 13.2378C269.567 13.1188 269.909 12.7171 270.028 12.5387C270.147 12.3603 270.266 12.39 270.429 12.4494C270.593 12.509 271.469 12.9403 271.648 13.0295C271.682 13.0469 271.715 13.0627 271.745 13.0772Z" fill="#B0B0B0"/>
<path fill-rule="evenodd" clip-rule="evenodd" d="M236 0C242.627 0 248 5.37258 248 12C248 18.6274 242.627 24 236 24C229.373 24 224 18.6274 224 12C224 5.37258 229.373 0 236 0ZM236.718 4.8882C237.534 4.99003 238.194 5.1866 238.917 5.53948C239.629 5.88764 240.084 6.21684 240.686 6.81601C241.251 7.38205 241.564 7.81074 241.896 8.47623C242.359 9.40463 242.622 10.5083 242.667 11.7232C242.684 12.1377 242.672 12.2301 242.577 12.3485C242.397 12.5782 242 12.5403 241.865 12.2822C241.823 12.1969 241.811 12.1235 241.796 11.7919C241.773 11.2827 241.737 10.9535 241.666 10.5604C241.386 9.01859 240.646 7.78704 239.465 6.90364C238.481 6.16474 237.463 5.80473 236.13 5.72658C235.679 5.70053 235.601 5.68397 235.499 5.6058C235.309 5.45659 235.3 5.10609 235.482 4.94268C235.594 4.84082 235.672 4.82662 236.059 4.83846C236.26 4.84556 236.557 4.86925 236.718 4.8882ZM231.297 5.14372C231.38 5.17213 231.508 5.23844 231.582 5.28581C232.032 5.58424 233.287 7.18758 233.698 7.9881C233.932 8.44517 234.011 8.78385 233.937 9.0349C233.861 9.30489 233.735 9.447 233.173 9.89935C232.948 10.0817 232.737 10.2688 232.704 10.3185C232.618 10.4417 232.549 10.6833 232.549 10.8538C232.552 11.2493 232.808 11.9669 233.145 12.5187C233.406 12.9474 233.873 13.4968 234.336 13.9184C234.879 14.4158 235.358 14.7544 235.899 15.0221C236.594 15.3678 237.018 15.4555 237.329 15.311C237.407 15.2755 237.49 15.2281 237.516 15.2068C237.54 15.1855 237.723 14.9629 237.922 14.7166C238.306 14.2334 238.394 14.1553 238.657 14.0653C238.992 13.9516 239.333 13.9824 239.677 14.1576C239.938 14.2926 240.507 14.6455 240.875 14.9013C241.359 15.24 242.393 16.0831 242.533 16.2513C242.78 16.5544 242.822 16.9428 242.656 17.3715C242.481 17.8238 241.798 18.6717 241.321 19.0341C240.889 19.3609 240.583 19.4864 240.18 19.5053C239.848 19.5219 239.71 19.4935 239.286 19.3182C235.956 17.947 233.297 15.9007 231.186 13.0895C230.083 11.6211 229.243 10.0983 228.669 8.51861C228.335 7.59734 228.318 7.19708 228.593 6.72578C228.712 6.52685 229.217 6.03422 229.585 5.75951C230.197 5.30477 230.479 5.13661 230.704 5.08926C230.858 5.05609 231.126 5.08214 231.297 5.14372ZM236.883 6.60518C238.323 6.81595 239.438 7.48384 240.168 8.56853C240.579 9.17956 240.835 9.89717 240.923 10.6669C240.953 10.9487 240.953 11.4626 240.92 11.5479C240.889 11.6284 240.79 11.7374 240.704 11.7824C240.612 11.8297 240.415 11.825 240.306 11.7682C240.123 11.6758 240.069 11.529 240.069 11.1311C240.069 10.5177 239.91 9.87112 239.635 9.36903C239.322 8.79589 238.866 8.32223 238.311 7.99301C237.834 7.70881 237.13 7.49804 236.487 7.44595C236.255 7.42698 236.127 7.37962 236.039 7.27779C235.904 7.12383 235.889 6.91542 236.003 6.74255C236.126 6.5507 236.316 6.51991 236.883 6.60518ZM237.387 8.39334C237.854 8.49282 238.212 8.67044 238.518 8.95701C238.912 9.32882 239.128 9.77881 239.222 10.4254C239.287 10.8469 239.26 11.0127 239.111 11.1501C238.971 11.278 238.713 11.2827 238.556 11.1619C238.442 11.0767 238.407 10.9867 238.38 10.7427C238.35 10.4183 238.293 10.1909 238.195 9.98012C237.987 9.53251 237.619 9.30041 236.998 9.22462C236.706 9.18909 236.618 9.15594 236.523 9.04464C236.35 8.83859 236.416 8.50465 236.656 8.38149C236.746 8.3365 236.784 8.33176 236.983 8.3436C237.107 8.35071 237.289 8.37201 237.387 8.39334Z" fill="#B0B0B0"/>
<path fill-rule="evenodd" clip-rule="evenodd" d="M184 12C184 18.6274 178.627 24 172 24C165.373 24 160 18.6274 160 12C160 5.37258 165.373 0 172 0C178.627 0 184 5.37258 184 12ZM171.636 9.45795C172.785 9.45795 173.737 10.2292 173.803 11.5118L173.806 11.771C173.744 12.8984 172.889 13.8516 171.587 13.8516C170.42 13.8516 169.53 13.0135 169.53 11.6863C169.53 10.5013 170.266 9.45795 171.592 9.45795H171.636ZM173.931 9.31572C173.319 8.70229 172.485 8.31051 171.599 8.31051C169.847 8.31051 168.306 9.86954 168.306 11.6386C168.306 13.3897 169.847 14.9311 171.599 14.9311C172.485 14.9311 173.299 14.5771 173.911 13.9702L173.92 14.2974C173.911 15.2977 175.216 15.9658 176.094 15.2797C178.032 13.7679 178.148 9.88173 176.161 7.80639C174.26 5.82099 171.107 5.42693 168.716 6.84966C165.59 8.70961 165.528 12.2998 166.706 14.3402C168.451 17.3619 172.185 17.4195 173.526 16.8477C174.414 16.4703 174.019 15.3145 173.164 15.6596C171.476 16.3408 168.635 15.6579 167.643 13.3664C166.732 11.2661 167.669 9.02989 169.135 8.01935C170.513 7.06949 173.104 6.79082 175.036 8.48125C177.108 10.2945 176.228 13.4239 175.493 14.1797C175.304 14.3718 174.965 14.217 174.995 13.9175L174.993 9.33752C174.993 9.20855 174.904 8.80107 174.474 8.80107L174.404 8.80153C174.129 8.80153 173.931 9.02349 173.931 9.31816V9.31572Z" fill="#B0B0B0"/>
<path fill-rule="evenodd" clip-rule="evenodd" d="M88 12C88 18.6274 82.6274 24 76 24C69.3726 24 64 18.6274 64 12C64 5.37258 69.3726 0 76 0C82.6274 0 88 5.37258 88 12ZM79.5879 8.09359C80.1182 8.50886 80.7785 8.75502 81.4941 8.75502C81.4945 8.75502 81.4995 8.75502 81.5 8.75463V9.32643V10.8677C80.8 10.868 80.1199 10.7256 79.4785 10.4446C79.066 10.2638 78.6818 10.0308 78.3303 9.74933L78.3408 14.4935C78.3364 15.5618 77.9294 16.5656 77.1927 17.3216C76.5931 17.937 75.8334 18.3283 75.01 18.455C74.8165 18.4847 74.6196 18.5 74.4205 18.5C73.5391 18.5 72.7022 18.2035 72.0177 17.6565C71.8888 17.5535 71.7656 17.4419 71.6483 17.3216C70.8499 16.5022 70.4382 15.3917 70.5075 14.2235C70.5604 13.3342 70.9033 12.4861 71.4749 11.8214C72.2312 10.9417 73.2893 10.4535 74.4205 10.4535C74.6196 10.4535 74.8165 10.469 75.01 10.4987V11.0686V12.6539C74.8266 12.5911 74.6306 12.5565 74.4266 12.5565C73.3931 12.5565 72.557 13.4321 72.5724 14.506C72.5822 15.1931 72.9437 15.7938 73.4769 16.1249C73.7274 16.2805 74.0157 16.3769 74.3233 16.3944C74.5643 16.4081 74.7957 16.3733 75.01 16.2998C75.7484 16.0465 76.2811 15.3264 76.2811 14.477L76.2836 11.3V5.5H78.3279C78.3298 5.71031 78.3504 5.91552 78.3886 6.11439C78.5429 6.91924 78.9798 7.61754 79.5879 8.09359ZM81.5 8.75451C81.5 8.75455 81.5 8.75459 81.5 8.75463V8.75451Z" fill="#B0B0B0"/>
<path fill-rule="evenodd" clip-rule="evenodd" d="M120 12C120 18.6274 114.627 24 108 24C101.373 24 96 18.6274 96 12C96 5.37258 101.373 0 108 0C114.627 0 120 5.37258 120 12ZM108 20.5C113.246 20.5 117.5 16.2467 117.5 11C117.5 5.75329 113.246 1.5 108 1.5C102.753 1.5 98.4998 5.75329 98.4998 11C98.4998 16.2467 102.753 20.5 108 20.5Z" fill="#B0B0B0"/>
<path d="M105.307 20.1094C105.38 19.9877 105.448 19.879 105.513 19.767C105.812 19.252 106.079 18.7198 106.24 18.1451C106.375 17.6634 106.494 17.1781 106.619 16.6939C106.718 16.3052 106.816 15.9158 106.915 15.5267C106.919 15.5126 106.924 15.4988 106.93 15.4791C106.975 15.5447 107.014 15.6071 107.058 15.6649C107.256 15.9233 107.509 16.1162 107.792 16.2723C108.158 16.472 108.56 16.5956 108.974 16.6354C109.202 16.6549 109.43 16.6534 109.657 16.631C110.024 16.6013 110.387 16.527 110.736 16.4099C111.191 16.2566 111.618 16.0308 112.001 15.7413C112.607 15.2858 113.077 14.7151 113.445 14.056C113.8 13.4185 114.051 12.7291 114.191 12.0133C114.253 11.7017 114.3 11.3872 114.331 11.0708C114.364 10.7376 114.38 10.4029 114.379 10.068C114.375 9.37856 114.224 8.71777 113.946 8.08589C113.714 7.55589 113.396 7.06708 113.007 6.63845C112.597 6.18562 112.115 5.80239 111.582 5.50371C111.047 5.20309 110.47 4.98391 109.871 4.85339C109.581 4.79033 109.288 4.74577 108.993 4.71998C108.62 4.68751 108.246 4.68212 107.873 4.70385C107.375 4.72955 106.88 4.8012 106.395 4.9179C105.591 5.11352 104.843 5.43417 104.16 5.90227C103.665 6.24189 103.222 6.65317 102.847 7.12268C102.348 7.74266 101.979 8.45753 101.764 9.22399C101.656 9.60581 101.592 9.9989 101.574 10.3954C101.547 11.021 101.612 11.6355 101.796 12.2353C101.939 12.7011 102.154 13.1294 102.473 13.502C102.75 13.8314 103.104 14.0882 103.503 14.2501C103.57 14.278 103.641 14.2906 103.713 14.287C103.871 14.2744 103.954 14.1661 103.992 14.0233C104.046 13.8248 104.095 13.6254 104.144 13.4254C104.171 13.3167 104.196 13.2075 104.216 13.0976C104.222 13.056 104.22 13.0135 104.21 12.9727C104.199 12.932 104.18 12.8938 104.154 12.8607C104.074 12.7514 103.987 12.6471 103.908 12.5367C103.672 12.2064 103.534 11.8363 103.469 11.4369C103.42 11.117 103.411 10.7923 103.442 10.4702C103.517 9.59386 103.808 8.79673 104.339 8.09322C104.874 7.38532 105.567 6.89146 106.403 6.59552C106.743 6.4762 107.095 6.39528 107.453 6.35424C107.854 6.30672 108.26 6.30292 108.662 6.34293C109.254 6.40179 109.821 6.55007 110.343 6.84391C110.927 7.17169 111.372 7.63141 111.671 8.23041C111.853 8.60055 111.971 8.99892 112.019 9.40851C112.06 9.7447 112.066 10.0841 112.038 10.4216C112.016 10.725 111.991 11.0289 111.945 11.3299C111.819 12.1419 111.582 12.9177 111.15 13.6243C110.931 13.9831 110.666 14.3027 110.327 14.5565C110.048 14.766 109.74 14.9115 109.395 14.9696C108.9 15.0533 108.439 14.9773 108.037 14.6606C107.736 14.4242 107.563 14.1119 107.513 13.732C107.479 13.4792 107.52 13.2346 107.591 12.9935C107.762 12.406 107.937 11.8192 108.11 11.2319C108.211 10.8901 108.303 10.546 108.354 10.1927C108.399 9.87849 108.401 9.56559 108.307 9.25771C108.137 8.70102 107.711 8.38309 107.127 8.37639C106.657 8.37094 106.274 8.56342 105.955 8.89643C105.637 9.22944 105.454 9.62947 105.351 10.0693C105.253 10.4863 105.244 10.9071 105.297 11.3318C105.336 11.6668 105.422 11.9947 105.55 12.3065C105.56 12.3327 105.562 12.3611 105.556 12.3884C105.271 13.5994 104.984 14.8102 104.697 16.0207C104.57 16.5577 104.439 17.0939 104.321 17.6334C104.269 17.8714 104.241 18.1151 104.212 18.357C104.164 18.7537 104.168 19.1529 104.172 19.5509C104.172 19.5942 104.172 19.6376 104.172 19.6908C102.742 19.0539 101.528 18.135 100.563 16.9052C98.8939 14.7779 98.2508 12.3606 98.5854 9.68036C99.3832 4.09376 104.796 0.423109 110.284 1.78447C115.711 3.12928 118.816 8.81118 116.962 14.153C116.012 16.7251 114.294 18.5931 111.786 19.7017C109.69 20.6284 107.522 20.726 105.307 20.1094Z" fill="#B0B0B0"/>
<path fill-rule="evenodd" clip-rule="evenodd" d="M56 12C56 18.6274 50.6274 24 44 24C37.3726 24 32 18.6274 32 12C32 5.37258 37.3726 0 44 0C50.6274 0 56 5.37258 56 12ZM47.9762 12.4947C48.0103 12.5761 48.8538 14.4933 50.7256 14.8013C50.8909 14.8276 51.0091 14.9755 50.9994 15.1408C50.9968 15.1907 50.9846 15.2389 50.9644 15.2852C50.8971 15.441 50.7422 15.5731 50.491 15.6895C50.183 15.8321 49.7228 15.9511 49.1216 16.0456C49.0919 16.1034 49.0586 16.2521 49.0385 16.3449C49.0149 16.4525 48.9912 16.5575 48.958 16.6704C48.9081 16.841 48.7768 16.9391 48.5983 16.9391H48.5905H48.5826C48.5012 16.9391 48.3962 16.9259 48.2606 16.8997C48.0532 16.8594 47.8204 16.8218 47.5264 16.8218C47.3558 16.8218 47.179 16.8367 47.0014 16.8664C46.6588 16.9232 46.3634 17.131 46.0218 17.3713L46.0205 17.3722L46.0196 17.3731L46.0186 17.3738C45.5183 17.7262 44.9515 18.1256 44.0858 18.1256C44.049 18.1256 44.0131 18.1247 43.9851 18.123C43.9615 18.1247 43.9379 18.1256 43.9142 18.1256C43.048 18.1256 42.4809 17.7257 41.9804 17.3722C41.6383 17.1307 41.3425 16.9224 40.9995 16.8656C40.8218 16.8358 40.6451 16.8209 40.4745 16.8209C40.1684 16.8209 39.9223 16.8687 39.7423 16.9037L39.7403 16.9041L39.7263 16.9067C39.6089 16.9292 39.5075 16.9487 39.4183 16.9487C39.1741 16.9487 39.0796 16.7999 39.0429 16.6757C39.0088 16.561 38.9851 16.4525 38.9624 16.3475L38.9608 16.3405C38.939 16.242 38.9083 16.1029 38.8784 16.0465C38.2772 15.9529 37.817 15.833 37.5089 15.6904C37.2569 15.574 37.1021 15.4419 37.0347 15.2852V15.2844C37.0145 15.238 37.0032 15.1898 37.0005 15.1417C36.9909 14.9746 37.1091 14.8276 37.2744 14.8005C37.6953 14.7313 38.097 14.5756 38.4689 14.3358C38.7734 14.1398 39.0595 13.8869 39.3194 13.585C39.7771 13.0539 40.0002 12.5507 40.0247 12.4947C40.0264 12.4895 40.0291 12.4842 40.0317 12.479L40.0317 12.479C40.1271 12.2847 40.1498 12.1246 40.0982 12.003C39.9961 11.7638 39.6049 11.6395 39.3458 11.5573L39.3439 11.5567C39.3359 11.5542 39.328 11.5516 39.3202 11.5491C39.2545 11.5283 39.1923 11.5086 39.1391 11.4876C38.9125 11.3983 38.7375 11.2977 38.6176 11.1892C38.4006 10.9914 38.3997 10.7963 38.4181 10.6983C38.447 10.5486 38.552 10.4148 38.7148 10.3194C38.8434 10.2432 38.993 10.2021 39.1339 10.2021C39.2214 10.2021 39.301 10.2187 39.371 10.2511C39.6082 10.3622 39.8182 10.4183 39.9949 10.4183C40.1043 10.4183 40.1787 10.3955 40.2242 10.3754C40.2209 10.3194 40.2173 10.2627 40.2137 10.2064C40.2107 10.1587 40.2078 10.1113 40.2049 10.0647V10.063L40.2048 10.0606C40.1453 9.11421 40.0713 7.93692 40.3843 7.23835C40.5978 6.76058 40.8849 6.34931 41.2375 6.01505C41.5333 5.73503 41.8763 5.5084 42.2587 5.34039C42.9263 5.04638 43.5485 5.00262 43.8591 5.00262C43.8661 5.00262 43.9088 5.00213 43.9604 5.00154C44.0062 5.00102 44.059 5.00041 44.0998 5H44.1339H44.1348C44.4463 5 45.0675 5.04375 45.7335 5.33777C46.1167 5.50577 46.4615 5.73328 46.7581 6.0133C47.1125 6.34756 47.4004 6.75971 47.6148 7.23923C47.9281 7.93926 47.8537 9.11794 47.7933 10.0656L47.7907 10.1059C47.7856 10.1819 47.7812 10.2562 47.7769 10.3288C47.7759 10.3447 47.775 10.3605 47.774 10.3762C47.8152 10.3946 47.8782 10.4139 47.9674 10.4183C48.1363 10.4104 48.3323 10.3544 48.5511 10.252C48.6535 10.2039 48.762 10.1942 48.8346 10.1942C48.9413 10.1942 49.0472 10.2144 49.1391 10.252C49.413 10.3491 49.5845 10.5486 49.5889 10.7726C49.5906 10.8645 49.5626 11.0063 49.4191 11.1542C49.2984 11.2775 49.1164 11.3869 48.8608 11.4876C48.8022 11.5103 48.7313 11.5331 48.6561 11.5567L48.6552 11.557C48.3962 11.6392 48.0049 11.7635 47.9027 12.003C47.8502 12.1246 47.8729 12.2847 47.9683 12.479C47.9706 12.4825 47.9722 12.486 47.9737 12.4895C47.9745 12.4912 47.9753 12.493 47.9762 12.4947Z" fill="#B0B0B0"/>
<path fill-rule="evenodd" clip-rule="evenodd" d="M460 0C453.373 0 448 5.37258 448 12C448 18.6274 453.373 24 460 24C466.627 24 472 18.6274 472 12C472 5.37258 466.627 0 460 0ZM465 7.87453C465.551 8.02566 465.985 8.47097 466.132 9.03647C466.4 10.0614 466.4 12.1999 466.4 12.1999C466.4 12.1999 466.4 14.3383 466.132 15.3633C465.985 15.9288 465.551 16.3741 465 16.5253C464.002 16.7999 460 16.7999 460 16.7999C460 16.7999 455.997 16.7999 454.999 16.5253C454.448 16.3741 454.014 15.9288 453.867 15.3633C453.6 14.3383 453.6 12.1999 453.6 12.1999C453.6 12.1999 453.6 10.0614 453.867 9.03647C454.014 8.47097 454.448 8.02566 454.999 7.87453C455.997 7.59986 460 7.59986 460 7.59986C460 7.59986 464.002 7.59986 465 7.87453Z" fill="#B0B0B0"/>
<path fill-rule="evenodd" clip-rule="evenodd" d="M458.801 14.4001V10.4001L462.001 12.4002L458.801 14.4001Z" fill="#B0B0B0"/>
<path fill-rule="evenodd" clip-rule="evenodd" d="M24 12C24 18.6274 18.6274 24 12 24C5.37258 24 0 18.6274 0 12C0 5.37258 5.37258 0 12 0C18.6274 0 24 5.37258 24 12ZM17.997 17.9995V18H15.5145V14.0995C15.5145 13.17 15.4955 11.978 14.221 11.978C12.9275 11.978 12.7295 12.988 12.7295 14.0325V17.9995H10.2445V9.98799H12.631V11.0805H12.666C12.9975 10.451 13.8095 9.78699 15.0195 9.78699C17.5365 9.78699 18 11.4455 18 13.5985V17.9995H17.997ZM6.19797 9.98848H8.68597V18H6.19797V9.98848ZM6 7.441C6 6.6455 6.6455 6 7.441 6C8.236 6 8.8815 6.6455 8.882 7.441C8.882 8.2365 8.2365 8.8955 7.441 8.8955C6.6455 8.8955 6 8.2365 6 7.441Z" fill="#B0B0B0"/>
<path fill-rule="evenodd" clip-rule="evenodd" d="M152 12C152 18.6274 146.627 24 140 24C133.373 24 128 18.6274 128 12C128 5.37258 133.373 0 140 0C146.627 0 152 5.37258 152 12ZM131 11.9996C131 11.9543 131 11.909 131.001 11.8639C132.731 11.8503 134.478 11.8188 136.165 11.4168C136.871 11.2467 137.524 10.903 138.065 10.417C138.605 9.93085 139.016 9.31763 139.26 8.63272C139.738 7.25662 139.785 5.80417 139.831 4.35919L139.831 4.35563C139.846 3.90236 139.86 3.44987 139.888 3.00067C139.925 3.00021 139.962 3 140 3C140.048 3 140.096 3.0004 140.145 3.00116C140.166 3.41837 140.178 3.83777 140.19 4.25769L140.19 4.25819C140.231 5.69336 140.272 7.13444 140.705 8.51273C140.938 9.22269 141.348 9.86154 141.896 10.3691C142.445 10.8767 143.113 11.2362 143.838 11.4138C145.521 11.8217 147.272 11.8518 148.998 11.8639C148.999 11.909 148.999 11.9543 148.999 11.9996C148.999 12.1104 148.997 12.2209 148.993 12.3308C148.994 12.2661 148.994 12.2014 148.995 12.1369C147.355 12.1534 145.703 12.2059 144.092 12.5284C142.588 12.8194 141.242 13.8964 140.744 15.362C140.261 16.7853 140.217 18.2903 140.174 19.7843L140.174 19.7844L140.173 19.7896C140.162 20.1927 140.15 20.595 140.13 20.9947C140.21 20.9934 140.29 20.9924 140.371 20.9916C140.248 20.9966 140.124 20.9991 140 20.9991C139.961 20.9991 139.923 20.9989 139.885 20.9984C139.843 20.4712 139.826 19.9372 139.809 19.402L139.809 19.4006C139.761 17.9204 139.714 16.431 139.136 15.05C138.544 13.6144 137.094 12.6934 135.595 12.4639C134.075 12.2348 132.539 12.1245 131.001 12.1339C131 12.0892 131 12.0444 131 11.9996ZM131.001 12.1339H131.005C131.004 12.1661 131.003 12.1984 131.003 12.2306C131.002 12.1984 131.001 12.1661 131.001 12.1339Z" fill="#B0B0B0"/>
</svg>
