<svg width="47" height="47" viewBox="0 0 47 47" fill="none" xmlns="http://www.w3.org/2000/svg">
<path d="M15.6051 19.3196C15.6051 17.8832 15.6051 16.5148 15.6051 15.1465C15.6051 14.9663 15.6051 14.787 15.6051 14.6068C15.6177 13.8894 15.8622 13.6404 16.6065 13.6404C17.8943 13.6404 19.1821 13.6404 20.4708 13.6404L28.8715 13.6453C29.7511 13.6453 29.9636 13.8587 29.9636 14.7247C29.9636 16.1085 29.9636 17.4924 29.9636 18.8762C29.9636 19.0107 29.9636 19.1452 29.9636 19.3453C30.6062 19.3453 31.2052 19.3254 31.8025 19.3453C36.1415 19.5114 39.8436 22.6972 40.5392 26.9284C40.677 27.7678 40.9114 28.2652 41.7439 28.716C44.0247 29.9506 45.0756 31.9998 44.9958 34.5613C44.8883 38.0028 41.6876 40.7885 38.2139 40.5518C36.2213 40.4148 34.631 39.5713 33.4255 38.017C33.2575 37.8036 33.0811 37.7396 32.8232 37.7396C30.0095 37.7452 27.1961 37.7452 24.383 37.7396C23.1372 37.7396 21.8914 37.7488 20.6455 37.7396C20.5294 37.7313 20.413 37.7529 20.3079 37.8024C20.2027 37.8519 20.1124 37.9275 20.0457 38.0219C18.3706 40.1176 16.1621 40.9662 13.5444 40.409C10.9268 39.8519 9.26766 38.1672 8.61996 35.5792C7.91263 32.7562 9.4928 29.6011 12.2003 28.4387C12.6405 28.2494 12.7749 28.0318 12.7691 27.5627C12.7397 25.2528 12.7623 22.9421 12.7481 20.6314C12.7476 20.3304 12.6879 20.0324 12.5725 19.7538C10.6179 15.2182 8.65777 10.6848 6.69201 6.15359C6.58364 5.9045 6.43999 5.84389 6.18292 5.84638C5.14712 5.85801 4.11131 5.8522 3.07467 5.84638C2.906 5.8497 2.73736 5.83858 2.57063 5.81317C2.20688 5.7592 2.02626 5.51925 2.00106 5.18547C1.98441 5.03838 2.02019 4.89015 2.10222 4.76633C2.18426 4.6425 2.30743 4.55084 2.4505 4.50712C2.62349 4.45337 2.80437 4.42868 2.98562 4.43405C4.23144 4.42409 5.47811 4.44485 6.72309 4.42409C7.27753 4.41496 7.58584 4.64412 7.80174 5.14645C9.77506 9.73797 11.7719 14.3137 13.7444 18.9019C13.8906 19.2415 14.0619 19.3619 14.424 19.3279C14.7861 19.2938 15.1742 19.3196 15.6051 19.3196ZM32.4351 36.2941C31.7899 34.0822 32.0646 32.0397 33.5129 30.2379C34.9612 28.4362 36.9126 27.7147 39.2069 27.8301C39.2069 27.7271 39.2069 27.6715 39.2069 27.6175C38.9145 24.0688 35.5341 20.8191 31.9235 20.7801C26.0867 20.7161 20.2465 20.7518 14.4114 20.7468C14.3447 20.7514 14.2784 20.7608 14.2131 20.7751V27.8284C18.5731 27.3892 22.5634 31.5307 21.0429 36.2974L32.4351 36.2941ZM38.4953 39.147C41.2096 39.2001 43.5114 37.0131 43.566 34.3313C43.5818 33.6768 43.4666 33.0256 43.2269 32.4152C42.9872 31.8049 42.6279 31.2473 42.1694 30.7747C41.711 30.3021 41.1626 29.9237 40.5557 29.6613C39.9488 29.3989 39.2954 29.2577 38.6331 29.2457C35.8668 29.1967 33.6061 31.3688 33.5482 34.1328C33.491 36.8562 35.6954 39.0922 38.4953 39.147ZM14.8482 39.147C17.5516 39.1976 19.8399 37.0289 19.897 34.362C19.9567 31.5664 17.7969 29.3088 15.0087 29.2441C12.2633 29.1801 9.94307 31.3638 9.89267 34.0598C9.8389 36.8645 12.0088 39.093 14.8474 39.1462L14.8482 39.147ZM17.0383 19.2905H28.5002V15.1042H17.0383C17.0383 16.3322 17.0383 17.5203 17.0383 18.7085C17.0383 18.887 17.0383 19.0663 17.0383 19.2905Z"  stroke="none"/>
<path d="M41.4071 34.2018C41.4066 34.7616 41.238 35.3086 40.9226 35.7736C40.6072 36.2385 40.1592 36.6005 39.6355 36.8136C39.1117 37.0266 38.5358 37.0812 37.9806 36.9704C37.4254 36.8597 36.916 36.5885 36.5169 36.1912C36.1179 35.794 35.8471 35.2886 35.7389 34.7391C35.6308 34.1897 35.6901 33.6208 35.9094 33.1047C36.1286 32.5885 36.498 32.1483 36.9707 31.8399C37.4433 31.5315 37.998 31.3687 38.5644 31.3721C39.3199 31.3783 40.0424 31.679 40.5748 32.2089C41.1071 32.7388 41.4063 33.455 41.4071 34.2018ZM39.9706 34.2018C39.9737 34.0149 39.9386 33.8293 39.8674 33.6561C39.7962 33.4829 39.6904 33.3257 39.5563 33.1939C39.4221 33.0621 39.2625 32.9584 39.0868 32.8891C38.9112 32.8197 38.7232 32.7861 38.5341 32.7903C38.3466 32.7926 38.1613 32.8313 37.9889 32.9044C37.8166 32.9774 37.6604 33.0833 37.5294 33.216C37.2649 33.484 37.119 33.8448 37.1236 34.2192C37.1283 34.5936 37.2833 34.9507 37.5544 35.2122C37.8255 35.4736 38.1906 35.6179 38.5694 35.6133C38.9435 35.6065 39.2999 35.455 39.5621 35.1911C39.8243 34.9273 39.9713 34.5724 39.9715 34.2026L39.9706 34.2018Z" stroke="none"/>
<path d="M12.0379 34.2165C12.0351 33.6565 12.2005 33.1082 12.5132 32.6412C12.8259 32.1742 13.2718 31.8094 13.7944 31.5931C14.317 31.3768 14.8929 31.3186 15.4489 31.4261C16.005 31.5335 16.5163 31.8016 16.9181 32.1965C17.3199 32.5914 17.594 33.0952 17.7058 33.6442C17.8176 34.1932 17.762 34.7627 17.5461 35.2804C17.3301 35.7982 16.9635 36.2409 16.4928 36.5526C16.022 36.8643 15.4683 37.0308 14.9017 37.0312C14.145 37.0309 13.4191 36.7348 12.8825 36.2075C12.346 35.6801 12.0423 34.9643 12.0379 34.2165ZM13.4778 34.1999C13.4742 34.5698 13.6191 34.9261 13.8808 35.1907C14.1425 35.4553 14.4996 35.6065 14.874 35.6114C15.2549 35.6127 15.6209 35.465 15.8921 35.2006C16.1633 34.9361 16.3176 34.5764 16.3214 34.1999C16.3195 33.8306 16.1712 33.4769 15.9085 33.2144C15.6458 32.952 15.2895 32.8017 14.916 32.7958C14.7275 32.7917 14.5401 32.8251 14.3649 32.894C14.1897 32.9628 14.0304 33.0658 13.8963 33.1968C13.7622 33.3278 13.6561 33.4841 13.5844 33.6564C13.5126 33.8287 13.4766 34.0135 13.4786 34.1999H13.4778Z" stroke="none"/>
</svg>
