<svg width="48" height="47" viewBox="0 0 48 47" fill="none" xmlns="http://www.w3.org/2000/svg">
<mask id="path-1-outside-1" maskUnits="userSpaceOnUse" x="5.10257" y="4.02942" width="38" height="39" fill="black">
<rect fill="white" x="5.10257" y="4.02942" width="38" height="39"/>
<path d="M42.5254 26.8333C40.1907 22.2417 37.1631 18.0659 33.5266 14.4221C29.8901 10.7781 25.7229 7.74417 21.1407 5.40469C20.3273 4.98947 19.4011 4.91603 18.5325 5.19827C17.6628 5.48088 16.9553 6.08591 16.5403 6.90205C16.004 7.95694 16.0675 9.16253 16.6031 10.1267L15.4044 13.47L15.4036 13.4718L9.61625 29.6131L9.61582 29.6141L6.26474 38.9607C5.93618 39.7789 6.11438 40.6774 6.73111 41.3085C7.35014 41.9444 8.2551 42.1344 9.06583 41.8251L21.6508 37.319C21.9321 37.2181 22.0784 36.9082 21.9774 36.6269C21.8765 36.3456 21.5668 36.1996 21.2854 36.3003L8.69556 40.8082C8.27112 40.974 7.8238 40.8788 7.50512 40.552C7.18673 40.2264 7.09943 39.7799 7.2715 39.3577C7.27446 39.3506 7.2772 39.3433 7.2798 39.3361L8.16311 36.8724C8.96901 37.5904 10.0201 38.0023 11.1172 38.0023C13.5638 38.0023 15.5543 36.0117 15.5543 33.5651C15.5543 31.1185 13.5638 29.128 11.1172 29.128C11.0575 29.128 10.998 29.1296 10.9384 29.132L13.8814 20.9241C14.6643 21.5594 15.6432 21.9132 16.6726 21.9132C19.1193 21.9132 21.1098 19.9227 21.1098 17.476C21.1098 15.0413 19.1385 13.0591 16.7083 13.0398L17.4059 11.0941C19.0771 12.1593 21.643 13.4825 23.2486 14.6451C23.4961 14.8125 23.8326 14.7477 24 14.5001C24.1675 14.2526 24.1026 13.9162 23.8551 13.7488C22.3859 12.7549 20.1197 11.3584 18.5269 10.5451C17.378 9.95847 16.9195 8.54415 17.5051 7.39237C17.7889 6.83431 18.2725 6.42054 18.867 6.2274C19.4603 6.03476 20.093 6.08476 20.6487 6.36845C25.1294 8.6562 29.2045 11.623 32.7607 15.1865C36.3168 18.75 39.2776 22.8335 41.5608 27.3238C42.1464 28.4756 41.6881 29.8898 40.539 30.4765C39.4058 31.0735 37.9511 30.584 37.3955 29.4525C34.4368 23.634 29.1224 17.8211 24 13.8934C23.763 13.7117 23.4233 13.7564 23.2414 13.9937C23.0595 14.2308 23.1044 14.5705 23.3415 14.7524C28.6708 18.7029 33.742 24.864 36.9351 30.679L21.3676 36.2629C21.0863 36.3638 20.9401 36.6736 21.041 36.9549C21.1415 37.239 21.4592 37.382 21.7331 37.2816L37.9621 31.4603C38.9269 31.9398 40.0612 31.9361 41.0312 31.4404C42.7108 30.5828 43.3811 28.5161 42.5254 26.8333ZM11.1172 30.2102C12.9671 30.2102 14.4721 31.7152 14.4721 33.5651C14.4721 35.4151 12.9671 36.92 11.1172 36.92C10.1358 36.92 9.20183 36.4855 8.56743 35.7454L10.5338 30.2607C10.725 30.2271 10.9203 30.2102 11.1172 30.2102ZM16.6726 14.1211C18.5225 14.1211 20.0275 15.6261 20.0275 17.476C20.0275 19.326 18.5225 20.8309 16.6726 20.8309C15.7636 20.8309 14.9057 20.4672 14.2762 19.8239L16.3138 14.14C16.4321 14.1275 16.5521 14.1211 16.6726 14.1211Z"/>
<path d="M19.7185 29.0205C19.422 29.0108 19.1712 29.2484 19.1632 29.5471C19.0912 32.035 21.1094 34.1104 23.5987 34.1063C26.0453 34.1063 28.0358 32.1158 28.0358 29.6691C28.0358 27.2225 26.0453 25.232 23.5987 25.232C22.2667 25.232 21.017 25.8226 20.1702 26.8524C19.9803 27.0832 20.0136 27.4242 20.2444 27.6141C20.4753 27.804 20.8162 27.7708 21.0061 27.5398C21.6465 26.761 22.5915 26.3143 23.5987 26.3143C25.4486 26.3143 26.9536 27.8192 26.9536 29.6692C26.9536 31.5192 25.4486 33.0241 23.5987 33.0241C21.7162 33.0272 20.1899 31.4573 20.2451 29.5758C20.2531 29.277 20.0173 29.0284 19.7185 29.0205Z"/>
<path d="M23.1615 23.2371C23.2134 23.2371 23.2658 23.2296 23.3173 23.2141C23.3991 23.1895 25.3261 22.5943 25.8516 21.0816C26.3746 19.5758 25.256 17.8718 25.2081 17.8C25.076 17.6019 24.8299 17.5137 24.6021 17.5819C24.5203 17.6066 22.5933 18.2018 22.0679 19.7145C21.5448 21.2202 22.6634 22.9243 22.7113 22.9961C22.8135 23.1493 22.9839 23.2371 23.1615 23.2371ZM23.0902 20.0695C23.3068 19.4458 24.0118 19.0038 24.5172 18.7728C24.7694 19.284 25.0486 20.0951 24.8293 20.7264C24.6127 21.3501 23.9077 21.7921 23.4022 22.0231C23.15 21.5119 22.8708 20.7008 23.0902 20.0695Z"/>
<path d="M29.8711 24.5306C30.1518 24.6334 30.4625 24.4891 30.5652 24.2084C30.668 23.9278 30.5237 23.617 30.2431 23.5143C29.3813 23.1988 28.5172 23.2138 28.4806 23.2144C28.2426 23.2195 28.0359 23.3796 27.9714 23.6087C27.9483 23.6904 27.4199 25.6224 28.4078 26.8697C29.3612 28.0501 31.1536 28.0774 31.5011 28.0801C31.7392 28.0751 31.9459 27.9149 32.0104 27.6857C32.0198 27.6521 32.241 26.8525 32.1524 25.9663C32.1227 25.669 31.8573 25.4517 31.5602 25.4817C31.2628 25.5114 31.0458 25.7766 31.0755 26.074C31.1089 26.4073 31.0837 26.7312 31.0495 26.9746C30.4881 26.9128 29.6657 26.7146 29.2562 26.1976C28.8517 25.6869 28.8558 24.8666 28.9307 24.3212C29.1902 24.3492 29.5354 24.4077 29.8711 24.5306Z"/>
<path d="M15.3589 23.9178C15.1295 23.8535 14.8854 23.9469 14.7572 24.1475C14.7117 24.2188 13.6496 25.9086 14.2314 27.3835C14.8105 28.8517 16.7492 29.4088 16.8314 29.4318C17.0566 29.4959 17.3051 29.4038 17.4332 29.202C17.4786 29.1308 18.5408 27.441 17.959 25.966C17.3798 24.4979 15.4412 23.9408 15.3589 23.9178ZM16.7219 28.2412C16.2481 28.0398 15.4919 27.6296 15.2381 26.9864C15.0008 26.3846 15.2401 25.6062 15.4685 25.1083C15.9424 25.3097 16.6986 25.7199 16.9523 26.3631C17.1897 26.9649 16.9503 27.7433 16.7219 28.2412Z"/>
</mask>
<path d="M42.5254 26.8333C40.1907 22.2417 37.1631 18.0659 33.5266 14.4221C29.8901 10.7781 25.7229 7.74417 21.1407 5.40469C20.3273 4.98947 19.4011 4.91603 18.5325 5.19827C17.6628 5.48088 16.9553 6.08591 16.5403 6.90205C16.004 7.95694 16.0675 9.16253 16.6031 10.1267L15.4044 13.47L15.4036 13.4718L9.61625 29.6131L9.61582 29.6141L6.26474 38.9607C5.93618 39.7789 6.11438 40.6774 6.73111 41.3085C7.35014 41.9444 8.2551 42.1344 9.06583 41.8251L21.6508 37.319C21.9321 37.2181 22.0784 36.9082 21.9774 36.6269C21.8765 36.3456 21.5668 36.1996 21.2854 36.3003L8.69556 40.8082C8.27112 40.974 7.8238 40.8788 7.50512 40.552C7.18673 40.2264 7.09943 39.7799 7.2715 39.3577C7.27446 39.3506 7.2772 39.3433 7.2798 39.3361L8.16311 36.8724C8.96901 37.5904 10.0201 38.0023 11.1172 38.0023C13.5638 38.0023 15.5543 36.0117 15.5543 33.5651C15.5543 31.1185 13.5638 29.128 11.1172 29.128C11.0575 29.128 10.998 29.1296 10.9384 29.132L13.8814 20.9241C14.6643 21.5594 15.6432 21.9132 16.6726 21.9132C19.1193 21.9132 21.1098 19.9227 21.1098 17.476C21.1098 15.0413 19.1385 13.0591 16.7083 13.0398L17.4059 11.0941C19.0771 12.1593 21.643 13.4825 23.2486 14.6451C23.4961 14.8125 23.8326 14.7477 24 14.5001C24.1675 14.2526 24.1026 13.9162 23.8551 13.7488C22.3859 12.7549 20.1197 11.3584 18.5269 10.5451C17.378 9.95847 16.9195 8.54415 17.5051 7.39237C17.7889 6.83431 18.2725 6.42054 18.867 6.2274C19.4603 6.03476 20.093 6.08476 20.6487 6.36845C25.1294 8.6562 29.2045 11.623 32.7607 15.1865C36.3168 18.75 39.2776 22.8335 41.5608 27.3238C42.1464 28.4756 41.6881 29.8898 40.539 30.4765C39.4058 31.0735 37.9511 30.584 37.3955 29.4525C34.4368 23.634 29.1224 17.8211 24 13.8934C23.763 13.7117 23.4233 13.7564 23.2414 13.9937C23.0595 14.2308 23.1044 14.5705 23.3415 14.7524C28.6708 18.7029 33.742 24.864 36.9351 30.679L21.3676 36.2629C21.0863 36.3638 20.9401 36.6736 21.041 36.9549C21.1415 37.239 21.4592 37.382 21.7331 37.2816L37.9621 31.4603C38.9269 31.9398 40.0612 31.9361 41.0312 31.4404C42.7108 30.5828 43.3811 28.5161 42.5254 26.8333ZM11.1172 30.2102C12.9671 30.2102 14.4721 31.7152 14.4721 33.5651C14.4721 35.4151 12.9671 36.92 11.1172 36.92C10.1358 36.92 9.20183 36.4855 8.56743 35.7454L10.5338 30.2607C10.725 30.2271 10.9203 30.2102 11.1172 30.2102ZM16.6726 14.1211C18.5225 14.1211 20.0275 15.6261 20.0275 17.476C20.0275 19.326 18.5225 20.8309 16.6726 20.8309C15.7636 20.8309 14.9057 20.4672 14.2762 19.8239L16.3138 14.14C16.4321 14.1275 16.5521 14.1211 16.6726 14.1211Z" stroke="none"/>
<path d="M19.7185 29.0205C19.422 29.0108 19.1712 29.2484 19.1632 29.5471C19.0912 32.035 21.1094 34.1104 23.5987 34.1063C26.0453 34.1063 28.0358 32.1158 28.0358 29.6691C28.0358 27.2225 26.0453 25.232 23.5987 25.232C22.2667 25.232 21.017 25.8226 20.1702 26.8524C19.9803 27.0832 20.0136 27.4242 20.2444 27.6141C20.4753 27.804 20.8162 27.7708 21.0061 27.5398C21.6465 26.761 22.5915 26.3143 23.5987 26.3143C25.4486 26.3143 26.9536 27.8192 26.9536 29.6692C26.9536 31.5192 25.4486 33.0241 23.5987 33.0241C21.7162 33.0272 20.1899 31.4573 20.2451 29.5758C20.2531 29.277 20.0173 29.0284 19.7185 29.0205Z" stroke="none"/>
<path d="M23.1615 23.2371C23.2134 23.2371 23.2658 23.2296 23.3173 23.2141C23.3991 23.1895 25.3261 22.5943 25.8516 21.0816C26.3746 19.5758 25.256 17.8718 25.2081 17.8C25.076 17.6019 24.8299 17.5137 24.6021 17.5819C24.5203 17.6066 22.5933 18.2018 22.0679 19.7145C21.5448 21.2202 22.6634 22.9243 22.7113 22.9961C22.8135 23.1493 22.9839 23.2371 23.1615 23.2371ZM23.0902 20.0695C23.3068 19.4458 24.0118 19.0038 24.5172 18.7728C24.7694 19.284 25.0486 20.0951 24.8293 20.7264C24.6127 21.3501 23.9077 21.7921 23.4022 22.0231C23.15 21.5119 22.8708 20.7008 23.0902 20.0695Z" stroke="none"/>
<path d="M29.8711 24.5306C30.1518 24.6334 30.4625 24.4891 30.5652 24.2084C30.668 23.9278 30.5237 23.617 30.2431 23.5143C29.3813 23.1988 28.5172 23.2138 28.4806 23.2144C28.2426 23.2195 28.0359 23.3796 27.9714 23.6087C27.9483 23.6904 27.4199 25.6224 28.4078 26.8697C29.3612 28.0501 31.1536 28.0774 31.5011 28.0801C31.7392 28.0751 31.9459 27.9149 32.0104 27.6857C32.0198 27.6521 32.241 26.8525 32.1524 25.9663C32.1227 25.669 31.8573 25.4517 31.5602 25.4817C31.2628 25.5114 31.0458 25.7766 31.0755 26.074C31.1089 26.4073 31.0837 26.7312 31.0495 26.9746C30.4881 26.9128 29.6657 26.7146 29.2562 26.1976C28.8517 25.6869 28.8558 24.8666 28.9307 24.3212C29.1902 24.3492 29.5354 24.4077 29.8711 24.5306Z" stroke="none"/>
<path d="M15.3589 23.9178C15.1295 23.8535 14.8854 23.9469 14.7572 24.1475C14.7117 24.2188 13.6496 25.9086 14.2314 27.3835C14.8105 28.8517 16.7492 29.4088 16.8314 29.4318C17.0566 29.4959 17.3051 29.4038 17.4332 29.202C17.4786 29.1308 18.5408 27.441 17.959 25.966C17.3798 24.4979 15.4412 23.9408 15.3589 23.9178ZM16.7219 28.2412C16.2481 28.0398 15.4919 27.6296 15.2381 26.9864C15.0008 26.3846 15.2401 25.6062 15.4685 25.1083C15.9424 25.3097 16.6986 25.7199 16.9523 26.3631C17.1897 26.9649 16.9503 27.7433 16.7219 28.2412Z" stroke="none"/>
<path d="M42.5254 26.8333C40.1907 22.2417 37.1631 18.0659 33.5266 14.4221C29.8901 10.7781 25.7229 7.74417 21.1407 5.40469C20.3273 4.98947 19.4011 4.91603 18.5325 5.19827C17.6628 5.48088 16.9553 6.08591 16.5403 6.90205C16.004 7.95694 16.0675 9.16253 16.6031 10.1267L15.4044 13.47L15.4036 13.4718L9.61625 29.6131L9.61582 29.6141L6.26474 38.9607C5.93618 39.7789 6.11438 40.6774 6.73111 41.3085C7.35014 41.9444 8.2551 42.1344 9.06583 41.8251L21.6508 37.319C21.9321 37.2181 22.0784 36.9082 21.9774 36.6269C21.8765 36.3456 21.5668 36.1996 21.2854 36.3003L8.69556 40.8082C8.27112 40.974 7.8238 40.8788 7.50512 40.552C7.18673 40.2264 7.09943 39.7799 7.2715 39.3577C7.27446 39.3506 7.2772 39.3433 7.2798 39.3361L8.16311 36.8724C8.96901 37.5904 10.0201 38.0023 11.1172 38.0023C13.5638 38.0023 15.5543 36.0117 15.5543 33.5651C15.5543 31.1185 13.5638 29.128 11.1172 29.128C11.0575 29.128 10.998 29.1296 10.9384 29.132L13.8814 20.9241C14.6643 21.5594 15.6432 21.9132 16.6726 21.9132C19.1193 21.9132 21.1098 19.9227 21.1098 17.476C21.1098 15.0413 19.1385 13.0591 16.7083 13.0398L17.4059 11.0941C19.0771 12.1593 21.643 13.4825 23.2486 14.6451C23.4961 14.8125 23.8326 14.7477 24 14.5001C24.1675 14.2526 24.1026 13.9162 23.8551 13.7488C22.3859 12.7549 20.1197 11.3584 18.5269 10.5451C17.378 9.95847 16.9195 8.54415 17.5051 7.39237C17.7889 6.83431 18.2725 6.42054 18.867 6.2274C19.4603 6.03476 20.093 6.08476 20.6487 6.36845C25.1294 8.6562 29.2045 11.623 32.7607 15.1865C36.3168 18.75 39.2776 22.8335 41.5608 27.3238C42.1464 28.4756 41.6881 29.8898 40.539 30.4765C39.4058 31.0735 37.9511 30.584 37.3955 29.4525C34.4368 23.634 29.1224 17.8211 24 13.8934C23.763 13.7117 23.4233 13.7564 23.2414 13.9937C23.0595 14.2308 23.1044 14.5705 23.3415 14.7524C28.6708 18.7029 33.742 24.864 36.9351 30.679L21.3676 36.2629C21.0863 36.3638 20.9401 36.6736 21.041 36.9549C21.1415 37.239 21.4592 37.382 21.7331 37.2816L37.9621 31.4603C38.9269 31.9398 40.0612 31.9361 41.0312 31.4404C42.7108 30.5828 43.3811 28.5161 42.5254 26.8333ZM11.1172 30.2102C12.9671 30.2102 14.4721 31.7152 14.4721 33.5651C14.4721 35.4151 12.9671 36.92 11.1172 36.92C10.1358 36.92 9.20183 36.4855 8.56743 35.7454L10.5338 30.2607C10.725 30.2271 10.9203 30.2102 11.1172 30.2102ZM16.6726 14.1211C18.5225 14.1211 20.0275 15.6261 20.0275 17.476C20.0275 19.326 18.5225 20.8309 16.6726 20.8309C15.7636 20.8309 14.9057 20.4672 14.2762 19.8239L16.3138 14.14C16.4321 14.1275 16.5521 14.1211 16.6726 14.1211Z" fill="none" stroke-width="0.2" mask="url(#path-1-outside-1)"/>
<path d="M19.7185 29.0205C19.422 29.0108 19.1712 29.2484 19.1632 29.5471C19.0912 32.035 21.1094 34.1104 23.5987 34.1063C26.0453 34.1063 28.0358 32.1158 28.0358 29.6691C28.0358 27.2225 26.0453 25.232 23.5987 25.232C22.2667 25.232 21.017 25.8226 20.1702 26.8524C19.9803 27.0832 20.0136 27.4242 20.2444 27.6141C20.4753 27.804 20.8162 27.7708 21.0061 27.5398C21.6465 26.761 22.5915 26.3143 23.5987 26.3143C25.4486 26.3143 26.9536 27.8192 26.9536 29.6692C26.9536 31.5192 25.4486 33.0241 23.5987 33.0241C21.7162 33.0272 20.1899 31.4573 20.2451 29.5758C20.2531 29.277 20.0173 29.0284 19.7185 29.0205Z" fill="none" stroke-width="0.2" mask="url(#path-1-outside-1)"/>
<path d="M23.1615 23.2371C23.2134 23.2371 23.2658 23.2296 23.3173 23.2141C23.3991 23.1895 25.3261 22.5943 25.8516 21.0816C26.3746 19.5758 25.256 17.8718 25.2081 17.8C25.076 17.6019 24.8299 17.5137 24.6021 17.5819C24.5203 17.6066 22.5933 18.2018 22.0679 19.7145C21.5448 21.2202 22.6634 22.9243 22.7113 22.9961C22.8135 23.1493 22.9839 23.2371 23.1615 23.2371ZM23.0902 20.0695C23.3068 19.4458 24.0118 19.0038 24.5172 18.7728C24.7694 19.284 25.0486 20.0951 24.8293 20.7264C24.6127 21.3501 23.9077 21.7921 23.4022 22.0231C23.15 21.5119 22.8708 20.7008 23.0902 20.0695Z" fill="none" stroke-width="0.2" mask="url(#path-1-outside-1)"/>
<path d="M29.8711 24.5306C30.1518 24.6334 30.4625 24.4891 30.5652 24.2084C30.668 23.9278 30.5237 23.617 30.2431 23.5143C29.3813 23.1988 28.5172 23.2138 28.4806 23.2144C28.2426 23.2195 28.0359 23.3796 27.9714 23.6087C27.9483 23.6904 27.4199 25.6224 28.4078 26.8697C29.3612 28.0501 31.1536 28.0774 31.5011 28.0801C31.7392 28.0751 31.9459 27.9149 32.0104 27.6857C32.0198 27.6521 32.241 26.8525 32.1524 25.9663C32.1227 25.669 31.8573 25.4517 31.5602 25.4817C31.2628 25.5114 31.0458 25.7766 31.0755 26.074C31.1089 26.4073 31.0837 26.7312 31.0495 26.9746C30.4881 26.9128 29.6657 26.7146 29.2562 26.1976C28.8517 25.6869 28.8558 24.8666 28.9307 24.3212C29.1902 24.3492 29.5354 24.4077 29.8711 24.5306Z" fill="none" stroke-width="0.2" mask="url(#path-1-outside-1)"/>
<path d="M15.3589 23.9178C15.1295 23.8535 14.8854 23.9469 14.7572 24.1475C14.7117 24.2188 13.6496 25.9086 14.2314 27.3835C14.8105 28.8517 16.7492 29.4088 16.8314 29.4318C17.0566 29.4959 17.3051 29.4038 17.4332 29.202C17.4786 29.1308 18.5408 27.441 17.959 25.966C17.3798 24.4979 15.4412 23.9408 15.3589 23.9178ZM16.7219 28.2412C16.2481 28.0398 15.4919 27.6296 15.2381 26.9864C15.0008 26.3846 15.2401 25.6062 15.4685 25.1083C15.9424 25.3097 16.6986 25.7199 16.9523 26.3631C17.1897 26.9649 16.9503 27.7433 16.7219 28.2412Z" fill="none" stroke-width="0.2" mask="url(#path-1-outside-1)"/>
</svg>
