<svg width="18" height="18" viewBox="0 0 18 18" fill="none" xmlns="http://www.w3.org/2000/svg">
<path d="M2.33831 9.35025C2.22056 9.132 2.22056 8.86725 2.33831 8.649C3.75731 6.02475 6.37856 3.75 8.99981 3.75C11.6211 3.75 14.2423 6.02475 15.6613 8.64975C15.7791 8.868 15.7791 9.13275 15.6613 9.351C14.2423 11.9753 11.6211 14.25 8.99981 14.25C6.37856 14.25 3.75731 11.9753 2.33831 9.35025V9.35025Z" stroke-width="1.2" stroke-linecap="round" stroke-linejoin="round"/>
<path d="M10.591 7.40901C11.4697 8.28769 11.4697 9.71231 10.591 10.591C9.71231 11.4697 8.28769 11.4697 7.40901 10.591C6.53033 9.71231 6.53033 8.28769 7.40901 7.40901C8.28769 6.53033 9.71231 6.53033 10.591 7.40901Z" stroke-width="1.2" stroke-linecap="round" stroke-linejoin="round"/>
</svg>
