<svg width="24" height="24" viewBox="0 0 24 24" fill="none" xmlns="http://www.w3.org/2000/svg">
<rect width="24" height="24" fill="white"/>
<path fill-rule="evenodd" clip-rule="evenodd" d="M19.6329 8.6094C19.7442 8.25816 19.6329 8 19.1035 8H17.3531C16.908 8 16.703 8.22299 16.5917 8.46895C16.5917 8.46895 15.7015 10.5239 14.4404 11.8587C14.0325 12.2452 13.847 12.368 13.6245 12.368C13.5132 12.368 13.3522 12.2452 13.3522 11.8939V8.6094C13.3522 8.18782 13.223 8 12.8521 8H10.1014C9.82336 8 9.65607 8.19563 9.65607 8.38108C9.65607 8.78075 10.2865 8.87288 10.3515 9.99693V12.4384C10.3515 12.9737 10.2495 13.0708 10.0269 13.0708C9.43352 13.0708 7.99018 11.0065 7.13398 8.64457C6.96619 8.18545 6.7979 8 6.35055 8H4.60014C4.10002 8 4 8.22299 4 8.46895C4 8.90805 4.59351 11.0861 6.76314 13.9665C8.20973 15.9335 10.2475 17 12.1019 17C13.2147 17 13.3522 16.7632 13.3522 16.3552V14.8684C13.3522 14.3947 13.4576 14.3002 13.8098 14.3002C14.0696 14.3002 14.5146 14.4232 15.5532 15.3716C16.74 16.4955 16.9355 17 17.6032 17H19.3536C19.8537 17 20.1038 16.7632 19.9595 16.2957C19.8017 15.8299 19.2351 15.1542 18.4831 14.3529C18.0752 13.8962 17.4631 13.4044 17.2778 13.1585C17.0182 12.8424 17.0923 12.7019 17.2778 12.421C17.2778 12.421 19.4103 9.57559 19.6329 8.60951V8.6094Z"/>
</svg>