<svg width="24" height="24" viewBox="0 0 24 24" fill="none" xmlns="http://www.w3.org/2000/svg">
<path d="M3.28998 18.96L7.52998 14.72" stroke="#B0B0B0" stroke-width="1.2" stroke-linecap="round" stroke-linejoin="round"/>
<path fill-rule="evenodd" clip-rule="evenodd" d="M15.487 9.414L17.559 9.524C17.842 9.539 18.119 9.433 18.319 9.233L18.756 8.796C19.147 8.405 19.147 7.772 18.756 7.382L14.869 3.495C14.478 3.104 13.845 3.104 13.455 3.495L13.129 3.82C12.941 4.008 12.836 4.262 12.836 4.527V6.763L10.185 9.414H6.62399C6.35899 9.414 6.10399 9.519 5.91699 9.707L4.92899 10.695C4.53799 11.086 4.53799 11.719 4.92899 12.109L7.53499 14.715L10.141 17.321C10.532 17.712 11.165 17.712 11.555 17.321L12.543 16.333C12.731 16.145 12.836 15.891 12.836 15.626V12.064L15.487 9.414Z" stroke="#B0B0B0" stroke-width="1.2" stroke-linecap="round" stroke-linejoin="round"/>
<path d="M15.49 9.40999L12.84 6.75999" stroke="#B0B0B0" stroke-width="1.2" stroke-linecap="round" stroke-linejoin="round"/>
<path d="M5.53998 21.21L1.03998 16.71" stroke="#B0B0B0" stroke-width="1.2" stroke-linecap="round" stroke-linejoin="round"/>
</svg>
