<svg width="47" height="47" viewBox="0 0 47 47" fill="none" xmlns="http://www.w3.org/2000/svg">
<path d="M23.8882 5H41.4962L42.0004 5.50408V31.4837C41.9473 31.529 41.8911 31.5713 41.8414 31.6206C39.6845 33.7757 37.5289 35.9321 35.3745 38.0899C35.3255 38.1433 35.2654 38.1854 35.1984 38.2132C35.1314 38.241 35.0592 38.2538 34.9867 38.2508C30.012 38.2466 25.0371 38.2455 20.0621 38.2473C20.0041 38.2506 19.946 38.2506 19.888 38.2473C19.7845 38.2357 19.7399 38.2814 19.7158 38.3795C19.6772 38.5559 19.6266 38.7293 19.5642 38.8987C19.1798 39.8611 18.5317 40.6269 17.7184 41.2454C16.4575 42.2036 14.9919 42.6564 13.4459 42.8825C13.0759 42.9356 12.7021 42.9612 12.3305 43H11.4385C11.3609 42.9895 11.2864 42.9732 11.2097 42.969C9.82738 42.8872 8.50407 42.5739 7.26452 41.9469C6.16654 41.3916 5.23068 40.6475 4.59423 39.5722C4.2665 39.0185 4.07064 38.4299 4.07297 37.7742C4.07568 36.9475 4.03845 36.1204 4.03419 35.2926C4.01828 29.8252 3.9954 24.3602 3.99889 18.8937C4.00044 16.0196 4.0559 13.1429 4.07219 10.2692C4.07607 9.58637 4.2731 8.9741 4.61789 8.39984C5.13837 7.53282 5.86209 6.86976 6.72309 6.35443C8.24111 5.44553 9.89564 5.05041 11.658 5.04769C15.652 5.04175 19.6459 5.03283 23.6396 5.02094C23.7226 5.02094 23.8052 5.00737 23.8882 5ZM40.413 30.3134V6.5898H17.6393L17.6005 6.63361C17.6623 6.6687 17.7208 6.70946 17.775 6.75537C18.116 7.09969 18.4704 7.43278 18.7881 7.79765C19.3105 8.3979 19.6925 9.06833 19.7146 9.89657C19.7387 10.7942 19.7969 11.6911 19.7992 12.5888C19.8212 20.5171 19.8381 28.4454 19.85 36.3737C19.85 36.4613 19.85 36.5493 19.85 36.661H34.0563C34.0563 36.5834 34.0563 36.5059 34.0563 36.4283C34.0563 35.2523 34.0497 34.0762 34.0601 32.8998C34.0656 32.2867 34.0861 31.6725 34.1284 31.061C34.161 30.5887 34.3859 30.3898 34.8653 30.3549C35.155 30.334 35.4471 30.3181 35.7364 30.3161C37.2229 30.3107 38.7096 30.3083 40.1966 30.3088L40.413 30.3134ZM18.2552 13.9502C18.2351 13.95 18.215 13.9524 18.1955 13.9571C18.1735 13.9707 18.1527 13.9861 18.1334 14.0033C17.0424 14.9622 15.7447 15.5004 14.3508 15.8211C13.1873 16.0882 12.0055 16.1072 10.8214 16.015C8.99585 15.8707 7.33084 15.2829 5.87333 14.1537C5.78335 14.0843 5.69182 14.0169 5.56306 13.9211C5.56306 14.0331 5.56306 14.1014 5.56306 14.1692C5.56539 15.287 5.56758 16.4049 5.56965 17.5229C5.57896 24.2699 5.58879 31.0158 5.59913 37.7607C5.59586 37.8693 5.61214 37.9777 5.64722 38.0806C6.05019 39.1225 6.77739 39.8887 7.75941 40.3861C10.2571 41.6514 12.8239 41.7522 15.4189 40.713C16.6212 40.231 17.6118 39.4765 18.1303 38.2314C18.1831 38.1087 18.2119 37.9771 18.2152 37.8436C18.2313 29.9541 18.2442 22.0646 18.254 14.1751C18.2552 14.1033 18.2548 14.0324 18.2548 13.9486L18.2552 13.9502ZM11.6879 14.4946C12.8231 14.5066 13.9063 14.3647 14.9519 13.9905C15.9646 13.6291 16.8768 13.1072 17.5707 12.2642C18.4324 11.2173 18.4468 9.94039 17.6211 8.86476C17.3083 8.45962 16.9228 8.11629 16.4843 7.85233C15.2413 7.0962 13.8935 6.69643 12.4356 6.62857C11.1208 6.56808 9.84522 6.71155 8.61964 7.2071C7.71636 7.57314 6.90926 8.07373 6.26816 8.82753C5.27722 9.99429 5.54716 11.4961 6.3209 12.3534C6.55379 12.6119 6.81268 12.8458 7.09348 13.0513C8.46955 14.0545 10.0454 14.431 11.6879 14.4946ZM35.6895 35.4035L39.1777 31.9598H35.6972C35.6941 32.0126 35.6899 32.0506 35.6899 32.0886C35.6895 33.2173 35.6895 34.3465 35.6895 35.4035Z" stroke="none"/>
<path d="M11.9533 8.21589C12.6789 8.16914 13.3999 8.36072 14.0066 8.76146C15.4183 9.6882 15.4339 11.4583 13.9864 12.3265C12.6142 13.1497 11.1796 13.1338 9.80042 12.3044C9.15272 11.9166 8.75324 11.3195 8.76643 10.53C8.77613 9.85338 9.09571 9.31905 9.62279 8.9092C10.3069 8.37836 11.0927 8.17634 11.9533 8.21589ZM11.9805 11.2861C12.43 11.3005 12.8535 11.2322 13.2216 10.9406C13.5897 10.6491 13.5862 10.449 13.2216 10.1601C12.9443 9.94515 12.6109 9.81494 12.2613 9.78513C11.6671 9.72271 11.0896 9.78126 10.6176 10.1868C10.2554 10.4971 10.2053 10.632 10.6537 10.96C11.0481 11.2501 11.5128 11.2788 11.9805 11.2861Z" stroke="none"/>
</svg>
