<svg width="16" height="12" viewBox="0 0 16 12" fill="none" xmlns="http://www.w3.org/2000/svg">
    <path fill-rule="evenodd" clip-rule="evenodd" d="M3.40625 3.46875H1.625C1.211 3.46875 0.875 3.80475 0.875 4.21875V7.78125C0.875 8.19525 1.211 8.53125 1.625 8.53125H3.40625L6.3905 11.0595C6.878 11.4728 7.625 11.1263 7.625 10.4873V1.51275C7.625 0.873752 6.87725 0.527252 6.3905 0.940502L3.40625 3.46875Z" stroke="#212121" stroke-linecap="round" stroke-linejoin="round"/>
    <path d="M10.6528 8.9835C11.5243 8.442 12.1251 7.3155 12.1251 6.00375C12.1251 4.692 11.5243 3.56475 10.6528 3.0165" stroke="#212121" stroke-linecap="round" stroke-linejoin="round"/>
    <path d="M12.8787 11.2987C14.2347 10.1325 15.125 8.1975 15.125 6.00225C15.125 3.804 14.2332 1.8675 12.875 0.701996" stroke="#212121" stroke-linecap="round" stroke-linejoin="round"/>
</svg>
