<svg width="47" height="47" viewBox="0 0 47 47" fill="none" xmlns="http://www.w3.org/2000/svg">
<path fill-rule="evenodd" clip-rule="evenodd" d="M34.6672 21.9209L32.0772 32.2868C31.6412 34.031 30.0742 35.2549 28.2764 35.2549H18.7236C16.9251 35.2555 15.357 34.0317 14.9209 32.2868L12.3329 21.9209C11.9427 20.3674 11.7451 18.7718 11.7451 17.17V9.78597C11.7451 7.62196 13.4994 5.86768 15.6634 5.86768H31.3366C33.5006 5.86768 35.2549 7.62196 35.2549 9.78597V17.17C35.2549 18.7718 35.0573 20.3674 34.6672 21.9209V21.9209Z" fill="none" stroke-width="1.6" stroke-linecap="round" stroke-linejoin="round"/>
<path d="M34.2755 23.5001H12.7249" fill="none" stroke-width="1.6" stroke-linecap="round" stroke-linejoin="round"/>
<path d="M35.2549 13.7042H11.7451" fill="none" stroke-width="1.6" stroke-linecap="round" stroke-linejoin="round"/>
<path fill-rule="evenodd" clip-rule="evenodd" d="M18.602 35.2549H28.3977C29.4797 35.2549 30.3569 36.132 30.3569 37.214V38.1936C30.3569 39.8166 29.0412 41.1323 27.4181 41.1323H19.5815C17.9585 41.1323 16.6428 39.8166 16.6428 38.1936V37.214C16.6428 36.132 17.52 35.2549 18.602 35.2549Z" fill="none" stroke-width="1.6" stroke-linecap="round" stroke-linejoin="round"/>
</svg>
