<svg width="49" height="48" viewBox="0 0 49 48" fill="none" xmlns="http://www.w3.org/2000/svg">
<path d="M14.8185 37.0058H31.8691" fill="none" stroke-width="1.5" stroke-linecap="round" stroke-linejoin="round"/>
<ellipse cx="34.8704" cy="37.0058" rx="3.00125" ry="3.00125" fill="none" stroke-width="1.5" stroke-linecap="round" stroke-linejoin="round"/>
<ellipse cx="11.8174" cy="37.0058" rx="3.00125" ry="3.00125" fill="none" stroke-width="1.5" stroke-linecap="round" stroke-linejoin="round"/>
<path d="M4.85815 27.7237H29.8686C30.4211 27.7237 30.869 27.2758 30.869 26.7233V13.9962C30.869 11.7861 29.0774 9.99451 26.8673 9.99451H8.85982C6.64976 9.99451 4.85815 11.7861 4.85815 13.9962V35.0049C4.85815 36.11 5.75396 37.0058 6.85899 37.0058H8.81632" fill="none" stroke-width="1.5" stroke-linecap="round" stroke-linejoin="round"/>
<path d="M30.8689 13.9962H37.3647C39.4705 13.9962 41.3507 15.315 42.0678 17.2948L44.6355 24.3839C44.7938 24.8208 44.8747 25.282 44.8747 25.7467V34.0045C44.8747 35.6621 43.531 37.0058 41.8735 37.0058H37.8718" fill="none" stroke-width="1.5" stroke-linecap="round" stroke-linejoin="round"/>
<path d="M44.8747 26.0012H38.8722L37.4574 24.5864C37.0822 24.2112 36.5733 24.0004 36.0426 24.0004H30.8689" fill="none" stroke-width="1.5" stroke-linecap="round" stroke-linejoin="round"/>
</svg>
