<svg width="48" height="49" viewBox="0 0 48 49" fill="none" xmlns="http://www.w3.org/2000/svg">
<path d="M10.0777 29.5934C9.71852 29.5934 9.36742 29.7021 9.06879 29.9056C8.77015 30.1091 8.5374 30.3984 8.39995 30.7369C8.26251 31.0754 8.22654 31.4478 8.29661 31.8071C8.36668 32.1664 8.53964 32.4964 8.7936 32.7555C9.04757 33.0145 9.37114 33.1909 9.7234 33.2624C10.0757 33.3339 10.4408 33.2972 10.7726 33.157C11.1044 33.0168 11.3881 32.7794 11.5876 32.4748C11.7871 32.1702 11.8936 31.8121 11.8936 31.4457C11.8931 30.9546 11.7016 30.4838 11.3612 30.1366C11.0207 29.7893 10.5591 29.594 10.0777 29.5934V29.5934ZM10.0777 32.0632C9.95796 32.0632 9.84093 32.0269 9.74138 31.9591C9.64184 31.8913 9.56425 31.7948 9.51844 31.682C9.47262 31.5692 9.46064 31.445 9.48399 31.3253C9.50735 31.2055 9.565 31.0955 9.64966 31.0091C9.73431 30.9228 9.84217 30.864 9.95959 30.8402C10.077 30.8163 10.1987 30.8286 10.3093 30.8753C10.4199 30.922 10.5145 31.0012 10.581 31.1027C10.6475 31.2042 10.683 31.3236 10.683 31.4457C10.6828 31.6094 10.619 31.7664 10.5055 31.8821C10.392 31.9979 10.2382 32.063 10.0777 32.0632Z" stroke="none"/>
<path d="M33.0798 29.5934C32.7207 29.5934 32.3696 29.7021 32.0709 29.9056C31.7723 30.1091 31.5395 30.3984 31.4021 30.7369C31.2646 31.0754 31.2287 31.4478 31.2987 31.8071C31.3688 32.1664 31.5418 32.4964 31.7957 32.7555C32.0497 33.0145 32.3733 33.1909 32.7255 33.2624C33.0778 33.3339 33.4429 33.2972 33.7748 33.157C34.1066 33.0168 34.3902 32.7794 34.5897 32.4748C34.7893 32.1702 34.8958 31.8121 34.8958 31.4457C34.8952 30.9546 34.7037 30.4838 34.3633 30.1366C34.0229 29.7893 33.5613 29.594 33.0798 29.5934V29.5934ZM33.0798 32.0632C32.9601 32.0632 32.8431 32.0269 32.7435 31.9591C32.644 31.8913 32.5664 31.7948 32.5206 31.682C32.4748 31.5692 32.4628 31.445 32.4861 31.3253C32.5095 31.2055 32.5671 31.0955 32.6518 31.0091C32.7364 30.9228 32.8443 30.864 32.9617 30.8402C33.0791 30.8163 33.2009 30.8286 33.3115 30.8753C33.4221 30.922 33.5166 31.0012 33.5831 31.1027C33.6496 31.2042 33.6851 31.3236 33.6851 31.4457C33.685 31.6094 33.6211 31.7664 33.5076 31.8821C33.3942 31.9979 33.2403 32.063 33.0798 32.0632Z" stroke="none"/>
<path d="M37.317 31.4458C37.317 30.872 37.205 30.304 36.9875 29.7748C36.77 29.2457 36.4514 28.766 36.0503 28.3637C35.6492 27.9615 35.1735 27.6447 34.6511 27.4319C34.1287 27.2192 33.57 27.1146 33.0076 27.1244C30.711 27.1635 28.8425 29.1294 28.8425 31.5067V33.5809C27.1843 33.1205 24.7659 32.6806 21.5787 32.6806C18.3914 32.6806 15.973 33.1205 14.3148 33.5809V31.4458C14.3148 30.8641 14.1997 30.2883 13.9763 29.7531C13.753 29.2179 13.426 28.7341 13.015 28.3309C12.604 27.9276 12.1174 27.6131 11.5844 27.4063C11.0514 27.1994 10.4829 27.1044 9.91306 27.127C8.84814 27.1728 7.8389 27.6248 7.08521 28.3936C6.33153 29.1623 5.88837 30.1917 5.84349 31.278C5.80309 32.3454 6.15147 33.3903 6.82149 34.2113C7.49152 35.0324 8.43576 35.5713 9.47224 35.7244V38.2375C9.47296 38.8922 9.72829 39.52 10.1822 39.983C10.6361 40.446 11.2516 40.7064 11.8935 40.7072V42.5594C11.8935 42.7232 11.9573 42.8802 12.0708 42.996C12.1843 43.1118 12.3383 43.1769 12.4988 43.1769H14.3148C14.4272 43.1769 14.5374 43.1449 14.633 43.0847C14.7286 43.0244 14.8059 42.9381 14.8562 42.8356L15.8995 40.7072H27.2578L28.3011 42.8356C28.3514 42.9381 28.4287 43.0244 28.5243 43.0847C28.6199 43.1449 28.7301 43.1769 28.8425 43.1769H30.6585C30.819 43.1769 30.973 43.1118 31.0865 42.996C31.2 42.8802 31.2638 42.7232 31.2638 42.5594V40.7072C31.9057 40.7064 32.5212 40.446 32.9751 39.983C33.429 39.52 33.6843 38.8922 33.6851 38.2375V35.7238C34.693 35.574 35.6145 35.0594 36.2813 34.274C36.9481 33.4886 37.3157 32.4847 37.317 31.4458V31.4458ZM13.9407 41.942H13.1042V40.7072H14.546L13.9407 41.942ZM30.0531 41.942H29.2166L28.6113 40.7072H30.0531V41.942ZM33.0797 34.5329C32.9192 34.5329 32.7652 34.5979 32.6517 34.7137C32.5382 34.8295 32.4744 34.9866 32.4744 35.1503V38.2375C32.474 38.5648 32.3464 38.8787 32.1194 39.1102C31.8925 39.3417 31.5847 39.4719 31.2638 39.4723H11.8935C11.5726 39.4719 11.2648 39.3417 11.0379 39.1102C10.8109 38.8787 10.6833 38.5648 10.6829 38.2375V35.1503C10.6829 34.9866 10.6191 34.8295 10.5056 34.7137C10.3921 34.5979 10.2381 34.5329 10.0776 34.5329C9.67012 34.5329 9.26687 34.449 8.89199 34.2862C8.51711 34.1234 8.17831 33.8851 7.8959 33.5856C7.61349 33.286 7.39329 32.9314 7.24849 32.5429C7.10369 32.1544 7.03727 31.7402 7.05322 31.3249C7.0853 30.5494 7.40171 29.8144 7.93981 29.2656C8.47791 28.7167 9.19845 28.394 9.95876 28.3612C10.3659 28.3449 10.7721 28.4126 11.1529 28.5603C11.5338 28.708 11.8815 28.9325 12.1752 29.2206C12.4689 29.5086 12.7026 29.8541 12.8622 30.2365C13.0218 30.6189 13.1041 31.0302 13.1042 31.4458V33.9618C12.1499 34.3014 11.6485 34.5824 11.5968 34.6122L12.189 35.6892C12.2202 35.6714 15.3887 33.9155 21.5787 33.9155C27.7686 33.9155 30.9371 35.6714 30.967 35.6885L31.5605 34.6122C31.5088 34.5824 31.0074 34.301 30.0531 33.9618V31.5067C30.0531 29.7991 31.3876 28.387 33.0278 28.3591C33.4274 28.352 33.8244 28.4258 34.196 28.5761C34.5675 28.7264 34.9062 28.9502 35.1924 29.2347C35.4787 29.5192 35.7068 29.8588 35.8638 30.2337C36.0207 30.6087 36.1032 31.0116 36.1067 31.4192C36.1101 31.8269 36.0343 32.2312 35.8838 32.6089C35.7332 32.9865 35.5108 33.33 35.2293 33.6195C34.9479 33.9089 34.6131 34.1387 34.2441 34.2955C33.8752 34.4523 33.4794 34.533 33.0797 34.5329V34.5329Z" stroke="none"/>
<path d="M10.6829 22.8018C10.6833 22.4744 10.811 22.1605 11.0379 21.929C11.2649 21.6975 11.5726 21.5673 11.8936 21.5669H31.2638C31.5848 21.5673 31.8925 21.6975 32.1195 21.929C32.3464 22.1605 32.4741 22.4744 32.4745 22.8018V25.8889H33.6851V22.8018C33.6844 22.147 33.4291 21.5192 32.9751 21.0562C32.5212 20.5932 31.9058 20.3328 31.2638 20.3321H11.8936C11.2516 20.3328 10.6362 20.5932 10.1823 21.0562C9.72834 21.5192 9.47301 22.147 9.47229 22.8018V25.8889H10.6829V22.8018Z" stroke="none"/>
<path d="M39.7383 4.89636H22.7893C22.1474 4.8971 21.5319 5.15753 21.078 5.62054C20.6241 6.08354 20.3688 6.71129 20.368 7.36607V7.9835H21.5787V7.36607C21.5791 7.03869 21.7067 6.72482 21.9337 6.49333C22.1606 6.26183 22.4684 6.1316 22.7893 6.13122H30.6585V19.0972H31.8691V6.13122H39.7383C40.0593 6.1316 40.367 6.26183 40.5939 6.49333C40.8209 6.72482 40.9486 7.03869 40.9489 7.36607V38.2374C40.9486 38.5648 40.8209 38.8787 40.5939 39.1102C40.367 39.3417 40.0593 39.4719 39.7383 39.4723H34.2904V40.7071H35.7323L36.7756 42.8356C36.8259 42.9381 36.9032 43.0243 36.9988 43.0846C37.0944 43.1449 37.2046 43.1768 37.317 43.1768H39.133C39.2935 43.1768 39.4475 43.1118 39.561 42.996C39.6745 42.8802 39.7383 42.7232 39.7383 42.5594V40.7071C40.3802 40.7064 40.9957 40.446 41.4496 39.983C41.9035 39.52 42.1589 38.8922 42.1596 38.2374V7.36607C42.1589 6.71129 41.9035 6.08354 41.4496 5.62054C40.9957 5.15753 40.3802 4.8971 39.7383 4.89636V4.89636ZM38.5277 41.942H37.6911L37.0858 40.7071H38.5277V41.942Z" stroke="none"/>
<path d="M10.0776 17.8624H15.5255V19.0972H16.7361V17.8624H22.184C22.2677 17.8623 22.3505 17.8446 22.4272 17.8103C22.5039 17.776 22.5728 17.7258 22.6294 17.663C22.6861 17.6001 22.7294 17.5259 22.7566 17.4452C22.7837 17.3644 22.7942 17.2787 22.7872 17.1936L22.1819 9.78448C22.1693 9.63015 22.1002 9.4863 21.9885 9.38144C21.8768 9.27658 21.7305 9.21838 21.5787 9.21837H16.7361V7.98352H15.5255V9.21837H10.6829C10.5311 9.21838 10.3848 9.27658 10.2731 9.38144C10.1613 9.4863 10.0923 9.63015 10.0797 9.78448L9.47439 17.1936C9.46742 17.2787 9.47785 17.3644 9.50501 17.4452C9.53216 17.5259 9.57545 17.6001 9.63214 17.663C9.68883 17.7258 9.75769 17.776 9.83436 17.8103C9.91104 17.8446 9.99386 17.8623 10.0776 17.8624V17.8624ZM11.2399 10.4532H21.0217L21.5262 16.6275H10.7354L11.2399 10.4532Z" stroke="none"/>
</svg>
