<svg width="48" height="48" viewBox="0 0 48 48" stroke="#000" fill="none" xmlns="http://www.w3.org/2000/svg">
<path d="M27.8184 20.1815C29.9273 22.2904 29.9273 25.7095 27.8184 27.8183C25.7096 29.9271 22.2905 29.9271 20.1817 27.8183C18.0728 25.7095 18.0728 22.2904 20.1817 20.1815C22.2905 18.0727 25.7096 18.0727 27.8184 20.1815" fill="transparent" stroke-width="1.6" stroke-linecap="round" stroke-linejoin="round"/>
<path d="M10.5001 24C10.5001 24.594 10.5541 25.188 10.6261 25.764L7.45011 28.248C6.74611 28.8 6.55411 29.786 7.00211 30.56L9.82611 35.446C10.2721 36.22 11.2201 36.546 12.0501 36.214L14.8941 35.072C15.4561 34.846 16.0821 34.936 16.5861 35.27C17.0261 35.562 17.4821 35.83 17.9541 36.07C18.4941 36.344 18.8861 36.834 18.9721 37.434L19.4061 40.46C19.5321 41.344 20.2901 42 21.1821 42H26.8161C27.7081 42 28.4661 41.344 28.5921 40.46L29.0261 37.436C29.1121 36.836 29.5081 36.342 30.0501 36.07C30.5201 35.834 30.9741 35.568 31.4121 35.278C31.9201 34.942 32.5481 34.846 33.1121 35.074L35.9501 36.214C36.7781 36.546 37.7261 36.22 38.1741 35.446L40.9981 30.56C41.4461 29.786 41.2541 28.798 40.5501 28.248L37.3741 25.764C37.4461 25.188 37.5001 24.594 37.5001 24C37.5001 23.406 37.4461 22.812 37.3741 22.236L40.5501 19.752C41.2541 19.2 41.4461 18.214 40.9981 17.44L38.1741 12.554C37.7281 11.78 36.7801 11.454 35.9501 11.786L33.1121 12.926C32.5481 13.152 31.9201 13.058 31.4121 12.722C30.9741 12.432 30.5201 12.166 30.0501 11.93C29.5081 11.658 29.1121 11.164 29.0261 10.564L28.5941 7.54C28.4681 6.656 27.7101 6 26.8181 6H21.1841C20.2921 6 19.5341 6.656 19.4081 7.54L18.9721 10.568C18.8861 11.166 18.4921 11.658 17.9541 11.932C17.4821 12.172 17.0261 12.442 16.5861 12.732C16.0801 13.064 15.4541 13.154 14.8921 12.928L12.0501 11.786C11.2201 11.454 10.2721 11.78 9.82611 12.554L7.00211 17.44C6.55411 18.214 6.74611 19.202 7.45011 19.752L10.6261 22.236C10.5541 22.812 10.5001 23.406 10.5001 24V24Z" fill="transparent" stroke-width="1.6" stroke-linecap="round" stroke-linejoin="round"/>
</svg>
