<svg xmlns="http://www.w3.org/2000/svg" width="472" height="24" viewBox="0 0 472 24" fill="none">
<rect x="384" width="24" height="24" rx="2" fill="#B0B0B0"/>
<rect x="384" width="24" height="24" rx="2" fill="#B0B0B0"/>
<path fill-rule="evenodd" clip-rule="evenodd" d="M396.001 5.59998C394.262 5.59998 394.044 5.60758 393.362 5.63864C392.68 5.66984 392.215 5.77771 391.808 5.93598C391.387 6.09945 391.03 6.31812 390.675 6.67399C390.319 7.02972 390.1 7.38679 389.936 7.8076C389.777 8.21467 389.669 8.67987 389.639 9.36095C389.608 10.0436 389.6 10.2619 389.6 12C389.6 13.7382 389.608 13.9557 389.639 14.6383C389.67 15.3197 389.778 15.7847 389.936 16.1917C390.1 16.6126 390.318 16.9697 390.674 17.3254C391.03 17.6814 391.387 17.9006 391.807 18.0641C392.215 18.2224 392.68 18.3302 393.361 18.3614C394.044 18.3925 394.262 18.4001 396 18.4001C397.738 18.4001 397.956 18.3925 398.638 18.3614C399.32 18.3302 399.785 18.2224 400.192 18.0641C400.613 17.9006 400.97 17.6814 401.325 17.3254C401.681 16.9697 401.9 16.6126 402.064 16.1918C402.221 15.7847 402.329 15.3195 402.361 14.6385C402.392 13.9558 402.4 13.7382 402.4 12C402.4 10.2619 402.392 10.0438 402.361 9.36108C402.329 8.67974 402.221 8.21467 402.064 7.80773C401.9 7.38679 401.681 7.02972 401.325 6.67399C400.969 6.31798 400.613 6.09931 400.192 5.93598C399.784 5.77771 399.319 5.66984 398.637 5.63864C397.955 5.60758 397.737 5.59998 395.999 5.59998H396.001ZM395.426 6.75336C395.597 6.75309 395.787 6.75336 396.001 6.75336C397.709 6.75336 397.912 6.75949 398.587 6.79016C399.211 6.81869 399.549 6.92296 399.775 7.01056C400.074 7.12656 400.287 7.26523 400.51 7.48923C400.734 7.71323 400.873 7.92657 400.989 8.22524C401.077 8.45058 401.181 8.78925 401.21 9.41325C401.24 10.0879 401.247 10.2906 401.247 11.9986C401.247 13.7066 401.24 13.9093 401.21 14.584C401.181 15.208 401.077 15.5466 400.989 15.772C400.873 16.0707 400.734 16.2833 400.51 16.5072C400.286 16.7312 400.074 16.8699 399.775 16.9859C399.55 17.0739 399.211 17.1779 398.587 17.2064C397.912 17.2371 397.709 17.2437 396.001 17.2437C394.292 17.2437 394.089 17.2371 393.414 17.2064C392.79 17.1776 392.452 17.0733 392.226 16.9857C391.927 16.8697 391.714 16.7311 391.49 16.5071C391.266 16.2831 391.127 16.0703 391.011 15.7715C390.923 15.5461 390.819 15.2074 390.791 14.5834C390.76 13.9088 390.754 13.7061 390.754 11.997C390.754 10.2879 390.76 10.0863 390.791 9.41165C390.819 8.78765 390.923 8.44898 391.011 8.22337C391.127 7.9247 391.266 7.71137 391.49 7.48737C391.714 7.26336 391.927 7.1247 392.226 7.00843C392.452 6.92043 392.79 6.81643 393.414 6.78776C394.005 6.76109 394.234 6.75309 395.426 6.75176V6.75336ZM399.417 7.81604C398.993 7.81604 398.649 8.15964 398.649 8.58378C398.649 9.00778 398.993 9.35179 399.417 9.35179C399.841 9.35179 400.185 9.00778 400.185 8.58378C400.185 8.15978 399.841 7.81577 399.417 7.81577V7.81604ZM396 8.71338C394.185 8.71338 392.714 10.185 392.714 12.0001C392.714 13.8152 394.185 15.2861 396 15.2861C397.816 15.2861 399.287 13.8152 399.287 12.0001C399.287 10.185 397.815 8.71338 396 8.71338H396ZM396.001 9.8667C397.179 9.8667 398.134 10.8218 398.134 12.0001C398.134 13.1782 397.179 14.1334 396.001 14.1334C394.822 14.1334 393.867 13.1782 393.867 12.0001C393.867 10.8218 394.822 9.8667 396.001 9.8667Z" fill="white"/>
<rect x="416" width="24" height="24" rx="2" fill="#B0B0B0"/>
<path fill-rule="evenodd" clip-rule="evenodd" d="M427.641 9.75376L427.666 10.169L427.246 10.1181C425.718 9.92324 424.384 9.26227 423.251 8.15217L422.697 7.60136L422.554 8.00811C422.252 8.91483 422.445 9.8724 423.074 10.5164C423.41 10.8723 423.335 10.9232 422.755 10.7113C422.554 10.6435 422.378 10.5927 422.361 10.6181C422.302 10.6774 422.504 11.4486 422.663 11.7536C422.881 12.1773 423.326 12.5926 423.813 12.8383L424.224 13.0332L423.738 13.0417C423.267 13.0417 423.251 13.0502 423.301 13.2281C423.469 13.7789 424.132 14.3636 424.871 14.6179L425.391 14.7958L424.938 15.067C424.266 15.4568 423.477 15.6771 422.688 15.6941C422.311 15.7025 422 15.7364 422 15.7618C422 15.8466 423.024 16.3211 423.62 16.5076C425.408 17.0584 427.531 16.8211 429.126 15.8805C430.259 15.211 431.393 13.8806 431.921 12.5926C432.207 11.9062 432.492 10.652 432.492 10.0504C432.492 9.66055 432.517 9.6097 432.987 9.14363C433.264 8.87246 433.525 8.57587 433.575 8.49113C433.659 8.33013 433.651 8.33013 433.222 8.47419C432.509 8.72841 432.408 8.69451 432.761 8.31318C433.021 8.04201 433.332 7.55052 433.332 7.40646C433.332 7.38104 433.206 7.42341 433.063 7.49967C432.912 7.58441 432.576 7.71152 432.324 7.78779L431.871 7.93185L431.46 7.65221C431.233 7.49967 430.914 7.33019 430.746 7.27935C430.318 7.16071 429.663 7.17766 429.277 7.31324C428.228 7.69458 427.565 8.67756 427.641 9.75376Z" fill="white"/>
<rect x="288" width="24" height="24" rx="2" fill="#B0B0B0"/>
<path fill-rule="evenodd" clip-rule="evenodd" d="M301.251 19.0557V12.5271H303.053L303.292 10.2773H301.251L301.254 9.15125C301.254 8.56447 301.31 8.25006 302.152 8.25006H303.279V6H301.477C299.312 6 298.55 7.0914 298.55 8.92678V10.2776H297.2V12.5274H298.55V19.0557H301.251Z" fill="white"/>
<rect x="320" width="24" height="24" rx="2" fill="#B0B0B0"/>
<path fill-rule="evenodd" clip-rule="evenodd" d="M332.628 15.938C332.628 15.938 332.859 15.9128 332.977 15.7881C333.085 15.6738 333.082 15.4581 333.082 15.4581C333.082 15.4581 333.067 14.4509 333.544 14.3022C334.013 14.1559 334.616 15.2762 335.256 15.707C335.739 16.0327 336.106 15.9614 336.106 15.9614L337.816 15.938C337.816 15.938 338.71 15.8839 338.286 15.1938C338.251 15.1373 338.039 14.6832 337.015 13.7503C335.943 12.7738 336.087 12.9318 337.378 11.2424C338.164 10.2137 338.478 9.58566 338.38 9.31711C338.287 9.06024 337.708 9.12845 337.708 9.12845L335.784 9.14013C335.784 9.14013 335.641 9.12108 335.535 9.18315C335.432 9.24398 335.365 9.38594 335.365 9.38594C335.365 9.38594 335.061 10.1818 334.654 10.859C333.797 12.2871 333.455 12.3627 333.314 12.2742C332.988 12.0671 333.07 11.4434 333.07 11.0003C333.07 9.61577 333.284 9.03873 332.653 8.8894C332.444 8.83963 332.29 8.80706 331.755 8.80153C331.068 8.79477 330.487 8.80398 330.158 8.96192C329.939 9.067 329.77 9.30175 329.873 9.31527C330 9.33186 330.288 9.39147 330.441 9.59549C330.638 9.85913 330.631 10.4503 330.631 10.4503C330.631 10.4503 330.745 12.08 330.366 12.2822C330.107 12.4211 329.752 12.1378 328.987 10.8418C328.596 10.1781 328.3 9.44432 328.3 9.44432C328.3 9.44432 328.243 9.30728 328.141 9.23354C328.018 9.14443 327.846 9.11678 327.846 9.11678L326.017 9.12845C326.017 9.12845 325.742 9.13583 325.642 9.2532C325.552 9.35706 325.635 9.57276 325.635 9.57276C325.635 9.57276 327.067 12.8611 328.688 14.5185C330.175 16.0376 331.863 15.938 331.863 15.938H332.628Z" fill="white"/>
<rect x="352" width="24" height="24" rx="2" fill="#B0B0B0"/>
<path fill-rule="evenodd" clip-rule="evenodd" d="M365.32 9.0968C365.32 8.38977 364.724 7.81484 363.992 7.81484C363.26 7.81484 362.664 8.38977 362.664 9.0968C362.664 9.80328 363.26 10.3786 363.992 10.3786C364.724 10.3786 365.32 9.80328 365.32 9.0968ZM367.2 9.09679C367.2 10.804 365.761 12.1927 363.992 12.1927C362.223 12.1927 360.784 10.804 360.784 9.09679C360.784 7.38905 362.223 6 363.992 6C365.761 6 367.2 7.38905 367.2 9.09679ZM367.161 13.9755C366.581 14.3272 365.951 14.5766 365.298 14.7201L367.091 16.4514C367.459 16.8053 367.459 17.38 367.091 17.7343C366.724 18.0886 366.13 18.0886 365.763 17.7343L364 16.0331L362.238 17.7343C362.054 17.9112 361.814 17.9998 361.573 17.9998C361.333 17.9998 361.092 17.9112 360.909 17.7343C360.542 17.38 360.542 16.8057 360.908 16.4514L362.702 14.7201C362.049 14.5766 361.419 14.3268 360.839 13.9755C360.4 13.7083 360.268 13.1486 360.545 12.7245C360.821 12.2998 361.401 12.172 361.84 12.4392C363.154 13.2366 364.845 13.2368 366.159 12.4392C366.599 12.172 367.179 12.2998 367.455 12.7245C367.732 13.1482 367.6 13.7083 367.161 13.9755Z" fill="white"/>
<rect x="160" width="24" height="24" rx="2" fill="#B0B0B0"/>
<path fill-rule="evenodd" clip-rule="evenodd" d="M174.487 11.9343C174.405 10.342 173.223 9.38467 171.796 9.38467H171.742C170.095 9.38467 169.182 10.6798 169.182 12.151C169.182 13.7985 170.287 14.8389 171.736 14.8389C173.351 14.8389 174.414 13.6556 174.49 12.256L174.487 11.9343ZM171.75 7.96027C172.851 7.96027 173.885 8.44661 174.645 9.2081V9.21113C174.645 8.84533 174.891 8.5698 175.233 8.5698L175.319 8.56923C175.854 8.56923 175.963 9.07507 175.963 9.23516L175.966 14.9206C175.928 15.2925 176.35 15.4846 176.584 15.2461C177.497 14.3079 178.589 10.4232 176.017 8.17221C173.619 6.07375 170.402 6.41968 168.691 7.59882C166.872 8.85328 165.709 11.6292 166.839 14.2365C168.071 17.0812 171.598 17.929 173.694 17.0832C174.755 16.6548 175.245 18.0896 174.143 18.5582C172.477 19.268 167.842 19.1965 165.677 15.4454C164.214 12.9124 164.292 8.45569 168.172 6.1468C171.14 4.38064 175.053 4.86982 177.413 7.33446C179.88 9.91074 179.736 14.735 177.33 16.6117C176.24 17.4634 174.621 16.634 174.631 15.3922L174.62 14.9861C173.861 15.7395 172.851 16.1789 171.75 16.1789C169.576 16.1789 167.663 14.2655 167.663 12.0917C167.663 9.8956 169.576 7.96027 171.75 7.96027Z" fill="white"/>
<rect x="128" width="24" height="24" rx="2" fill="#B0B0B0"/>
<rect x="129" y="1" width="22" height="22" rx="11" fill="white"/>
<path d="M132.573 1.52438C134.948 0.897324 137.429 1.044 139.864 1C139.721 3.30104 139.864 5.67358 139.096 7.88477C138.798 8.72193 138.296 9.47147 137.635 10.0656C136.974 10.6598 136.176 11.0798 135.313 11.2877C133.251 11.7791 131.115 11.8176 129 11.8341C129.068 9.26723 128.885 6.60866 129.691 4.13344C130.1 2.80416 131.256 1.84707 132.573 1.52438ZM140.177 1C142.706 1.04584 145.308 0.869822 147.77 1.62889C148.391 1.81437 148.955 2.15256 149.411 2.61251C149.867 3.07246 150.201 3.63951 150.381 4.26179C151.114 6.7095 150.971 9.30756 151 11.8341C148.89 11.8195 146.75 11.7828 144.692 11.2841C143.805 11.067 142.989 10.6275 142.319 10.0071C141.649 9.38675 141.147 8.60587 140.863 7.73809C140.177 5.5599 140.295 3.25337 140.177 1ZM129 12.1642C130.88 12.1526 132.758 12.2875 134.616 12.5675C136.449 12.848 138.22 13.9738 138.944 15.7285C139.906 18.0277 139.666 20.5726 139.86 23.0001C137.662 22.9763 135.446 23.0514 133.277 22.6499C132.044 22.4134 130.737 21.8725 130.089 20.7302C129.261 19.2469 129.167 17.5015 129.07 15.8311C129.055 14.6082 128.978 13.3871 129.006 12.1642H129ZM145.002 12.6464C146.971 12.2522 148.99 12.188 150.995 12.1678C150.966 14.6944 151.118 17.2924 150.376 19.7402C150.194 20.3601 149.86 20.925 149.406 21.3839C148.951 21.8429 148.39 22.1815 147.772 22.3694C145.313 23.1266 142.698 22.9543 140.159 22.9946C140.276 20.6936 140.159 18.321 140.91 16.1098C141.518 14.3185 143.164 13.0021 145.002 12.6464Z" fill="#B0B0B0"/>
<rect x="96" width="24" height="24" rx="2" fill="#B0B0B0"/>
<circle cx="108" cy="10.8364" r="9" fill="white"/>
<path d="M105.307 19.9459C105.38 19.8242 105.448 19.7155 105.513 19.6034C105.812 19.0884 106.079 18.5562 106.24 17.9815C106.375 17.4998 106.494 17.0145 106.619 16.5303C106.718 16.1416 106.816 15.7522 106.915 15.3631C106.919 15.3491 106.924 15.3352 106.93 15.3156C106.975 15.3811 107.014 15.4435 107.058 15.5013C107.256 15.7598 107.509 15.9527 107.792 16.1087C108.158 16.3085 108.56 16.432 108.974 16.4719C109.202 16.4913 109.43 16.4899 109.657 16.4675C110.024 16.4377 110.387 16.3635 110.736 16.2463C111.191 16.093 111.618 15.8673 112.001 15.5778C112.607 15.1222 113.077 14.5515 113.445 13.8924C113.8 13.2549 114.051 12.5655 114.191 11.8497C114.253 11.5382 114.3 11.2236 114.331 10.9073C114.364 10.574 114.38 10.2393 114.379 9.90446C114.375 9.21498 114.224 8.5542 113.946 7.92232C113.714 7.39232 113.396 6.90351 113.007 6.47488C112.597 6.02205 112.115 5.63881 111.582 5.34013C111.047 5.03951 110.47 4.82033 109.871 4.68982C109.581 4.62675 109.288 4.58219 108.993 4.55641C108.62 4.52393 108.246 4.51854 107.873 4.54028C107.375 4.56597 106.88 4.63762 106.395 4.75433C105.591 4.94995 104.843 5.2706 104.16 5.7387C103.665 6.07831 103.222 6.4896 102.847 6.9591C102.348 7.57908 101.979 8.29395 101.764 9.06042C101.656 9.44224 101.592 9.83532 101.574 10.2318C101.547 10.8574 101.612 11.4719 101.796 12.0717C101.939 12.5375 102.154 12.9658 102.473 13.3384C102.75 13.6678 103.104 13.9246 103.503 14.0866C103.57 14.1144 103.641 14.127 103.713 14.1234C103.871 14.1109 103.954 14.0026 103.992 13.8597C104.046 13.6612 104.095 13.4618 104.144 13.2618C104.171 13.1531 104.196 13.044 104.216 12.934C104.222 12.8924 104.22 12.8499 104.21 12.8091C104.199 12.7684 104.18 12.7302 104.154 12.6971C104.074 12.5878 103.987 12.4835 103.908 12.3731C103.672 12.0428 103.534 11.6728 103.469 11.2734C103.42 10.9535 103.411 10.6288 103.442 10.3066C103.517 9.43029 103.808 8.63316 104.339 7.92965C104.874 7.22174 105.567 6.72788 106.403 6.43194C106.743 6.31263 107.095 6.2317 107.453 6.19067C107.854 6.14314 108.26 6.13935 108.662 6.17936C109.254 6.23821 109.821 6.38649 110.343 6.68034C110.927 7.00811 111.372 7.46783 111.671 8.06683C111.853 8.43698 111.971 8.83535 112.019 9.24493C112.06 9.58113 112.066 9.92052 112.038 10.258C112.016 10.5615 111.991 10.8654 111.945 11.1663C111.819 11.9783 111.582 12.7541 111.15 13.4608C110.931 13.8195 110.666 14.1391 110.327 14.393C110.048 14.6024 109.74 14.748 109.395 14.806C108.9 14.8898 108.439 14.8137 108.037 14.4971C107.736 14.2606 107.563 13.9483 107.513 13.5684C107.479 13.3156 107.52 13.071 107.591 12.8299C107.762 12.2424 107.937 11.6556 108.11 11.0683C108.211 10.7265 108.303 10.3824 108.354 10.0291C108.399 9.71492 108.401 9.40201 108.307 9.09414C108.137 8.53744 107.711 8.21951 107.127 8.21281C106.657 8.20737 106.274 8.39984 105.955 8.73285C105.637 9.06586 105.454 9.46589 105.351 9.90572C105.253 10.3227 105.244 10.7435 105.297 11.1682C105.336 11.5032 105.422 11.8312 105.55 12.143C105.56 12.1691 105.562 12.1976 105.556 12.2248C105.271 13.4358 104.984 14.6466 104.697 15.8572C104.57 16.3942 104.439 16.9303 104.321 17.4699C104.269 17.7078 104.241 17.9516 104.212 18.1935C104.164 18.5901 104.168 18.9893 104.172 19.3873C104.172 19.4306 104.172 19.474 104.172 19.5272C102.742 18.8903 101.528 17.9715 100.563 16.7416C98.8939 14.6143 98.2508 12.197 98.5854 9.51679C99.3832 3.93018 104.796 0.259535 110.284 1.6209C115.711 2.96571 118.816 8.64761 116.962 13.9894C116.012 16.5615 114.294 18.4295 111.786 19.5381C109.69 20.4648 107.522 20.5624 105.307 19.9459Z" fill="#B0B0B0"/>
<rect x="64" width="24" height="24" rx="2" fill="#B0B0B0"/>
<path d="M82.9921 8.17952C82.038 8.17952 81.1577 7.86345 80.4508 7.33023C79.64 6.71898 79.0575 5.82234 78.8518 4.78888C78.8008 4.53354 78.7734 4.27004 78.7708 4H76.0453V11.4474L76.042 15.5267C76.042 16.6173 75.3318 17.542 74.3473 17.8672C74.0616 17.9616 73.7531 18.0063 73.4318 17.9887C73.0217 17.9661 72.6373 17.8424 72.3033 17.6426C71.5925 17.2174 71.1105 16.4462 71.0974 15.5639C71.0769 14.185 72.1916 13.0607 73.5696 13.0607C73.8416 13.0607 74.1028 13.1052 74.3473 13.1858V11.1502V10.4185C74.0894 10.3803 73.8269 10.3604 73.5614 10.3604C72.0532 10.3604 70.6426 10.9873 69.6343 12.1168C68.8722 12.9703 68.415 14.0593 68.3445 15.2011C68.2521 16.7012 68.801 18.1271 69.8655 19.1792C70.0219 19.3336 70.1861 19.477 70.3579 19.6092C71.2705 20.3116 72.3862 20.6923 73.5614 20.6923C73.8269 20.6923 74.0894 20.6727 74.3473 20.6345C75.4451 20.4719 76.458 19.9694 77.2573 19.1792C78.2395 18.2084 78.7822 16.9196 78.7881 15.5479L78.774 9.45624C79.2426 9.8177 79.7549 10.1168 80.3048 10.349C81.16 10.7098 82.0667 10.8926 82.9999 10.8923V8.91323V8.17887C83.0006 8.17952 82.9928 8.17952 82.9921 8.17952Z" fill="white"/>
<rect x="32" width="24" height="24" rx="2" fill="#B0B0B0"/>
<path d="M50.7256 14.8013C48.8538 14.4933 48.0103 12.5761 47.9762 12.4947C47.9736 12.4895 47.9718 12.4842 47.9683 12.479C47.8729 12.2847 47.8502 12.1246 47.9027 12.003C48.0051 11.7632 48.3971 11.6389 48.6561 11.5567C48.7313 11.5331 48.8022 11.5103 48.8608 11.4876C49.1164 11.3869 49.2984 11.2775 49.4191 11.1542C49.5626 11.0063 49.5906 10.8645 49.5889 10.7726C49.5845 10.5486 49.413 10.3491 49.1391 10.252C49.0472 10.2144 48.9413 10.1942 48.8346 10.1942C48.762 10.1942 48.6535 10.2039 48.5511 10.252C48.3323 10.3544 48.1363 10.4104 47.9674 10.4183C47.8782 10.4139 47.8152 10.3946 47.774 10.3762C47.7793 10.2887 47.7845 10.1986 47.7907 10.1059L47.7933 10.0656C47.8537 9.11794 47.9281 7.93926 47.6148 7.23923C47.4004 6.75971 47.1125 6.34756 46.7581 6.0133C46.4615 5.73328 46.1167 5.50577 45.7335 5.33777C45.0675 5.04375 44.4463 5 44.1348 5H44.1339C44.1216 5 44.1103 5 44.0998 5C44.0131 5.00088 43.8722 5.00263 43.8591 5.00263C43.5485 5.00263 42.9263 5.04638 42.2587 5.34039C41.8763 5.5084 41.5333 5.73503 41.2375 6.01505C40.8849 6.34931 40.5978 6.76058 40.3843 7.23835C40.0711 7.93751 40.1454 9.11619 40.2049 10.063V10.0647C40.2111 10.1662 40.2181 10.2721 40.2242 10.3754C40.1787 10.3955 40.1043 10.4183 39.9949 10.4183C39.8182 10.4183 39.6082 10.3622 39.371 10.2511C39.301 10.2187 39.2214 10.2021 39.1339 10.2021C38.993 10.2021 38.8434 10.2432 38.7148 10.3194C38.552 10.4148 38.447 10.5486 38.4181 10.6983C38.3997 10.7963 38.4006 10.9914 38.6176 11.1892C38.7375 11.2977 38.9125 11.3983 39.1391 11.4876C39.1986 11.5112 39.2695 11.5331 39.3439 11.5567C39.6029 11.6389 39.9958 11.7632 40.0982 12.003C40.1498 12.1246 40.1271 12.2847 40.0317 12.479C40.0291 12.4842 40.0264 12.4895 40.0247 12.4947C40.0002 12.5507 39.7771 13.0539 39.3194 13.585C39.0595 13.8869 38.7734 14.1398 38.4689 14.3358C38.097 14.5756 37.6953 14.7313 37.2744 14.8005C37.1091 14.8276 36.9909 14.9746 37.0005 15.1417C37.0032 15.1898 37.0145 15.238 37.0347 15.2844V15.2852C37.1021 15.4419 37.2569 15.574 37.5089 15.6904C37.817 15.833 38.2772 15.9529 38.8784 16.0465C38.909 16.1043 38.9405 16.2486 38.9624 16.3475C38.9851 16.4525 39.0088 16.561 39.0429 16.6757C39.0796 16.7999 39.1741 16.9487 39.4183 16.9487C39.511 16.9487 39.6169 16.9277 39.7403 16.9041C39.9206 16.8691 40.1673 16.8209 40.4745 16.8209C40.6451 16.8209 40.8218 16.8358 40.9995 16.8656C41.3425 16.9224 41.6383 17.1307 41.9804 17.3722C42.4809 17.7257 43.048 18.1256 43.9142 18.1256C43.9379 18.1256 43.9615 18.1247 43.9851 18.123C44.0131 18.1247 44.049 18.1256 44.0858 18.1256C44.952 18.1256 45.5191 17.7257 46.0196 17.3731L46.0205 17.3722C46.3626 17.1316 46.6584 16.9233 47.0014 16.8664C47.179 16.8367 47.3558 16.8218 47.5264 16.8218C47.8204 16.8218 48.0532 16.8594 48.2606 16.8997C48.3962 16.9259 48.5012 16.9391 48.5826 16.9391H48.5905H48.5983C48.7768 16.9391 48.9081 16.841 48.958 16.6704C48.9912 16.5575 49.0149 16.4525 49.0385 16.3449C49.0586 16.2521 49.0919 16.1034 49.1216 16.0456C49.7228 15.9511 50.183 15.8321 50.491 15.6895C50.7422 15.5731 50.8971 15.441 50.9644 15.2852C50.9846 15.2389 50.9968 15.1907 50.9994 15.1408C51.0091 14.9755 50.8909 14.8276 50.7256 14.8013Z" fill="white" stroke="white" stroke-width="0.3"/>
<rect x="192" width="24" height="24" rx="2" fill="#B0B0B0"/>
<path fill-rule="evenodd" clip-rule="evenodd" d="M201.8 17.282C201.411 17.282 201.477 17.1352 201.343 16.765L200.2 13.0026L209 7.78198" fill="#B0B0B0"/>
<path fill-rule="evenodd" clip-rule="evenodd" d="M201.8 17.282C202.1 17.282 202.233 17.1448 202.4 16.982L204 15.4262L202.004 14.2227" fill="white"/>
<path fill-rule="evenodd" clip-rule="evenodd" d="M202.004 14.223L206.84 17.7959C207.392 18.1004 207.79 17.9427 207.928 17.2835L209.896 8.00722C210.098 7.1992 209.588 6.83272 209.06 7.0724L197.501 11.5295C196.712 11.846 196.717 12.2862 197.357 12.4823L200.324 13.4081L207.191 9.07563C207.515 8.87904 207.813 8.98474 207.568 9.20147" fill="white"/>
<rect x="224" width="24" height="24" rx="2" fill="#B0B0B0"/>
<path fill-rule="evenodd" clip-rule="evenodd" d="M239.837 10.7276C239.778 10.2535 239.633 9.88114 239.374 9.55137C239.038 9.12673 238.608 8.87245 237.972 8.72161C237.558 8.62107 237.391 8.63261 237.241 8.76951C237.101 8.89777 237.074 9.15489 237.181 9.32139C237.256 9.44224 237.342 9.48553 237.583 9.53278C237.903 9.59176 238.125 9.66831 238.326 9.78353C238.754 10.0305 238.953 10.417 238.975 11.0426C238.985 11.3364 239.01 11.4267 239.113 11.5309C239.303 11.7214 239.641 11.6843 239.785 11.4564C239.838 11.3705 239.846 11.3331 239.851 11.1336C239.855 11.0101 239.849 10.8263 239.837 10.7276Z" fill="white"/>
<path fill-rule="evenodd" clip-rule="evenodd" d="M241.512 11.2623C241.427 9.80959 240.859 8.64083 239.842 7.81852C239.269 7.35647 238.577 7.03874 237.818 6.88423C237.539 6.82897 237.027 6.78417 236.94 6.80979C236.857 6.83352 236.74 6.92327 236.687 7.00442C236.632 7.09244 236.62 7.28894 236.667 7.4026C236.743 7.59262 236.884 7.65975 237.281 7.69442C237.892 7.74789 238.522 7.96257 238.998 8.28039C239.542 8.64225 239.974 9.1372 240.254 9.71881C240.495 10.2185 240.644 10.9387 240.64 11.5836C240.638 11.8168 240.674 11.9485 240.768 12.0448C240.91 12.1929 241.116 12.2253 241.298 12.1269C241.5 12.0208 241.547 11.8344 241.512 11.2623Z" fill="white"/>
<path fill-rule="evenodd" clip-rule="evenodd" d="M243.366 16.8566C243.337 16.7736 243.271 16.6455 243.224 16.5719C242.925 16.1213 241.322 14.8665 240.521 14.4562C240.064 14.2214 239.726 14.1431 239.475 14.2166C239.205 14.2926 239.062 14.4182 238.61 14.9804C238.428 15.2057 238.241 15.4168 238.191 15.45C238.068 15.5354 237.826 15.6042 237.656 15.6042C237.26 15.6018 236.543 15.3457 235.991 15.0088C235.562 14.748 235.013 14.2807 234.591 13.8182C234.094 13.275 233.755 12.7959 233.487 12.2551C233.142 11.5601 233.054 11.1355 233.198 10.8248C233.234 10.7465 233.281 10.6635 233.303 10.6374C233.324 10.6137 233.547 10.431 233.793 10.2318C234.276 9.84755 234.354 9.75979 234.444 9.4965C234.558 9.16204 234.527 8.82049 234.352 8.47657C234.217 8.21565 233.864 7.64639 233.608 7.27875C233.269 6.79489 232.426 5.76073 232.258 5.62075C231.955 5.37409 231.567 5.33137 231.138 5.49744C230.686 5.67297 229.838 6.35607 229.475 6.83284C229.149 7.26452 229.023 7.57048 229.004 7.97372C228.988 8.30577 229.016 8.44335 229.191 8.86794C230.562 12.1981 232.609 14.8571 235.42 16.9681C236.888 18.071 238.411 18.9107 239.991 19.4847C240.912 19.8191 241.312 19.8357 241.784 19.5606C241.983 19.442 242.475 18.9368 242.75 18.5691C243.205 17.9572 243.373 17.6749 243.42 17.4496C243.453 17.2954 243.427 17.0274 243.366 16.8566Z" fill="white"/>
<path fill-rule="evenodd" clip-rule="evenodd" d="M243.217 11.5959C243.187 10.7742 243.048 10.1002 242.76 9.34871C242.475 8.60952 242.187 8.12716 241.643 7.47475C241.128 6.86304 240.728 6.51376 240.094 6.12497C239.21 5.58328 238.133 5.2248 236.927 5.07404C236.515 5.02135 236.422 5.02512 236.296 5.10934C236.051 5.26888 236.055 5.66682 236.3 5.82397C236.381 5.87396 236.453 5.89217 236.782 5.93524C237.288 6.00326 237.612 6.06736 237.998 6.17253C239.509 6.58572 240.672 7.43029 241.449 8.68402C242.099 9.72902 242.369 10.7741 242.331 12.1088C242.317 12.5601 242.327 12.6395 242.396 12.7479C242.528 12.95 242.876 12.9899 243.055 12.8222C243.166 12.7201 243.187 12.6433 243.209 12.2571C243.22 12.0557 243.222 11.7582 243.217 11.5959Z" fill="white"/>
<rect x="256" width="24" height="24" rx="2" fill="#B0B0B0"/>
<path fill-rule="evenodd" clip-rule="evenodd" d="M268.196 19.2763H268.193C266.998 19.2758 265.825 18.9762 264.783 18.4077L261 19.4L262.012 15.7024C261.388 14.6203 261.059 13.3927 261.06 12.1351C261.061 8.20085 264.262 5 268.195 5C270.104 5.00082 271.896 5.74393 273.243 7.09271C274.59 8.44141 275.332 10.2342 275.331 12.1408C275.329 16.0741 272.13 19.2747 268.196 19.2763ZM264.958 17.1159L265.174 17.2445C266.085 17.7848 267.129 18.0707 268.193 18.0712H268.195C271.464 18.0712 274.125 15.4106 274.126 12.1403C274.127 10.5556 273.51 9.06552 272.391 7.94448C271.271 6.82343 269.782 6.20575 268.198 6.2052C264.926 6.2052 262.266 8.86554 262.264 12.1355C262.264 13.2562 262.577 14.3475 263.171 15.2918L263.312 15.5162L262.713 17.7048L264.958 17.1159ZM271.79 13.8376C271.746 13.7632 271.627 13.7186 271.449 13.6293C271.27 13.5401 270.394 13.1088 270.23 13.0492C270.067 12.9897 269.948 12.96 269.829 13.1385C269.71 13.3169 269.369 13.7186 269.265 13.8376C269.161 13.9565 269.057 13.9715 268.878 13.8822C268.7 13.7929 268.126 13.6047 267.445 12.9972C266.915 12.5244 266.557 11.9406 266.453 11.7621C266.349 11.5836 266.442 11.4872 266.531 11.3983C266.611 11.3183 266.709 11.19 266.798 11.0859C266.887 10.9818 266.917 10.9074 266.977 10.7885C267.036 10.6694 267.006 10.5653 266.962 10.4761C266.917 10.3868 266.561 9.50924 266.412 9.15224C266.267 8.80458 266.12 8.85168 266.011 8.84618C265.907 8.84097 265.788 8.83987 265.669 8.83987C265.55 8.83987 265.357 8.88449 265.194 9.06299C265.03 9.24149 264.57 9.67284 264.57 10.5504C264.57 11.428 265.209 12.2758 265.298 12.3948C265.387 12.5138 266.555 14.3146 268.344 15.0869C268.769 15.2706 269.101 15.3803 269.36 15.4625C269.787 15.5982 270.176 15.5791 270.483 15.5332C270.825 15.482 271.538 15.1019 271.686 14.6854C271.835 14.2689 271.835 13.9119 271.79 13.8376Z" fill="white"/>
<rect width="24" height="24" rx="2" fill="#B0B0B0"/>
<path d="M17.997 18V17.9995H18V13.5985C18 11.4455 17.5365 9.78699 15.0195 9.78699C13.8095 9.78699 12.9975 10.451 12.666 11.0805H12.631V9.98799H10.2445V17.9995H12.7295V14.0325C12.7295 12.988 12.9275 11.978 14.221 11.978C15.4955 11.978 15.5145 13.17 15.5145 14.0995V18H17.997Z" fill="white"/>
<path d="M6.198 9.98846H8.686V18H6.198V9.98846Z" fill="white"/>
<path d="M7.441 6C6.6455 6 6 6.6455 6 7.441C6 8.2365 6.6455 8.8955 7.441 8.8955C8.2365 8.8955 8.882 8.2365 8.882 7.441C8.8815 6.6455 8.236 6 7.441 6V6Z" fill="white"/>
<rect x="448" width="24" height="24" rx="2" fill="#B0B0B0"/>
<path fill-rule="evenodd" clip-rule="evenodd" d="M466.132 9.03659C465.985 8.47108 465.552 8.02577 465.001 7.87464C464.003 7.59998 460 7.59998 460 7.59998C460 7.59998 455.997 7.59998 454.999 7.87464C454.448 8.02577 454.015 8.47108 453.867 9.03659C453.6 10.0615 453.6 12.2 453.6 12.2C453.6 12.2 453.6 14.3384 453.867 15.3634C454.015 15.9289 454.448 16.3742 454.999 16.5254C455.997 16.8 460 16.8 460 16.8C460 16.8 464.003 16.8 465.001 16.5254C465.552 16.3742 465.985 15.9289 466.132 15.3634C466.4 14.3384 466.4 12.2 466.4 12.2C466.4 12.2 466.4 10.0615 466.132 9.03659Z" fill="white"/>
<path fill-rule="evenodd" clip-rule="evenodd" d="M458.8 14.4V10.4L462 12.4001L458.8 14.4Z" fill="#B0B0B0"/>
</svg>