<svg width="49" height="49" viewBox="0 0 49 49" fill="none" xmlns="http://www.w3.org/2000/svg">
<path d="M8.53832 45.3452H39.7887C40.9655 45.3452 41.9194 44.3912 41.9194 43.2145V19.2468L42.1715 19.4137C42.6349 19.7336 43.2093 19.8492 43.7603 19.7333C44.3272 19.616 44.8217 19.2725 45.1296 18.7823L45.1339 18.7751C45.7579 17.7697 45.4847 16.4517 44.5125 15.7772L25.3325 3.08609C24.6281 2.60875 23.7039 2.60875 22.9994 3.08609L3.80881 15.7837C2.83852 16.4605 2.56875 17.7788 3.19518 18.7823C3.49971 19.2722 3.9914 19.616 4.55598 19.734C4.6979 19.7626 4.84235 19.7769 4.98709 19.7767C5.40102 19.7772 5.80553 19.6535 6.14834 19.4216L6.40755 19.2476V43.2145C6.40755 44.3912 7.36151 45.3452 8.53832 45.3452V45.3452ZM40.4989 43.2145C40.4989 43.6067 40.1809 43.9247 39.7887 43.9247H8.53832C8.14605 43.9247 7.82808 43.6067 7.82808 43.2145V18.3086L24.1635 7.51297L40.4989 18.3086V43.2145ZM5.35712 18.239C5.20844 18.3418 5.02396 18.3788 4.84714 18.3413C4.66054 18.3023 4.49821 18.1883 4.3983 18.0259C4.17342 17.6752 4.26095 17.21 4.59784 16.9648L23.7892 4.26655C23.8996 4.19154 24.03 4.15151 24.1635 4.15151C24.2996 4.15207 24.4324 4.19337 24.5449 4.27014L43.7234 16.9614C44.0631 17.2041 44.154 17.6698 43.9308 18.0225C43.8285 18.1868 43.6636 18.3022 43.4741 18.3421C43.2961 18.3775 43.1113 18.3385 42.9627 18.2341L24.5555 6.06908C24.3182 5.91407 24.0116 5.91407 23.7743 6.06908L5.35712 18.239Z" stroke="none"/>
<path d="M18.2311 16.131C17.4063 15.3101 16.073 15.3101 15.2481 16.131L11.2879 20.0912C10.4665 20.9159 10.4665 22.2495 11.2879 23.0742L17.7148 29.5068L13.7616 33.4607C13.6759 33.5457 13.6135 33.6514 13.5805 33.7676L11.9249 39.5638C11.8072 39.9751 11.8895 40.4178 12.147 40.7594C12.4045 41.1009 12.8075 41.3018 13.2353 41.3018C13.3619 41.3015 13.4878 41.2838 13.6096 41.2492L19.4059 39.5923C19.522 39.5593 19.6276 39.4969 19.7127 39.4112L23.6673 35.4594L30.0956 41.8884C30.9207 42.709 32.2536 42.709 33.0786 41.8884L37.0389 37.9282C37.8602 37.1035 37.8602 35.7699 37.0389 34.9452L30.6141 28.5126L36.0523 23.0743C36.5803 22.5472 36.8769 21.8318 36.8769 21.0857C36.8769 20.3397 36.5803 19.6242 36.0523 19.0971L34.0722 17.117C33.546 16.5878 32.8298 16.2913 32.0836 16.2938C31.3375 16.2913 30.6213 16.5874 30.0949 17.1162L24.6616 22.5602L18.2311 16.131ZM15.751 37.4224C15.3332 37.0086 14.8333 36.6869 14.2837 36.4778L14.7255 34.9302L17.1886 35.9857L18.244 38.4487L16.6964 38.8905C16.4871 38.3405 16.1651 37.8404 15.751 37.4224ZM18.5713 35.607L29.1147 25.0636L30.5856 26.5345L19.4534 37.666L18.5713 35.607ZM27.6446 21.5842L29.1155 20.1132L33.0616 24.0593L31.59 25.5295L27.6446 21.5842ZM28.1112 24.0593L17.567 34.6028L15.5073 33.7206L26.6395 22.5884L28.1112 24.0593ZM12.2921 22.0706C12.0229 21.8011 12.0229 21.3643 12.2921 21.0948L16.2524 17.1345C16.5219 16.8653 16.9587 16.8653 17.2282 17.1345L18.7063 18.6126L17.2282 20.0906C17.0436 20.2689 16.9696 20.5329 17.0345 20.7813C17.0995 21.0296 17.2935 21.2235 17.5418 21.2886C17.7901 21.3536 18.0541 21.2795 18.2325 21.0949L19.7105 19.6168L21.1814 21.0892L20.1985 22.0721C20.0139 22.2504 19.9398 22.5145 20.0048 22.7629C20.0698 23.0112 20.2637 23.2051 20.512 23.2701C20.7603 23.3351 21.0244 23.261 21.2028 23.0764L22.1857 22.0934L23.6566 23.5643L18.7205 28.5005L12.2921 22.0706ZM13.3191 39.855L13.8873 37.8521C14.5327 38.1244 15.0462 38.6379 15.3185 39.2833L13.3191 39.855ZM31.0807 30.9898L30.0978 31.9728C29.9131 32.1511 29.8391 32.4151 29.9041 32.6635C29.9691 32.9118 30.163 33.1058 30.4113 33.1708C30.6596 33.2358 30.9237 33.1617 31.102 32.9771L32.085 31.9927L33.5559 33.4636L32.0779 34.9416C31.8932 35.1199 31.8192 35.384 31.8842 35.6324C31.9492 35.8807 32.1431 36.0746 32.3914 36.1396C32.6397 36.2046 32.9038 36.1305 33.0822 35.9459L34.5602 34.4679L36.0374 35.9458C36.3067 36.2154 36.3067 36.6521 36.0374 36.9217L32.0772 40.882C31.8076 41.1513 31.3709 41.1513 31.1013 40.882L24.673 34.4537L29.6092 29.5175L31.0807 30.9898ZM32.0843 17.7169C32.4532 17.7157 32.8072 17.8623 33.0672 18.1239L35.0474 20.104C35.5895 20.6469 35.5895 21.5263 35.0474 22.0692L34.0651 23.0551L30.119 19.109L31.102 18.126C31.3616 17.8639 31.7154 17.7166 32.0843 17.7169V17.7169Z" stroke="none"/>
</svg>
