<svg width="48" height="48" viewBox="0 0 48 48" fill="none" xmlns="http://www.w3.org/2000/svg">
<circle cx="24" cy="24" r="23.5" fill="#FBFCFD" stroke="#F2F2F2"/>
<path d="M22.8332 15.8333H25.1665C25.8105 15.8333 26.3332 16.356 26.3332 17V19.3333C26.3332 19.9773 25.8105 20.5 25.1665 20.5H22.8332C22.1892 20.5 21.6665 19.9773 21.6665 19.3333V17C21.6665 16.356 22.1892 15.8333 22.8332 15.8333Z" stroke="#B0B0B0" stroke-width="1.5" stroke-linecap="round" stroke-linejoin="round"/>
<path d="M29.8335 31.0128V28.6527C29.8335 28.0168 30.3503 27.5 30.9873 27.5H33.3475C33.9833 27.5 34.5002 28.0168 34.5002 28.6538V31.014C34.5002 31.6498 33.9833 32.1667 33.3463 32.1667H30.9862C30.3503 32.1667 29.8335 31.6498 29.8335 31.0128Z" stroke="#B0B0B0" stroke-width="1.5" stroke-linecap="round" stroke-linejoin="round"/>
<path d="M32.1575 27.5V26.3334C32.1575 22.6374 29.7017 19.5189 26.3335 18.512" stroke="#B0B0B0" stroke-width="1.5" stroke-linecap="round" stroke-linejoin="round"/>
<path d="M18.1667 31.0128V28.6527C18.1667 28.0168 17.6498 27.5 17.0128 27.5H14.6538C14.0168 27.5 13.5 28.0168 13.5 28.6538V31.014C13.5 31.6498 14.0168 32.1667 14.6538 32.1667H17.014C17.6498 32.1667 18.1667 31.6498 18.1667 31.0128Z" stroke="#B0B0B0" stroke-width="1.5" stroke-linecap="round" stroke-linejoin="round"/>
<path d="M15.8428 27.5V26.3334C15.8428 22.6374 18.2986 19.5189 21.6668 18.512" stroke="#B0B0B0" stroke-width="1.5" stroke-linecap="round" stroke-linejoin="round"/>
<path d="M35.9438 16.723C36.7412 17.5203 36.7412 18.813 35.9438 19.6103C35.1465 20.4077 33.8538 20.4077 33.0565 19.6103C32.2592 18.813 32.2592 17.5203 33.0565 16.723C33.8538 15.9257 35.1465 15.9257 35.9438 16.723" stroke="#B0B0B0" stroke-width="1.5" stroke-linecap="round" stroke-linejoin="round"/>
<path d="M26.3335 18.1667H32.4585" stroke="#B0B0B0" stroke-width="1.5" stroke-linecap="round" stroke-linejoin="round"/>
<path d="M14.9438 16.723C15.7412 17.5203 15.7412 18.813 14.9438 19.6103C14.1465 20.4077 12.8538 20.4077 12.0565 19.6103C11.2592 18.813 11.2592 17.5203 12.0565 16.723C12.8538 15.9257 14.1465 15.9257 14.9438 16.723" stroke="#B0B0B0" stroke-width="1.5" stroke-linecap="round" stroke-linejoin="round"/>
<path d="M21.6665 18.1667H15.5415" stroke="#B0B0B0" stroke-width="1.5" stroke-linecap="round" stroke-linejoin="round"/>
</svg>