<svg width="167" height="159" viewBox="0 0 167 159" fill="none" xmlns="http://www.w3.org/2000/svg">
<path d="M11 12.8083C11 11.8274 11.7951 11.0323 12.776 11.0323H143.694L165.222 11.0024C166.203 11.0011 167 11.7966 167 12.7784V31.2898V157.224C167 158.205 166.205 159 165.224 159H12.776C11.7951 159 11 158.205 11 157.224V12.8083Z" fill="#F0F1F2"/>
<path d="M4 5.776C4 4.79514 4.79514 4 5.776 4L138.357 4L160.22 4C161.203 4 161.998 4.7974 161.996 5.77971L161.955 25.4286V152.224C161.955 153.205 161.16 154 160.179 154H5.776C4.79514 154 4 153.205 4 152.224V5.776Z" fill="#E1E1E2"/>
</svg>