<svg width="48" height="48" viewBox="0 0 48 48" fill="none" xmlns="http://www.w3.org/2000/svg">
<path d="M25.334 13.7736L30.1052 15.3639C31.1535 15.7134 32.2866 15.1468 32.6361 14.0985L34.0042 9.99414" fill="none" stroke-width="1.5" stroke-linecap="round" stroke-linejoin="round"/>
<path d="M13.996 9.99414L15.3641 14.0985C15.7136 15.1468 16.8466 15.7134 17.8949 15.3641L22.6662 13.7736" fill="none" stroke-width="1.5" stroke-linecap="round" stroke-linejoin="round"/>
<path d="M34.0043 9.9941L31.1747 7.1645C30.4242 6.41404 29.4064 5.99243 28.3451 5.99243H19.6552C18.5939 5.99243 17.576 6.41404 16.8256 7.1645L13.996 9.9941" fill="none" stroke-width="1.5" stroke-linecap="round" stroke-linejoin="round"/>
<path d="M24.0002 15.9966V44.0083" fill="none" stroke-width="1.5" stroke-linecap="round" stroke-linejoin="round"/>
<path d="M35.9801 26.0008L35.9803 39.0924C36.0001 40.8891 34.805 42.4729 33.0717 42.9467C27.0899 44.3622 20.8603 44.3622 14.8785 42.9467C13.1452 42.4729 11.9501 40.8892 11.9699 39.0924L11.9701 24" fill="none" stroke-width="1.5" stroke-linecap="round" stroke-linejoin="round"/>
<path d="M18.1557 6.25464L24.0001 15.9967L29.8445 6.25464" fill="none" stroke-width="1.5" stroke-linecap="round" stroke-linejoin="round"/>
<path d="M34.0043 9.99414L37.8685 11.3275C39.0832 11.7467 40.0227 12.7236 40.3941 13.9538L43.6669 24.7956C43.908 25.5941 44.0228 26.4254 44.0071 27.2593L43.8415 36.0426C43.821 37.1328 42.9313 38.0058 41.841 38.0058H36.0051" fill="none" stroke-width="1.5" stroke-linecap="round" stroke-linejoin="round"/>
<path d="M13.9959 9.99414L10.1317 11.3275C8.91696 11.7467 7.97743 12.7236 7.60604 13.9538L4.3332 24.7957C4.09212 25.5942 3.97735 26.4255 3.99306 27.2594L4.15865 36.0427C4.1792 37.1328 5.06883 38.0058 6.15918 38.0058H11.995" fill="none" stroke-width="1.5" stroke-linecap="round" stroke-linejoin="round"/>
</svg>
