<svg width="48" height="48" viewBox="0 0 48 48" fill="none" xmlns="http://www.w3.org/2000/svg">
<path fill-rule="evenodd" clip-rule="evenodd" d="M24.0006 17.9976L17.9383 19.5131C16.8663 19.7811 15.78 19.1293 15.512 18.0573L14.279 13.1255C14.0944 12.3872 14.1242 11.6115 14.3649 10.8896L15.5412 7.36064C15.8136 6.54363 16.5781 5.99255 17.4394 5.99255H30.5618C31.423 5.99255 32.1876 6.54364 32.4599 7.36066L33.8205 11.4424C33.9408 11.8034 33.9557 12.1912 33.8634 12.5604L32.4892 18.0574C32.2212 19.1294 31.1349 19.7812 30.0628 19.5132L24.0006 17.9976Z" fill="none" stroke-width="1.5" stroke-linecap="round" stroke-linejoin="round"/>
<path d="M20.9984 24.0002H27.0009" fill="none" stroke-width="1.5" stroke-linecap="round" stroke-linejoin="round"/>
<path d="M20.999 24L17.9978 42.0075" fill="none" stroke-width="1.5" stroke-linecap="round" stroke-linejoin="round"/>
<path d="M27.0016 24L30.0028 42.0075" fill="none" stroke-width="1.5" stroke-linecap="round" stroke-linejoin="round"/>
<path d="M29.3359 19.3314L27.0016 24.0001" fill="none" stroke-width="1.5" stroke-linecap="round" stroke-linejoin="round"/>
<path d="M18.6642 19.3314L20.9986 24.0001" fill="none" stroke-width="1.5" stroke-linecap="round" stroke-linejoin="round"/>
<path d="M14.1604 11.995H11.9948C8.67975 11.995 5.99234 14.6824 5.99234 17.9975V36.005C5.99234 39.3201 8.67975 42.0075 11.9948 42.0075H36.0048C39.3199 42.0075 42.0073 39.3201 42.0073 36.005V17.9975C42.0073 14.6824 39.3199 11.995 36.0048 11.995H33.9224" fill="none" stroke-width="1.5" stroke-linecap="round" stroke-linejoin="round"/>
<path d="M31.7437 6.38269L24.0005 17.9975L16.2573 6.38269" fill="none" stroke-width="1.5" stroke-linecap="round" stroke-linejoin="round"/>
</svg>
