<svg width="47" height="47" viewBox="0 0 47 47" fill="none" xmlns="http://www.w3.org/2000/svg">
<path d="M40.8307 7.20947H6.16928C4.42176 7.20947 3 8.63123 3 10.3787V38.6214C3 40.3689 4.42176 41.7907 6.16928 41.7907H40.8307C42.5782 41.7907 44 40.3689 44 38.6214V10.3787C44 8.63123 42.5782 7.20947 40.8307 7.20947ZM42.7965 38.6214C42.7965 39.7053 41.9146 40.5872 40.8307 40.5872H6.16928C5.08538 40.5872 4.20352 39.7053 4.20352 38.6214V10.3787C4.20352 9.29486 5.08538 8.413 6.16928 8.413H40.8307C41.9146 8.413 42.7965 9.29486 42.7965 10.3787V38.6214Z" stroke="none"/>
<path d="M11.3045 13.6284C10.2648 13.6284 9.41895 14.4743 9.41895 15.5139C9.41895 16.5536 10.2648 17.3995 11.3045 17.3995C12.3441 17.3995 13.19 16.5536 13.19 15.5139C13.19 14.4743 12.3441 13.6284 11.3045 13.6284ZM11.3045 16.1959C10.9284 16.1959 10.6225 15.89 10.6225 15.5139C10.6225 15.1379 10.9284 14.8319 11.3045 14.8319C11.6805 14.8319 11.9865 15.1379 11.9865 15.5139C11.9865 15.89 11.6805 16.1959 11.3045 16.1959Z" stroke="none"/>
<path d="M12.5879 11.0605H7.45284C7.1205 11.0605 6.85107 11.33 6.85107 11.6623V16.7973C6.85107 17.1297 7.1205 17.3991 7.45284 17.3991C7.78517 17.3991 8.0546 17.1297 8.0546 16.7973V12.2641H12.5879C12.9202 12.2641 13.1896 11.9946 13.1896 11.6623C13.1896 11.33 12.9202 11.0605 12.5879 11.0605Z" stroke="none"/>
<path d="M39.5471 11.0605H34.4121C34.0797 11.0605 33.8103 11.33 33.8103 11.6623C33.8103 11.9946 34.0797 12.2641 34.4121 12.2641H38.9453V16.7973C38.9453 17.1297 39.2148 17.3991 39.5471 17.3991C39.8794 17.3991 40.1489 17.1297 40.1489 16.7973V11.6623C40.1489 11.33 39.8794 11.0605 39.5471 11.0605Z" stroke="none"/>
<path d="M12.5879 36.7356H8.0546V32.2023C8.0546 31.87 7.78517 31.6006 7.45284 31.6006C7.1205 31.6006 6.85107 31.87 6.85107 32.2023V37.3374C6.85107 37.6697 7.1205 37.9391 7.45284 37.9391H12.5879C12.9202 37.9391 13.1896 37.6697 13.1896 37.3374C13.1896 37.005 12.9202 36.7356 12.5879 36.7356Z" stroke="none"/>
<path d="M39.5471 31.6006C39.2148 31.6006 38.9453 31.87 38.9453 32.2023V36.7356H34.4121C34.0797 36.7356 33.8103 37.005 33.8103 37.3374C33.8103 37.6697 34.0797 37.9391 34.4121 37.9391H39.5471C39.8794 37.9391 40.1489 37.6697 40.1489 37.3374V32.2023C40.1489 31.87 39.8794 31.6006 39.5471 31.6006Z" stroke="none"/>
<path d="M15.1555 14.8319H21.5743C21.9066 14.8319 22.176 14.5625 22.176 14.2302C22.176 13.8978 21.9066 13.6284 21.5743 13.6284H15.1555C14.8231 13.6284 14.5537 13.8978 14.5537 14.2302C14.5537 14.5625 14.8231 14.8319 15.1555 14.8319Z" stroke="none"/>
<path d="M17.0811 16.1958H15.1555C14.8231 16.1958 14.5537 16.4652 14.5537 16.7976C14.5537 17.1299 14.8231 17.3993 15.1555 17.3993H17.0811C17.4134 17.3993 17.6829 17.1299 17.6829 16.7976C17.6829 16.4652 17.4134 16.1958 17.0811 16.1958Z" stroke="none"/>
<path d="M36.9795 35.372C37.3119 35.372 37.5813 35.1025 37.5813 34.7702C37.5813 34.4379 37.3119 34.1685 36.9795 34.1685H35.6958C35.3634 34.1685 35.094 34.4379 35.094 34.7702C35.094 35.1025 35.3634 35.372 35.6958 35.372H36.9795Z" stroke="none"/>
<path d="M33.1281 34.1685H29.2768C28.9445 34.1685 28.675 34.4379 28.675 34.7702C28.675 35.1025 28.9445 35.372 29.2768 35.372H33.1281C33.4604 35.372 33.7298 35.1025 33.7298 34.7702C33.7298 34.4379 33.4604 34.1685 33.1281 34.1685Z" stroke="none"/>
<path d="M26.7093 23.8984H24.1016V21.2907C24.1016 20.9584 23.8322 20.689 23.4999 20.689C23.1675 20.689 22.8981 20.9584 22.8981 21.2907V23.8984H20.2905C19.9581 23.8984 19.6887 24.1678 19.6887 24.5001C19.6887 24.8325 19.9581 25.1019 20.2905 25.1019H22.8981V27.7095C22.8981 28.0418 23.1675 28.3113 23.4999 28.3113C23.8322 28.3113 24.1016 28.0418 24.1016 27.7095V25.1019H26.7093C27.0416 25.1019 27.311 24.8325 27.311 24.5001C27.311 24.1678 27.0416 23.8984 26.7093 23.8984Z" stroke="none"/>
</svg>
