<svg width="48" height="48" viewBox="0 0 48 48" fill="none" xmlns="http://www.w3.org/2000/svg">
<mask id="path-1-outside-1" maskUnits="userSpaceOnUse" x="3" y="4" width="40" height="37" fill="black">
<rect fill="white" x="3" y="4" width="40" height="37"/>
<path d="M17.6215 11.412C16.8588 12.7445 16.2349 14.5652 15.8046 16.725C15.7446 17.0266 15.9403 17.3197 16.2421 17.3797C16.2786 17.3869 16.3152 17.3904 16.3514 17.3904C16.6115 17.3904 16.844 17.2072 16.8967 16.9425C17.3577 14.6272 18.0399 12.7482 18.8696 11.5086C18.9592 11.3746 18.9865 11.2082 18.9441 11.0525C18.9018 10.8971 18.7943 10.7675 18.6487 10.6974C18.4968 10.6243 18.3452 10.5443 18.1985 10.4596C17.2884 9.93518 16.915 9.45305 16.7622 9.14052C16.6013 8.81176 16.6016 8.50299 16.7628 8.22322C17.1446 7.56076 18.137 7.60599 19.4176 8.34354C19.9617 8.65723 20.4479 9.03499 20.8237 9.43566C20.9765 9.59859 21.2116 9.65454 21.4215 9.57772C25.095 8.23047 32.042 8.23047 35.7161 9.57772C35.9257 9.65454 36.1611 9.59888 36.3139 9.43566C36.6897 9.03499 37.1759 8.65723 37.72 8.34354C38.6301 7.81937 39.2348 7.73877 39.581 7.76255C39.9463 7.78835 40.2133 7.94316 40.3748 8.22322C40.7563 8.88568 40.2197 9.72152 38.9391 10.4594C38.7919 10.5443 38.6402 10.6246 38.4886 10.6974C38.3433 10.7675 38.2358 10.8971 38.1932 11.0525C38.1508 11.2082 38.1781 11.3746 38.2677 11.5086C38.9241 12.4891 39.9364 15.9044 40.3748 17.5899C40.4522 17.8874 40.7024 17.6668 41.0001 17.5899C41.2976 17.5125 41.5775 17.8874 41.5001 17.5899C41.1018 16.0586 40.1002 12.4285 39.5164 11.4117C41.7151 10.1358 41.9009 8.64186 41.3391 7.66745C40.9917 7.06443 40.3951 6.70377 39.659 6.65216C38.9293 6.60143 38.0903 6.84554 37.1643 7.37928C36.643 7.67963 36.1638 8.03362 35.7608 8.41457C31.8739 7.12676 25.2635 7.12676 21.3768 8.41457C20.9736 8.03362 20.4946 7.67963 19.9731 7.37928C17.754 6.10045 16.3616 6.68956 15.7982 7.66745C15.4506 8.27048 15.4379 8.96744 15.7623 9.63019C16.0815 10.2819 16.7068 10.8812 17.6215 11.412Z"/>
<path d="M41.4839 17.5427C41.432 17.2398 41.1447 17.0362 40.8414 17.0876C40.5385 17.1395 40.3347 17.4271 40.3866 17.73C41.5248 24.4004 40.6745 32.1427 38.4508 35.3561C38.3595 35.4877 38.3296 35.6521 38.3685 35.8075C38.4073 35.9629 38.5111 36.0939 38.6532 36.1676C38.7517 36.2183 38.848 36.2708 38.9393 36.3233C40.2199 37.0614 40.7565 37.8972 40.375 38.5597C40.2135 38.8397 39.9465 38.9946 39.5812 39.0204C39.2344 39.0447 38.6303 38.9635 37.7202 38.4391C37.1955 38.1367 36.7226 37.7731 36.3527 37.3878C36.2025 37.2316 35.9755 37.1765 35.7705 37.2466C35.4041 37.3722 34.9985 37.4887 34.5653 37.5928C34.2661 37.6647 34.082 37.9651 34.1539 38.264C34.2255 38.5629 34.5259 38.7467 34.8248 38.6754C35.1675 38.593 35.4948 38.5034 35.8024 38.4075C36.197 38.7736 36.662 39.1143 37.1644 39.4036C38.0104 39.8913 38.7839 40.1377 39.4672 40.1374C39.5319 40.1374 39.596 40.1354 39.6592 40.1307C40.3953 40.0791 40.9919 39.7185 41.3395 39.1154C41.8857 38.1677 41.7251 36.7289 39.6931 35.477C41.0128 33.2359 41.5723 30.0721 41.8092 27.7304C42.1481 24.3778 42.0327 20.7596 41.4839 17.5427Z"/>
<path d="M35.8275 21.1912V17.9325C35.8275 16.5189 34.6774 15.3688 33.2634 15.3688H23.8739C22.4603 15.3688 21.3102 16.5189 21.3102 17.9325V21.1912C21.3102 22.6048 22.4603 23.7549 23.8739 23.7549H33.2637C34.6774 23.7549 35.8275 22.6048 35.8275 21.1912ZM34.7142 21.1912C34.7142 21.991 34.0633 22.6416 33.2634 22.6416H23.8739C23.074 22.6416 22.4234 21.991 22.4234 21.1912V17.9325C22.4234 17.1329 23.074 16.482 23.8739 16.482H33.2637C34.0633 16.482 34.7142 17.1329 34.7142 17.9325V21.1912Z"/>
<path d="M30.3274 35.2181H29.4176C29.1851 32.5711 27.3105 30.3237 24.7404 29.6296C24.569 27.8333 23.7642 26.173 22.4463 24.9168C21.0491 23.5846 19.2244 22.8514 17.2962 22.8441L12.7596 10.3809C13.8615 9.25283 14.3854 7.63626 14.1352 6.07157C14.0749 5.69584 13.852 5.3694 13.5235 5.17631C13.1947 4.98294 12.8007 4.9467 12.4424 5.07716L5.51598 7.59828C5.15764 7.72874 4.87903 8.00967 4.75146 8.36917C4.6239 8.72808 4.66304 9.1215 4.85844 9.44824C5.67253 10.8074 7.11255 11.709 8.68158 11.865L13.1309 24.0905C12.2513 24.6747 11.4891 25.4488 10.9038 26.3794C10.74 26.6397 10.8183 26.9833 11.0786 27.1471C11.3387 27.3106 11.6822 27.2323 11.846 26.9723C14.0274 23.5043 18.7681 22.9482 21.6783 25.7224C22.889 26.8769 23.5914 28.4311 23.6567 30.0993C23.6665 30.3568 23.8518 30.5736 24.1046 30.6238C26.5521 31.1091 28.3287 33.2756 28.329 35.775C28.329 36.0823 28.578 36.3317 28.8856 36.3317H30.3274C31.1928 36.3317 31.8967 37.0356 31.8967 37.9007V39.0241H5.11328V37.9007C5.11328 37.0356 5.8172 36.3317 6.68231 36.3317H7.73848C8.04579 36.3317 8.29512 36.0823 8.29512 35.775C8.29512 34.3153 9.27794 33.0266 10.6852 32.6413C10.9789 32.561 11.1534 32.2595 11.0769 31.9649C10.9142 31.3384 10.8478 30.6893 10.8794 30.0355C10.8986 29.6401 10.9554 29.2449 11.0479 28.8614C11.1201 28.5628 10.936 28.2621 10.6374 28.1899C10.3385 28.118 10.0378 28.3015 9.96562 28.6004C9.8569 29.0518 9.79022 29.5166 9.76761 29.9816C9.73891 30.5739 9.77892 31.163 9.88676 31.7397C8.44153 32.3337 7.41783 33.6691 7.21779 35.2184H6.6826C5.20345 35.2181 4 36.4215 4 37.9007V39.3349C4 39.7773 4.36008 40.1371 4.80249 40.1371H32.2075C32.6499 40.1371 33.01 39.7773 33.01 39.3349V37.9007C33.01 36.4215 31.8065 35.2181 30.3274 35.2181ZM5.81372 8.87623C5.78038 8.82057 5.79111 8.7678 5.80038 8.74142C5.80995 8.71475 5.83488 8.66662 5.89664 8.6443L12.823 6.12318C12.9173 6.08868 13.0199 6.14898 13.0358 6.24755C13.3298 8.08534 12.2809 9.89326 10.5081 10.5383C10.05 10.705 9.57307 10.7836 9.09152 10.7752C7.75471 10.7482 6.49879 10.0205 5.81372 8.87623ZM9.85806 11.8415C10.208 11.7928 10.5527 11.707 10.889 11.5846C11.2256 11.4623 11.5448 11.3063 11.8437 11.119L16.142 22.9285C15.4352 23.0352 14.7536 23.2422 14.1149 23.5391L9.85806 11.8415Z"/>
<path d="M21.6907 33.6905C21.9211 33.5348 22.1908 33.4525 22.4705 33.4525C23.2403 33.4525 23.8665 34.0787 23.8665 34.8485C23.8665 35.1558 24.1158 35.4051 24.4231 35.4051C24.7307 35.4051 24.9798 35.1558 24.9798 34.8485C24.9798 33.4647 23.8543 32.3392 22.4705 32.3392C21.9678 32.3392 21.4825 32.4874 21.0673 32.768C20.8128 32.9402 20.7458 33.2861 20.9177 33.5409C21.09 33.7955 21.4358 33.8624 21.6907 33.6905Z"/>
<path d="M11.6815 34.8716C11.4957 35.1166 11.5438 35.4656 11.789 35.6512C11.8894 35.7274 12.0074 35.7642 12.1245 35.7642C12.2929 35.7642 12.4593 35.6883 12.5686 35.5436C12.8087 35.227 13.1737 35.0455 13.5706 35.0455C13.8773 35.0455 14.1728 35.1571 14.4024 35.3601C14.6326 35.5639 14.9842 35.5422 15.1878 35.312C15.3916 35.0818 15.3701 34.7301 15.1396 34.5263C14.7065 34.1433 14.1493 33.9322 13.5706 33.9322C12.8223 33.9322 12.1338 34.2746 11.6815 34.8716Z"/>
<path d="M15.3434 29.2211C15.555 29.2211 15.7571 29.0996 15.8505 28.8946C15.9134 28.7558 16.003 28.6322 16.1163 28.5279C16.579 28.1014 17.3024 28.1313 17.7289 28.594C17.937 28.8198 18.2893 28.8343 18.5154 28.6262C18.7415 28.4177 18.756 28.0658 18.5476 27.8396C17.7054 26.9255 16.2764 26.867 15.362 27.7092C15.1384 27.9153 14.9616 28.1591 14.8369 28.4342C14.7096 28.7143 14.8337 29.0442 15.1135 29.1712C15.1883 29.2051 15.2663 29.2211 15.3434 29.2211Z"/>
</mask>
<path d="M17.6215 11.412C16.8588 12.7445 16.2349 14.5652 15.8046 16.725C15.7446 17.0266 15.9403 17.3197 16.2421 17.3797C16.2786 17.3869 16.3152 17.3904 16.3514 17.3904C16.6115 17.3904 16.844 17.2072 16.8967 16.9425C17.3577 14.6272 18.0399 12.7482 18.8696 11.5086C18.9592 11.3746 18.9865 11.2082 18.9441 11.0525C18.9018 10.8971 18.7943 10.7675 18.6487 10.6974C18.4968 10.6243 18.3452 10.5443 18.1985 10.4596C17.2884 9.93518 16.915 9.45305 16.7622 9.14052C16.6013 8.81176 16.6016 8.50299 16.7628 8.22322C17.1446 7.56076 18.137 7.60599 19.4176 8.34354C19.9617 8.65723 20.4479 9.03499 20.8237 9.43566C20.9765 9.59859 21.2116 9.65454 21.4215 9.57772C25.095 8.23047 32.042 8.23047 35.7161 9.57772C35.9257 9.65454 36.1611 9.59888 36.3139 9.43566C36.6897 9.03499 37.1759 8.65723 37.72 8.34354C38.6301 7.81937 39.2348 7.73877 39.581 7.76255C39.9463 7.78835 40.2133 7.94316 40.3748 8.22322C40.7563 8.88568 40.2197 9.72152 38.9391 10.4594C38.7919 10.5443 38.6402 10.6246 38.4886 10.6974C38.3433 10.7675 38.2358 10.8971 38.1932 11.0525C38.1508 11.2082 38.1781 11.3746 38.2677 11.5086C38.9241 12.4891 39.9364 15.9044 40.3748 17.5899C40.4522 17.8874 40.7024 17.6668 41.0001 17.5899C41.2976 17.5125 41.5775 17.8874 41.5001 17.5899C41.1018 16.0586 40.1002 12.4285 39.5164 11.4117C41.7151 10.1358 41.9009 8.64186 41.3391 7.66745C40.9917 7.06443 40.3951 6.70377 39.659 6.65216C38.9293 6.60143 38.0903 6.84554 37.1643 7.37928C36.643 7.67963 36.1638 8.03362 35.7608 8.41457C31.8739 7.12676 25.2635 7.12676 21.3768 8.41457C20.9736 8.03362 20.4946 7.67963 19.9731 7.37928C17.754 6.10045 16.3616 6.68956 15.7982 7.66745C15.4506 8.27048 15.4379 8.96744 15.7623 9.63019C16.0815 10.2819 16.7068 10.8812 17.6215 11.412Z" stroke="none"/>
<path d="M41.4839 17.5427C41.432 17.2398 41.1447 17.0362 40.8414 17.0876C40.5385 17.1395 40.3347 17.4271 40.3866 17.73C41.5248 24.4004 40.6745 32.1427 38.4508 35.3561C38.3595 35.4877 38.3296 35.6521 38.3685 35.8075C38.4073 35.9629 38.5111 36.0939 38.6532 36.1676C38.7517 36.2183 38.848 36.2708 38.9393 36.3233C40.2199 37.0614 40.7565 37.8972 40.375 38.5597C40.2135 38.8397 39.9465 38.9946 39.5812 39.0204C39.2344 39.0447 38.6303 38.9635 37.7202 38.4391C37.1955 38.1367 36.7226 37.7731 36.3527 37.3878C36.2025 37.2316 35.9755 37.1765 35.7705 37.2466C35.4041 37.3722 34.9985 37.4887 34.5653 37.5928C34.2661 37.6647 34.082 37.9651 34.1539 38.264C34.2255 38.5629 34.5259 38.7467 34.8248 38.6754C35.1675 38.593 35.4948 38.5034 35.8024 38.4075C36.197 38.7736 36.662 39.1143 37.1644 39.4036C38.0104 39.8913 38.7839 40.1377 39.4672 40.1374C39.5319 40.1374 39.596 40.1354 39.6592 40.1307C40.3953 40.0791 40.9919 39.7185 41.3395 39.1154C41.8857 38.1677 41.7251 36.7289 39.6931 35.477C41.0128 33.2359 41.5723 30.0721 41.8092 27.7304C42.1481 24.3778 42.0327 20.7596 41.4839 17.5427Z" stroke="none"/>
<path d="M35.8275 21.1912V17.9325C35.8275 16.5189 34.6774 15.3688 33.2634 15.3688H23.8739C22.4603 15.3688 21.3102 16.5189 21.3102 17.9325V21.1912C21.3102 22.6048 22.4603 23.7549 23.8739 23.7549H33.2637C34.6774 23.7549 35.8275 22.6048 35.8275 21.1912ZM34.7142 21.1912C34.7142 21.991 34.0633 22.6416 33.2634 22.6416H23.8739C23.074 22.6416 22.4234 21.991 22.4234 21.1912V17.9325C22.4234 17.1329 23.074 16.482 23.8739 16.482H33.2637C34.0633 16.482 34.7142 17.1329 34.7142 17.9325V21.1912Z" stroke="none"/>
<path d="M30.3274 35.2181H29.4176C29.1851 32.5711 27.3105 30.3237 24.7404 29.6296C24.569 27.8333 23.7642 26.173 22.4463 24.9168C21.0491 23.5846 19.2244 22.8514 17.2962 22.8441L12.7596 10.3809C13.8615 9.25283 14.3854 7.63626 14.1352 6.07157C14.0749 5.69584 13.852 5.3694 13.5235 5.17631C13.1947 4.98294 12.8007 4.9467 12.4424 5.07716L5.51598 7.59828C5.15764 7.72874 4.87903 8.00967 4.75146 8.36917C4.6239 8.72808 4.66304 9.1215 4.85844 9.44824C5.67253 10.8074 7.11255 11.709 8.68158 11.865L13.1309 24.0905C12.2513 24.6747 11.4891 25.4488 10.9038 26.3794C10.74 26.6397 10.8183 26.9833 11.0786 27.1471C11.3387 27.3106 11.6822 27.2323 11.846 26.9723C14.0274 23.5043 18.7681 22.9482 21.6783 25.7224C22.889 26.8769 23.5914 28.4311 23.6567 30.0993C23.6665 30.3568 23.8518 30.5736 24.1046 30.6238C26.5521 31.1091 28.3287 33.2756 28.329 35.775C28.329 36.0823 28.578 36.3317 28.8856 36.3317H30.3274C31.1928 36.3317 31.8967 37.0356 31.8967 37.9007V39.0241H5.11328V37.9007C5.11328 37.0356 5.8172 36.3317 6.68231 36.3317H7.73848C8.04579 36.3317 8.29512 36.0823 8.29512 35.775C8.29512 34.3153 9.27794 33.0266 10.6852 32.6413C10.9789 32.561 11.1534 32.2595 11.0769 31.9649C10.9142 31.3384 10.8478 30.6893 10.8794 30.0355C10.8986 29.6401 10.9554 29.2449 11.0479 28.8614C11.1201 28.5628 10.936 28.2621 10.6374 28.1899C10.3385 28.118 10.0378 28.3015 9.96562 28.6004C9.8569 29.0518 9.79022 29.5166 9.76761 29.9816C9.73891 30.5739 9.77892 31.163 9.88676 31.7397C8.44153 32.3337 7.41783 33.6691 7.21779 35.2184H6.6826C5.20345 35.2181 4 36.4215 4 37.9007V39.3349C4 39.7773 4.36008 40.1371 4.80249 40.1371H32.2075C32.6499 40.1371 33.01 39.7773 33.01 39.3349V37.9007C33.01 36.4215 31.8065 35.2181 30.3274 35.2181ZM5.81372 8.87623C5.78038 8.82057 5.79111 8.7678 5.80038 8.74142C5.80995 8.71475 5.83488 8.66662 5.89664 8.6443L12.823 6.12318C12.9173 6.08868 13.0199 6.14898 13.0358 6.24755C13.3298 8.08534 12.2809 9.89326 10.5081 10.5383C10.05 10.705 9.57307 10.7836 9.09152 10.7752C7.75471 10.7482 6.49879 10.0205 5.81372 8.87623ZM9.85806 11.8415C10.208 11.7928 10.5527 11.707 10.889 11.5846C11.2256 11.4623 11.5448 11.3063 11.8437 11.119L16.142 22.9285C15.4352 23.0352 14.7536 23.2422 14.1149 23.5391L9.85806 11.8415Z" stroke="none"/>
<path d="M21.6907 33.6905C21.9211 33.5348 22.1908 33.4525 22.4705 33.4525C23.2403 33.4525 23.8665 34.0787 23.8665 34.8485C23.8665 35.1558 24.1158 35.4051 24.4231 35.4051C24.7307 35.4051 24.9798 35.1558 24.9798 34.8485C24.9798 33.4647 23.8543 32.3392 22.4705 32.3392C21.9678 32.3392 21.4825 32.4874 21.0673 32.768C20.8128 32.9402 20.7458 33.2861 20.9177 33.5409C21.09 33.7955 21.4358 33.8624 21.6907 33.6905Z" stroke="none"/>
<path d="M11.6815 34.8716C11.4957 35.1166 11.5438 35.4656 11.789 35.6512C11.8894 35.7274 12.0074 35.7642 12.1245 35.7642C12.2929 35.7642 12.4593 35.6883 12.5686 35.5436C12.8087 35.227 13.1737 35.0455 13.5706 35.0455C13.8773 35.0455 14.1728 35.1571 14.4024 35.3601C14.6326 35.5639 14.9842 35.5422 15.1878 35.312C15.3916 35.0818 15.3701 34.7301 15.1396 34.5263C14.7065 34.1433 14.1493 33.9322 13.5706 33.9322C12.8223 33.9322 12.1338 34.2746 11.6815 34.8716Z" stroke="none"/>
<path d="M15.3434 29.2211C15.555 29.2211 15.7571 29.0996 15.8505 28.8946C15.9134 28.7558 16.003 28.6322 16.1163 28.5279C16.579 28.1014 17.3024 28.1313 17.7289 28.594C17.937 28.8198 18.2893 28.8343 18.5154 28.6262C18.7415 28.4177 18.756 28.0658 18.5476 27.8396C17.7054 26.9255 16.2764 26.867 15.362 27.7092C15.1384 27.9153 14.9616 28.1591 14.8369 28.4342C14.7096 28.7143 14.8337 29.0442 15.1135 29.1712C15.1883 29.2051 15.2663 29.2211 15.3434 29.2211Z" stroke="none"/>
<path d="M17.6215 11.412C16.8588 12.7445 16.2349 14.5652 15.8046 16.725C15.7446 17.0266 15.9403 17.3197 16.2421 17.3797C16.2786 17.3869 16.3152 17.3904 16.3514 17.3904C16.6115 17.3904 16.844 17.2072 16.8967 16.9425C17.3577 14.6272 18.0399 12.7482 18.8696 11.5086C18.9592 11.3746 18.9865 11.2082 18.9441 11.0525C18.9018 10.8971 18.7943 10.7675 18.6487 10.6974C18.4968 10.6243 18.3452 10.5443 18.1985 10.4596C17.2884 9.93518 16.915 9.45305 16.7622 9.14052C16.6013 8.81176 16.6016 8.50299 16.7628 8.22322C17.1446 7.56076 18.137 7.60599 19.4176 8.34354C19.9617 8.65723 20.4479 9.03499 20.8237 9.43566C20.9765 9.59859 21.2116 9.65454 21.4215 9.57772C25.095 8.23047 32.042 8.23047 35.7161 9.57772C35.9257 9.65454 36.1611 9.59888 36.3139 9.43566C36.6897 9.03499 37.1759 8.65723 37.72 8.34354C38.6301 7.81937 39.2348 7.73877 39.581 7.76255C39.9463 7.78835 40.2133 7.94316 40.3748 8.22322C40.7563 8.88568 40.2197 9.72152 38.9391 10.4594C38.7919 10.5443 38.6402 10.6246 38.4886 10.6974C38.3433 10.7675 38.2358 10.8971 38.1932 11.0525C38.1508 11.2082 38.1781 11.3746 38.2677 11.5086C38.9241 12.4891 39.9364 15.9044 40.3748 17.5899C40.4522 17.8874 40.7024 17.6668 41.0001 17.5899C41.2976 17.5125 41.5775 17.8874 41.5001 17.5899C41.1018 16.0586 40.1002 12.4285 39.5164 11.4117C41.7151 10.1358 41.9009 8.64186 41.3391 7.66745C40.9917 7.06443 40.3951 6.70377 39.659 6.65216C38.9293 6.60143 38.0903 6.84554 37.1643 7.37928C36.643 7.67963 36.1638 8.03362 35.7608 8.41457C31.8739 7.12676 25.2635 7.12676 21.3768 8.41457C20.9736 8.03362 20.4946 7.67963 19.9731 7.37928C17.754 6.10045 16.3616 6.68956 15.7982 7.66745C15.4506 8.27048 15.4379 8.96744 15.7623 9.63019C16.0815 10.2819 16.7068 10.8812 17.6215 11.412Z" fill="none" stroke-width="0.2" mask="url(#path-1-outside-1)"/>
<path d="M41.4839 17.5427C41.432 17.2398 41.1447 17.0362 40.8414 17.0876C40.5385 17.1395 40.3347 17.4271 40.3866 17.73C41.5248 24.4004 40.6745 32.1427 38.4508 35.3561C38.3595 35.4877 38.3296 35.6521 38.3685 35.8075C38.4073 35.9629 38.5111 36.0939 38.6532 36.1676C38.7517 36.2183 38.848 36.2708 38.9393 36.3233C40.2199 37.0614 40.7565 37.8972 40.375 38.5597C40.2135 38.8397 39.9465 38.9946 39.5812 39.0204C39.2344 39.0447 38.6303 38.9635 37.7202 38.4391C37.1955 38.1367 36.7226 37.7731 36.3527 37.3878C36.2025 37.2316 35.9755 37.1765 35.7705 37.2466C35.4041 37.3722 34.9985 37.4887 34.5653 37.5928C34.2661 37.6647 34.082 37.9651 34.1539 38.264C34.2255 38.5629 34.5259 38.7467 34.8248 38.6754C35.1675 38.593 35.4948 38.5034 35.8024 38.4075C36.197 38.7736 36.662 39.1143 37.1644 39.4036C38.0104 39.8913 38.7839 40.1377 39.4672 40.1374C39.5319 40.1374 39.596 40.1354 39.6592 40.1307C40.3953 40.0791 40.9919 39.7185 41.3395 39.1154C41.8857 38.1677 41.7251 36.7289 39.6931 35.477C41.0128 33.2359 41.5723 30.0721 41.8092 27.7304C42.1481 24.3778 42.0327 20.7596 41.4839 17.5427Z" fill="none" stroke-width="0.2" mask="url(#path-1-outside-1)"/>
<path d="M35.8275 21.1912V17.9325C35.8275 16.5189 34.6774 15.3688 33.2634 15.3688H23.8739C22.4603 15.3688 21.3102 16.5189 21.3102 17.9325V21.1912C21.3102 22.6048 22.4603 23.7549 23.8739 23.7549H33.2637C34.6774 23.7549 35.8275 22.6048 35.8275 21.1912ZM34.7142 21.1912C34.7142 21.991 34.0633 22.6416 33.2634 22.6416H23.8739C23.074 22.6416 22.4234 21.991 22.4234 21.1912V17.9325C22.4234 17.1329 23.074 16.482 23.8739 16.482H33.2637C34.0633 16.482 34.7142 17.1329 34.7142 17.9325V21.1912Z" fill="none" stroke-width="0.2" mask="url(#path-1-outside-1)"/>
<path d="M30.3274 35.2181H29.4176C29.1851 32.5711 27.3105 30.3237 24.7404 29.6296C24.569 27.8333 23.7642 26.173 22.4463 24.9168C21.0491 23.5846 19.2244 22.8514 17.2962 22.8441L12.7596 10.3809C13.8615 9.25283 14.3854 7.63626 14.1352 6.07157C14.0749 5.69584 13.852 5.3694 13.5235 5.17631C13.1947 4.98294 12.8007 4.9467 12.4424 5.07716L5.51598 7.59828C5.15764 7.72874 4.87903 8.00967 4.75146 8.36917C4.6239 8.72808 4.66304 9.1215 4.85844 9.44824C5.67253 10.8074 7.11255 11.709 8.68158 11.865L13.1309 24.0905C12.2513 24.6747 11.4891 25.4488 10.9038 26.3794C10.74 26.6397 10.8183 26.9833 11.0786 27.1471C11.3387 27.3106 11.6822 27.2323 11.846 26.9723C14.0274 23.5043 18.7681 22.9482 21.6783 25.7224C22.889 26.8769 23.5914 28.4311 23.6567 30.0993C23.6665 30.3568 23.8518 30.5736 24.1046 30.6238C26.5521 31.1091 28.3287 33.2756 28.329 35.775C28.329 36.0823 28.578 36.3317 28.8856 36.3317H30.3274C31.1928 36.3317 31.8967 37.0356 31.8967 37.9007V39.0241H5.11328V37.9007C5.11328 37.0356 5.8172 36.3317 6.68231 36.3317H7.73848C8.04579 36.3317 8.29512 36.0823 8.29512 35.775C8.29512 34.3153 9.27794 33.0266 10.6852 32.6413C10.9789 32.561 11.1534 32.2595 11.0769 31.9649C10.9142 31.3384 10.8478 30.6893 10.8794 30.0355C10.8986 29.6401 10.9554 29.2449 11.0479 28.8614C11.1201 28.5628 10.936 28.2621 10.6374 28.1899C10.3385 28.118 10.0378 28.3015 9.96562 28.6004C9.8569 29.0518 9.79022 29.5166 9.76761 29.9816C9.73891 30.5739 9.77892 31.163 9.88676 31.7397C8.44153 32.3337 7.41783 33.6691 7.21779 35.2184H6.6826C5.20345 35.2181 4 36.4215 4 37.9007V39.3349C4 39.7773 4.36008 40.1371 4.80249 40.1371H32.2075C32.6499 40.1371 33.01 39.7773 33.01 39.3349V37.9007C33.01 36.4215 31.8065 35.2181 30.3274 35.2181ZM5.81372 8.87623C5.78038 8.82057 5.79111 8.7678 5.80038 8.74142C5.80995 8.71475 5.83488 8.66662 5.89664 8.6443L12.823 6.12318C12.9173 6.08868 13.0199 6.14898 13.0358 6.24755C13.3298 8.08534 12.2809 9.89326 10.5081 10.5383C10.05 10.705 9.57307 10.7836 9.09152 10.7752C7.75471 10.7482 6.49879 10.0205 5.81372 8.87623ZM9.85806 11.8415C10.208 11.7928 10.5527 11.707 10.889 11.5846C11.2256 11.4623 11.5448 11.3063 11.8437 11.119L16.142 22.9285C15.4352 23.0352 14.7536 23.2422 14.1149 23.5391L9.85806 11.8415Z" fill="none" stroke-width="0.2" mask="url(#path-1-outside-1)"/>
<path d="M21.6907 33.6905C21.9211 33.5348 22.1908 33.4525 22.4705 33.4525C23.2403 33.4525 23.8665 34.0787 23.8665 34.8485C23.8665 35.1558 24.1158 35.4051 24.4231 35.4051C24.7307 35.4051 24.9798 35.1558 24.9798 34.8485C24.9798 33.4647 23.8543 32.3392 22.4705 32.3392C21.9678 32.3392 21.4825 32.4874 21.0673 32.768C20.8128 32.9402 20.7458 33.2861 20.9177 33.5409C21.09 33.7955 21.4358 33.8624 21.6907 33.6905Z" fill="none" stroke-width="0.2" mask="url(#path-1-outside-1)"/>
<path d="M11.6815 34.8716C11.4957 35.1166 11.5438 35.4656 11.789 35.6512C11.8894 35.7274 12.0074 35.7642 12.1245 35.7642C12.2929 35.7642 12.4593 35.6883 12.5686 35.5436C12.8087 35.227 13.1737 35.0455 13.5706 35.0455C13.8773 35.0455 14.1728 35.1571 14.4024 35.3601C14.6326 35.5639 14.9842 35.5422 15.1878 35.312C15.3916 35.0818 15.3701 34.7301 15.1396 34.5263C14.7065 34.1433 14.1493 33.9322 13.5706 33.9322C12.8223 33.9322 12.1338 34.2746 11.6815 34.8716Z" fill="none" stroke-width="0.2" mask="url(#path-1-outside-1)"/>
<path d="M15.3434 29.2211C15.555 29.2211 15.7571 29.0996 15.8505 28.8946C15.9134 28.7558 16.003 28.6322 16.1163 28.5279C16.579 28.1014 17.3024 28.1313 17.7289 28.594C17.937 28.8198 18.2893 28.8343 18.5154 28.6262C18.7415 28.4177 18.756 28.0658 18.5476 27.8396C17.7054 26.9255 16.2764 26.867 15.362 27.7092C15.1384 27.9153 14.9616 28.1591 14.8369 28.4342C14.7096 28.7143 14.8337 29.0442 15.1135 29.1712C15.1883 29.2051 15.2663 29.2211 15.3434 29.2211Z" fill="none" stroke-width="0.2" mask="url(#path-1-outside-1)"/>
</svg>
